<svg width="560" height="797" viewBox="0 0 560 797" fill="none" xmlns="http://www.w3.org/2000/svg">
<path d="M495.06 398.068L482.974 332.193L437.653 50.7273H103.119H90.1901L93.2115 56.7159L102.276 62.7045L56.9545 538.801L62.9645 783L71.5 775.352L86.5 778.347L101 786L103 769L105 754.392L110.287 742.415C114.5 730.5 116.5 725 129.469 721V735V754.392L132.49 775.352L144 786L153.64 796.312H164L175 794V787.5L188 783L192.5 773.5L198.961 769L192.5 761L189.897 753L194.5 730.5L180.833 718.5L165.726 700.5L169.5 682.528H179.586L513.188 679.534L501.103 649.591L507.146 610.665V580.722L501.103 553.773L507.146 517.841L516.21 502.869L528.295 484.903L516.21 472.926V448.972L495.06 398.068Z" fill="#97DCFF" fill-opacity="0.31"/>
<path d="M437.653 53.7216V50.7273M437.653 50.7273L482.974 332.193L495.06 398.068L516.21 448.972V472.926L528.295 484.903L516.21 502.869L507.146 517.841L501.103 553.773L507.146 580.722V610.665L501.103 649.591L513.188 679.534L179.586 682.528H169.5L165.726 700.5L180.833 718.5L194.5 730.5L189.897 753L192.5 761L198.961 769L192.5 773.5L188 783L175 787.5V794L164 796.312H153.64L144 786L132.49 775.352L129.469 754.392V735V721C116.5 725 114.5 730.5 110.287 742.415L105 754.392L103 769L101 786L86.5 778.347L71.5 775.352L62.9645 783L56.9545 538.801L102.276 62.7045L93.2115 56.7159L90.1901 50.7273H103.119H437.653Z" stroke="white" stroke-width="0.5"/>
<circle cx="172.148" cy="335.011" r="9.01136" fill="#FFE587" stroke="black"/>
<circle cx="273.602" cy="284.284" r="9.01136" fill="#FFE587" stroke="black"/>
<path d="M108.889 359.749V357.795H122.526V359.749H116.808V375.977H114.607V359.749H108.889ZM132.378 370.402V362.341H134.473V375.977H132.378V373.669H132.236C131.916 374.361 131.419 374.95 130.744 375.436C130.07 375.915 129.217 376.155 128.187 376.155C127.335 376.155 126.578 375.968 125.915 375.596C125.252 375.217 124.731 374.649 124.352 373.891C123.973 373.127 123.784 372.166 123.784 371.006V362.341H125.879V370.864C125.879 371.858 126.157 372.651 126.714 373.243C127.276 373.835 127.992 374.131 128.862 374.131C129.383 374.131 129.913 373.998 130.451 373.731C130.996 373.465 131.452 373.056 131.818 372.506C132.191 371.956 132.378 371.254 132.378 370.402ZM147.969 365.395L146.087 365.928C145.969 365.614 145.794 365.309 145.564 365.013C145.339 364.711 145.031 364.463 144.64 364.267C144.25 364.072 143.75 363.974 143.14 363.974C142.305 363.974 141.61 364.167 141.054 364.551C140.503 364.93 140.228 365.413 140.228 365.999C140.228 366.519 140.417 366.931 140.796 367.233C141.175 367.534 141.767 367.786 142.572 367.987L144.596 368.484C145.815 368.78 146.724 369.233 147.321 369.843C147.919 370.446 148.218 371.225 148.218 372.178C148.218 372.959 147.993 373.657 147.543 374.273C147.099 374.888 146.478 375.374 145.679 375.729C144.88 376.084 143.951 376.261 142.891 376.261C141.5 376.261 140.349 375.96 139.438 375.356C138.526 374.752 137.949 373.87 137.707 372.71L139.695 372.213C139.885 372.947 140.243 373.497 140.77 373.864C141.302 374.231 141.998 374.415 142.856 374.415C143.832 374.415 144.608 374.208 145.182 373.793C145.762 373.373 146.052 372.87 146.052 372.284C146.052 371.811 145.886 371.414 145.555 371.094C145.223 370.769 144.714 370.526 144.028 370.366L141.755 369.834C140.506 369.538 139.589 369.079 139.003 368.458C138.423 367.83 138.133 367.046 138.133 366.105C138.133 365.336 138.349 364.655 138.781 364.063C139.219 363.471 139.814 363.007 140.565 362.669C141.323 362.332 142.181 362.163 143.14 362.163C144.489 362.163 145.549 362.459 146.318 363.051C147.094 363.643 147.644 364.424 147.969 365.395ZM156.912 376.261C155.633 376.261 154.532 375.96 153.609 375.356C152.686 374.752 151.976 373.921 151.478 372.861C150.981 371.802 150.733 370.591 150.733 369.23C150.733 367.845 150.987 366.623 151.496 365.564C152.011 364.498 152.727 363.667 153.645 363.069C154.568 362.465 155.645 362.163 156.876 362.163C157.835 362.163 158.699 362.341 159.468 362.696C160.238 363.051 160.868 363.548 161.359 364.187C161.851 364.827 162.156 365.572 162.274 366.425H160.179C160.019 365.803 159.664 365.253 159.113 364.773C158.569 364.288 157.835 364.045 156.912 364.045C156.095 364.045 155.379 364.259 154.763 364.685C154.154 365.105 153.677 365.7 153.334 366.469C152.997 367.233 152.828 368.129 152.828 369.159C152.828 370.213 152.994 371.13 153.325 371.911C153.662 372.692 154.136 373.299 154.745 373.731C155.361 374.163 156.083 374.379 156.912 374.379C157.456 374.379 157.95 374.285 158.394 374.095C158.838 373.906 159.214 373.634 159.522 373.278C159.83 372.923 160.049 372.497 160.179 372H162.274C162.156 372.805 161.863 373.53 161.395 374.175C160.933 374.814 160.321 375.323 159.557 375.702C158.8 376.075 157.918 376.261 156.912 376.261ZM169.35 376.297C168.485 376.297 167.701 376.134 166.997 375.809C166.293 375.477 165.733 375.001 165.319 374.379C164.905 373.752 164.698 372.994 164.698 372.107C164.698 371.325 164.851 370.692 165.159 370.207C165.467 369.715 165.878 369.331 166.393 369.053C166.908 368.774 167.476 368.567 168.098 368.431C168.725 368.289 169.355 368.177 169.989 368.094C170.817 367.987 171.489 367.907 172.004 367.854C172.525 367.795 172.904 367.697 173.14 367.561C173.383 367.425 173.504 367.188 173.504 366.851V366.78C173.504 365.904 173.265 365.223 172.785 364.738C172.312 364.253 171.593 364.01 170.628 364.01C169.628 364.01 168.843 364.229 168.275 364.667C167.707 365.105 167.308 365.572 167.077 366.07L165.088 365.359C165.443 364.531 165.917 363.886 166.509 363.424C167.106 362.956 167.757 362.631 168.462 362.447C169.172 362.258 169.87 362.163 170.557 362.163C170.995 362.163 171.498 362.217 172.066 362.323C172.64 362.424 173.194 362.634 173.726 362.953C174.265 363.273 174.712 363.755 175.067 364.401C175.422 365.046 175.6 365.91 175.6 366.993V375.977H173.504V374.131H173.398C173.256 374.427 173.019 374.743 172.688 375.081C172.356 375.418 171.915 375.705 171.365 375.942C170.814 376.178 170.143 376.297 169.35 376.297ZM169.669 374.415C170.498 374.415 171.196 374.252 171.764 373.926C172.338 373.601 172.77 373.181 173.06 372.666C173.356 372.151 173.504 371.609 173.504 371.041V369.124C173.416 369.23 173.22 369.328 172.918 369.417C172.622 369.499 172.279 369.573 171.889 369.638C171.504 369.698 171.128 369.751 170.761 369.798C170.4 369.84 170.107 369.875 169.882 369.905C169.338 369.976 168.829 370.091 168.355 370.251C167.888 370.405 167.509 370.639 167.219 370.952C166.935 371.26 166.793 371.68 166.793 372.213C166.793 372.941 167.062 373.491 167.601 373.864C168.145 374.231 168.835 374.415 169.669 374.415ZM181.519 357.795V375.977H179.424V357.795H181.519ZM190.896 376.261C189.665 376.261 188.585 375.968 187.656 375.382C186.732 374.797 186.01 373.977 185.489 372.923C184.975 371.87 184.717 370.639 184.717 369.23C184.717 367.81 184.975 366.57 185.489 365.51C186.01 364.451 186.732 363.628 187.656 363.042C188.585 362.456 189.665 362.163 190.896 362.163C192.127 362.163 193.204 362.456 194.128 363.042C195.057 363.628 195.779 364.451 196.294 365.51C196.815 366.57 197.075 367.81 197.075 369.23C197.075 370.639 196.815 371.87 196.294 372.923C195.779 373.977 195.057 374.797 194.128 375.382C193.204 375.968 192.127 376.261 190.896 376.261ZM190.896 374.379C191.831 374.379 192.601 374.14 193.204 373.66C193.808 373.181 194.255 372.55 194.545 371.769C194.835 370.988 194.98 370.142 194.98 369.23C194.98 368.319 194.835 367.469 194.545 366.682C194.255 365.895 193.808 365.259 193.204 364.773C192.601 364.288 191.831 364.045 190.896 364.045C189.961 364.045 189.192 364.288 188.588 364.773C187.984 365.259 187.537 365.895 187.247 366.682C186.957 367.469 186.812 368.319 186.812 369.23C186.812 370.142 186.957 370.988 187.247 371.769C187.537 372.55 187.984 373.181 188.588 373.66C189.192 374.14 189.961 374.379 190.896 374.379ZM205.813 376.261C204.582 376.261 203.502 375.968 202.573 375.382C201.649 374.797 200.927 373.977 200.406 372.923C199.892 371.87 199.634 370.639 199.634 369.23C199.634 367.81 199.892 366.57 200.406 365.51C200.927 364.451 201.649 363.628 202.573 363.042C203.502 362.456 204.582 362.163 205.813 362.163C207.044 362.163 208.121 362.456 209.045 363.042C209.974 363.628 210.696 364.451 211.211 365.51C211.732 366.57 211.992 367.81 211.992 369.23C211.992 370.639 211.732 371.87 211.211 372.923C210.696 373.977 209.974 374.797 209.045 375.382C208.121 375.968 207.044 376.261 205.813 376.261ZM205.813 374.379C206.748 374.379 207.518 374.14 208.121 373.66C208.725 373.181 209.172 372.55 209.462 371.769C209.752 370.988 209.897 370.142 209.897 369.23C209.897 368.319 209.752 367.469 209.462 366.682C209.172 365.895 208.725 365.259 208.121 364.773C207.518 364.288 206.748 364.045 205.813 364.045C204.878 364.045 204.108 364.288 203.505 364.773C202.901 365.259 202.454 365.895 202.164 366.682C201.874 367.469 201.729 368.319 201.729 369.23C201.729 370.142 201.874 370.988 202.164 371.769C202.454 372.55 202.901 373.181 203.505 373.66C204.108 374.14 204.878 374.379 205.813 374.379ZM224.849 365.395L222.967 365.928C222.849 365.614 222.674 365.309 222.443 365.013C222.219 364.711 221.911 364.463 221.52 364.267C221.13 364.072 220.629 363.974 220.02 363.974C219.185 363.974 218.49 364.167 217.934 364.551C217.383 364.93 217.108 365.413 217.108 365.999C217.108 366.519 217.297 366.931 217.676 367.233C218.055 367.534 218.647 367.786 219.452 367.987L221.476 368.484C222.695 368.78 223.603 369.233 224.201 369.843C224.799 370.446 225.098 371.225 225.098 372.178C225.098 372.959 224.873 373.657 224.423 374.273C223.979 374.888 223.358 375.374 222.559 375.729C221.76 376.084 220.831 376.261 219.771 376.261C218.38 376.261 217.229 375.96 216.318 375.356C215.406 374.752 214.829 373.87 214.587 372.71L216.575 372.213C216.765 372.947 217.123 373.497 217.649 373.864C218.182 374.231 218.878 374.415 219.736 374.415C220.712 374.415 221.488 374.208 222.062 373.793C222.642 373.373 222.932 372.87 222.932 372.284C222.932 371.811 222.766 371.414 222.435 371.094C222.103 370.769 221.594 370.526 220.908 370.366L218.635 369.834C217.386 369.538 216.469 369.079 215.883 368.458C215.303 367.83 215.013 367.046 215.013 366.105C215.013 365.336 215.229 364.655 215.661 364.063C216.099 363.471 216.694 363.007 217.445 362.669C218.203 362.332 219.061 362.163 220.02 362.163C221.369 362.163 222.429 362.459 223.198 363.051C223.973 363.643 224.524 364.424 224.849 365.395ZM232.265 376.297C231.4 376.297 230.616 376.134 229.912 375.809C229.208 375.477 228.648 375.001 228.234 374.379C227.82 373.752 227.613 372.994 227.613 372.107C227.613 371.325 227.766 370.692 228.074 370.207C228.382 369.715 228.793 369.331 229.308 369.053C229.823 368.774 230.391 368.567 231.013 368.431C231.64 368.289 232.27 368.177 232.904 368.094C233.732 367.987 234.404 367.907 234.919 367.854C235.44 367.795 235.819 367.697 236.055 367.561C236.298 367.425 236.419 367.188 236.419 366.851V366.78C236.419 365.904 236.18 365.223 235.7 364.738C235.227 364.253 234.508 364.01 233.543 364.01C232.543 364.01 231.759 364.229 231.19 364.667C230.622 365.105 230.223 365.572 229.992 366.07L228.003 365.359C228.358 364.531 228.832 363.886 229.424 363.424C230.021 362.956 230.672 362.631 231.377 362.447C232.087 362.258 232.785 362.163 233.472 362.163C233.91 362.163 234.413 362.217 234.981 362.323C235.555 362.424 236.109 362.634 236.641 362.953C237.18 363.273 237.627 363.755 237.982 364.401C238.337 365.046 238.515 365.91 238.515 366.993V375.977H236.419V374.131H236.313C236.171 374.427 235.934 374.743 235.603 375.081C235.271 375.418 234.83 375.705 234.28 375.942C233.729 376.178 233.058 376.297 232.265 376.297ZM232.584 374.415C233.413 374.415 234.111 374.252 234.679 373.926C235.253 373.601 235.685 373.181 235.976 372.666C236.271 372.151 236.419 371.609 236.419 371.041V369.124C236.331 369.23 236.135 369.328 235.833 369.417C235.538 369.499 235.194 369.573 234.804 369.638C234.419 369.698 234.043 369.751 233.676 369.798C233.315 369.84 233.022 369.875 232.797 369.905C232.253 369.976 231.744 370.091 231.27 370.251C230.803 370.405 230.424 370.639 230.134 370.952C229.85 371.26 229.708 371.68 229.708 372.213C229.708 372.941 229.977 373.491 230.516 373.864C231.06 374.231 231.75 374.415 232.584 374.415Z" fill="black"/>
<circle cx="112.511" cy="727.511" r="9.01136" fill="#FFE587" stroke="black"/>
<path d="M84.2017 691.818H86.8295L93.0085 706.911H93.2216L99.4006 691.818H102.028V710H99.9688V696.186H99.7912L94.1094 710H92.1207L86.4389 696.186H86.2614V710H84.2017V691.818ZM111.699 710.284C110.468 710.284 109.387 709.991 108.458 709.405C107.535 708.819 106.813 708 106.292 706.946C105.777 705.893 105.52 704.661 105.52 703.253C105.52 701.832 105.777 700.592 106.292 699.533C106.813 698.474 107.535 697.651 108.458 697.065C109.387 696.479 110.468 696.186 111.699 696.186C112.93 696.186 114.007 696.479 114.93 697.065C115.859 697.651 116.581 698.474 117.096 699.533C117.617 700.592 117.878 701.832 117.878 703.253C117.878 704.661 117.617 705.893 117.096 706.946C116.581 708 115.859 708.819 114.93 709.405C114.007 709.991 112.93 710.284 111.699 710.284ZM111.699 708.402C112.634 708.402 113.403 708.162 114.007 707.683C114.611 707.203 115.057 706.573 115.347 705.792C115.637 705.011 115.782 704.164 115.782 703.253C115.782 702.341 115.637 701.492 115.347 700.705C115.057 699.918 114.611 699.281 114.007 698.796C113.403 698.311 112.634 698.068 111.699 698.068C110.763 698.068 109.994 698.311 109.39 698.796C108.787 699.281 108.34 699.918 108.05 700.705C107.76 701.492 107.615 702.341 107.615 703.253C107.615 704.164 107.76 705.011 108.05 705.792C108.34 706.573 108.787 707.203 109.39 707.683C109.994 708.162 110.763 708.402 111.699 708.402ZM121.36 710V691.818H123.455V698.53H123.633C123.787 698.293 124 697.991 124.272 697.624C124.55 697.251 124.947 696.92 125.461 696.63C125.982 696.334 126.687 696.186 127.574 696.186C128.723 696.186 129.735 696.473 130.611 697.047C131.487 697.621 132.17 698.435 132.661 699.489C133.153 700.542 133.398 701.785 133.398 703.217C133.398 704.661 133.153 705.913 132.661 706.973C132.17 708.026 131.49 708.843 130.619 709.423C129.749 709.997 128.746 710.284 127.61 710.284C126.734 710.284 126.033 710.139 125.506 709.849C124.979 709.553 124.574 709.219 124.29 708.846C124.006 708.467 123.787 708.153 123.633 707.905H123.384V710H121.36ZM123.42 703.182C123.42 704.212 123.57 705.12 123.872 705.907C124.174 706.689 124.615 707.301 125.195 707.745C125.775 708.183 126.485 708.402 127.326 708.402C128.202 708.402 128.933 708.171 129.519 707.71C130.11 707.242 130.554 706.615 130.85 705.827C131.152 705.034 131.303 704.152 131.303 703.182C131.303 702.223 131.155 701.359 130.859 700.589C130.569 699.814 130.128 699.202 129.536 698.752C128.95 698.296 128.214 698.068 127.326 698.068C126.474 698.068 125.757 698.284 125.177 698.716C124.597 699.142 124.159 699.74 123.863 700.51C123.568 701.273 123.42 702.164 123.42 703.182ZM136.603 710V696.364H138.698V710H136.603ZM137.669 694.091C137.26 694.091 136.908 693.952 136.612 693.674C136.322 693.395 136.177 693.061 136.177 692.67C136.177 692.28 136.322 691.945 136.612 691.667C136.908 691.389 137.26 691.25 137.669 691.25C138.077 691.25 138.426 691.389 138.716 691.667C139.012 691.945 139.16 692.28 139.16 692.67C139.16 693.061 139.012 693.395 138.716 693.674C138.426 693.952 138.077 694.091 137.669 694.091ZM144.631 691.818V710H142.536V691.818H144.631ZM154.186 710.284C152.872 710.284 151.738 709.994 150.786 709.414C149.839 708.828 149.108 708.011 148.593 706.964C148.084 705.91 147.829 704.685 147.829 703.288C147.829 701.892 148.084 700.661 148.593 699.595C149.108 698.524 149.824 697.689 150.741 697.092C151.664 696.488 152.742 696.186 153.973 696.186C154.683 696.186 155.384 696.304 156.077 696.541C156.769 696.778 157.4 697.163 157.968 697.695C158.536 698.222 158.989 698.92 159.326 699.79C159.663 700.661 159.832 701.732 159.832 703.004V703.892H149.321V702.081H157.701C157.701 701.312 157.547 700.625 157.24 700.021C156.938 699.418 156.506 698.941 155.944 698.592C155.387 698.243 154.73 698.068 153.973 698.068C153.138 698.068 152.416 698.275 151.806 698.69C151.203 699.098 150.738 699.631 150.413 700.288C150.087 700.945 149.924 701.649 149.924 702.401V703.608C149.924 704.638 150.102 705.511 150.457 706.227C150.818 706.937 151.318 707.479 151.957 707.852C152.597 708.219 153.339 708.402 154.186 708.402C154.736 708.402 155.233 708.325 155.677 708.171C156.127 708.011 156.515 707.775 156.84 707.461C157.166 707.141 157.417 706.745 157.595 706.271L159.619 706.839C159.406 707.526 159.048 708.13 158.545 708.651C158.042 709.165 157.42 709.568 156.68 709.858C155.941 710.142 155.109 710.284 154.186 710.284Z" fill="black"/>
<path d="M217.202 322V303.818H223.558C224.825 303.818 225.869 304.037 226.692 304.475C227.515 304.907 228.127 305.49 228.53 306.224C228.932 306.952 229.134 307.76 229.134 308.648C229.134 309.429 228.994 310.074 228.716 310.583C228.444 311.092 228.083 311.495 227.633 311.79C227.189 312.086 226.707 312.305 226.186 312.447V312.625C226.742 312.661 227.302 312.856 227.864 313.211C228.426 313.566 228.897 314.075 229.276 314.738C229.654 315.401 229.844 316.212 229.844 317.17C229.844 318.082 229.637 318.902 229.222 319.63C228.808 320.358 228.154 320.935 227.26 321.361C226.367 321.787 225.204 322 223.771 322H217.202ZM219.403 320.047H223.771C225.21 320.047 226.23 319.769 226.834 319.212C227.444 318.65 227.749 317.969 227.749 317.17C227.749 316.555 227.592 315.987 227.278 315.466C226.964 314.939 226.518 314.519 225.938 314.205C225.357 313.886 224.671 313.726 223.878 313.726H219.403V320.047ZM219.403 311.808H223.487C224.15 311.808 224.748 311.678 225.281 311.418C225.819 311.157 226.245 310.79 226.559 310.317C226.879 309.843 227.038 309.287 227.038 308.648C227.038 307.849 226.76 307.171 226.204 306.615C225.647 306.052 224.766 305.771 223.558 305.771H219.403V311.808ZM233.177 322V308.364H235.273V322H233.177ZM234.243 306.091C233.834 306.091 233.482 305.952 233.186 305.674C232.896 305.395 232.751 305.061 232.751 304.67C232.751 304.28 232.896 303.945 233.186 303.667C233.482 303.389 233.834 303.25 234.243 303.25C234.651 303.25 235 303.389 235.29 303.667C235.586 303.945 235.734 304.28 235.734 304.67C235.734 305.061 235.586 305.395 235.29 305.674C235 305.952 234.651 306.091 234.243 306.091ZM239.11 322V308.364H241.134V310.423H241.276C241.525 309.749 241.975 309.201 242.626 308.781C243.277 308.361 244.011 308.151 244.827 308.151C244.981 308.151 245.174 308.154 245.404 308.159C245.635 308.165 245.81 308.174 245.928 308.186V310.317C245.857 310.299 245.694 310.272 245.44 310.237C245.191 310.195 244.928 310.175 244.65 310.175C243.987 310.175 243.395 310.314 242.874 310.592C242.359 310.864 241.951 311.243 241.649 311.728C241.353 312.208 241.205 312.755 241.205 313.371V322H239.11ZM248.412 322V308.364H250.436V310.494H250.613C250.898 309.766 251.356 309.201 251.99 308.799C252.623 308.39 253.383 308.186 254.271 308.186C255.171 308.186 255.919 308.39 256.517 308.799C257.121 309.201 257.591 309.766 257.929 310.494H258.071C258.42 309.79 258.944 309.231 259.642 308.816C260.341 308.396 261.178 308.186 262.155 308.186C263.374 308.186 264.371 308.568 265.146 309.331C265.922 310.089 266.309 311.27 266.309 312.874V322H264.214V312.874C264.214 311.867 263.939 311.148 263.389 310.716C262.838 310.284 262.19 310.068 261.444 310.068C260.486 310.068 259.743 310.358 259.216 310.938C258.689 311.512 258.426 312.24 258.426 313.122V322H256.295V312.661C256.295 311.885 256.044 311.261 255.541 310.787C255.038 310.308 254.39 310.068 253.596 310.068C253.052 310.068 252.543 310.213 252.069 310.503C251.602 310.793 251.223 311.196 250.933 311.711C250.649 312.22 250.507 312.808 250.507 313.477V322H248.412ZM270.14 322V308.364H272.235V322H270.14ZM271.206 306.091C270.797 306.091 270.445 305.952 270.149 305.674C269.859 305.395 269.714 305.061 269.714 304.67C269.714 304.28 269.859 303.945 270.149 303.667C270.445 303.389 270.797 303.25 271.206 303.25C271.614 303.25 271.963 303.389 272.253 303.667C272.549 303.945 272.697 304.28 272.697 304.67C272.697 305.061 272.549 305.395 272.253 305.674C271.963 305.952 271.614 306.091 271.206 306.091ZM278.168 313.797V322H276.073V308.364H278.097V310.494H278.275C278.594 309.802 279.08 309.246 279.731 308.825C280.382 308.399 281.222 308.186 282.252 308.186C283.175 308.186 283.983 308.375 284.676 308.754C285.368 309.127 285.907 309.695 286.291 310.459C286.676 311.216 286.868 312.175 286.868 313.335V322H284.773V313.477C284.773 312.406 284.495 311.571 283.939 310.974C283.382 310.37 282.619 310.068 281.648 310.068C280.979 310.068 280.382 310.213 279.855 310.503C279.334 310.793 278.923 311.216 278.621 311.773C278.319 312.329 278.168 313.004 278.168 313.797ZM296.201 327.398C295.189 327.398 294.319 327.268 293.591 327.007C292.863 326.753 292.256 326.415 291.771 325.995C291.292 325.581 290.91 325.137 290.626 324.663L292.295 323.491C292.484 323.74 292.724 324.024 293.014 324.344C293.304 324.669 293.701 324.95 294.204 325.187C294.713 325.43 295.378 325.551 296.201 325.551C297.302 325.551 298.211 325.285 298.927 324.752C299.643 324.219 300.001 323.385 300.001 322.249V319.479H299.823C299.669 319.727 299.45 320.035 299.166 320.402C298.888 320.763 298.486 321.086 297.959 321.37C297.438 321.648 296.734 321.787 295.846 321.787C294.745 321.787 293.757 321.527 292.881 321.006C292.011 320.485 291.321 319.727 290.812 318.733C290.309 317.739 290.058 316.531 290.058 315.111C290.058 313.714 290.303 312.498 290.795 311.462C291.286 310.42 291.969 309.615 292.845 309.047C293.721 308.473 294.733 308.186 295.882 308.186C296.769 308.186 297.474 308.334 297.994 308.63C298.521 308.92 298.924 309.251 299.202 309.624C299.486 309.991 299.705 310.293 299.859 310.53H300.072V308.364H302.096V322.391C302.096 323.562 301.83 324.515 301.297 325.249C300.77 325.989 300.06 326.531 299.166 326.874C298.279 327.223 297.29 327.398 296.201 327.398ZM296.13 319.905C296.971 319.905 297.681 319.712 298.261 319.328C298.841 318.943 299.282 318.39 299.584 317.668C299.885 316.946 300.036 316.081 300.036 315.075C300.036 314.093 299.888 313.226 299.593 312.474C299.297 311.722 298.859 311.134 298.279 310.707C297.699 310.281 296.982 310.068 296.13 310.068C295.242 310.068 294.503 310.293 293.911 310.743C293.325 311.193 292.884 311.796 292.588 312.554C292.298 313.312 292.153 314.152 292.153 315.075C292.153 316.022 292.301 316.86 292.597 317.588C292.899 318.31 293.343 318.878 293.928 319.292C294.52 319.701 295.254 319.905 296.13 319.905ZM308.026 313.797V322H305.931V303.818H308.026V310.494H308.204C308.524 309.79 309.003 309.231 309.642 308.816C310.287 308.396 311.146 308.186 312.217 308.186C313.146 308.186 313.96 308.373 314.658 308.745C315.357 309.112 315.898 309.678 316.283 310.441C316.673 311.199 316.869 312.163 316.869 313.335V322H314.774V313.477C314.774 312.394 314.492 311.557 313.93 310.965C313.374 310.367 312.602 310.068 311.613 310.068C310.927 310.068 310.311 310.213 309.767 310.503C309.228 310.793 308.802 311.216 308.488 311.773C308.18 312.329 308.026 313.004 308.026 313.797ZM324.715 322.32C323.85 322.32 323.066 322.157 322.362 321.831C321.658 321.5 321.098 321.023 320.684 320.402C320.27 319.775 320.063 319.017 320.063 318.129C320.063 317.348 320.216 316.715 320.524 316.229C320.832 315.738 321.243 315.353 321.758 315.075C322.273 314.797 322.841 314.59 323.463 314.454C324.09 314.312 324.72 314.199 325.354 314.116C326.182 314.01 326.854 313.93 327.369 313.877C327.89 313.818 328.269 313.72 328.505 313.584C328.748 313.448 328.869 313.211 328.869 312.874V312.803C328.869 311.927 328.63 311.246 328.15 310.761C327.677 310.275 326.958 310.033 325.993 310.033C324.993 310.033 324.209 310.252 323.64 310.69C323.072 311.128 322.673 311.595 322.442 312.092L320.453 311.382C320.808 310.554 321.282 309.908 321.874 309.447C322.471 308.979 323.122 308.654 323.827 308.47C324.537 308.281 325.235 308.186 325.922 308.186C326.36 308.186 326.863 308.239 327.431 308.346C328.005 308.446 328.559 308.657 329.091 308.976C329.63 309.296 330.077 309.778 330.432 310.423C330.787 311.068 330.965 311.933 330.965 313.016V322H328.869V320.153H328.763C328.621 320.449 328.384 320.766 328.053 321.103C327.721 321.441 327.28 321.728 326.73 321.964C326.179 322.201 325.508 322.32 324.715 322.32ZM325.034 320.438C325.863 320.438 326.561 320.275 327.129 319.949C327.703 319.624 328.136 319.203 328.426 318.689C328.721 318.174 328.869 317.632 328.869 317.064V315.146C328.781 315.253 328.585 315.35 328.283 315.439C327.988 315.522 327.644 315.596 327.254 315.661C326.869 315.72 326.493 315.774 326.126 315.821C325.765 315.862 325.472 315.898 325.247 315.928C324.703 315.999 324.194 316.114 323.72 316.274C323.253 316.428 322.874 316.661 322.584 316.975C322.3 317.283 322.158 317.703 322.158 318.236C322.158 318.964 322.427 319.514 322.966 319.887C323.51 320.254 324.2 320.438 325.034 320.438ZM334.789 322V308.364H336.813V310.494H336.99C337.275 309.766 337.733 309.201 338.366 308.799C339 308.39 339.76 308.186 340.648 308.186C341.548 308.186 342.296 308.39 342.894 308.799C343.498 309.201 343.968 309.766 344.306 310.494H344.448C344.797 309.79 345.321 309.231 346.019 308.816C346.718 308.396 347.555 308.186 348.532 308.186C349.751 308.186 350.748 308.568 351.523 309.331C352.299 310.089 352.686 311.27 352.686 312.874V322H350.591V312.874C350.591 311.867 350.316 311.148 349.766 310.716C349.215 310.284 348.567 310.068 347.821 310.068C346.863 310.068 346.12 310.358 345.593 310.938C345.066 311.512 344.803 312.24 344.803 313.122V322H342.672V312.661C342.672 311.885 342.421 311.261 341.918 310.787C341.415 310.308 340.766 310.068 339.973 310.068C339.429 310.068 338.92 310.213 338.446 310.503C337.979 310.793 337.6 311.196 337.31 311.711C337.026 312.22 336.884 312.808 336.884 313.477V322H334.789Z" fill="black"/>
<circle cx="341.239" cy="463.943" r="9.01136" fill="#FF8F87" stroke="black"/>
<path d="M265.671 480.273H270.412L275.419 492.489H275.632L280.639 480.273H285.38V498.455H281.651V486.62H281.5L276.795 498.366H274.256L269.551 486.576H269.4V498.455H265.671V480.273ZM294.637 498.721C293.258 498.721 292.066 498.428 291.06 497.842C290.059 497.25 289.287 496.427 288.742 495.374C288.198 494.315 287.926 493.086 287.926 491.69C287.926 490.281 288.198 489.05 288.742 487.996C289.287 486.937 290.059 486.114 291.06 485.528C292.066 484.937 293.258 484.641 294.637 484.641C296.016 484.641 297.206 484.937 298.206 485.528C299.212 486.114 299.988 486.937 300.532 487.996C301.077 489.05 301.349 490.281 301.349 491.69C301.349 493.086 301.077 494.315 300.532 495.374C299.988 496.427 299.212 497.25 298.206 497.842C297.206 498.428 296.016 498.721 294.637 498.721ZM294.655 495.791C295.282 495.791 295.806 495.614 296.226 495.259C296.647 494.898 296.963 494.406 297.176 493.785C297.395 493.163 297.505 492.456 297.505 491.663C297.505 490.87 297.395 490.163 297.176 489.541C296.963 488.92 296.647 488.429 296.226 488.067C295.806 487.706 295.282 487.526 294.655 487.526C294.022 487.526 293.489 487.706 293.057 488.067C292.631 488.429 292.308 488.92 292.089 489.541C291.876 490.163 291.77 490.87 291.77 491.663C291.77 492.456 291.876 493.163 292.089 493.785C292.308 494.406 292.631 494.898 293.057 495.259C293.489 495.614 294.022 495.791 294.655 495.791ZM307.59 490.571V498.455H303.808V484.818H307.413V487.224H307.572C307.874 486.431 308.38 485.804 309.09 485.342C309.801 484.874 310.662 484.641 311.674 484.641C312.621 484.641 313.447 484.848 314.151 485.262C314.855 485.676 315.403 486.268 315.793 487.038C316.184 487.801 316.379 488.713 316.379 489.772V498.455H312.597V490.447C312.603 489.612 312.39 488.961 311.958 488.494C311.526 488.02 310.931 487.783 310.174 487.783C309.665 487.783 309.215 487.893 308.824 488.112C308.439 488.331 308.138 488.65 307.919 489.071C307.706 489.485 307.596 489.985 307.59 490.571ZM326.613 484.818V487.659H318.401V484.818H326.613ZM320.265 481.551H324.047V494.264C324.047 494.613 324.101 494.886 324.207 495.081C324.314 495.27 324.462 495.404 324.651 495.48C324.846 495.557 325.071 495.596 325.326 495.596C325.503 495.596 325.681 495.581 325.858 495.552C326.036 495.516 326.172 495.489 326.267 495.472L326.862 498.286C326.672 498.345 326.406 498.413 326.063 498.49C325.719 498.573 325.302 498.623 324.811 498.641C323.899 498.677 323.1 498.555 322.414 498.277C321.733 497.999 321.204 497.567 320.825 496.981C320.446 496.395 320.26 495.655 320.265 494.761V481.551ZM335.074 503.852C333.849 503.852 332.798 503.684 331.922 503.346C331.052 503.015 330.36 502.562 329.845 501.988C329.33 501.414 328.995 500.769 328.841 500.053L332.339 499.582C332.446 499.854 332.615 500.109 332.845 500.346C333.076 500.582 333.381 500.772 333.76 500.914C334.144 501.062 334.612 501.136 335.162 501.136C335.985 501.136 336.663 500.934 337.195 500.532C337.734 500.135 338.003 499.47 338.003 498.534V496.04H337.844C337.678 496.419 337.429 496.777 337.098 497.114C336.766 497.451 336.34 497.727 335.819 497.94C335.299 498.153 334.677 498.259 333.955 498.259C332.931 498.259 331.999 498.023 331.159 497.549C330.324 497.07 329.658 496.339 329.161 495.356C328.67 494.368 328.424 493.119 328.424 491.61C328.424 490.065 328.676 488.775 329.179 487.739C329.682 486.703 330.351 485.928 331.185 485.413C332.026 484.898 332.946 484.641 333.946 484.641C334.71 484.641 335.349 484.771 335.864 485.031C336.379 485.286 336.793 485.605 337.107 485.99C337.426 486.369 337.672 486.742 337.844 487.109H337.986V484.818H341.741V498.588C341.741 499.748 341.457 500.718 340.889 501.5C340.32 502.281 339.533 502.867 338.527 503.257C337.527 503.654 336.376 503.852 335.074 503.852ZM335.154 495.418C335.763 495.418 336.278 495.267 336.698 494.966C337.124 494.658 337.45 494.22 337.675 493.652C337.906 493.078 338.021 492.391 338.021 491.592C338.021 490.793 337.909 490.101 337.684 489.515C337.459 488.923 337.133 488.464 336.707 488.139C336.281 487.813 335.763 487.65 335.154 487.65C334.532 487.65 334.008 487.819 333.582 488.156C333.156 488.488 332.834 488.949 332.615 489.541C332.396 490.133 332.286 490.817 332.286 491.592C332.286 492.379 332.396 493.06 332.615 493.634C332.839 494.202 333.162 494.643 333.582 494.957C334.008 495.264 334.532 495.418 335.154 495.418ZM350.912 498.721C349.533 498.721 348.34 498.428 347.334 497.842C346.334 497.25 345.561 496.427 345.017 495.374C344.472 494.315 344.2 493.086 344.2 491.69C344.2 490.281 344.472 489.05 345.017 487.996C345.561 486.937 346.334 486.114 347.334 485.528C348.34 484.937 349.533 484.641 350.912 484.641C352.291 484.641 353.48 484.937 354.481 485.528C355.487 486.114 356.262 486.937 356.807 487.996C357.351 489.05 357.623 490.281 357.623 491.69C357.623 493.086 357.351 494.315 356.807 495.374C356.262 496.427 355.487 497.25 354.481 497.842C353.48 498.428 352.291 498.721 350.912 498.721ZM350.93 495.791C351.557 495.791 352.081 495.614 352.501 495.259C352.921 494.898 353.238 494.406 353.451 493.785C353.67 493.163 353.779 492.456 353.779 491.663C353.779 490.87 353.67 490.163 353.451 489.541C353.238 488.92 352.921 488.429 352.501 488.067C352.081 487.706 351.557 487.526 350.93 487.526C350.296 487.526 349.764 487.706 349.332 488.067C348.905 488.429 348.583 488.92 348.364 489.541C348.151 490.163 348.044 490.87 348.044 491.663C348.044 492.456 348.151 493.163 348.364 493.785C348.583 494.406 348.905 494.898 349.332 495.259C349.764 495.614 350.296 495.791 350.93 495.791ZM360.083 498.455V484.818H363.687V487.224H363.847C364.131 486.425 364.604 485.795 365.267 485.333C365.93 484.871 366.723 484.641 367.646 484.641C368.582 484.641 369.378 484.874 370.035 485.342C370.692 485.804 371.13 486.431 371.349 487.224H371.491C371.769 486.443 372.272 485.818 373 485.351C373.734 484.877 374.601 484.641 375.601 484.641C376.874 484.641 377.906 485.046 378.699 485.857C379.498 486.662 379.898 487.804 379.898 489.284V498.455H376.125V490.029C376.125 489.272 375.924 488.704 375.521 488.325C375.119 487.946 374.616 487.757 374.012 487.757C373.325 487.757 372.79 487.976 372.405 488.414C372.02 488.846 371.828 489.417 371.828 490.127V498.455H368.161V489.95C368.161 489.281 367.969 488.748 367.584 488.352C367.206 487.955 366.705 487.757 366.084 487.757C365.664 487.757 365.285 487.863 364.948 488.076C364.616 488.284 364.353 488.576 364.157 488.955C363.962 489.328 363.865 489.766 363.865 490.269V498.455H360.083ZM389.1 498.721C387.697 498.721 386.49 498.437 385.478 497.869C384.471 497.295 383.696 496.484 383.152 495.436C382.607 494.383 382.335 493.137 382.335 491.699C382.335 490.296 382.607 489.065 383.152 488.005C383.696 486.946 384.463 486.12 385.451 485.528C386.445 484.937 387.611 484.641 388.949 484.641C389.848 484.641 390.686 484.786 391.461 485.076C392.243 485.36 392.923 485.789 393.503 486.363C394.089 486.937 394.545 487.659 394.87 488.529C395.196 489.393 395.359 490.405 395.359 491.565V492.604H383.844V490.26H391.799C391.799 489.716 391.68 489.233 391.444 488.813C391.207 488.393 390.878 488.065 390.458 487.828C390.044 487.585 389.561 487.464 389.011 487.464C388.437 487.464 387.928 487.597 387.484 487.863C387.046 488.124 386.703 488.476 386.454 488.92C386.206 489.358 386.078 489.846 386.072 490.385V492.613C386.072 493.288 386.197 493.871 386.445 494.362C386.7 494.853 387.058 495.232 387.52 495.498C387.981 495.765 388.529 495.898 389.162 495.898C389.582 495.898 389.967 495.839 390.316 495.72C390.665 495.602 390.964 495.424 391.213 495.188C391.461 494.951 391.651 494.661 391.781 494.317L395.279 494.548C395.101 495.389 394.737 496.123 394.187 496.75C393.642 497.371 392.938 497.857 392.074 498.206C391.216 498.549 390.224 498.721 389.1 498.721ZM397.827 498.455V484.818H401.493V487.197H401.635C401.884 486.351 402.301 485.712 402.887 485.28C403.473 484.842 404.148 484.623 404.911 484.623C405.101 484.623 405.305 484.635 405.524 484.658C405.743 484.682 405.935 484.715 406.101 484.756V488.112C405.923 488.059 405.678 488.011 405.364 487.97C405.05 487.928 404.763 487.908 404.503 487.908C403.946 487.908 403.449 488.029 403.011 488.272C402.579 488.508 402.236 488.84 401.982 489.266C401.733 489.692 401.609 490.183 401.609 490.74V498.455H397.827ZM410.806 503.568C410.327 503.568 409.877 503.53 409.457 503.453C409.042 503.382 408.699 503.29 408.427 503.178L409.279 500.354C409.723 500.491 410.123 500.565 410.478 500.576C410.839 500.588 411.149 500.505 411.41 500.328C411.676 500.15 411.892 499.848 412.058 499.422L412.28 498.845L407.388 484.818H411.365L414.189 494.832H414.331L417.18 484.818H421.184L415.884 499.928C415.63 500.662 415.284 501.301 414.846 501.846C414.413 502.396 413.866 502.819 413.203 503.115C412.54 503.417 411.741 503.568 410.806 503.568Z" fill="black"/>
<path d="M356.699 728.955V711.5H367.881V714.151H359.861V718.889H367.114V721.54H359.861V728.955H356.699ZM370.761 728.955V711.5H373.923V726.304H381.611V728.955H370.761Z" fill="#FFE587"/>
<path d="M526.915 326.051C526.773 325.591 526.577 325.179 526.327 324.815C526.082 324.446 525.787 324.131 525.44 323.869C525.099 323.608 524.707 323.412 524.264 323.281C523.821 323.145 523.338 323.077 522.815 323.077C521.878 323.077 521.043 323.313 520.31 323.784C519.577 324.256 519 324.949 518.58 325.864C518.165 326.773 517.957 327.881 517.957 329.188C517.957 330.506 518.165 331.622 518.58 332.537C518.994 333.452 519.571 334.148 520.31 334.625C521.048 335.097 521.906 335.332 522.884 335.332C523.77 335.332 524.537 335.162 525.185 334.821C525.838 334.48 526.341 333.997 526.693 333.372C527.045 332.741 527.222 332.003 527.222 331.156L527.938 331.267H523.199V328.795H530.281V330.892C530.281 332.386 529.963 333.679 529.327 334.77C528.69 335.861 527.815 336.702 526.702 337.293C525.588 337.878 524.31 338.17 522.866 338.17C521.259 338.17 519.847 337.81 518.631 337.088C517.42 336.361 516.474 335.33 515.793 333.994C515.116 332.653 514.778 331.063 514.778 329.222C514.778 327.813 514.977 326.554 515.375 325.446C515.778 324.338 516.341 323.398 517.062 322.625C517.784 321.847 518.631 321.256 519.602 320.852C520.574 320.443 521.631 320.239 522.773 320.239C523.739 320.239 524.639 320.381 525.474 320.665C526.31 320.943 527.051 321.341 527.699 321.858C528.352 322.375 528.889 322.989 529.31 323.699C529.73 324.409 530.006 325.193 530.136 326.051H526.915ZM535.041 337.932H531.666L537.811 320.477H541.714L547.868 337.932H544.493L539.831 324.057H539.695L535.041 337.932ZM535.152 331.088H544.357V333.628H535.152V331.088Z" fill="#FFE587"/>
<circle cx="305.307" cy="91.9432" r="9.01136" fill="#FFE587" stroke="black"/>
<path d="M257.838 127.455V109.273H260.04V117.369H269.734V109.273H271.936V127.455H269.734V119.322H260.04V127.455H257.838ZM284.654 121.879V113.818H286.749V127.455H284.654V125.146H284.512C284.192 125.839 283.695 126.428 283.02 126.913C282.345 127.392 281.493 127.632 280.463 127.632C279.611 127.632 278.853 127.446 278.191 127.073C277.528 126.694 277.007 126.126 276.628 125.368C276.249 124.605 276.06 123.643 276.06 122.483V113.818H278.155V122.341C278.155 123.335 278.433 124.128 278.99 124.72C279.552 125.312 280.268 125.608 281.138 125.608C281.659 125.608 282.189 125.475 282.727 125.208C283.272 124.942 283.727 124.534 284.094 123.983C284.467 123.433 284.654 122.732 284.654 121.879ZM292.681 119.251V127.455H290.586V113.818H292.61V115.949H292.788C293.108 115.256 293.593 114.7 294.244 114.28C294.895 113.854 295.735 113.641 296.765 113.641C297.688 113.641 298.496 113.83 299.189 114.209C299.881 114.582 300.42 115.15 300.805 115.913C301.189 116.671 301.382 117.63 301.382 118.79V127.455H299.286V118.932C299.286 117.861 299.008 117.026 298.452 116.428C297.896 115.825 297.132 115.523 296.161 115.523C295.493 115.523 294.895 115.668 294.368 115.958C293.847 116.248 293.436 116.671 293.134 117.227C292.832 117.784 292.681 118.458 292.681 119.251ZM311.141 113.818V115.594H304.074V113.818H311.141ZM306.134 110.551H308.229V123.548C308.229 124.14 308.315 124.584 308.486 124.88C308.664 125.17 308.889 125.365 309.161 125.466C309.439 125.561 309.732 125.608 310.04 125.608C310.271 125.608 310.46 125.596 310.608 125.572C310.756 125.543 310.874 125.519 310.963 125.501L311.389 127.384C311.247 127.437 311.049 127.49 310.794 127.543C310.54 127.602 310.217 127.632 309.827 127.632C309.235 127.632 308.655 127.505 308.087 127.25C307.524 126.996 307.057 126.608 306.684 126.087C306.317 125.567 306.134 124.91 306.134 124.116V110.551ZM323.707 116.872L321.825 117.405C321.707 117.091 321.532 116.786 321.301 116.49C321.076 116.189 320.769 115.94 320.378 115.745C319.987 115.549 319.487 115.452 318.878 115.452C318.043 115.452 317.348 115.644 316.791 116.029C316.241 116.408 315.966 116.89 315.966 117.476C315.966 117.997 316.155 118.408 316.534 118.71C316.913 119.012 317.505 119.263 318.309 119.464L320.334 119.962C321.553 120.258 322.461 120.71 323.059 121.32C323.657 121.924 323.956 122.702 323.956 123.655C323.956 124.436 323.731 125.134 323.281 125.75C322.837 126.366 322.216 126.851 321.417 127.206C320.618 127.561 319.689 127.739 318.629 127.739C317.238 127.739 316.087 127.437 315.176 126.833C314.264 126.229 313.687 125.348 313.444 124.187L315.433 123.69C315.622 124.424 315.981 124.975 316.507 125.342C317.04 125.709 317.735 125.892 318.594 125.892C319.57 125.892 320.345 125.685 320.92 125.271C321.5 124.85 321.79 124.347 321.79 123.761C321.79 123.288 321.624 122.891 321.292 122.572C320.961 122.246 320.452 122.004 319.765 121.844L317.493 121.311C316.244 121.015 315.327 120.556 314.741 119.935C314.161 119.308 313.871 118.523 313.871 117.582C313.871 116.813 314.087 116.132 314.519 115.54C314.957 114.949 315.551 114.484 316.303 114.147C317.061 113.809 317.919 113.641 318.878 113.641C320.227 113.641 321.287 113.937 322.056 114.528C322.831 115.12 323.382 115.901 323.707 116.872ZM338.26 113.818L333.218 127.455H331.087L326.044 113.818H328.317L332.081 124.685H332.223L335.987 113.818H338.26ZM341.026 127.455V113.818H343.121V127.455H341.026ZM342.091 111.545C341.683 111.545 341.33 111.406 341.035 111.128C340.745 110.85 340.6 110.516 340.6 110.125C340.6 109.734 340.745 109.4 341.035 109.122C341.33 108.844 341.683 108.705 342.091 108.705C342.499 108.705 342.849 108.844 343.139 109.122C343.435 109.4 343.582 109.734 343.582 110.125C343.582 110.516 343.435 110.85 343.139 111.128C342.849 111.406 342.499 111.545 342.091 111.545ZM349.053 109.273V127.455H346.958V109.273H349.053ZM354.986 109.273V127.455H352.891V109.273H354.986ZM364.541 127.739C363.227 127.739 362.094 127.449 361.141 126.869C360.194 126.283 359.463 125.466 358.948 124.418C358.439 123.365 358.184 122.14 358.184 120.743C358.184 119.346 358.439 118.115 358.948 117.05C359.463 115.978 360.179 115.144 361.096 114.546C362.02 113.942 363.097 113.641 364.328 113.641C365.038 113.641 365.739 113.759 366.432 113.996C367.124 114.232 367.755 114.617 368.323 115.15C368.891 115.677 369.344 116.375 369.681 117.245C370.018 118.115 370.187 119.186 370.187 120.459V121.347H359.676V119.535H368.056C368.056 118.766 367.903 118.08 367.595 117.476C367.293 116.872 366.861 116.396 366.299 116.047C365.742 115.697 365.085 115.523 364.328 115.523C363.493 115.523 362.771 115.73 362.162 116.144C361.558 116.553 361.093 117.085 360.768 117.742C360.442 118.399 360.279 119.103 360.279 119.855V121.062C360.279 122.092 360.457 122.965 360.812 123.681C361.173 124.392 361.673 124.933 362.313 125.306C362.952 125.673 363.694 125.857 364.541 125.857C365.091 125.857 365.588 125.78 366.032 125.626C366.482 125.466 366.87 125.229 367.195 124.915C367.521 124.596 367.772 124.199 367.95 123.726L369.974 124.294C369.761 124.981 369.403 125.584 368.9 126.105C368.397 126.62 367.775 127.022 367.036 127.312C366.296 127.597 365.464 127.739 364.541 127.739Z" fill="black"/>
<line x1="513.727" y1="680.485" x2="528.522" y2="712.19" stroke="white" stroke-width="0.5"/>
<line x1="437.409" y1="50.4773" x2="467" y2="50.4773" stroke="white" stroke-width="0.5"/>
<line x1="50.6136" y1="50.4773" x2="90.7727" y2="50.4773" stroke="white" stroke-width="0.5"/>
<path d="M246.023 8.19602V5.54545H259.949V8.19602H254.554V23H251.418V8.19602H246.023ZM276.977 5.54545V23H274.165L265.94 11.1108H265.795V23H262.634V5.54545H265.463L273.679 17.4432H273.832V5.54545H276.977Z" fill="#FFE587"/>
<path d="M1.72159 339.545H5.59091L10.7727 352.193H10.9773L16.1591 339.545H20.0284V357H16.9943V345.009H16.8324L12.0085 356.949H9.74148L4.91761 344.983H4.75568V357H1.72159V339.545ZM32.9574 344.344C32.8778 343.599 32.5426 343.02 31.9517 342.605C31.3665 342.19 30.6051 341.983 29.6676 341.983C29.0085 341.983 28.4432 342.082 27.9716 342.281C27.5 342.48 27.1392 342.75 26.8892 343.091C26.6392 343.432 26.5114 343.821 26.5057 344.259C26.5057 344.622 26.5881 344.937 26.7528 345.205C26.9233 345.472 27.1534 345.699 27.4432 345.886C27.733 346.068 28.054 346.222 28.4062 346.347C28.7585 346.472 29.1136 346.577 29.4716 346.662L31.108 347.071C31.767 347.224 32.4006 347.432 33.0085 347.693C33.6222 347.955 34.1705 348.284 34.6534 348.682C35.142 349.08 35.5284 349.56 35.8125 350.122C36.0966 350.685 36.2386 351.344 36.2386 352.099C36.2386 353.122 35.9773 354.023 35.4545 354.801C34.9318 355.574 34.1761 356.179 33.1875 356.616C32.2045 357.048 31.0142 357.264 29.6165 357.264C28.2585 357.264 27.0795 357.054 26.0795 356.634C25.0852 356.213 24.3068 355.599 23.7443 354.793C23.1875 353.986 22.8864 353.003 22.8409 351.844H25.9517C25.9972 352.452 26.1847 352.957 26.5142 353.361C26.8438 353.764 27.2727 354.065 27.8011 354.264C28.3352 354.463 28.9318 354.562 29.5909 354.562C30.2784 354.562 30.8807 354.46 31.3977 354.256C31.9205 354.045 32.3295 353.756 32.625 353.386C32.9205 353.011 33.071 352.574 33.0767 352.074C33.071 351.619 32.9375 351.244 32.6761 350.949C32.4148 350.648 32.0483 350.398 31.5767 350.199C31.1108 349.994 30.5653 349.812 29.9403 349.653L27.9545 349.142C26.517 348.773 25.3807 348.213 24.5455 347.463C23.7159 346.707 23.3011 345.705 23.3011 344.455C23.3011 343.426 23.5795 342.526 24.1364 341.753C24.6989 340.98 25.4631 340.381 26.429 339.955C27.3949 339.523 28.4886 339.307 29.7102 339.307C30.9489 339.307 32.0341 339.523 32.9659 339.955C33.9034 340.381 34.6392 340.974 35.1733 341.736C35.7074 342.491 35.983 343.361 36 344.344H32.9574Z" fill="#FFE587"/>
</svg>
