<svg width="225" height="359" viewBox="0 0 225 359" fill="none" xmlns="http://www.w3.org/2000/svg">
<path d="M208.276 165.333L202.558 134.167L181.115 1H22.8414H16.7244L18.1538 3.83333L22.4423 6.66667L1 231.917L3.85897 348.083L6.71795 345.25L15.2949 343.833L18.1538 346.667H25.3013V328.25L32.4487 324L35.3077 333.917L36.7372 343.833L42.4551 348.083L46.7436 353.75L53.891 358L59.609 356.583L63.8974 348.083L66.7564 342.417L68.1859 338.167L63.8974 333.917L66.7564 328.25L58.1795 316.917L52.4615 302.75L58.1795 299.917L216.853 298.5L211.135 284.333L213.994 265.917V251.75L211.135 239L213.994 222L218.282 214.917L224 206.417L218.282 200.75V189.417L208.276 165.333Z" fill="#97DCFF"/>
<path d="M181.115 2.41666V1M181.115 1L202.558 134.167L208.276 165.333L218.282 189.417V200.75L224 206.417L218.282 214.917L213.994 222L211.135 239L213.994 251.75V265.917L211.135 284.333L216.853 298.5L58.1795 299.917L52.4615 302.75L58.1795 316.917L66.7564 328.25L63.8974 333.917L68.1859 338.167L66.7564 342.417L63.8974 348.083L59.609 356.583L53.891 358L46.7436 353.75L42.4551 348.083L36.7372 343.833L35.3077 333.917L32.4487 324L25.3013 328.25V346.667H18.1538L15.2949 343.833L6.71795 345.25L3.85897 348.083L1 231.917L22.4423 6.66667L18.1538 3.83333L16.7244 1H22.8414H181.115Z" stroke="black" stroke-width="0.2"/>
<circle cx="55.5" cy="135.5" r="4" fill="#FFE587" stroke="black"/>
<circle cx="103.5" cy="111.5" r="4" fill="#FFE587" stroke="black"/>
<path d="M25.5795 148.21V147.273H32.125V148.21H29.3807V156H28.3239V148.21H25.5795ZM36.854 153.324V149.455H37.8597V156H36.854V154.892H36.7859C36.6325 155.224 36.3938 155.507 36.07 155.74C35.7461 155.97 35.337 156.085 34.8427 156.085C34.4336 156.085 34.07 155.996 33.7518 155.817C33.4336 155.635 33.1836 155.362 33.0018 154.999C32.82 154.632 32.729 154.17 32.729 153.614V149.455H33.7347V153.545C33.7347 154.023 33.8683 154.403 34.1353 154.688C34.4052 154.972 34.7489 155.114 35.1665 155.114C35.4165 155.114 35.6708 155.05 35.9293 154.922C36.1907 154.794 36.4094 154.598 36.5856 154.334C36.7646 154.07 36.854 153.733 36.854 153.324ZM44.3381 150.92L43.4347 151.176C43.3778 151.026 43.294 150.879 43.1832 150.737C43.0753 150.592 42.9276 150.473 42.7401 150.379C42.5526 150.286 42.3125 150.239 42.0199 150.239C41.6193 150.239 41.2855 150.331 41.0185 150.516C40.7543 150.697 40.6222 150.929 40.6222 151.21C40.6222 151.46 40.7131 151.658 40.8949 151.803C41.0767 151.947 41.3608 152.068 41.7472 152.165L42.7188 152.403C43.304 152.545 43.7401 152.763 44.027 153.055C44.3139 153.345 44.4574 153.719 44.4574 154.176C44.4574 154.551 44.3494 154.886 44.1335 155.182C43.9205 155.477 43.6222 155.71 43.2386 155.881C42.8551 156.051 42.4091 156.136 41.9006 156.136C41.233 156.136 40.6804 155.991 40.2429 155.702C39.8054 155.412 39.5284 154.989 39.4119 154.432L40.3665 154.193C40.4574 154.545 40.6293 154.81 40.8821 154.986C41.1378 155.162 41.4716 155.25 41.8835 155.25C42.3523 155.25 42.7244 155.151 43 154.952C43.2784 154.75 43.4176 154.509 43.4176 154.227C43.4176 154 43.3381 153.81 43.179 153.656C43.0199 153.5 42.7756 153.384 42.446 153.307L41.3551 153.051C40.7557 152.909 40.3153 152.689 40.0341 152.391C39.7557 152.089 39.6165 151.713 39.6165 151.261C39.6165 150.892 39.7202 150.565 39.9276 150.281C40.1378 149.997 40.4233 149.774 40.7841 149.612C41.1477 149.45 41.5597 149.369 42.0199 149.369C42.6676 149.369 43.1761 149.511 43.5455 149.795C43.9176 150.08 44.1818 150.455 44.3381 150.92ZM48.6303 156.136C48.0167 156.136 47.4883 155.991 47.0451 155.702C46.6019 155.412 46.261 155.013 46.0224 154.504C45.7837 153.996 45.6644 153.415 45.6644 152.761C45.6644 152.097 45.7866 151.51 46.0309 151.001C46.2781 150.49 46.6218 150.091 47.0621 149.804C47.5053 149.514 48.0224 149.369 48.6133 149.369C49.0735 149.369 49.4883 149.455 49.8576 149.625C50.2269 149.795 50.5295 150.034 50.7653 150.341C51.0011 150.648 51.1474 151.006 51.2042 151.415H50.1985C50.1218 151.116 49.9513 150.852 49.6871 150.622C49.4258 150.389 49.0735 150.273 48.6303 150.273C48.2383 150.273 47.8945 150.375 47.5991 150.58C47.3065 150.781 47.0778 151.067 46.913 151.436C46.7511 151.803 46.6701 152.233 46.6701 152.727C46.6701 153.233 46.7496 153.673 46.9087 154.048C47.0707 154.423 47.2979 154.714 47.5906 154.922C47.886 155.129 48.2326 155.233 48.6303 155.233C48.8917 155.233 49.1289 155.188 49.342 155.097C49.555 155.006 49.7354 154.875 49.8832 154.705C50.0309 154.534 50.136 154.33 50.1985 154.091H51.2042C51.1474 154.477 51.0067 154.825 50.7823 155.135C50.5607 155.442 50.2667 155.686 49.9002 155.868C49.5366 156.047 49.1133 156.136 48.6303 156.136ZM54.6005 156.153C54.1857 156.153 53.8093 156.075 53.4712 155.919C53.1332 155.76 52.8647 155.531 52.6658 155.233C52.467 154.932 52.3675 154.568 52.3675 154.142C52.3675 153.767 52.4414 153.463 52.5891 153.23C52.7369 152.994 52.9343 152.81 53.1815 152.676C53.4286 152.543 53.7013 152.443 53.9996 152.378C54.3008 152.31 54.6033 152.256 54.9073 152.216C55.305 152.165 55.6275 152.126 55.8746 152.101C56.1246 152.072 56.3065 152.026 56.4201 151.96C56.5366 151.895 56.5948 151.781 56.5948 151.619V151.585C56.5948 151.165 56.4798 150.838 56.2496 150.605C56.0224 150.372 55.6772 150.256 55.2141 150.256C54.734 150.256 54.3576 150.361 54.0849 150.571C53.8121 150.781 53.6204 151.006 53.5096 151.244L52.555 150.903C52.7255 150.506 52.9528 150.196 53.2369 149.974C53.5238 149.75 53.8363 149.594 54.1744 149.506C54.5153 149.415 54.8505 149.369 55.18 149.369C55.3903 149.369 55.6317 149.395 55.9045 149.446C56.18 149.494 56.4457 149.595 56.7013 149.749C56.9599 149.902 57.1744 150.134 57.3448 150.443C57.5153 150.753 57.6005 151.168 57.6005 151.688V156H56.5948V155.114H56.5437C56.4755 155.256 56.3619 155.408 56.2028 155.57C56.0437 155.732 55.832 155.869 55.5678 155.983C55.3036 156.097 54.9812 156.153 54.6005 156.153ZM54.7539 155.25C55.1516 155.25 55.4869 155.172 55.7596 155.016C56.0352 154.859 56.2425 154.658 56.3817 154.411C56.5238 154.163 56.5948 153.903 56.5948 153.631V152.71C56.5522 152.761 56.4585 152.808 56.3136 152.851C56.1715 152.891 56.0067 152.926 55.8192 152.957C55.6346 152.986 55.4542 153.011 55.2781 153.034C55.1048 153.054 54.9641 153.071 54.8562 153.085C54.5948 153.119 54.3505 153.175 54.1232 153.251C53.8988 153.325 53.717 153.437 53.5778 153.588C53.4414 153.736 53.3732 153.937 53.3732 154.193C53.3732 154.543 53.5025 154.807 53.761 154.986C54.0224 155.162 54.3533 155.25 54.7539 155.25ZM60.4418 147.273V156H59.4361V147.273H60.4418ZM64.9428 156.136C64.3519 156.136 63.8335 155.996 63.3874 155.714C62.9442 155.433 62.5977 155.04 62.3477 154.534C62.1005 154.028 61.9769 153.437 61.9769 152.761C61.9769 152.08 62.1005 151.484 62.3477 150.976C62.5977 150.467 62.9442 150.072 63.3874 149.791C63.8335 149.51 64.3519 149.369 64.9428 149.369C65.5337 149.369 66.0508 149.51 66.494 149.791C66.94 150.072 67.2866 150.467 67.5337 150.976C67.7837 151.484 67.9087 152.08 67.9087 152.761C67.9087 153.437 67.7837 154.028 67.5337 154.534C67.2866 155.04 66.94 155.433 66.494 155.714C66.0508 155.996 65.5337 156.136 64.9428 156.136ZM64.9428 155.233C65.3917 155.233 65.761 155.118 66.0508 154.888C66.3406 154.658 66.555 154.355 66.6942 153.98C66.8335 153.605 66.9031 153.199 66.9031 152.761C66.9031 152.324 66.8335 151.916 66.6942 151.538C66.555 151.161 66.3406 150.855 66.0508 150.622C65.761 150.389 65.3917 150.273 64.9428 150.273C64.494 150.273 64.1246 150.389 63.8349 150.622C63.5451 150.855 63.3306 151.161 63.1914 151.538C63.0522 151.916 62.9826 152.324 62.9826 152.761C62.9826 153.199 63.0522 153.605 63.1914 153.98C63.3306 154.355 63.5451 154.658 63.8349 154.888C64.1246 155.118 64.494 155.233 64.9428 155.233ZM72.103 156.136C71.5121 156.136 70.9936 155.996 70.5476 155.714C70.1044 155.433 69.7578 155.04 69.5078 154.534C69.2607 154.028 69.1371 153.437 69.1371 152.761C69.1371 152.08 69.2607 151.484 69.5078 150.976C69.7578 150.467 70.1044 150.072 70.5476 149.791C70.9936 149.51 71.5121 149.369 72.103 149.369C72.6939 149.369 73.2109 149.51 73.6541 149.791C74.1001 150.072 74.4467 150.467 74.6939 150.976C74.9439 151.484 75.0689 152.08 75.0689 152.761C75.0689 153.437 74.9439 154.028 74.6939 154.534C74.4467 155.04 74.1001 155.433 73.6541 155.714C73.2109 155.996 72.6939 156.136 72.103 156.136ZM72.103 155.233C72.5518 155.233 72.9212 155.118 73.2109 154.888C73.5007 154.658 73.7152 154.355 73.8544 153.98C73.9936 153.605 74.0632 153.199 74.0632 152.761C74.0632 152.324 73.9936 151.916 73.8544 151.538C73.7152 151.161 73.5007 150.855 73.2109 150.622C72.9212 150.389 72.5518 150.273 72.103 150.273C71.6541 150.273 71.2848 150.389 70.995 150.622C70.7053 150.855 70.4908 151.161 70.3516 151.538C70.2124 151.916 70.1428 152.324 70.1428 152.761C70.1428 153.199 70.2124 153.605 70.3516 153.98C70.4908 154.355 70.7053 154.658 70.995 154.888C71.2848 155.118 71.6541 155.233 72.103 155.233ZM81.2404 150.92L80.337 151.176C80.2802 151.026 80.1964 150.879 80.0856 150.737C79.9776 150.592 79.8299 150.473 79.6424 150.379C79.4549 150.286 79.2148 150.239 78.9222 150.239C78.5217 150.239 78.1879 150.331 77.9208 150.516C77.6566 150.697 77.5245 150.929 77.5245 151.21C77.5245 151.46 77.6154 151.658 77.7972 151.803C77.979 151.947 78.2631 152.068 78.6495 152.165L79.6211 152.403C80.2063 152.545 80.6424 152.763 80.9293 153.055C81.2163 153.345 81.3597 153.719 81.3597 154.176C81.3597 154.551 81.2518 154.886 81.0359 155.182C80.8228 155.477 80.5245 155.71 80.141 155.881C79.7575 156.051 79.3114 156.136 78.8029 156.136C78.1353 156.136 77.5827 155.991 77.1452 155.702C76.7077 155.412 76.4308 154.989 76.3143 154.432L77.2688 154.193C77.3597 154.545 77.5316 154.81 77.7844 154.986C78.0401 155.162 78.3739 155.25 78.7859 155.25C79.2546 155.25 79.6268 155.151 79.9023 154.952C80.1808 154.75 80.32 154.509 80.32 154.227C80.32 154 80.2404 153.81 80.0813 153.656C79.9222 153.5 79.6779 153.384 79.3484 153.307L78.2575 153.051C77.658 152.909 77.2177 152.689 76.9364 152.391C76.658 152.089 76.5188 151.713 76.5188 151.261C76.5188 150.892 76.6225 150.565 76.8299 150.281C77.0401 149.997 77.3256 149.774 77.6864 149.612C78.0501 149.45 78.462 149.369 78.9222 149.369C79.57 149.369 80.0785 149.511 80.4478 149.795C80.82 150.08 81.0842 150.455 81.2404 150.92ZM84.7997 156.153C84.3849 156.153 84.0085 156.075 83.6705 155.919C83.3324 155.76 83.0639 155.531 82.8651 155.233C82.6662 154.932 82.5668 154.568 82.5668 154.142C82.5668 153.767 82.6406 153.463 82.7884 153.23C82.9361 152.994 83.1335 152.81 83.3807 152.676C83.6278 152.543 83.9006 152.443 84.1989 152.378C84.5 152.31 84.8026 152.256 85.1065 152.216C85.5043 152.165 85.8267 152.126 86.0739 152.101C86.3239 152.072 86.5057 152.026 86.6193 151.96C86.7358 151.895 86.794 151.781 86.794 151.619V151.585C86.794 151.165 86.679 150.838 86.4489 150.605C86.2216 150.372 85.8764 150.256 85.4134 150.256C84.9332 150.256 84.5568 150.361 84.2841 150.571C84.0114 150.781 83.8196 151.006 83.7088 151.244L82.7543 150.903C82.9247 150.506 83.152 150.196 83.4361 149.974C83.723 149.75 84.0355 149.594 84.3736 149.506C84.7145 149.415 85.0497 149.369 85.3793 149.369C85.5895 149.369 85.831 149.395 86.1037 149.446C86.3793 149.494 86.6449 149.595 86.9006 149.749C87.1591 149.902 87.3736 150.134 87.544 150.443C87.7145 150.753 87.7997 151.168 87.7997 151.688V156H86.794V155.114H86.7429C86.6747 155.256 86.5611 155.408 86.402 155.57C86.2429 155.732 86.0313 155.869 85.767 155.983C85.5028 156.097 85.1804 156.153 84.7997 156.153ZM84.9531 155.25C85.3509 155.25 85.6861 155.172 85.9588 155.016C86.2344 154.859 86.4418 154.658 86.581 154.411C86.723 154.163 86.794 153.903 86.794 153.631V152.71C86.7514 152.761 86.6577 152.808 86.5128 152.851C86.3707 152.891 86.206 152.926 86.0185 152.957C85.8338 152.986 85.6534 153.011 85.4773 153.034C85.304 153.054 85.1634 153.071 85.0554 153.085C84.794 153.119 84.5497 153.175 84.3224 153.251C84.098 153.325 83.9162 153.437 83.777 153.588C83.6406 153.736 83.5724 153.937 83.5724 154.193C83.5724 154.543 83.7017 154.807 83.9602 154.986C84.2216 155.162 84.5526 155.25 84.9531 155.25Z" fill="black"/>
<circle cx="25.5" cy="321.5" r="4" fill="#FFE587" stroke="black"/>
<path d="M12.0568 302.273H13.3182L16.2841 309.517H16.3864L19.3523 302.273H20.6136V311H19.625V304.369H19.5398L16.8125 311H15.858L13.1307 304.369H13.0455V311H12.0568V302.273ZM25.2553 311.136C24.6644 311.136 24.146 310.996 23.6999 310.714C23.2567 310.433 22.9102 310.04 22.6602 309.534C22.413 309.028 22.2894 308.437 22.2894 307.761C22.2894 307.08 22.413 306.484 22.6602 305.976C22.9102 305.467 23.2567 305.072 23.6999 304.791C24.146 304.51 24.6644 304.369 25.2553 304.369C25.8462 304.369 26.3633 304.51 26.8065 304.791C27.2525 305.072 27.5991 305.467 27.8462 305.976C28.0962 306.484 28.2212 307.08 28.2212 307.761C28.2212 308.437 28.0962 309.028 27.8462 309.534C27.5991 310.04 27.2525 310.433 26.8065 310.714C26.3633 310.996 25.8462 311.136 25.2553 311.136ZM25.2553 310.233C25.7042 310.233 26.0735 310.118 26.3633 309.888C26.6531 309.658 26.8675 309.355 27.0067 308.98C27.146 308.605 27.2156 308.199 27.2156 307.761C27.2156 307.324 27.146 306.916 27.0067 306.538C26.8675 306.161 26.6531 305.855 26.3633 305.622C26.0735 305.389 25.7042 305.273 25.2553 305.273C24.8065 305.273 24.4371 305.389 24.1474 305.622C23.8576 305.855 23.6431 306.161 23.5039 306.538C23.3647 306.916 23.2951 307.324 23.2951 307.761C23.2951 308.199 23.3647 308.605 23.5039 308.98C23.6431 309.355 23.8576 309.658 24.1474 309.888C24.4371 310.118 24.8065 310.233 25.2553 310.233ZM29.8928 311V302.273H30.8984V305.494H30.9837C31.0575 305.381 31.1598 305.236 31.2905 305.06C31.424 304.881 31.6143 304.722 31.8615 304.582C32.1115 304.44 32.4496 304.369 32.8757 304.369C33.4268 304.369 33.9126 304.507 34.3331 304.783C34.7536 305.058 35.0817 305.449 35.3175 305.955C35.5533 306.46 35.6712 307.057 35.6712 307.744C35.6712 308.438 35.5533 309.038 35.3175 309.547C35.0817 310.053 34.755 310.445 34.3374 310.723C33.9197 310.999 33.4382 311.136 32.8928 311.136C32.4723 311.136 32.1357 311.067 31.8828 310.928C31.63 310.786 31.4354 310.625 31.299 310.446C31.1626 310.264 31.0575 310.114 30.9837 309.994H30.8643V311H29.8928ZM30.8814 307.727C30.8814 308.222 30.9538 308.658 31.0987 309.036C31.2436 309.411 31.4553 309.705 31.7337 309.918C32.0121 310.128 32.353 310.233 32.7564 310.233C33.1768 310.233 33.5277 310.122 33.8089 309.901C34.093 309.676 34.3061 309.375 34.4482 308.997C34.593 308.616 34.6655 308.193 34.6655 307.727C34.6655 307.267 34.5945 306.852 34.4524 306.483C34.3132 306.111 34.1016 305.817 33.8175 305.601C33.5362 305.382 33.1825 305.273 32.7564 305.273C32.3473 305.273 32.0036 305.376 31.7251 305.584C31.4467 305.788 31.2365 306.075 31.0945 306.445C30.9524 306.811 30.8814 307.239 30.8814 307.727ZM37.2095 311V304.455H38.2152V311H37.2095ZM37.7209 303.364C37.5249 303.364 37.3558 303.297 37.2138 303.163C37.0746 303.03 37.005 302.869 37.005 302.682C37.005 302.494 37.0746 302.334 37.2138 302.2C37.3558 302.067 37.5249 302 37.7209 302C37.9169 302 38.0845 302.067 38.2237 302.2C38.3658 302.334 38.4368 302.494 38.4368 302.682C38.4368 302.869 38.3658 303.03 38.2237 303.163C38.0845 303.297 37.9169 303.364 37.7209 303.364ZM41.0629 302.273V311H40.0572V302.273H41.0629ZM45.6491 311.136C45.0185 311.136 44.4744 310.997 44.017 310.719C43.5625 310.438 43.2116 310.045 42.9645 309.543C42.7202 309.037 42.598 308.449 42.598 307.778C42.598 307.108 42.7202 306.517 42.9645 306.006C43.2116 305.491 43.5554 305.091 43.9957 304.804C44.4389 304.514 44.956 304.369 45.5469 304.369C45.8878 304.369 46.2244 304.426 46.5568 304.54C46.8892 304.653 47.1918 304.838 47.4645 305.094C47.7372 305.347 47.9545 305.682 48.1165 306.099C48.2784 306.517 48.3594 307.031 48.3594 307.642V308.068H43.3139V307.199H47.3366C47.3366 306.83 47.2628 306.5 47.1151 306.21C46.9702 305.92 46.7628 305.692 46.4929 305.524C46.2259 305.357 45.9105 305.273 45.5469 305.273C45.1463 305.273 44.7997 305.372 44.5071 305.571C44.2173 305.767 43.9943 306.023 43.8381 306.338C43.6818 306.653 43.6037 306.991 43.6037 307.352V307.932C43.6037 308.426 43.6889 308.845 43.8594 309.189C44.0327 309.53 44.2727 309.79 44.5795 309.969C44.8864 310.145 45.2429 310.233 45.6491 310.233C45.9134 310.233 46.152 310.196 46.3651 310.122C46.581 310.045 46.767 309.932 46.9233 309.781C47.0795 309.628 47.2003 309.437 47.2855 309.21L48.2571 309.483C48.1548 309.812 47.983 310.102 47.7415 310.352C47.5 310.599 47.2017 310.793 46.8466 310.932C46.4915 311.068 46.0923 311.136 45.6491 311.136Z" fill="black"/>
<path d="M90.0568 131V122.273H93.108C93.7159 122.273 94.2173 122.378 94.6122 122.588C95.0071 122.795 95.3011 123.075 95.4943 123.428C95.6875 123.777 95.7841 124.165 95.7841 124.591C95.7841 124.966 95.7173 125.276 95.5838 125.52C95.4531 125.764 95.2798 125.957 95.0639 126.099C94.8509 126.241 94.6193 126.347 94.3693 126.415V126.5C94.6364 126.517 94.9048 126.611 95.1747 126.781C95.4446 126.952 95.6705 127.196 95.8523 127.514C96.0341 127.832 96.125 128.222 96.125 128.682C96.125 129.119 96.0256 129.513 95.8267 129.862C95.6278 130.212 95.3139 130.489 94.8849 130.693C94.456 130.898 93.8977 131 93.2102 131H90.0568ZM91.1136 130.062H93.2102C93.9006 130.062 94.3906 129.929 94.6804 129.662C94.973 129.392 95.1193 129.065 95.1193 128.682C95.1193 128.386 95.044 128.114 94.8935 127.864C94.7429 127.611 94.5284 127.409 94.25 127.259C93.9716 127.105 93.642 127.028 93.2614 127.028H91.1136V130.062ZM91.1136 126.108H93.0739C93.392 126.108 93.679 126.045 93.9347 125.92C94.1932 125.795 94.3977 125.619 94.5483 125.392C94.7017 125.165 94.7784 124.898 94.7784 124.591C94.7784 124.207 94.6449 123.882 94.3778 123.615C94.1108 123.345 93.6875 123.21 93.108 123.21H91.1136V126.108ZM97.7251 131V124.455H98.7308V131H97.7251ZM98.2365 123.364C98.0405 123.364 97.8714 123.297 97.7294 123.163C97.5902 123.03 97.5206 122.869 97.5206 122.682C97.5206 122.494 97.5902 122.334 97.7294 122.2C97.8714 122.067 98.0405 122 98.2365 122C98.4325 122 98.6001 122.067 98.7393 122.2C98.8814 122.334 98.9524 122.494 98.9524 122.682C98.9524 122.869 98.8814 123.03 98.7393 123.163C98.6001 123.297 98.4325 123.364 98.2365 123.364ZM100.573 131V124.455H101.544V125.443H101.613C101.732 125.119 101.948 124.857 102.26 124.655C102.573 124.453 102.925 124.352 103.317 124.352C103.391 124.352 103.483 124.354 103.594 124.357C103.705 124.359 103.789 124.364 103.846 124.369V125.392C103.811 125.384 103.733 125.371 103.611 125.354C103.492 125.334 103.365 125.324 103.232 125.324C102.914 125.324 102.63 125.391 102.38 125.524C102.132 125.655 101.936 125.837 101.792 126.07C101.65 126.3 101.578 126.562 101.578 126.858V131H100.573ZM105.038 131V124.455H106.009V125.477H106.094C106.231 125.128 106.451 124.857 106.755 124.663C107.059 124.467 107.424 124.369 107.85 124.369C108.282 124.369 108.641 124.467 108.928 124.663C109.218 124.857 109.444 125.128 109.606 125.477H109.674C109.842 125.139 110.093 124.871 110.428 124.672C110.763 124.47 111.165 124.369 111.634 124.369C112.219 124.369 112.698 124.553 113.07 124.919C113.442 125.283 113.629 125.849 113.629 126.619V131H112.623V126.619C112.623 126.136 112.491 125.791 112.227 125.584C111.962 125.376 111.651 125.273 111.293 125.273C110.833 125.273 110.477 125.412 110.224 125.69C109.971 125.966 109.844 126.315 109.844 126.739V131H108.822V126.517C108.822 126.145 108.701 125.845 108.46 125.618C108.218 125.388 107.907 125.273 107.526 125.273C107.265 125.273 107.021 125.342 106.793 125.482C106.569 125.621 106.387 125.814 106.248 126.061C106.112 126.305 106.043 126.588 106.043 126.909V131H105.038ZM115.467 131V124.455H116.473V131H115.467ZM115.979 123.364C115.783 123.364 115.614 123.297 115.472 123.163C115.332 123.03 115.263 122.869 115.263 122.682C115.263 122.494 115.332 122.334 115.472 122.2C115.614 122.067 115.783 122 115.979 122C116.175 122 116.342 122.067 116.482 122.2C116.624 122.334 116.695 122.494 116.695 122.682C116.695 122.869 116.624 123.03 116.482 123.163C116.342 123.297 116.175 123.364 115.979 123.364ZM119.321 127.062V131H118.315V124.455H119.287V125.477H119.372C119.525 125.145 119.758 124.878 120.071 124.676C120.383 124.472 120.787 124.369 121.281 124.369C121.724 124.369 122.112 124.46 122.444 124.642C122.777 124.821 123.035 125.094 123.22 125.46C123.404 125.824 123.497 126.284 123.497 126.841V131H122.491V126.909C122.491 126.395 122.358 125.994 122.091 125.707C121.824 125.418 121.457 125.273 120.991 125.273C120.67 125.273 120.383 125.342 120.13 125.482C119.88 125.621 119.683 125.824 119.538 126.091C119.393 126.358 119.321 126.682 119.321 127.062ZM127.977 133.591C127.491 133.591 127.073 133.528 126.724 133.403C126.374 133.281 126.083 133.119 125.85 132.918C125.62 132.719 125.437 132.506 125.3 132.278L126.102 131.716C126.192 131.835 126.308 131.972 126.447 132.125C126.586 132.281 126.776 132.416 127.018 132.53C127.262 132.646 127.582 132.705 127.977 132.705C128.505 132.705 128.941 132.577 129.285 132.321C129.629 132.065 129.8 131.665 129.8 131.119V129.79H129.715C129.641 129.909 129.536 130.057 129.4 130.233C129.266 130.406 129.073 130.561 128.82 130.697C128.57 130.831 128.232 130.898 127.806 130.898C127.278 130.898 126.803 130.773 126.383 130.523C125.965 130.273 125.634 129.909 125.39 129.432C125.148 128.955 125.028 128.375 125.028 127.693C125.028 127.023 125.146 126.439 125.381 125.942C125.617 125.442 125.945 125.055 126.366 124.783C126.786 124.507 127.272 124.369 127.823 124.369C128.249 124.369 128.587 124.44 128.837 124.582C129.09 124.722 129.283 124.881 129.417 125.06C129.553 125.236 129.658 125.381 129.732 125.494H129.835V124.455H130.806V131.188C130.806 131.75 130.678 132.207 130.423 132.56C130.17 132.915 129.829 133.175 129.4 133.339C128.974 133.507 128.499 133.591 127.977 133.591ZM127.942 129.994C128.346 129.994 128.687 129.902 128.965 129.717C129.244 129.533 129.455 129.267 129.6 128.92C129.745 128.574 129.817 128.159 129.817 127.676C129.817 127.205 129.746 126.788 129.604 126.428C129.462 126.067 129.252 125.784 128.974 125.58C128.695 125.375 128.352 125.273 127.942 125.273C127.516 125.273 127.161 125.381 126.877 125.597C126.596 125.812 126.384 126.102 126.242 126.466C126.103 126.83 126.033 127.233 126.033 127.676C126.033 128.131 126.104 128.533 126.246 128.882C126.391 129.229 126.604 129.501 126.886 129.7C127.17 129.896 127.522 129.994 127.942 129.994ZM133.653 127.062V131H132.647V122.273H133.653V125.477H133.738C133.891 125.139 134.121 124.871 134.428 124.672C134.738 124.47 135.15 124.369 135.664 124.369C136.11 124.369 136.501 124.459 136.836 124.638C137.171 124.814 137.431 125.085 137.616 125.452C137.803 125.815 137.897 126.278 137.897 126.841V131H136.891V126.909C136.891 126.389 136.756 125.987 136.487 125.703C136.219 125.416 135.849 125.273 135.374 125.273C135.045 125.273 134.749 125.342 134.488 125.482C134.229 125.621 134.025 125.824 133.874 126.091C133.727 126.358 133.653 126.682 133.653 127.062ZM141.663 131.153C141.248 131.153 140.872 131.075 140.534 130.919C140.196 130.76 139.927 130.531 139.728 130.233C139.529 129.932 139.43 129.568 139.43 129.142C139.43 128.767 139.504 128.463 139.652 128.23C139.799 127.994 139.997 127.81 140.244 127.676C140.491 127.543 140.764 127.443 141.062 127.378C141.363 127.31 141.666 127.256 141.97 127.216C142.368 127.165 142.69 127.126 142.937 127.101C143.187 127.072 143.369 127.026 143.483 126.96C143.599 126.895 143.657 126.781 143.657 126.619V126.585C143.657 126.165 143.542 125.838 143.312 125.605C143.085 125.372 142.74 125.256 142.277 125.256C141.797 125.256 141.42 125.361 141.147 125.571C140.875 125.781 140.683 126.006 140.572 126.244L139.618 125.903C139.788 125.506 140.015 125.196 140.299 124.974C140.586 124.75 140.899 124.594 141.237 124.506C141.578 124.415 141.913 124.369 142.243 124.369C142.453 124.369 142.694 124.395 142.967 124.446C143.243 124.494 143.508 124.595 143.764 124.749C144.022 124.902 144.237 125.134 144.407 125.443C144.578 125.753 144.663 126.168 144.663 126.688V131H143.657V130.114H143.606C143.538 130.256 143.424 130.408 143.265 130.57C143.106 130.732 142.895 130.869 142.63 130.983C142.366 131.097 142.044 131.153 141.663 131.153ZM141.816 130.25C142.214 130.25 142.549 130.172 142.822 130.016C143.098 129.859 143.305 129.658 143.444 129.411C143.586 129.163 143.657 128.903 143.657 128.631V127.71C143.615 127.761 143.521 127.808 143.376 127.851C143.234 127.891 143.069 127.926 142.882 127.957C142.697 127.986 142.517 128.011 142.341 128.034C142.167 128.054 142.027 128.071 141.919 128.085C141.657 128.119 141.413 128.175 141.186 128.251C140.961 128.325 140.779 128.437 140.64 128.588C140.504 128.736 140.436 128.937 140.436 129.193C140.436 129.543 140.565 129.807 140.824 129.986C141.085 130.162 141.416 130.25 141.816 130.25ZM146.499 131V124.455H147.47V125.477H147.555C147.692 125.128 147.912 124.857 148.216 124.663C148.52 124.467 148.885 124.369 149.311 124.369C149.743 124.369 150.102 124.467 150.389 124.663C150.679 124.857 150.905 125.128 151.067 125.477H151.135C151.303 125.139 151.554 124.871 151.889 124.672C152.224 124.47 152.626 124.369 153.095 124.369C153.68 124.369 154.159 124.553 154.531 124.919C154.903 125.283 155.089 125.849 155.089 126.619V131H154.084V126.619C154.084 126.136 153.952 125.791 153.688 125.584C153.423 125.376 153.112 125.273 152.754 125.273C152.294 125.273 151.938 125.412 151.685 125.69C151.432 125.966 151.305 126.315 151.305 126.739V131H150.283V126.517C150.283 126.145 150.162 125.845 149.92 125.618C149.679 125.388 149.368 125.273 148.987 125.273C148.726 125.273 148.482 125.342 148.254 125.482C148.03 125.621 147.848 125.814 147.709 126.061C147.572 126.305 147.504 126.588 147.504 126.909V131H146.499Z" fill="black"/>
<circle cx="135.5" cy="196.5" r="4" fill="#FF8F87" stroke="black"/>
<path d="M99.7585 204.273H102.034L104.438 210.136H104.54L106.943 204.273H109.219V213H107.429V207.32H107.357L105.098 212.957H103.879L101.621 207.298H101.548V213H99.7585V204.273ZM113.662 213.128C113 213.128 112.428 212.987 111.945 212.706C111.465 212.422 111.094 212.027 110.833 211.521C110.571 211.013 110.441 210.423 110.441 209.753C110.441 209.077 110.571 208.486 110.833 207.98C111.094 207.472 111.465 207.077 111.945 206.795C112.428 206.511 113 206.369 113.662 206.369C114.324 206.369 114.895 206.511 115.375 206.795C115.858 207.077 116.23 207.472 116.492 207.98C116.753 208.486 116.884 209.077 116.884 209.753C116.884 210.423 116.753 211.013 116.492 211.521C116.23 212.027 115.858 212.422 115.375 212.706C114.895 212.987 114.324 213.128 113.662 213.128ZM113.671 211.722C113.972 211.722 114.223 211.636 114.425 211.466C114.627 211.293 114.779 211.057 114.881 210.759C114.986 210.46 115.039 210.121 115.039 209.74C115.039 209.359 114.986 209.02 114.881 208.722C114.779 208.423 114.627 208.187 114.425 208.014C114.223 207.841 113.972 207.754 113.671 207.754C113.367 207.754 113.111 207.841 112.904 208.014C112.699 208.187 112.544 208.423 112.439 208.722C112.337 209.02 112.286 209.359 112.286 209.74C112.286 210.121 112.337 210.46 112.439 210.759C112.544 211.057 112.699 211.293 112.904 211.466C113.111 211.636 113.367 211.722 113.671 211.722ZM119.88 209.216V213H118.064V206.455H119.794V207.609H119.871C120.016 207.229 120.259 206.928 120.6 206.706C120.941 206.482 121.354 206.369 121.84 206.369C122.294 206.369 122.691 206.469 123.029 206.668C123.367 206.866 123.63 207.151 123.817 207.52C124.005 207.886 124.098 208.324 124.098 208.832V213H122.283V209.156C122.286 208.756 122.184 208.443 121.976 208.219C121.769 207.991 121.483 207.878 121.12 207.878C120.875 207.878 120.659 207.93 120.472 208.036C120.287 208.141 120.142 208.294 120.037 208.496C119.935 208.695 119.882 208.935 119.88 209.216ZM129.011 206.455V207.818H125.069V206.455H129.011ZM125.964 204.886H127.779V210.989C127.779 211.156 127.805 211.287 127.856 211.381C127.907 211.472 127.978 211.536 128.069 211.572C128.163 211.609 128.271 211.628 128.393 211.628C128.478 211.628 128.563 211.621 128.648 211.607C128.734 211.589 128.799 211.577 128.844 211.568L129.13 212.919C129.039 212.947 128.911 212.98 128.746 213.017C128.582 213.057 128.381 213.081 128.146 213.089C127.708 213.107 127.325 213.048 126.995 212.915C126.668 212.781 126.414 212.574 126.232 212.293C126.05 212.011 125.961 211.656 125.964 211.227V204.886ZM133.072 215.591C132.484 215.591 131.979 215.51 131.559 215.348C131.141 215.189 130.809 214.972 130.562 214.696C130.315 214.42 130.154 214.111 130.08 213.767L131.759 213.541C131.81 213.672 131.891 213.794 132.002 213.908C132.113 214.021 132.259 214.112 132.441 214.18C132.626 214.251 132.85 214.287 133.114 214.287C133.509 214.287 133.835 214.19 134.09 213.997C134.349 213.807 134.478 213.487 134.478 213.038V211.841H134.401C134.322 212.023 134.202 212.195 134.043 212.357C133.884 212.518 133.68 212.651 133.43 212.753C133.18 212.855 132.881 212.906 132.535 212.906C132.043 212.906 131.596 212.793 131.192 212.565C130.792 212.335 130.472 211.984 130.234 211.513C129.998 211.038 129.88 210.439 129.88 209.714C129.88 208.973 130.001 208.354 130.242 207.857C130.484 207.359 130.805 206.987 131.205 206.74C131.609 206.493 132.05 206.369 132.531 206.369C132.897 206.369 133.204 206.432 133.451 206.557C133.698 206.679 133.897 206.832 134.048 207.017C134.201 207.199 134.319 207.378 134.401 207.554H134.469V206.455H136.272V213.064C136.272 213.621 136.136 214.087 135.863 214.462C135.59 214.837 135.212 215.118 134.729 215.305C134.249 215.496 133.697 215.591 133.072 215.591ZM133.11 211.543C133.403 211.543 133.65 211.47 133.852 211.325C134.056 211.178 134.212 210.967 134.32 210.695C134.431 210.419 134.487 210.089 134.487 209.706C134.487 209.322 134.433 208.99 134.325 208.709C134.217 208.425 134.06 208.205 133.856 208.048C133.651 207.892 133.403 207.814 133.11 207.814C132.812 207.814 132.56 207.895 132.356 208.057C132.151 208.216 131.996 208.437 131.891 208.722C131.786 209.006 131.734 209.334 131.734 209.706C131.734 210.084 131.786 210.411 131.891 210.686C131.999 210.959 132.154 211.17 132.356 211.321C132.56 211.469 132.812 211.543 133.11 211.543ZM140.674 213.128C140.012 213.128 139.44 212.987 138.957 212.706C138.477 212.422 138.106 212.027 137.844 211.521C137.583 211.013 137.452 210.423 137.452 209.753C137.452 209.077 137.583 208.486 137.844 207.98C138.106 207.472 138.477 207.077 138.957 206.795C139.44 206.511 140.012 206.369 140.674 206.369C141.336 206.369 141.907 206.511 142.387 206.795C142.87 207.077 143.242 207.472 143.504 207.98C143.765 208.486 143.896 209.077 143.896 209.753C143.896 210.423 143.765 211.013 143.504 211.521C143.242 212.027 142.87 212.422 142.387 212.706C141.907 212.987 141.336 213.128 140.674 213.128ZM140.683 211.722C140.984 211.722 141.235 211.636 141.437 211.466C141.638 211.293 141.79 211.057 141.893 210.759C141.998 210.46 142.05 210.121 142.05 209.74C142.05 209.359 141.998 209.02 141.893 208.722C141.79 208.423 141.638 208.187 141.437 208.014C141.235 207.841 140.984 207.754 140.683 207.754C140.379 207.754 140.123 207.841 139.915 208.014C139.711 208.187 139.556 208.423 139.451 208.722C139.349 209.02 139.298 209.359 139.298 209.74C139.298 210.121 139.349 210.46 139.451 210.759C139.556 211.057 139.711 211.293 139.915 211.466C140.123 211.636 140.379 211.722 140.683 211.722ZM145.076 213V206.455H146.806V207.609H146.883C147.019 207.226 147.246 206.923 147.565 206.702C147.883 206.48 148.263 206.369 148.707 206.369C149.156 206.369 149.538 206.482 149.853 206.706C150.168 206.928 150.379 207.229 150.484 207.609H150.552C150.685 207.234 150.927 206.935 151.276 206.71C151.629 206.483 152.045 206.369 152.525 206.369C153.136 206.369 153.631 206.564 154.012 206.953C154.396 207.339 154.587 207.888 154.587 208.598V213H152.776V208.956C152.776 208.592 152.68 208.32 152.487 208.138C152.293 207.956 152.052 207.865 151.762 207.865C151.433 207.865 151.175 207.97 150.991 208.18C150.806 208.388 150.714 208.662 150.714 209.003V213H148.954V208.918C148.954 208.597 148.862 208.341 148.677 208.151C148.495 207.96 148.255 207.865 147.957 207.865C147.755 207.865 147.573 207.916 147.411 208.018C147.252 208.118 147.126 208.259 147.032 208.44C146.938 208.619 146.891 208.83 146.891 209.071V213H145.076ZM159.004 213.128C158.331 213.128 157.751 212.991 157.266 212.719C156.783 212.443 156.411 212.054 156.149 211.551C155.888 211.045 155.757 210.447 155.757 209.757C155.757 209.084 155.888 208.493 156.149 207.984C156.411 207.476 156.778 207.08 157.253 206.795C157.73 206.511 158.29 206.369 158.932 206.369C159.364 206.369 159.766 206.439 160.138 206.578C160.513 206.714 160.839 206.92 161.118 207.196C161.399 207.472 161.618 207.818 161.774 208.236C161.93 208.651 162.009 209.136 162.009 209.693V210.192H156.482V209.067H160.3C160.3 208.805 160.243 208.574 160.129 208.372C160.016 208.17 159.858 208.013 159.656 207.899C159.457 207.783 159.226 207.724 158.962 207.724C158.686 207.724 158.442 207.788 158.229 207.916C158.018 208.041 157.854 208.21 157.734 208.423C157.615 208.634 157.554 208.868 157.551 209.126V210.196C157.551 210.52 157.611 210.8 157.73 211.036C157.852 211.271 158.024 211.453 158.246 211.581C158.467 211.709 158.73 211.773 159.034 211.773C159.236 211.773 159.42 211.744 159.588 211.688C159.756 211.631 159.899 211.545 160.018 211.432C160.138 211.318 160.229 211.179 160.291 211.014L161.97 211.125C161.885 211.528 161.71 211.881 161.446 212.182C161.185 212.48 160.847 212.713 160.432 212.881C160.02 213.045 159.544 213.128 159.004 213.128ZM163.193 213V206.455H164.953V207.597H165.021C165.141 207.19 165.341 206.884 165.622 206.676C165.903 206.466 166.227 206.361 166.594 206.361C166.685 206.361 166.783 206.366 166.888 206.378C166.993 206.389 167.085 206.405 167.165 206.425V208.036C167.08 208.01 166.962 207.987 166.811 207.967C166.661 207.947 166.523 207.938 166.398 207.938C166.131 207.938 165.892 207.996 165.682 208.112C165.474 208.226 165.31 208.385 165.188 208.589C165.068 208.794 165.009 209.03 165.009 209.297V213H163.193ZM169.423 215.455C169.193 215.455 168.977 215.436 168.776 215.399C168.577 215.365 168.412 215.321 168.281 215.267L168.69 213.912C168.903 213.977 169.095 214.013 169.266 214.018C169.439 214.024 169.588 213.984 169.713 213.899C169.841 213.814 169.945 213.669 170.024 213.464L170.131 213.188L167.783 206.455H169.692L171.047 211.261H171.115L172.483 206.455H174.405L171.861 213.707C171.739 214.06 171.572 214.366 171.362 214.628C171.155 214.892 170.892 215.095 170.574 215.237C170.256 215.382 169.872 215.455 169.423 215.455Z" fill="black"/>
<circle cx="118.5" cy="20.5" r="4" fill="#FFE587" stroke="black"/>
<path d="M96.0568 37V28.2727H97.1136V32.1591H101.767V28.2727H102.824V37H101.767V33.0966H97.1136V37H96.0568ZM108.928 34.3239V30.4545H109.934V37H108.928V35.892H108.86C108.707 36.2244 108.468 36.5071 108.144 36.7401C107.82 36.9702 107.411 37.0852 106.917 37.0852C106.508 37.0852 106.144 36.9957 105.826 36.8168C105.508 36.6349 105.258 36.3622 105.076 35.9986C104.894 35.6321 104.803 35.1705 104.803 34.6136V30.4545H105.809V34.5455C105.809 35.0227 105.942 35.4034 106.21 35.6875C106.479 35.9716 106.823 36.1136 107.241 36.1136C107.491 36.1136 107.745 36.0497 108.004 35.9219C108.265 35.794 108.484 35.598 108.66 35.3338C108.839 35.0696 108.928 34.733 108.928 34.3239ZM112.782 33.0625V37H111.776V30.4545H112.748V31.4773H112.833C112.986 31.1449 113.219 30.8778 113.532 30.6761C113.844 30.4716 114.248 30.3693 114.742 30.3693C115.185 30.3693 115.573 30.4602 115.905 30.642C116.238 30.821 116.496 31.0938 116.681 31.4602C116.865 31.8239 116.958 32.2841 116.958 32.8409V37H115.952V32.9091C115.952 32.3949 115.819 31.9943 115.551 31.7074C115.284 31.4176 114.918 31.2727 114.452 31.2727C114.131 31.2727 113.844 31.3423 113.591 31.4815C113.341 31.6207 113.144 31.8239 112.999 32.0909C112.854 32.358 112.782 32.6818 112.782 33.0625ZM121.642 30.4545V31.3068H118.25V30.4545H121.642ZM119.239 28.8864H120.244V35.125C120.244 35.4091 120.286 35.6222 120.368 35.7642C120.453 35.9034 120.561 35.9972 120.692 36.0455C120.825 36.0909 120.966 36.1136 121.114 36.1136C121.224 36.1136 121.315 36.108 121.386 36.0966C121.457 36.0824 121.514 36.071 121.557 36.0625L121.761 36.9659C121.693 36.9915 121.598 37.017 121.476 37.0426C121.354 37.071 121.199 37.0852 121.011 37.0852C120.727 37.0852 120.449 37.0241 120.176 36.902C119.906 36.7798 119.682 36.5938 119.503 36.3438C119.327 36.0938 119.239 35.7784 119.239 35.3977V28.8864ZM127.674 31.9205L126.771 32.1761C126.714 32.0256 126.63 31.8793 126.519 31.7372C126.411 31.5923 126.263 31.473 126.076 31.3793C125.888 31.2855 125.648 31.2386 125.356 31.2386C124.955 31.2386 124.621 31.331 124.354 31.5156C124.09 31.6974 123.958 31.929 123.958 32.2102C123.958 32.4602 124.049 32.6577 124.231 32.8026C124.413 32.9474 124.697 33.0682 125.083 33.1648L126.055 33.4034C126.64 33.5455 127.076 33.7628 127.363 34.0554C127.65 34.3452 127.793 34.7187 127.793 35.1761C127.793 35.5511 127.685 35.8864 127.469 36.1818C127.256 36.4773 126.958 36.7102 126.575 36.8807C126.191 37.0511 125.745 37.1364 125.237 37.1364C124.569 37.1364 124.016 36.9915 123.579 36.7017C123.141 36.4119 122.864 35.9886 122.748 35.4318L123.702 35.1932C123.793 35.5455 123.965 35.8097 124.218 35.9858C124.474 36.1619 124.808 36.25 125.219 36.25C125.688 36.25 126.06 36.1506 126.336 35.9517C126.614 35.75 126.754 35.5085 126.754 35.2273C126.754 35 126.674 34.8097 126.515 34.6562C126.356 34.5 126.112 34.3835 125.782 34.3068L124.691 34.0511C124.092 33.9091 123.651 33.6889 123.37 33.3906C123.092 33.0895 122.952 32.7131 122.952 32.2614C122.952 31.892 123.056 31.5653 123.263 31.2812C123.474 30.9972 123.759 30.7741 124.12 30.6122C124.484 30.4503 124.896 30.3693 125.356 30.3693C126.004 30.3693 126.512 30.5114 126.881 30.7955C127.254 31.0795 127.518 31.4545 127.674 31.9205ZM134.659 30.4545L132.239 37H131.216L128.796 30.4545H129.887L131.694 35.6705H131.762L133.569 30.4545H134.659ZM135.987 37V30.4545H136.993V37H135.987ZM136.498 29.3636C136.302 29.3636 136.133 29.2969 135.991 29.1634C135.852 29.0298 135.782 28.8693 135.782 28.6818C135.782 28.4943 135.852 28.3338 135.991 28.2003C136.133 28.0668 136.302 28 136.498 28C136.694 28 136.862 28.0668 137.001 28.2003C137.143 28.3338 137.214 28.4943 137.214 28.6818C137.214 28.8693 137.143 29.0298 137.001 29.1634C136.862 29.2969 136.694 29.3636 136.498 29.3636ZM139.84 28.2727V37H138.835V28.2727H139.84ZM142.688 28.2727V37H141.682V28.2727H142.688ZM147.274 37.1364C146.643 37.1364 146.099 36.9972 145.642 36.7188C145.188 36.4375 144.837 36.0455 144.589 35.5426C144.345 35.0369 144.223 34.4489 144.223 33.7784C144.223 33.108 144.345 32.517 144.589 32.0057C144.837 31.4915 145.18 31.0909 145.621 30.804C146.064 30.5142 146.581 30.3693 147.172 30.3693C147.513 30.3693 147.849 30.4261 148.182 30.5398C148.514 30.6534 148.817 30.8381 149.089 31.0938C149.362 31.3466 149.58 31.6818 149.741 32.0994C149.903 32.517 149.984 33.0312 149.984 33.642V34.0682H144.939V33.1989H148.962C148.962 32.8295 148.888 32.5 148.74 32.2102C148.595 31.9205 148.388 31.6918 148.118 31.5241C147.851 31.3565 147.536 31.2727 147.172 31.2727C146.771 31.2727 146.425 31.3722 146.132 31.571C145.842 31.767 145.619 32.0227 145.463 32.3381C145.307 32.6534 145.229 32.9915 145.229 33.3523V33.9318C145.229 34.4261 145.314 34.8452 145.484 35.1889C145.658 35.5298 145.898 35.7898 146.205 35.9688C146.511 36.1449 146.868 36.233 147.274 36.233C147.538 36.233 147.777 36.196 147.99 36.1222C148.206 36.0455 148.392 35.9318 148.548 35.7812C148.705 35.6278 148.825 35.4375 148.911 35.2102L149.882 35.483C149.78 35.8125 149.608 36.1023 149.366 36.3523C149.125 36.5994 148.827 36.7926 148.472 36.9318C148.116 37.0682 147.717 37.1364 147.274 37.1364Z" fill="black"/>
</svg>
