<svg width="869" height="760" viewBox="0 0 869 760" fill="none" xmlns="http://www.w3.org/2000/svg">
<path d="M126.963 24H123.588L129.733 6.54545H133.636L139.79 24H136.415L131.753 10.125H131.616L126.963 24ZM127.074 17.1562H136.278V19.696H127.074V17.1562ZM142.089 24V6.54545H145.251V21.3494H152.938V24H142.089Z" fill="#FFE587"/>
<path d="M471.415 56.1193C471.273 55.6591 471.077 55.2472 470.827 54.8835C470.582 54.5142 470.287 54.1989 469.94 53.9375C469.599 53.6761 469.207 53.4801 468.764 53.3494C468.321 53.2131 467.838 53.1449 467.315 53.1449C466.378 53.1449 465.543 53.3807 464.81 53.8523C464.077 54.3239 463.5 55.017 463.08 55.9318C462.665 56.8409 462.457 57.9489 462.457 59.2557C462.457 60.5739 462.665 61.6903 463.08 62.6051C463.494 63.5199 464.071 64.2159 464.81 64.6932C465.548 65.1648 466.406 65.4006 467.384 65.4006C468.27 65.4006 469.037 65.2301 469.685 64.8892C470.338 64.5483 470.841 64.0653 471.193 63.4403C471.545 62.8097 471.722 62.071 471.722 61.2244L472.438 61.3352H467.699V58.8636H474.781V60.9602C474.781 62.4545 474.463 63.7472 473.827 64.8381C473.19 65.929 472.315 66.7699 471.202 67.3608C470.088 67.946 468.81 68.2386 467.366 68.2386C465.759 68.2386 464.347 67.8778 463.131 67.1562C461.92 66.429 460.974 65.3977 460.293 64.0625C459.616 62.7216 459.278 61.1307 459.278 59.2898C459.278 57.8807 459.477 56.6222 459.875 55.5142C460.278 54.4062 460.841 53.4659 461.562 52.6932C462.284 51.9148 463.131 51.3239 464.102 50.9205C465.074 50.5114 466.131 50.3068 467.273 50.3068C468.239 50.3068 469.139 50.4489 469.974 50.733C470.81 51.0114 471.551 51.4091 472.199 51.9261C472.852 52.4432 473.389 53.0568 473.81 53.767C474.23 54.4773 474.506 55.2614 474.636 56.1193H471.415ZM479.541 68H476.166L482.311 50.5455H486.214L492.368 68H488.993L484.331 54.125H484.195L479.541 68ZM479.652 61.1562H488.857V63.696H479.652V61.1562Z" fill="#FFE587"/>
<line x1="274.966" y1="0.741181" x2="285.36" y2="39.5319" stroke="#FFE587" stroke-width="2"/>
<path d="M674.409 134.331L686.387 191.937L727.516 286.83L751.645 334.002L767 355.393L754.387 364.718H742.521L754.387 391.047L779.613 449.737L794.419 488.681L815.806 535.853L818 567.667L815.806 595.641L813.065 638.968L809.774 675.723L791.677 699.858L782.856 738.417L765.856 748.127L759.323 745.769L745.065 755.806L729.161 751.418L724.226 755.806L707.774 758L696.258 745.769L698.452 732.22L701.742 727.079L694.065 705.892L673.774 673.678L656.774 662.559H641.419L634.29 647.749L626.065 633.488V615.936L622.021 599.757L603.924 589.61L601.387 581.38L599.194 573.701L601.387 550.663L599.194 535.853L591.516 540.176V555.6L577.258 550.663L564.645 535.853L558.065 515.01L553.129 504.04L545.452 490.875L540.619 473.872L545.452 464.547L549.29 454.735L555.215 446.725L566.731 430.705L555.215 415.181L535.754 411.341V423.957L540.619 442.058H530.889L523.516 437.67H518.032L515.839 432.733V421.215L521.159 409.147L523.516 400.371L527.903 375.14L535.921 356.009C535.816 353.96 535.754 350.56 535.754 345.264C535.754 318.095 532.768 301.691 527.903 290.121L521.159 270.923C513.861 268.253 497.494 268.729 495.548 268.729C493.602 268.729 486.085 255.678 476.355 239.658L459.903 225.396L455.516 203.752H448.935L426.452 177.128L411.645 167.803L390.806 152.445L378.194 157.381L359.548 160.124L357.355 171.094L352.419 177.128H333.774L315.677 191.389L301.968 197.422L288.258 200.165L254.258 203.752L252.065 184.807L232.323 167.803L214.226 152.445L182.419 134.344L141.682 120.981L119.355 118.311L127.581 112.97H156.277L146.547 104.96C143.303 105.85 136.33 107.63 134.384 107.63C132.438 107.63 122.026 112.97 117.161 112.97L105.193 118.311H66.2726L68.7052 112.97L73.5703 110.3L66.2726 104.96L51.6773 107.63L44.3797 115.64L37.082 123.651L24.9193 127.213V120.981L22.4868 115.64L24.9193 107.63L22.4868 100.336L27.7742 80.5898L2 56.8997L4.74194 40H14.0645H285.202L288.258 56.8997L297.365 72.9199L582.194 93.754L586.032 115.64H603.581V105.821V84.4293L601.433 67.5798L616.028 56.8997L628.806 67.5798L647.452 73.4591L662.247 75.59C663.057 82.71 664.679 97.4842 664.679 99.6203C664.679 101.756 666.301 111.19 667.112 115.64L674.409 134.331Z" fill="#97DCFF"/>
<path d="M674.409 134.331L686.387 191.937L727.516 286.83L751.645 334.002L767 355.393L754.387 364.718H742.521L754.387 391.047L779.613 449.737L794.419 488.681L815.806 535.853L818 567.667L815.806 595.641L813.065 638.968L809.774 675.723L791.677 699.858L782.856 738.417L765.856 748.127L759.323 745.769L745.065 755.806L729.161 751.418L724.226 755.806L707.774 758L696.258 745.769L698.452 732.22L701.742 727.079L694.065 705.892L673.774 673.678L656.774 662.559H641.419L634.29 647.749L626.065 633.488V615.936L622.021 599.757L603.924 589.61L601.387 581.38L599.194 573.701L601.387 550.663L599.194 535.853L591.516 540.176V555.6L577.258 550.663L564.645 535.853L558.065 515.01L553.129 504.04L545.452 490.875L540.619 473.872L545.452 464.547L549.29 454.735L555.215 446.725L566.731 430.705L555.215 415.181L535.754 411.341V423.957L540.619 442.058H530.889L523.516 437.67H518.032L515.839 432.733V421.215L521.159 409.147L523.516 400.371L527.903 375.14L538.187 350.604C537.376 349.714 535.754 372.433 535.754 345.264C535.754 318.095 532.768 301.691 527.903 290.121L521.159 270.923C513.861 268.253 497.494 268.729 495.548 268.729C493.602 268.729 486.085 255.678 476.355 239.658L459.903 225.396L455.516 203.752H448.935L426.452 177.128L411.645 167.803L390.806 152.445L378.194 157.381L359.548 160.124L357.355 171.094L352.419 177.128H333.774L315.677 191.389L301.968 197.422L288.258 200.165L254.258 203.752L252.065 184.807L232.323 167.803L214.226 152.445L182.419 134.344L141.682 120.981L119.355 118.311L127.581 112.97H156.277L146.547 104.96C143.303 105.85 136.33 107.63 134.384 107.63C132.438 107.63 122.026 112.97 117.161 112.97L105.193 118.311H66.2726L68.7052 112.97L73.5702 110.3L66.2726 104.96L51.6773 107.63L44.3797 115.64L37.082 123.651L24.9193 127.213V120.981L22.4868 115.64L24.9193 107.63L22.4868 100.336L27.7742 80.5898L2 56.8997L4.74194 40H14.0645H285.202L288.258 56.8997L297.365 72.9199L582.194 93.754L586.032 115.64H603.581V105.821V84.4293L601.433 67.5798L616.028 56.8997L628.806 67.5798L647.452 73.4591L662.247 75.59C663.057 82.71 664.679 97.4842 664.679 99.6203C664.679 101.756 666.301 111.19 667.112 115.64L674.409 134.331Z" stroke="white" stroke-width="2"/>
<circle cx="801.466" cy="679.511" r="9.01136" fill="#FFE587" stroke="black"/>
<path d="M735.202 643.818H737.83L744.009 658.911H744.222L750.401 643.818H753.028V662H750.969V648.186H750.791L745.109 662H743.121L737.439 648.186H737.261V662H735.202V643.818ZM757.159 662V648.364H759.254V662H757.159ZM758.224 646.091C757.816 646.091 757.464 645.952 757.168 645.674C756.878 645.395 756.733 645.061 756.733 644.67C756.733 644.28 756.878 643.945 757.168 643.667C757.464 643.389 757.816 643.25 758.224 643.25C758.633 643.25 758.982 643.389 759.272 643.667C759.568 643.945 759.716 644.28 759.716 644.67C759.716 645.061 759.568 645.395 759.272 645.674C758.982 645.952 758.633 646.091 758.224 646.091ZM767.104 662.32C766.24 662.32 765.456 662.157 764.752 661.831C764.047 661.5 763.488 661.023 763.074 660.402C762.659 659.775 762.452 659.017 762.452 658.129C762.452 657.348 762.606 656.715 762.914 656.229C763.222 655.738 763.633 655.353 764.148 655.075C764.663 654.797 765.231 654.59 765.852 654.454C766.48 654.312 767.11 654.199 767.743 654.116C768.572 654.01 769.244 653.93 769.759 653.877C770.28 653.818 770.658 653.72 770.895 653.584C771.138 653.448 771.259 653.211 771.259 652.874V652.803C771.259 651.927 771.019 651.246 770.54 650.761C770.066 650.275 769.347 650.033 768.383 650.033C767.382 650.033 766.598 650.252 766.03 650.69C765.462 651.128 765.062 651.595 764.831 652.092L762.843 651.382C763.198 650.554 763.671 649.908 764.263 649.447C764.861 648.979 765.512 648.654 766.216 648.47C766.927 648.281 767.625 648.186 768.312 648.186C768.75 648.186 769.253 648.239 769.821 648.346C770.395 648.446 770.948 648.657 771.481 648.976C772.02 649.296 772.466 649.778 772.822 650.423C773.177 651.068 773.354 651.933 773.354 653.016V662H771.259V660.153H771.153C771.01 660.449 770.774 660.766 770.442 661.103C770.111 661.441 769.67 661.728 769.119 661.964C768.569 662.201 767.897 662.32 767.104 662.32ZM767.424 660.438C768.252 660.438 768.951 660.275 769.519 659.949C770.093 659.624 770.525 659.203 770.815 658.689C771.111 658.174 771.259 657.632 771.259 657.064V655.146C771.17 655.253 770.975 655.35 770.673 655.439C770.377 655.522 770.034 655.596 769.643 655.661C769.259 655.72 768.883 655.774 768.516 655.821C768.155 655.862 767.862 655.898 767.637 655.928C767.092 655.999 766.583 656.114 766.11 656.274C765.642 656.428 765.264 656.661 764.974 656.975C764.689 657.283 764.547 657.703 764.547 658.236C764.547 658.964 764.817 659.514 765.355 659.887C765.9 660.254 766.589 660.438 767.424 660.438ZM777.178 662V648.364H779.203V650.494H779.38C779.664 649.766 780.123 649.201 780.756 648.799C781.389 648.39 782.15 648.186 783.038 648.186C783.937 648.186 784.686 648.39 785.284 648.799C785.888 649.201 786.358 649.766 786.695 650.494H786.837C787.187 649.79 787.71 649.231 788.409 648.816C789.107 648.396 789.945 648.186 790.921 648.186C792.14 648.186 793.138 648.568 793.913 649.331C794.688 650.089 795.076 651.27 795.076 652.874V662H792.981V652.874C792.981 651.867 792.706 651.148 792.155 650.716C791.605 650.284 790.957 650.068 790.211 650.068C789.252 650.068 788.509 650.358 787.983 650.938C787.456 651.512 787.193 652.24 787.193 653.122V662H785.062V652.661C785.062 651.885 784.81 651.261 784.307 650.787C783.804 650.308 783.156 650.068 782.363 650.068C781.819 650.068 781.31 650.213 780.836 650.503C780.368 650.793 779.99 651.196 779.7 651.711C779.416 652.22 779.274 652.808 779.274 653.477V662H777.178ZM798.907 662V648.364H801.002V662H798.907ZM799.972 646.091C799.564 646.091 799.212 645.952 798.916 645.674C798.626 645.395 798.481 645.061 798.481 644.67C798.481 644.28 798.626 643.945 798.916 643.667C799.212 643.389 799.564 643.25 799.972 643.25C800.381 643.25 800.73 643.389 801.02 643.667C801.316 643.945 801.464 644.28 801.464 644.67C801.464 645.061 801.316 645.395 801.02 645.674C800.73 645.952 800.381 646.091 799.972 646.091Z" fill="black"/>
<circle cx="671.466" cy="343.511" r="9.01136" fill="#FFE587" stroke="black"/>
<path d="M651.543 371.909C651.543 373.827 651.196 375.484 650.504 376.881C649.811 378.277 648.862 379.355 647.654 380.112C646.447 380.87 645.068 381.249 643.517 381.249C641.966 381.249 640.587 380.87 639.38 380.112C638.173 379.355 637.223 378.277 636.53 376.881C635.838 375.484 635.491 373.827 635.491 371.909C635.491 369.991 635.838 368.334 636.53 366.938C637.223 365.541 638.173 364.464 639.38 363.706C640.587 362.948 641.966 362.57 643.517 362.57C645.068 362.57 646.447 362.948 647.654 363.706C648.862 364.464 649.811 365.541 650.504 366.938C651.196 368.334 651.543 369.991 651.543 371.909ZM649.412 371.909C649.412 370.335 649.149 369.006 648.622 367.923C648.101 366.84 647.394 366.02 646.5 365.464C645.612 364.907 644.618 364.629 643.517 364.629C642.416 364.629 641.419 364.907 640.525 365.464C639.637 366.02 638.93 366.84 638.403 367.923C637.883 369.006 637.622 370.335 637.622 371.909C637.622 373.483 637.883 374.812 638.403 375.895C638.93 376.978 639.637 377.798 640.525 378.354C641.419 378.911 642.416 379.189 643.517 379.189C644.618 379.189 645.612 378.911 646.5 378.354C647.394 377.798 648.101 376.978 648.622 375.895C649.149 374.812 649.412 373.483 649.412 371.909ZM654.961 381V367.364H656.985V369.423H657.127C657.375 368.749 657.825 368.201 658.476 367.781C659.127 367.361 659.861 367.151 660.678 367.151C660.832 367.151 661.024 367.154 661.255 367.159C661.486 367.165 661.66 367.174 661.779 367.186V369.317C661.708 369.299 661.545 369.272 661.29 369.237C661.042 369.195 660.779 369.175 660.5 369.175C659.837 369.175 659.246 369.314 658.725 369.592C658.21 369.864 657.801 370.243 657.5 370.728C657.204 371.208 657.056 371.755 657.056 372.371V381H654.961ZM666.358 362.818V381H664.262V362.818H666.358ZM674.208 381.32C673.344 381.32 672.559 381.157 671.855 380.831C671.151 380.5 670.592 380.023 670.177 379.402C669.763 378.775 669.556 378.017 669.556 377.129C669.556 376.348 669.71 375.715 670.017 375.229C670.325 374.738 670.737 374.353 671.251 374.075C671.766 373.797 672.335 373.59 672.956 373.454C673.583 373.312 674.214 373.199 674.847 373.116C675.676 373.01 676.347 372.93 676.862 372.877C677.383 372.818 677.762 372.72 677.999 372.584C678.241 372.448 678.363 372.211 678.363 371.874V371.803C678.363 370.927 678.123 370.246 677.643 369.761C677.17 369.275 676.451 369.033 675.486 369.033C674.486 369.033 673.702 369.252 673.134 369.69C672.565 370.128 672.166 370.595 671.935 371.092L669.946 370.382C670.301 369.554 670.775 368.908 671.367 368.447C671.965 367.979 672.616 367.654 673.32 367.47C674.03 367.281 674.729 367.186 675.415 367.186C675.853 367.186 676.356 367.239 676.924 367.346C677.498 367.446 678.052 367.657 678.585 367.976C679.123 368.296 679.57 368.778 679.925 369.423C680.28 370.068 680.458 370.933 680.458 372.016V381H678.363V379.153H678.256C678.114 379.449 677.877 379.766 677.546 380.103C677.214 380.441 676.773 380.728 676.223 380.964C675.673 381.201 675.001 381.32 674.208 381.32ZM674.527 379.438C675.356 379.438 676.054 379.275 676.623 378.949C677.197 378.624 677.629 378.203 677.919 377.689C678.215 377.174 678.363 376.632 678.363 376.064V374.146C678.274 374.253 678.078 374.35 677.777 374.439C677.481 374.522 677.137 374.596 676.747 374.661C676.362 374.72 675.986 374.774 675.619 374.821C675.258 374.862 674.965 374.898 674.74 374.928C674.196 374.999 673.687 375.114 673.213 375.274C672.746 375.428 672.367 375.661 672.077 375.975C671.793 376.283 671.651 376.703 671.651 377.236C671.651 377.964 671.92 378.514 672.459 378.887C673.003 379.254 673.693 379.438 674.527 379.438ZM686.377 372.797V381H684.282V367.364H686.306V369.494H686.484C686.803 368.802 687.289 368.246 687.94 367.825C688.591 367.399 689.431 367.186 690.461 367.186C691.384 367.186 692.192 367.375 692.884 367.754C693.577 368.127 694.116 368.695 694.5 369.459C694.885 370.216 695.077 371.175 695.077 372.335V381H692.982V372.477C692.982 371.406 692.704 370.571 692.148 369.974C691.591 369.37 690.828 369.068 689.857 369.068C689.188 369.068 688.591 369.213 688.064 369.503C687.543 369.793 687.132 370.216 686.83 370.773C686.528 371.329 686.377 372.004 686.377 372.797ZM704.055 381.284C702.919 381.284 701.915 380.997 701.045 380.423C700.175 379.843 699.495 379.026 699.004 377.973C698.512 376.913 698.267 375.661 698.267 374.217C698.267 372.785 698.512 371.542 699.004 370.489C699.495 369.435 700.178 368.621 701.054 368.047C701.93 367.473 702.942 367.186 704.091 367.186C704.978 367.186 705.68 367.334 706.195 367.63C706.715 367.92 707.112 368.251 707.384 368.624C707.662 368.991 707.878 369.293 708.032 369.53H708.21V362.818H710.305V381H708.281V378.905H708.032C707.878 379.153 707.659 379.467 707.375 379.846C707.091 380.219 706.686 380.553 706.159 380.849C705.632 381.139 704.931 381.284 704.055 381.284ZM704.339 379.402C705.18 379.402 705.89 379.183 706.47 378.745C707.05 378.301 707.491 377.689 707.793 376.907C708.094 376.12 708.245 375.212 708.245 374.182C708.245 373.164 708.097 372.273 707.801 371.51C707.506 370.74 707.068 370.142 706.488 369.716C705.908 369.284 705.191 369.068 704.339 369.068C703.451 369.068 702.712 369.296 702.12 369.752C701.534 370.202 701.093 370.814 700.797 371.589C700.507 372.359 700.362 373.223 700.362 374.182C700.362 375.152 700.51 376.034 700.806 376.827C701.108 377.615 701.551 378.242 702.137 378.71C702.729 379.171 703.463 379.402 704.339 379.402ZM719.973 381.284C718.742 381.284 717.662 380.991 716.733 380.405C715.809 379.819 715.087 379 714.566 377.946C714.051 376.893 713.794 375.661 713.794 374.253C713.794 372.832 714.051 371.592 714.566 370.533C715.087 369.474 715.809 368.651 716.733 368.065C717.662 367.479 718.742 367.186 719.973 367.186C721.204 367.186 722.281 367.479 723.205 368.065C724.134 368.651 724.856 369.474 725.371 370.533C725.892 371.592 726.152 372.832 726.152 374.253C726.152 375.661 725.892 376.893 725.371 377.946C724.856 379 724.134 379.819 723.205 380.405C722.281 380.991 721.204 381.284 719.973 381.284ZM719.973 379.402C720.908 379.402 721.678 379.162 722.281 378.683C722.885 378.203 723.332 377.573 723.622 376.792C723.912 376.011 724.057 375.164 724.057 374.253C724.057 373.341 723.912 372.492 723.622 371.705C723.332 370.918 722.885 370.281 722.281 369.796C721.678 369.311 720.908 369.068 719.973 369.068C719.038 369.068 718.268 369.311 717.665 369.796C717.061 370.281 716.614 370.918 716.324 371.705C716.034 372.492 715.889 373.341 715.889 374.253C715.889 375.164 716.034 376.011 716.324 376.792C716.614 377.573 717.061 378.203 717.665 378.683C718.268 379.162 719.038 379.402 719.973 379.402Z" fill="black"/>
<circle cx="553.466" cy="414.511" r="9.01136" fill="#FFE587" stroke="black"/>
<path d="M564.207 431.771V429.818H577.844V431.771H572.126V448H569.925V431.771H564.207ZM583.115 448.32C582.251 448.32 581.467 448.157 580.762 447.831C580.058 447.5 579.499 447.023 579.084 446.402C578.67 445.775 578.463 445.017 578.463 444.129C578.463 443.348 578.617 442.715 578.925 442.229C579.232 441.738 579.644 441.353 580.159 441.075C580.674 440.797 581.242 440.59 581.863 440.454C582.491 440.312 583.121 440.199 583.754 440.116C584.583 440.01 585.255 439.93 585.769 439.877C586.29 439.818 586.669 439.72 586.906 439.584C587.148 439.448 587.27 439.211 587.27 438.874V438.803C587.27 437.927 587.03 437.246 586.551 436.761C586.077 436.275 585.358 436.033 584.393 436.033C583.393 436.033 582.609 436.252 582.041 436.69C581.473 437.128 581.073 437.595 580.842 438.092L578.854 437.382C579.209 436.554 579.682 435.908 580.274 435.447C580.872 434.979 581.523 434.654 582.227 434.47C582.937 434.281 583.636 434.186 584.322 434.186C584.76 434.186 585.263 434.239 585.832 434.346C586.406 434.446 586.959 434.657 587.492 434.976C588.03 435.296 588.477 435.778 588.832 436.423C589.187 437.068 589.365 437.933 589.365 439.016V448H587.27V446.153H587.163C587.021 446.449 586.784 446.766 586.453 447.103C586.122 447.441 585.681 447.728 585.13 447.964C584.58 448.201 583.908 448.32 583.115 448.32ZM583.435 446.438C584.263 446.438 584.962 446.275 585.53 445.949C586.104 445.624 586.536 445.203 586.826 444.689C587.122 444.174 587.27 443.632 587.27 443.064V441.146C587.181 441.253 586.986 441.35 586.684 441.439C586.388 441.522 586.045 441.596 585.654 441.661C585.269 441.72 584.893 441.774 584.527 441.821C584.166 441.862 583.873 441.898 583.648 441.928C583.103 441.999 582.594 442.114 582.121 442.274C581.653 442.428 581.274 442.661 580.984 442.975C580.7 443.283 580.558 443.703 580.558 444.236C580.558 444.964 580.827 445.514 581.366 445.887C581.911 446.254 582.6 446.438 583.435 446.438ZM593.189 448V434.364H595.213V436.494H595.391C595.675 435.766 596.134 435.201 596.767 434.799C597.4 434.39 598.161 434.186 599.048 434.186C599.948 434.186 600.697 434.39 601.295 434.799C601.898 435.201 602.369 435.766 602.706 436.494H602.848C603.197 435.79 603.721 435.231 604.42 434.816C605.118 434.396 605.955 434.186 606.932 434.186C608.151 434.186 609.148 434.568 609.924 435.331C610.699 436.089 611.087 437.27 611.087 438.874V448H608.992V438.874C608.992 437.867 608.716 437.148 608.166 436.716C607.616 436.284 606.968 436.068 606.222 436.068C605.263 436.068 604.52 436.358 603.993 436.938C603.467 437.512 603.203 438.24 603.203 439.122V448H601.073V438.661C601.073 437.885 600.821 437.261 600.318 436.787C599.815 436.308 599.167 436.068 598.374 436.068C597.829 436.068 597.32 436.213 596.847 436.503C596.379 436.793 596 437.196 595.71 437.711C595.426 438.22 595.284 438.808 595.284 439.477V448H593.189ZM614.918 453.114V434.364H616.942V436.53H617.19C617.344 436.293 617.557 435.991 617.83 435.624C618.108 435.251 618.504 434.92 619.019 434.63C619.54 434.334 620.244 434.186 621.132 434.186C622.28 434.186 623.292 434.473 624.168 435.047C625.044 435.621 625.728 436.435 626.219 437.489C626.71 438.542 626.956 439.785 626.956 441.217C626.956 442.661 626.71 443.913 626.219 444.973C625.728 446.026 625.047 446.843 624.177 447.423C623.307 447.997 622.304 448.284 621.168 448.284C620.292 448.284 619.59 448.139 619.064 447.849C618.537 447.553 618.131 447.219 617.847 446.846C617.563 446.467 617.344 446.153 617.19 445.905H617.013V453.114H614.918ZM616.977 441.182C616.977 442.212 617.128 443.12 617.43 443.907C617.732 444.689 618.173 445.301 618.753 445.745C619.333 446.183 620.043 446.402 620.884 446.402C621.759 446.402 622.49 446.171 623.076 445.71C623.668 445.242 624.112 444.615 624.408 443.827C624.71 443.034 624.861 442.152 624.861 441.182C624.861 440.223 624.713 439.359 624.417 438.589C624.127 437.814 623.686 437.202 623.094 436.752C622.508 436.296 621.771 436.068 620.884 436.068C620.031 436.068 619.315 436.284 618.735 436.716C618.155 437.142 617.717 437.74 617.421 438.51C617.125 439.273 616.977 440.164 616.977 441.182ZM634.165 448.32C633.301 448.32 632.516 448.157 631.812 447.831C631.108 447.5 630.549 447.023 630.134 446.402C629.72 445.775 629.513 445.017 629.513 444.129C629.513 443.348 629.667 442.715 629.974 442.229C630.282 441.738 630.694 441.353 631.208 441.075C631.723 440.797 632.292 440.59 632.913 440.454C633.54 440.312 634.171 440.199 634.804 440.116C635.633 440.01 636.304 439.93 636.819 439.877C637.34 439.818 637.719 439.72 637.956 439.584C638.198 439.448 638.32 439.211 638.32 438.874V438.803C638.32 437.927 638.08 437.246 637.6 436.761C637.127 436.275 636.408 436.033 635.443 436.033C634.443 436.033 633.659 436.252 633.091 436.69C632.522 437.128 632.123 437.595 631.892 438.092L629.903 437.382C630.259 436.554 630.732 435.908 631.324 435.447C631.922 434.979 632.573 434.654 633.277 434.47C633.987 434.281 634.686 434.186 635.372 434.186C635.81 434.186 636.313 434.239 636.881 434.346C637.455 434.446 638.009 434.657 638.542 434.976C639.08 435.296 639.527 435.778 639.882 436.423C640.237 437.068 640.415 437.933 640.415 439.016V448H638.32V446.153H638.213C638.071 446.449 637.834 446.766 637.503 447.103C637.171 447.441 636.73 447.728 636.18 447.964C635.63 448.201 634.958 448.32 634.165 448.32ZM634.484 446.438C635.313 446.438 636.011 446.275 636.58 445.949C637.154 445.624 637.586 445.203 637.876 444.689C638.172 444.174 638.32 443.632 638.32 443.064V441.146C638.231 441.253 638.036 441.35 637.734 441.439C637.438 441.522 637.094 441.596 636.704 441.661C636.319 441.72 635.943 441.774 635.576 441.821C635.215 441.862 634.922 441.898 634.697 441.928C634.153 441.999 633.644 442.114 633.17 442.274C632.703 442.428 632.324 442.661 632.034 442.975C631.75 443.283 631.608 443.703 631.608 444.236C631.608 444.964 631.877 445.514 632.416 445.887C632.96 446.254 633.65 446.438 634.484 446.438Z" fill="black"/>
<circle cx="640.466" cy="121.511" r="9.01136" fill="#FFE587" stroke="black"/>
<path d="M543.162 141.818H545.364V154.815C545.364 155.975 545.151 156.961 544.724 157.772C544.298 158.583 543.698 159.198 542.922 159.618C542.147 160.038 541.232 160.249 540.179 160.249C539.185 160.249 538.3 160.068 537.525 159.707C536.749 159.34 536.14 158.819 535.696 158.145C535.252 157.47 535.03 156.668 535.03 155.739H537.196C537.196 156.254 537.323 156.703 537.578 157.088C537.838 157.467 538.193 157.763 538.643 157.976C539.093 158.189 539.605 158.295 540.179 158.295C540.812 158.295 541.351 158.162 541.795 157.896C542.239 157.63 542.576 157.239 542.807 156.724C543.044 156.203 543.162 155.567 543.162 154.815V141.818ZM553.505 160.32C552.641 160.32 551.856 160.157 551.152 159.831C550.448 159.5 549.888 159.023 549.474 158.402C549.06 157.775 548.853 157.017 548.853 156.129C548.853 155.348 549.007 154.715 549.314 154.229C549.622 153.738 550.033 153.353 550.548 153.075C551.063 152.797 551.631 152.59 552.253 152.454C552.88 152.312 553.511 152.199 554.144 152.116C554.972 152.01 555.644 151.93 556.159 151.877C556.68 151.818 557.059 151.72 557.295 151.584C557.538 151.448 557.659 151.211 557.659 150.874V150.803C557.659 149.927 557.42 149.246 556.94 148.761C556.467 148.275 555.748 148.033 554.783 148.033C553.783 148.033 552.999 148.252 552.43 148.69C551.862 149.128 551.463 149.595 551.232 150.092L549.243 149.382C549.598 148.554 550.072 147.908 550.664 147.447C551.261 146.979 551.913 146.654 552.617 146.47C553.327 146.281 554.025 146.186 554.712 146.186C555.15 146.186 555.653 146.239 556.221 146.346C556.795 146.446 557.349 146.657 557.881 146.976C558.42 147.296 558.867 147.778 559.222 148.423C559.577 149.068 559.755 149.933 559.755 151.016V160H557.659V158.153H557.553C557.411 158.449 557.174 158.766 556.843 159.103C556.511 159.441 556.07 159.728 555.52 159.964C554.969 160.201 554.298 160.32 553.505 160.32ZM553.824 158.438C554.653 158.438 555.351 158.275 555.919 157.949C556.493 157.624 556.926 157.203 557.216 156.689C557.511 156.174 557.659 155.632 557.659 155.064V153.146C557.571 153.253 557.375 153.35 557.074 153.439C556.778 153.522 556.434 153.596 556.044 153.661C555.659 153.72 555.283 153.774 554.916 153.821C554.555 153.862 554.262 153.898 554.037 153.928C553.493 153.999 552.984 154.114 552.51 154.274C552.043 154.428 551.664 154.661 551.374 154.975C551.09 155.283 550.948 155.703 550.948 156.236C550.948 156.964 551.217 157.514 551.756 157.887C552.3 158.254 552.99 158.438 553.824 158.438ZM569.119 160.284C567.84 160.284 566.739 159.982 565.816 159.379C564.893 158.775 564.182 157.943 563.685 156.884C563.188 155.824 562.94 154.614 562.94 153.253C562.94 151.868 563.194 150.646 563.703 149.586C564.218 148.521 564.934 147.689 565.851 147.092C566.775 146.488 567.852 146.186 569.083 146.186C570.042 146.186 570.906 146.364 571.675 146.719C572.445 147.074 573.075 147.571 573.566 148.21C574.058 148.849 574.362 149.595 574.481 150.447H572.386C572.226 149.826 571.871 149.276 571.32 148.796C570.776 148.311 570.042 148.068 569.119 148.068C568.302 148.068 567.586 148.281 566.97 148.707C566.36 149.128 565.884 149.722 565.541 150.492C565.203 151.255 565.035 152.152 565.035 153.182C565.035 154.235 565.2 155.153 565.532 155.934C565.869 156.715 566.343 157.322 566.952 157.754C567.568 158.186 568.29 158.402 569.119 158.402C569.663 158.402 570.157 158.307 570.601 158.118C571.045 157.929 571.421 157.656 571.729 157.301C572.036 156.946 572.255 156.52 572.386 156.023H574.481C574.362 156.828 574.069 157.553 573.602 158.198C573.14 158.837 572.528 159.346 571.764 159.725C571.007 160.098 570.125 160.284 569.119 160.284ZM579.497 155.028L579.461 152.436H579.887L585.853 146.364H588.446L582.089 152.791H581.911L579.497 155.028ZM577.544 160V141.818H579.639V160H577.544ZM586.208 160L580.882 153.253L582.373 151.797L588.872 160H586.208ZM600.801 149.418L598.919 149.95C598.801 149.637 598.626 149.332 598.395 149.036C598.171 148.734 597.863 148.485 597.472 148.29C597.081 148.095 596.581 147.997 595.972 147.997C595.137 147.997 594.442 148.19 593.885 148.574C593.335 148.953 593.06 149.435 593.06 150.021C593.06 150.542 593.249 150.953 593.628 151.255C594.007 151.557 594.599 151.809 595.404 152.01L597.428 152.507C598.647 152.803 599.555 153.256 600.153 153.865C600.751 154.469 601.05 155.247 601.05 156.2C601.05 156.982 600.825 157.68 600.375 158.295C599.931 158.911 599.31 159.396 598.511 159.751C597.712 160.107 596.783 160.284 595.723 160.284C594.332 160.284 593.181 159.982 592.27 159.379C591.358 158.775 590.781 157.893 590.539 156.733L592.527 156.236C592.717 156.97 593.075 157.52 593.601 157.887C594.134 158.254 594.829 158.438 595.688 158.438C596.664 158.438 597.44 158.23 598.014 157.816C598.594 157.396 598.884 156.893 598.884 156.307C598.884 155.833 598.718 155.437 598.387 155.117C598.055 154.792 597.546 154.549 596.86 154.389L594.587 153.857C593.338 153.561 592.421 153.102 591.835 152.48C591.255 151.853 590.965 151.069 590.965 150.128C590.965 149.358 591.181 148.678 591.613 148.086C592.051 147.494 592.646 147.029 593.397 146.692C594.155 146.355 595.013 146.186 595.972 146.186C597.321 146.186 598.381 146.482 599.15 147.074C599.925 147.666 600.476 148.447 600.801 149.418ZM609.744 160.284C608.512 160.284 607.432 159.991 606.503 159.405C605.58 158.819 604.858 158 604.337 156.946C603.822 155.893 603.565 154.661 603.565 153.253C603.565 151.832 603.822 150.592 604.337 149.533C604.858 148.474 605.58 147.651 606.503 147.065C607.432 146.479 608.512 146.186 609.744 146.186C610.975 146.186 612.052 146.479 612.975 147.065C613.904 147.651 614.626 148.474 615.141 149.533C615.662 150.592 615.922 151.832 615.922 153.253C615.922 154.661 615.662 155.893 615.141 156.946C614.626 158 613.904 158.819 612.975 159.405C612.052 159.991 610.975 160.284 609.744 160.284ZM609.744 158.402C610.679 158.402 611.448 158.162 612.052 157.683C612.655 157.203 613.102 156.573 613.392 155.792C613.682 155.011 613.827 154.164 613.827 153.253C613.827 152.341 613.682 151.492 613.392 150.705C613.102 149.918 612.655 149.281 612.052 148.796C611.448 148.311 610.679 148.068 609.744 148.068C608.808 148.068 608.039 148.311 607.435 148.796C606.832 149.281 606.385 149.918 606.095 150.705C605.805 151.492 605.66 152.341 605.66 153.253C605.66 154.164 605.805 155.011 606.095 155.792C606.385 156.573 606.832 157.203 607.435 157.683C608.039 158.162 608.808 158.402 609.744 158.402ZM621.216 151.797V160H619.121V146.364H621.145V148.494H621.322C621.642 147.802 622.127 147.246 622.778 146.825C623.429 146.399 624.27 146.186 625.3 146.186C626.223 146.186 627.031 146.375 627.723 146.754C628.416 147.127 628.954 147.695 629.339 148.459C629.724 149.216 629.916 150.175 629.916 151.335V160H627.821V151.477C627.821 150.406 627.543 149.571 626.987 148.974C626.43 148.37 625.667 148.068 624.696 148.068C624.027 148.068 623.429 148.213 622.903 148.503C622.382 148.793 621.971 149.216 621.669 149.773C621.367 150.329 621.216 151.004 621.216 151.797ZM644.407 146.364L639.364 160H637.234L632.191 146.364H634.464L638.228 157.23H638.37L642.134 146.364H644.407ZM647.172 160V146.364H649.268V160H647.172ZM648.238 144.091C647.829 144.091 647.477 143.952 647.181 143.674C646.891 143.395 646.746 143.061 646.746 142.67C646.746 142.28 646.891 141.945 647.181 141.667C647.477 141.389 647.829 141.25 648.238 141.25C648.646 141.25 648.995 141.389 649.285 141.667C649.581 141.945 649.729 142.28 649.729 142.67C649.729 143.061 649.581 143.395 649.285 143.674C648.995 143.952 648.646 144.091 648.238 144.091ZM655.2 141.818V160H653.105V141.818H655.2ZM661.133 141.818V160H659.038V141.818H661.133ZM670.688 160.284C669.374 160.284 668.24 159.994 667.287 159.414C666.34 158.828 665.61 158.011 665.095 156.964C664.586 155.91 664.331 154.685 664.331 153.288C664.331 151.892 664.586 150.661 665.095 149.595C665.61 148.524 666.326 147.689 667.243 147.092C668.166 146.488 669.244 146.186 670.475 146.186C671.185 146.186 671.886 146.304 672.579 146.541C673.271 146.778 673.901 147.163 674.47 147.695C675.038 148.222 675.491 148.92 675.828 149.79C676.165 150.661 676.334 151.732 676.334 153.004V153.892H665.823V152.081H674.203C674.203 151.312 674.049 150.625 673.742 150.021C673.44 149.418 673.008 148.941 672.445 148.592C671.889 148.243 671.232 148.068 670.475 148.068C669.64 148.068 668.918 148.275 668.308 148.69C667.705 149.098 667.24 149.631 666.915 150.288C666.589 150.945 666.426 151.649 666.426 152.401V153.608C666.426 154.638 666.604 155.511 666.959 156.227C667.32 156.937 667.82 157.479 668.459 157.852C669.099 158.219 669.841 158.402 670.688 158.402C671.238 158.402 671.735 158.325 672.179 158.171C672.629 158.011 673.017 157.775 673.342 157.461C673.668 157.141 673.919 156.745 674.097 156.271L676.121 156.839C675.908 157.526 675.55 158.13 675.047 158.651C674.544 159.165 673.922 159.568 673.182 159.858C672.443 160.142 671.611 160.284 670.688 160.284Z" fill="black"/>
<circle cx="46.5114" cy="111.511" r="9.01136" fill="#FFE587" stroke="black"/>
<path d="M39.2017 93V74.8182H45.3452C46.7715 74.8182 47.9375 75.0756 48.843 75.5906C49.7545 76.0996 50.4292 76.7891 50.8672 77.6591C51.3052 78.5291 51.5241 79.4998 51.5241 80.571C51.5241 81.6423 51.3052 82.6159 50.8672 83.4918C50.4351 84.3678 49.7663 85.0662 48.8608 85.587C47.9553 86.1019 46.7952 86.3594 45.3807 86.3594H40.9773V84.4062H45.3097C46.2862 84.4062 47.0704 84.2376 47.6623 83.9002C48.2541 83.5629 48.6832 83.1071 48.9496 82.533C49.2218 81.953 49.358 81.299 49.358 80.571C49.358 79.843 49.2218 79.192 48.9496 78.6179C48.6832 78.0438 48.2512 77.594 47.6534 77.2685C47.0556 76.937 46.2625 76.7713 45.2741 76.7713H41.4034V93H39.2017ZM60.3576 93.2841C59.0437 93.2841 57.9103 92.9941 56.9574 92.4141C56.0104 91.8281 55.2795 91.0114 54.7646 89.9638C54.2556 88.9103 54.0011 87.6851 54.0011 86.2884C54.0011 84.8916 54.2556 83.6605 54.7646 82.5952C55.2795 81.5239 55.9956 80.6894 56.913 80.0916C57.8363 79.4879 58.9135 79.1861 60.1445 79.1861C60.8548 79.1861 61.5561 79.3045 62.2486 79.5412C62.9411 79.7779 63.5714 80.1626 64.1396 80.6953C64.7077 81.2221 65.1605 81.9205 65.4979 82.7905C65.8352 83.6605 66.0039 84.7318 66.0039 86.0043V86.892H55.4925V85.081H63.8732C63.8732 84.3116 63.7193 83.625 63.4116 83.0213C63.1097 82.4176 62.6777 81.9412 62.1154 81.592C61.5591 81.2428 60.9021 81.0682 60.1445 81.0682C59.31 81.0682 58.5879 81.2753 57.9783 81.6896C57.3746 82.098 56.91 82.6307 56.5845 83.2876C56.259 83.9446 56.0962 84.6489 56.0962 85.4006V86.608C56.0962 87.6378 56.2738 88.5108 56.6289 89.2269C56.9899 89.9371 57.4901 90.4787 58.1293 90.8516C58.7685 91.2185 59.5112 91.402 60.3576 91.402C60.908 91.402 61.4052 91.325 61.8491 91.1712C62.2989 91.0114 62.6866 90.7746 63.0121 90.4609C63.3376 90.1413 63.5891 89.7448 63.7667 89.2713L65.7908 89.8395C65.5778 90.526 65.2197 91.1297 64.7166 91.6506C64.2135 92.1655 63.5921 92.5679 62.8523 92.858C62.1125 93.142 61.2809 93.2841 60.3576 93.2841ZM71.2862 84.7969V93H69.1911V79.3636H71.2152V81.4943H71.3928C71.7124 80.8018 72.1977 80.2455 72.8487 79.8253C73.4998 79.3991 74.3402 79.1861 75.37 79.1861C76.2933 79.1861 77.1012 79.3755 77.7937 79.7543C78.4862 80.1271 79.0247 80.6953 79.4094 81.4588C79.7942 82.2164 79.9865 83.1752 79.9865 84.3352V93H77.8913V84.4773C77.8913 83.406 77.6132 82.5715 77.0568 81.9737C76.5005 81.37 75.737 81.0682 74.7663 81.0682C74.0975 81.0682 73.4998 81.2132 72.973 81.5032C72.4522 81.7932 72.0408 82.2164 71.739 82.7727C71.4371 83.3291 71.2862 84.0038 71.2862 84.7969ZM93.4742 82.4176L91.5921 82.9503C91.4737 82.6366 91.2991 82.3318 91.0683 82.0359C90.8434 81.734 90.5356 81.4854 90.145 81.2901C89.7544 81.0948 89.2542 80.9972 88.6446 80.9972C87.8101 80.9972 87.1147 81.1895 86.5583 81.5742C86.0079 81.953 85.7327 82.4354 85.7327 83.0213C85.7327 83.5421 85.9221 83.9535 86.3009 84.2553C86.6797 84.5572 87.2715 84.8087 88.0764 85.0099L90.1006 85.5071C91.3198 85.803 92.2283 86.2558 92.8261 86.8654C93.4239 87.4691 93.7227 88.2474 93.7227 89.2003C93.7227 89.9815 93.4978 90.6799 93.048 91.2955C92.6041 91.911 91.9827 92.3963 91.1837 92.7514C90.3847 93.1065 89.4555 93.2841 88.396 93.2841C87.0052 93.2841 85.854 92.9822 84.9426 92.3786C84.0311 91.7749 83.454 90.893 83.2114 89.733L85.2 89.2358C85.3894 89.9697 85.7475 90.5201 86.2742 90.8871C86.8069 91.254 87.5023 91.4375 88.3605 91.4375C89.3371 91.4375 90.1124 91.2304 90.6865 90.8161C91.2665 90.3958 91.5566 89.8928 91.5566 89.3068C91.5566 88.8333 91.3908 88.4368 91.0594 88.1172C90.728 87.7917 90.219 87.549 89.5324 87.3892L87.2597 86.8565C86.0109 86.5606 85.0935 86.1019 84.5075 85.4805C83.9275 84.8531 83.6375 84.0689 83.6375 83.1278C83.6375 82.3584 83.8535 81.6778 84.2856 81.0859C84.7236 80.4941 85.3184 80.0295 86.07 79.6921C86.8276 79.3548 87.6858 79.1861 88.6446 79.1861C89.9941 79.1861 91.0535 79.482 91.8229 80.0739C92.5982 80.6657 93.1486 81.447 93.4742 82.4176ZM100.889 93.3196C100.025 93.3196 99.2411 93.1568 98.5368 92.8313C97.8324 92.4999 97.2731 92.0234 96.8588 91.402C96.4445 90.7746 96.2374 90.017 96.2374 89.1293C96.2374 88.348 96.3913 87.7147 96.699 87.2294C97.0068 86.7382 97.4181 86.3535 97.9331 86.0753C98.448 85.7971 99.0162 85.59 99.6376 85.4538C100.265 85.3118 100.895 85.1993 101.529 85.1165C102.357 85.0099 103.029 84.93 103.544 84.8768C104.065 84.8176 104.443 84.7199 104.68 84.5838C104.923 84.4477 105.044 84.2109 105.044 83.8736V83.8026C105.044 82.9266 104.805 82.246 104.325 81.7607C103.852 81.2753 103.133 81.0327 102.168 81.0327C101.168 81.0327 100.383 81.2517 99.8152 81.6896C99.247 82.1276 98.8475 82.5952 98.6167 83.0923L96.628 82.3821C96.9831 81.5535 97.4566 80.9084 98.0485 80.4467C98.6462 79.9792 99.2973 79.6536 100.002 79.4702C100.712 79.2808 101.41 79.1861 102.097 79.1861C102.535 79.1861 103.038 79.2393 103.606 79.3459C104.18 79.4465 104.733 79.6566 105.266 79.9762C105.805 80.2958 106.252 80.7782 106.607 81.4233C106.962 82.0684 107.139 82.9325 107.139 84.0156V93H105.044V91.1534H104.938C104.796 91.4493 104.559 91.766 104.227 92.1033C103.896 92.4407 103.455 92.7277 102.905 92.9645C102.354 93.2012 101.682 93.3196 100.889 93.3196ZM101.209 91.4375C102.038 91.4375 102.736 91.2747 103.304 90.9492C103.878 90.6237 104.31 90.2035 104.6 89.6886C104.896 89.1737 105.044 88.6321 105.044 88.0639V86.1463C104.955 86.2528 104.76 86.3505 104.458 86.4393C104.162 86.5221 103.819 86.5961 103.428 86.6612C103.044 86.7204 102.668 86.7737 102.301 86.821C101.94 86.8625 101.647 86.898 101.422 86.9276C100.878 86.9986 100.369 87.114 99.8951 87.2738C99.4275 87.4277 99.0487 87.6615 98.7587 87.9751C98.4746 88.2829 98.3326 88.7031 98.3326 89.2358C98.3326 89.9638 98.6019 90.5142 99.1404 90.8871C99.685 91.254 100.374 91.4375 101.209 91.4375ZM116.503 93.2841C115.225 93.2841 114.124 92.9822 113.201 92.3786C112.277 91.7749 111.567 90.9433 111.07 89.8839C110.573 88.8245 110.324 87.6141 110.324 86.2528C110.324 84.8679 110.579 83.6457 111.088 82.5863C111.603 81.521 112.319 80.6894 113.236 80.0916C114.16 79.4879 115.237 79.1861 116.468 79.1861C117.427 79.1861 118.291 79.3636 119.06 79.7188C119.83 80.0739 120.46 80.571 120.951 81.2102C121.442 81.8494 121.747 82.5952 121.866 83.4474H119.77C119.611 82.826 119.255 82.2756 118.705 81.7962C118.16 81.3108 117.427 81.0682 116.503 81.0682C115.687 81.0682 114.97 81.2812 114.355 81.7074C113.745 82.1276 113.269 82.7224 112.926 83.4918C112.588 84.2553 112.419 85.152 112.419 86.1818C112.419 87.2353 112.585 88.1527 112.917 88.9339C113.254 89.7152 113.727 90.3219 114.337 90.7539C114.953 91.186 115.675 91.402 116.503 91.402C117.048 91.402 117.542 91.3073 117.986 91.1179C118.43 90.9285 118.806 90.6562 119.113 90.3011C119.421 89.946 119.64 89.5199 119.77 89.0227H121.866C121.747 89.8277 121.454 90.5527 120.987 91.1978C120.525 91.837 119.912 92.346 119.149 92.7248C118.391 93.0977 117.509 93.2841 116.503 93.2841ZM130.468 93.2841C129.237 93.2841 128.157 92.9911 127.228 92.4052C126.304 91.8192 125.582 90.9995 125.062 89.946C124.547 88.8925 124.289 87.6615 124.289 86.2528C124.289 84.8324 124.547 83.5924 125.062 82.533C125.582 81.4736 126.304 80.6509 127.228 80.065C128.157 79.479 129.237 79.1861 130.468 79.1861C131.699 79.1861 132.776 79.479 133.7 80.065C134.629 80.6509 135.351 81.4736 135.866 82.533C136.387 83.5924 136.647 84.8324 136.647 86.2528C136.647 87.6615 136.387 88.8925 135.866 89.946C135.351 90.9995 134.629 91.8192 133.7 92.4052C132.776 92.9911 131.699 93.2841 130.468 93.2841ZM130.468 91.402C131.403 91.402 132.173 91.1623 132.776 90.6829C133.38 90.2035 133.827 89.5732 134.117 88.7919C134.407 88.0107 134.552 87.1643 134.552 86.2528C134.552 85.3414 134.407 84.4921 134.117 83.7049C133.827 82.9177 133.38 82.2815 132.776 81.7962C132.173 81.3108 131.403 81.0682 130.468 81.0682C129.533 81.0682 128.764 81.3108 128.16 81.7962C127.556 82.2815 127.109 82.9177 126.819 83.7049C126.529 84.4921 126.384 85.3414 126.384 86.2528C126.384 87.1643 126.529 88.0107 126.819 88.7919C127.109 89.5732 127.556 90.2035 128.16 90.6829C128.764 91.1623 129.533 91.402 130.468 91.402ZM141.941 74.8182V93H139.845V74.8182H141.941ZM149.791 93.3196C148.927 93.3196 148.142 93.1568 147.438 92.8313C146.734 92.4999 146.175 92.0234 145.76 91.402C145.346 90.7746 145.139 90.017 145.139 89.1293C145.139 88.348 145.293 87.7147 145.6 87.2294C145.908 86.7382 146.32 86.3535 146.834 86.0753C147.349 85.7971 147.918 85.59 148.539 85.4538C149.166 85.3118 149.797 85.1993 150.43 85.1165C151.259 85.0099 151.93 84.93 152.445 84.8768C152.966 84.8176 153.345 84.7199 153.582 84.5838C153.824 84.4477 153.946 84.2109 153.946 83.8736V83.8026C153.946 82.9266 153.706 82.246 153.226 81.7607C152.753 81.2753 152.034 81.0327 151.069 81.0327C150.069 81.0327 149.285 81.2517 148.717 81.6896C148.148 82.1276 147.749 82.5952 147.518 83.0923L145.529 82.3821C145.884 81.5535 146.358 80.9084 146.95 80.4467C147.548 79.9792 148.199 79.6536 148.903 79.4702C149.613 79.2808 150.312 79.1861 150.998 79.1861C151.436 79.1861 151.939 79.2393 152.507 79.3459C153.081 79.4465 153.635 79.6566 154.168 79.9762C154.706 80.2958 155.153 80.7782 155.508 81.4233C155.863 82.0684 156.041 82.9325 156.041 84.0156V93H153.946V91.1534H153.839C153.697 91.4493 153.46 91.766 153.129 92.1033C152.797 92.4407 152.356 92.7277 151.806 92.9645C151.256 93.2012 150.584 93.3196 149.791 93.3196ZM150.11 91.4375C150.939 91.4375 151.637 91.2747 152.206 90.9492C152.78 90.6237 153.212 90.2035 153.502 89.6886C153.798 89.1737 153.946 88.6321 153.946 88.0639V86.1463C153.857 86.2528 153.661 86.3505 153.36 86.4393C153.064 86.5221 152.72 86.5961 152.33 86.6612C151.945 86.7204 151.569 86.7737 151.202 86.821C150.841 86.8625 150.548 86.898 150.323 86.9276C149.779 86.9986 149.27 87.114 148.796 87.2738C148.329 87.4277 147.95 87.6615 147.66 87.9751C147.376 88.2829 147.234 88.7031 147.234 89.2358C147.234 89.9638 147.503 90.5142 148.042 90.8871C148.586 91.254 149.276 91.4375 150.11 91.4375Z" fill="black"/>
<circle cx="361.148" cy="110.511" r="9.01136" fill="#FF8F87" stroke="black"/>
<path d="M284.888 130.01V126.841H299.82V130.01H294.254V145.023H290.454V130.01H284.888ZM304.241 145.28C303.371 145.28 302.596 145.129 301.915 144.827C301.235 144.52 300.696 144.067 300.3 143.469C299.909 142.865 299.714 142.114 299.714 141.214C299.714 140.457 299.853 139.82 300.131 139.305C300.409 138.79 300.788 138.376 301.267 138.063C301.747 137.749 302.291 137.512 302.901 137.352C303.516 137.192 304.162 137.08 304.836 137.015C305.629 136.932 306.269 136.855 306.754 136.784C307.239 136.707 307.591 136.595 307.81 136.447C308.029 136.299 308.139 136.08 308.139 135.79V135.737C308.139 135.174 307.961 134.739 307.606 134.431C307.257 134.124 306.76 133.97 306.115 133.97C305.434 133.97 304.893 134.121 304.49 134.423C304.088 134.719 303.821 135.091 303.691 135.541L300.193 135.257C300.371 134.429 300.72 133.712 301.241 133.109C301.762 132.499 302.433 132.031 303.256 131.706C304.085 131.375 305.043 131.209 306.132 131.209C306.89 131.209 307.615 131.298 308.308 131.475C309.006 131.653 309.624 131.928 310.163 132.301C310.708 132.674 311.137 133.153 311.45 133.739C311.764 134.319 311.921 135.014 311.921 135.825V145.023H308.334V143.132H308.228C308.009 143.558 307.716 143.934 307.349 144.259C306.982 144.579 306.541 144.83 306.026 145.014C305.511 145.191 304.916 145.28 304.241 145.28ZM305.325 142.67C305.881 142.67 306.372 142.561 306.798 142.342C307.224 142.117 307.559 141.815 307.801 141.436C308.044 141.057 308.165 140.628 308.165 140.149V138.702C308.047 138.779 307.884 138.85 307.677 138.915C307.476 138.974 307.248 139.03 306.994 139.083C306.739 139.131 306.485 139.175 306.23 139.217C305.976 139.252 305.745 139.285 305.538 139.314C305.094 139.379 304.706 139.483 304.375 139.625C304.043 139.767 303.786 139.959 303.602 140.202C303.419 140.439 303.327 140.735 303.327 141.09C303.327 141.605 303.513 141.998 303.886 142.271C304.265 142.537 304.745 142.67 305.325 142.67ZM318.637 126.841V145.023H314.855V126.841H318.637ZM325.448 126.841V145.023H321.666V126.841H325.448ZM332.366 145.28C331.496 145.28 330.721 145.129 330.04 144.827C329.36 144.52 328.821 144.067 328.425 143.469C328.034 142.865 327.839 142.114 327.839 141.214C327.839 140.457 327.978 139.82 328.256 139.305C328.534 138.79 328.913 138.376 329.392 138.063C329.872 137.749 330.416 137.512 331.026 137.352C331.641 137.192 332.287 137.08 332.961 137.015C333.754 136.932 334.394 136.855 334.879 136.784C335.364 136.707 335.716 136.595 335.935 136.447C336.154 136.299 336.264 136.08 336.264 135.79V135.737C336.264 135.174 336.086 134.739 335.731 134.431C335.382 134.124 334.885 133.97 334.24 133.97C333.559 133.97 333.018 134.121 332.615 134.423C332.213 134.719 331.946 135.091 331.816 135.541L328.318 135.257C328.496 134.429 328.845 133.712 329.366 133.109C329.887 132.499 330.558 132.031 331.381 131.706C332.21 131.375 333.168 131.209 334.257 131.209C335.015 131.209 335.74 131.298 336.433 131.475C337.131 131.653 337.749 131.928 338.288 132.301C338.833 132.674 339.262 133.153 339.575 133.739C339.889 134.319 340.046 135.014 340.046 135.825V145.023H336.459V143.132H336.353C336.134 143.558 335.841 143.934 335.474 144.259C335.107 144.579 334.666 144.83 334.151 145.014C333.636 145.191 333.041 145.28 332.366 145.28ZM333.45 142.67C334.006 142.67 334.497 142.561 334.923 142.342C335.349 142.117 335.684 141.815 335.926 141.436C336.169 141.057 336.29 140.628 336.29 140.149V138.702C336.172 138.779 336.009 138.85 335.802 138.915C335.601 138.974 335.373 139.03 335.119 139.083C334.864 139.131 334.61 139.175 334.355 139.217C334.101 139.252 333.87 139.285 333.663 139.314C333.219 139.379 332.831 139.483 332.5 139.625C332.168 139.767 331.911 139.959 331.727 140.202C331.544 140.439 331.452 140.735 331.452 141.09C331.452 141.605 331.638 141.998 332.011 142.271C332.39 142.537 332.87 142.67 333.45 142.67ZM346.762 137.139V145.023H342.98V126.841H346.655V133.792H346.815C347.123 132.987 347.62 132.357 348.307 131.901C348.993 131.44 349.854 131.209 350.89 131.209C351.837 131.209 352.663 131.416 353.367 131.83C354.077 132.239 354.628 132.828 355.018 133.597C355.415 134.36 355.61 135.275 355.604 136.34V145.023H351.822V137.015C351.828 136.174 351.615 135.52 351.183 135.053C350.757 134.585 350.159 134.352 349.39 134.352C348.875 134.352 348.419 134.461 348.023 134.68C347.632 134.899 347.324 135.219 347.099 135.639C346.88 136.053 346.768 136.553 346.762 137.139ZM362.469 145.28C361.599 145.28 360.824 145.129 360.143 144.827C359.462 144.52 358.924 144.067 358.527 143.469C358.137 142.865 357.941 142.114 357.941 141.214C357.941 140.457 358.08 139.82 358.359 139.305C358.637 138.79 359.016 138.376 359.495 138.063C359.974 137.749 360.519 137.512 361.128 137.352C361.744 137.192 362.389 137.08 363.064 137.015C363.857 136.932 364.496 136.855 364.981 136.784C365.467 136.707 365.819 136.595 366.038 136.447C366.257 136.299 366.366 136.08 366.366 135.79V135.737C366.366 135.174 366.189 134.739 365.834 134.431C365.485 134.124 364.987 133.97 364.342 133.97C363.662 133.97 363.12 134.121 362.718 134.423C362.315 134.719 362.049 135.091 361.919 135.541L358.421 135.257C358.598 134.429 358.947 133.712 359.468 133.109C359.989 132.499 360.661 132.031 361.484 131.706C362.312 131.375 363.271 131.209 364.36 131.209C365.118 131.209 365.843 131.298 366.535 131.475C367.233 131.653 367.852 131.928 368.391 132.301C368.935 132.674 369.364 133.153 369.678 133.739C369.992 134.319 370.148 135.014 370.148 135.825V145.023H366.562V143.132H366.455C366.236 143.558 365.943 143.934 365.576 144.259C365.209 144.579 364.768 144.83 364.253 145.014C363.739 145.191 363.144 145.28 362.469 145.28ZM363.552 142.67C364.108 142.67 364.6 142.561 365.026 142.342C365.452 142.117 365.786 141.815 366.029 141.436C366.272 141.057 366.393 140.628 366.393 140.149V138.702C366.275 138.779 366.112 138.85 365.905 138.915C365.704 138.974 365.476 139.03 365.221 139.083C364.967 139.131 364.712 139.175 364.458 139.217C364.203 139.252 363.972 139.285 363.765 139.314C363.321 139.379 362.934 139.483 362.602 139.625C362.271 139.767 362.013 139.959 361.83 140.202C361.646 140.439 361.555 140.735 361.555 141.09C361.555 141.605 361.741 141.998 362.114 142.271C362.493 142.537 362.972 142.67 363.552 142.67ZM384.428 135.275L380.966 135.488C380.907 135.192 380.78 134.926 380.584 134.689C380.389 134.446 380.131 134.254 379.812 134.112C379.498 133.964 379.122 133.89 378.684 133.89C378.098 133.89 377.604 134.014 377.202 134.263C376.799 134.505 376.598 134.831 376.598 135.239C376.598 135.565 376.728 135.84 376.989 136.065C377.249 136.29 377.696 136.47 378.329 136.607L380.797 137.104C382.123 137.376 383.111 137.814 383.763 138.418C384.414 139.021 384.739 139.814 384.739 140.797C384.739 141.691 384.476 142.475 383.949 143.15C383.428 143.824 382.712 144.351 381.801 144.73C380.895 145.103 379.85 145.289 378.667 145.289C376.861 145.289 375.423 144.913 374.352 144.162C373.287 143.404 372.662 142.374 372.479 141.072L376.199 140.877C376.311 141.427 376.583 141.847 377.015 142.137C377.447 142.422 378.001 142.564 378.676 142.564C379.338 142.564 379.871 142.436 380.274 142.182C380.682 141.921 380.889 141.587 380.895 141.179C380.889 140.835 380.744 140.554 380.46 140.335C380.176 140.11 379.738 139.939 379.146 139.82L376.785 139.35C375.453 139.083 374.461 138.622 373.81 137.965C373.165 137.308 372.843 136.47 372.843 135.452C372.843 134.576 373.08 133.822 373.553 133.189C374.032 132.555 374.704 132.067 375.568 131.724C376.438 131.38 377.456 131.209 378.622 131.209C380.345 131.209 381.7 131.573 382.688 132.301C383.683 133.029 384.263 134.02 384.428 135.275ZM398.466 135.275L395.004 135.488C394.945 135.192 394.818 134.926 394.622 134.689C394.427 134.446 394.17 134.254 393.85 134.112C393.536 133.964 393.16 133.89 392.722 133.89C392.137 133.89 391.642 134.014 391.24 134.263C390.837 134.505 390.636 134.831 390.636 135.239C390.636 135.565 390.766 135.84 391.027 136.065C391.287 136.29 391.734 136.47 392.367 136.607L394.835 137.104C396.161 137.376 397.15 137.814 397.801 138.418C398.452 139.021 398.777 139.814 398.777 140.797C398.777 141.691 398.514 142.475 397.987 143.15C397.466 143.824 396.75 144.351 395.839 144.73C394.933 145.103 393.888 145.289 392.705 145.289C390.9 145.289 389.461 144.913 388.39 144.162C387.325 143.404 386.7 142.374 386.517 141.072L390.237 140.877C390.349 141.427 390.621 141.847 391.053 142.137C391.485 142.422 392.039 142.564 392.714 142.564C393.376 142.564 393.909 142.436 394.312 142.182C394.72 141.921 394.927 141.587 394.933 141.179C394.927 140.835 394.782 140.554 394.498 140.335C394.214 140.11 393.776 139.939 393.184 139.82L390.823 139.35C389.491 139.083 388.5 138.622 387.849 137.965C387.203 137.308 386.881 136.47 386.881 135.452C386.881 134.576 387.118 133.822 387.591 133.189C388.07 132.555 388.742 132.067 389.606 131.724C390.476 131.38 391.494 131.209 392.66 131.209C394.383 131.209 395.738 131.573 396.726 132.301C397.721 133.029 398.301 134.02 398.466 135.275ZM407.373 145.289C405.97 145.289 404.763 145.005 403.751 144.437C402.745 143.863 401.969 143.052 401.425 142.004C400.88 140.951 400.608 139.705 400.608 138.267C400.608 136.864 400.88 135.633 401.425 134.574C401.969 133.514 402.736 132.688 403.724 132.097C404.719 131.505 405.885 131.209 407.222 131.209C408.122 131.209 408.959 131.354 409.735 131.644C410.516 131.928 411.197 132.357 411.777 132.931C412.362 133.505 412.818 134.227 413.144 135.097C413.469 135.961 413.632 136.973 413.632 138.134V139.172H402.117V136.828H410.072C410.072 136.284 409.954 135.802 409.717 135.381C409.48 134.961 409.152 134.633 408.731 134.396C408.317 134.153 407.835 134.032 407.284 134.032C406.71 134.032 406.201 134.165 405.757 134.431C405.319 134.692 404.976 135.044 404.728 135.488C404.479 135.926 404.352 136.414 404.346 136.953V139.181C404.346 139.856 404.47 140.439 404.719 140.93C404.973 141.421 405.331 141.8 405.793 142.066C406.255 142.333 406.802 142.466 407.435 142.466C407.855 142.466 408.24 142.407 408.589 142.288C408.939 142.17 409.237 141.992 409.486 141.756C409.735 141.519 409.924 141.229 410.054 140.886L413.552 141.116C413.375 141.957 413.011 142.691 412.46 143.318C411.916 143.94 411.211 144.425 410.347 144.774C409.489 145.117 408.498 145.289 407.373 145.289ZM422.315 145.289C420.912 145.289 419.704 145.005 418.692 144.437C417.686 143.863 416.911 143.052 416.366 142.004C415.822 140.951 415.55 139.705 415.55 138.267C415.55 136.864 415.822 135.633 416.366 134.574C416.911 133.514 417.677 132.688 418.666 132.097C419.66 131.505 420.826 131.209 422.164 131.209C423.063 131.209 423.901 131.354 424.676 131.644C425.457 131.928 426.138 132.357 426.718 132.931C427.304 133.505 427.76 134.227 428.085 135.097C428.411 135.961 428.573 136.973 428.573 138.134V139.172H417.059V136.828H425.013C425.013 136.284 424.895 135.802 424.658 135.381C424.422 134.961 424.093 134.633 423.673 134.396C423.259 134.153 422.776 134.032 422.226 134.032C421.652 134.032 421.143 134.165 420.699 134.431C420.261 134.692 419.918 135.044 419.669 135.488C419.42 135.926 419.293 136.414 419.287 136.953V139.181C419.287 139.856 419.411 140.439 419.66 140.93C419.915 141.421 420.273 141.8 420.734 142.066C421.196 142.333 421.743 142.466 422.377 142.466C422.797 142.466 423.182 142.407 423.531 142.288C423.88 142.17 424.179 141.992 424.427 141.756C424.676 141.519 424.865 141.229 424.996 140.886L428.494 141.116C428.316 141.957 427.952 142.691 427.402 143.318C426.857 143.94 426.153 144.425 425.289 144.774C424.43 145.117 423.439 145.289 422.315 145.289Z" fill="black"/>
</svg>
