<svg width="560" height="806" viewBox="0 0 560 806" fill="none" xmlns="http://www.w3.org/2000/svg">
<path d="M495.06 398.068L482.974 332.193L437.653 50.7273H103.119H90.1901L93.2115 56.7159L102.276 62.7045L56.9545 538.801L62.9974 784.335L69.0402 778.347L87.1687 775.352L93.2115 781.341H108.319V742.415L123.426 733.432L129.469 754.392L132.49 775.352L144.576 784.335L153.64 796.312L168.747 805.295L180.833 802.301L189.897 784.335L195.94 772.358L198.961 763.375L189.897 754.392L195.94 742.415L177.811 718.46L165.726 688.517L177.811 682.528L513.188 679.534L501.103 649.591L507.146 610.665V580.722L501.103 553.773L507.146 517.841L516.21 502.869L528.295 484.903L516.21 472.926V448.972L495.06 398.068Z" fill="#97DCFF"/>
<path d="M437.653 53.7216V50.7273M437.653 50.7273L482.974 332.193L495.06 398.068L516.21 448.972V472.926L528.295 484.903L516.21 502.869L507.146 517.841L501.103 553.773L507.146 580.722V610.665L501.103 649.591L513.188 679.534L177.811 682.528L165.726 688.517L177.811 718.46L195.94 742.415L189.897 754.392L198.961 763.375L195.94 772.358L189.897 784.335L180.833 802.301L168.747 805.295L153.64 796.312L144.576 784.335L132.49 775.352L129.469 754.392L123.426 733.432L108.319 742.415V781.341H93.2115L87.1687 775.352L69.0402 778.347L62.9974 784.335L56.9545 538.801L102.276 62.7045L93.2115 56.7159L90.1901 50.7273H103.119H437.653Z" stroke="white" stroke-width="0.5"/>
<circle cx="172.148" cy="335.011" r="9.01136" fill="#FFE587" stroke="black"/>
<circle cx="273.602" cy="284.284" r="9.01136" fill="#FFE587" stroke="black"/>
<path d="M108.648 358.994V357.432H119.557V358.994H114.983V371.977H113.222V358.994H108.648ZM127.439 367.517V361.068H129.115V371.977H127.439V370.131H127.325C127.069 370.685 126.672 371.156 126.132 371.544C125.592 371.928 124.91 372.119 124.086 372.119C123.404 372.119 122.798 371.97 122.268 371.672C121.738 371.369 121.321 370.914 121.018 370.308C120.715 369.697 120.564 368.928 120.564 368V361.068H122.24V367.886C122.24 368.682 122.462 369.316 122.907 369.79C123.357 370.263 123.93 370.5 124.626 370.5C125.043 370.5 125.467 370.393 125.897 370.18C126.333 369.967 126.698 369.641 126.991 369.2C127.289 368.76 127.439 368.199 127.439 367.517ZM139.912 363.511L138.406 363.937C138.312 363.687 138.172 363.443 137.987 363.206C137.807 362.964 137.561 362.766 137.249 362.609C136.936 362.453 136.536 362.375 136.048 362.375C135.381 362.375 134.824 362.529 134.379 362.837C133.939 363.14 133.719 363.526 133.719 363.994C133.719 364.411 133.87 364.74 134.173 364.982C134.476 365.223 134.95 365.424 135.594 365.585L137.213 365.983C138.188 366.22 138.915 366.582 139.393 367.07C139.872 367.553 140.111 368.175 140.111 368.937C140.111 369.562 139.931 370.121 139.571 370.614C139.216 371.106 138.719 371.494 138.08 371.778C137.44 372.062 136.697 372.205 135.849 372.205C134.737 372.205 133.816 371.963 133.087 371.48C132.357 370.997 131.896 370.292 131.702 369.364L133.293 368.966C133.444 369.553 133.731 369.993 134.152 370.287C134.578 370.58 135.134 370.727 135.821 370.727C136.602 370.727 137.223 370.562 137.682 370.23C138.146 369.894 138.378 369.491 138.378 369.023C138.378 368.644 138.245 368.327 137.98 368.071C137.715 367.811 137.308 367.616 136.759 367.489L134.94 367.062C133.941 366.826 133.207 366.459 132.739 365.962C132.275 365.46 132.043 364.832 132.043 364.08C132.043 363.464 132.215 362.919 132.561 362.446C132.911 361.973 133.387 361.601 133.989 361.331C134.595 361.061 135.281 360.926 136.048 360.926C137.128 360.926 137.975 361.163 138.591 361.636C139.211 362.11 139.652 362.735 139.912 363.511ZM147.066 372.205C146.043 372.205 145.162 371.963 144.424 371.48C143.685 370.997 143.117 370.332 142.719 369.484C142.321 368.637 142.123 367.669 142.123 366.58C142.123 365.472 142.326 364.494 142.733 363.646C143.145 362.794 143.718 362.129 144.452 361.651C145.191 361.168 146.052 360.926 147.037 360.926C147.804 360.926 148.496 361.068 149.111 361.352C149.727 361.636 150.231 362.034 150.624 362.545C151.017 363.057 151.261 363.653 151.355 364.335H149.679C149.551 363.838 149.267 363.398 148.827 363.014C148.391 362.626 147.804 362.432 147.066 362.432C146.412 362.432 145.839 362.602 145.347 362.943C144.859 363.279 144.478 363.755 144.203 364.371C143.934 364.982 143.799 365.699 143.799 366.523C143.799 367.366 143.931 368.099 144.196 368.724C144.466 369.349 144.845 369.835 145.333 370.18C145.825 370.526 146.403 370.699 147.066 370.699C147.501 370.699 147.897 370.623 148.252 370.472C148.607 370.32 148.908 370.102 149.154 369.818C149.4 369.534 149.575 369.193 149.679 368.795H151.355C151.261 369.439 151.026 370.019 150.652 370.536C150.283 371.047 149.793 371.454 149.182 371.757C148.576 372.055 147.871 372.205 147.066 372.205ZM157.016 372.233C156.325 372.233 155.697 372.103 155.134 371.842C154.57 371.577 154.123 371.196 153.792 370.699C153.46 370.197 153.294 369.591 153.294 368.881C153.294 368.256 153.418 367.749 153.664 367.361C153.91 366.968 154.239 366.66 154.651 366.437C155.063 366.215 155.517 366.049 156.015 365.94C156.516 365.827 157.021 365.737 157.527 365.67C158.19 365.585 158.728 365.521 159.14 365.479C159.556 365.431 159.859 365.353 160.049 365.244C160.243 365.135 160.34 364.946 160.34 364.676V364.619C160.34 363.919 160.148 363.374 159.765 362.986C159.386 362.598 158.81 362.403 158.039 362.403C157.239 362.403 156.611 362.579 156.157 362.929C155.702 363.279 155.382 363.653 155.198 364.051L153.607 363.483C153.891 362.82 154.27 362.304 154.743 361.935C155.221 361.561 155.742 361.3 156.306 361.153C156.874 361.002 157.433 360.926 157.982 360.926C158.332 360.926 158.735 360.969 159.189 361.054C159.649 361.134 160.091 361.303 160.517 361.558C160.948 361.814 161.306 362.2 161.59 362.716C161.874 363.232 162.016 363.923 162.016 364.79V371.977H160.34V370.5H160.255C160.141 370.737 159.952 370.99 159.686 371.26C159.421 371.53 159.069 371.759 158.628 371.949C158.188 372.138 157.65 372.233 157.016 372.233ZM157.272 370.727C157.935 370.727 158.493 370.597 158.948 370.337C159.407 370.076 159.753 369.74 159.985 369.328C160.221 368.916 160.34 368.483 160.34 368.028V366.494C160.269 366.58 160.113 366.658 159.871 366.729C159.634 366.795 159.36 366.854 159.047 366.906C158.739 366.954 158.439 366.996 158.145 367.034C157.856 367.067 157.622 367.096 157.442 367.119C157.007 367.176 156.599 367.268 156.221 367.396C155.846 367.519 155.543 367.706 155.311 367.957C155.084 368.204 154.971 368.54 154.971 368.966C154.971 369.548 155.186 369.989 155.617 370.287C156.052 370.58 156.604 370.727 157.272 370.727ZM166.751 357.432V371.977H165.075V357.432H166.751ZM174.253 372.205C173.268 372.205 172.404 371.97 171.661 371.501C170.922 371.033 170.345 370.377 169.928 369.534C169.516 368.691 169.31 367.706 169.31 366.58C169.31 365.443 169.516 364.451 169.928 363.604C170.345 362.756 170.922 362.098 171.661 361.629C172.404 361.161 173.268 360.926 174.253 360.926C175.238 360.926 176.1 361.161 176.838 361.629C177.582 362.098 178.159 362.756 178.571 363.604C178.988 364.451 179.196 365.443 179.196 366.58C179.196 367.706 178.988 368.691 178.571 369.534C178.159 370.377 177.582 371.033 176.838 371.501C176.1 371.97 175.238 372.205 174.253 372.205ZM174.253 370.699C175.001 370.699 175.617 370.507 176.1 370.124C176.583 369.74 176.94 369.236 177.172 368.611C177.404 367.986 177.52 367.309 177.52 366.58C177.52 365.85 177.404 365.171 177.172 364.541C176.94 363.911 176.583 363.402 176.1 363.014C175.617 362.626 175.001 362.432 174.253 362.432C173.505 362.432 172.89 362.626 172.407 363.014C171.924 363.402 171.566 363.911 171.334 364.541C171.102 365.171 170.986 365.85 170.986 366.58C170.986 367.309 171.102 367.986 171.334 368.611C171.566 369.236 171.924 369.74 172.407 370.124C172.89 370.507 173.505 370.699 174.253 370.699ZM186.187 372.205C185.202 372.205 184.338 371.97 183.594 371.501C182.856 371.033 182.278 370.377 181.862 369.534C181.45 368.691 181.244 367.706 181.244 366.58C181.244 365.443 181.45 364.451 181.862 363.604C182.278 362.756 182.856 362.098 183.594 361.629C184.338 361.161 185.202 360.926 186.187 360.926C187.172 360.926 188.033 361.161 188.772 361.629C189.515 362.098 190.093 362.756 190.505 363.604C190.922 364.451 191.13 365.443 191.13 366.58C191.13 367.706 190.922 368.691 190.505 369.534C190.093 370.377 189.515 371.033 188.772 371.501C188.033 371.97 187.172 372.205 186.187 372.205ZM186.187 370.699C186.935 370.699 187.55 370.507 188.033 370.124C188.516 369.74 188.874 369.236 189.106 368.611C189.338 367.986 189.454 367.309 189.454 366.58C189.454 365.85 189.338 365.171 189.106 364.541C188.874 363.911 188.516 363.402 188.033 363.014C187.55 362.626 186.935 362.432 186.187 362.432C185.439 362.432 184.823 362.626 184.34 363.014C183.857 363.402 183.5 363.911 183.268 364.541C183.036 365.171 182.92 365.85 182.92 366.58C182.92 367.309 183.036 367.986 183.268 368.611C183.5 369.236 183.857 369.74 184.34 370.124C184.823 370.507 185.439 370.699 186.187 370.699ZM201.416 363.511L199.91 363.937C199.815 363.687 199.676 363.443 199.491 363.206C199.311 362.964 199.065 362.766 198.752 362.609C198.44 362.453 198.04 362.375 197.552 362.375C196.885 362.375 196.328 362.529 195.883 362.837C195.443 363.14 195.223 363.526 195.223 363.994C195.223 364.411 195.374 364.74 195.677 364.982C195.98 365.223 196.454 365.424 197.098 365.585L198.717 365.983C199.692 366.22 200.419 366.582 200.897 367.07C201.376 367.553 201.615 368.175 201.615 368.937C201.615 369.562 201.435 370.121 201.075 370.614C200.72 371.106 200.223 371.494 199.583 371.778C198.944 372.062 198.201 372.205 197.353 372.205C196.241 372.205 195.32 371.963 194.591 371.48C193.861 370.997 193.4 370.292 193.206 369.364L194.797 368.966C194.948 369.553 195.234 369.993 195.656 370.287C196.082 370.58 196.638 370.727 197.325 370.727C198.106 370.727 198.726 370.562 199.186 370.23C199.65 369.894 199.882 369.491 199.882 369.023C199.882 368.644 199.749 368.327 199.484 368.071C199.219 367.811 198.812 367.616 198.262 367.489L196.444 367.062C195.445 366.826 194.711 366.459 194.243 365.962C193.779 365.46 193.547 364.832 193.547 364.08C193.547 363.464 193.719 362.919 194.065 362.446C194.415 361.973 194.891 361.601 195.493 361.331C196.099 361.061 196.785 360.926 197.552 360.926C198.632 360.926 199.479 361.163 200.095 361.636C200.715 362.11 201.155 362.735 201.416 363.511ZM207.348 372.233C206.657 372.233 206.029 372.103 205.466 371.842C204.902 371.577 204.455 371.196 204.124 370.699C203.792 370.197 203.626 369.591 203.626 368.881C203.626 368.256 203.75 367.749 203.996 367.361C204.242 366.968 204.571 366.66 204.983 366.437C205.395 366.215 205.849 366.049 206.347 365.94C206.848 365.827 207.353 365.737 207.859 365.67C208.522 365.585 209.06 365.521 209.472 365.479C209.888 365.431 210.191 365.353 210.381 365.244C210.575 365.135 210.672 364.946 210.672 364.676V364.619C210.672 363.919 210.48 363.374 210.097 362.986C209.718 362.598 209.143 362.403 208.371 362.403C207.571 362.403 206.943 362.579 206.489 362.929C206.034 363.279 205.714 363.653 205.53 364.051L203.939 363.483C204.223 362.82 204.602 362.304 205.075 361.935C205.554 361.561 206.074 361.3 206.638 361.153C207.206 361.002 207.765 360.926 208.314 360.926C208.664 360.926 209.067 360.969 209.521 361.054C209.981 361.134 210.423 361.303 210.849 361.558C211.28 361.814 211.638 362.2 211.922 362.716C212.206 363.232 212.348 363.923 212.348 364.79V371.977H210.672V370.5H210.587C210.473 370.737 210.284 370.99 210.018 371.26C209.753 371.53 209.401 371.759 208.96 371.949C208.52 372.138 207.982 372.233 207.348 372.233ZM207.604 370.727C208.267 370.727 208.825 370.597 209.28 370.337C209.739 370.076 210.085 369.74 210.317 369.328C210.554 368.916 210.672 368.483 210.672 368.028V366.494C210.601 366.58 210.445 366.658 210.203 366.729C209.966 366.795 209.692 366.854 209.379 366.906C209.072 366.954 208.771 366.996 208.477 367.034C208.188 367.067 207.954 367.096 207.774 367.119C207.339 367.176 206.931 367.268 206.553 367.396C206.179 367.519 205.875 367.706 205.643 367.957C205.416 368.204 205.303 368.54 205.303 368.966C205.303 369.548 205.518 369.989 205.949 370.287C206.384 370.58 206.936 370.727 207.604 370.727Z" fill="black"/>
<circle cx="108.739" cy="728.148" r="9.01136" fill="#FFE587" stroke="black"/>
<path d="M79.8523 685.045H81.9545L86.8977 697.119H87.0682L92.0114 685.045H94.1136V699.591H92.4659V688.54H92.3239L87.7784 699.591H86.1875L81.642 688.54H81.5V699.591H79.8523V685.045ZM101.85 699.818C100.865 699.818 100.001 699.584 99.2575 699.115C98.5188 698.646 97.9412 697.991 97.5245 697.148C97.1126 696.305 96.9066 695.32 96.9066 694.193C96.9066 693.057 97.1126 692.065 97.5245 691.217C97.9412 690.37 98.5188 689.712 99.2575 689.243C100.001 688.774 100.865 688.54 101.85 688.54C102.835 688.54 103.696 688.774 104.435 689.243C105.178 689.712 105.756 690.37 106.168 691.217C106.585 692.065 106.793 693.057 106.793 694.193C106.793 695.32 106.585 696.305 106.168 697.148C105.756 697.991 105.178 698.646 104.435 699.115C103.696 699.584 102.835 699.818 101.85 699.818ZM101.85 698.312C102.598 698.312 103.213 698.121 103.696 697.737C104.179 697.354 104.537 696.849 104.769 696.224C105.001 695.599 105.117 694.922 105.117 694.193C105.117 693.464 105.001 692.785 104.769 692.155C104.537 691.525 104.179 691.016 103.696 690.628C103.213 690.24 102.598 690.045 101.85 690.045C101.102 690.045 100.486 690.24 100.003 690.628C99.5202 691.016 99.1628 691.525 98.9308 692.155C98.6987 692.785 98.5827 693.464 98.5827 694.193C98.5827 694.922 98.6987 695.599 98.9308 696.224C99.1628 696.849 99.5202 697.354 100.003 697.737C100.486 698.121 101.102 698.312 101.85 698.312ZM109.579 699.591V685.045H111.255V690.415H111.397C111.52 690.225 111.691 689.984 111.908 689.69C112.131 689.392 112.448 689.127 112.86 688.895C113.277 688.658 113.84 688.54 114.55 688.54C115.469 688.54 116.279 688.769 116.979 689.229C117.68 689.688 118.227 690.339 118.62 691.182C119.013 692.025 119.21 693.019 119.21 694.165C119.21 695.32 119.013 696.321 118.62 697.169C118.227 698.012 117.683 698.665 116.987 699.129C116.29 699.589 115.488 699.818 114.579 699.818C113.878 699.818 113.317 699.702 112.896 699.47C112.474 699.233 112.15 698.966 111.923 698.668C111.695 698.365 111.52 698.114 111.397 697.915H111.198V699.591H109.579ZM111.227 694.136C111.227 694.96 111.347 695.687 111.589 696.317C111.83 696.942 112.183 697.432 112.647 697.787C113.111 698.137 113.679 698.312 114.352 698.312C115.052 698.312 115.637 698.128 116.106 697.758C116.579 697.384 116.934 696.883 117.171 696.253C117.413 695.618 117.533 694.913 117.533 694.136C117.533 693.369 117.415 692.678 117.178 692.062C116.946 691.442 116.594 690.952 116.12 690.592C115.651 690.228 115.062 690.045 114.352 690.045C113.67 690.045 113.097 690.218 112.633 690.564C112.169 690.905 111.818 691.383 111.582 691.999C111.345 692.609 111.227 693.322 111.227 694.136ZM121.773 699.591V688.682H123.45V699.591H121.773ZM122.626 686.864C122.299 686.864 122.017 686.752 121.781 686.53C121.549 686.307 121.433 686.04 121.433 685.727C121.433 685.415 121.549 685.147 121.781 684.925C122.017 684.702 122.299 684.591 122.626 684.591C122.952 684.591 123.232 684.702 123.464 684.925C123.701 685.147 123.819 685.415 123.819 685.727C123.819 686.04 123.701 686.307 123.464 686.53C123.232 686.752 122.952 686.864 122.626 686.864ZM128.196 685.045V699.591H126.52V685.045H128.196ZM135.839 699.818C134.788 699.818 133.882 699.586 133.119 699.122C132.362 698.653 131.777 698 131.365 697.162C130.958 696.319 130.754 695.339 130.754 694.222C130.754 693.104 130.958 692.119 131.365 691.267C131.777 690.41 132.35 689.742 133.084 689.264C133.822 688.781 134.684 688.54 135.669 688.54C136.237 688.54 136.798 688.634 137.352 688.824C137.906 689.013 138.411 689.321 138.865 689.747C139.32 690.169 139.682 690.727 139.952 691.423C140.222 692.119 140.357 692.976 140.357 693.994V694.705H131.947V693.256H138.652C138.652 692.64 138.529 692.091 138.283 691.608C138.041 691.125 137.696 690.744 137.246 690.464C136.801 690.185 136.275 690.045 135.669 690.045C135.001 690.045 134.424 690.211 133.936 690.543C133.453 690.869 133.081 691.295 132.821 691.821C132.561 692.347 132.43 692.91 132.43 693.511V694.477C132.43 695.301 132.572 695.999 132.857 696.572C133.145 697.141 133.545 697.574 134.057 697.872C134.568 698.166 135.162 698.312 135.839 698.312C136.28 698.312 136.678 698.251 137.033 698.128C137.393 698 137.703 697.811 137.963 697.56C138.223 697.304 138.425 696.987 138.567 696.608L140.186 697.062C140.016 697.612 139.729 698.095 139.327 698.511C138.924 698.923 138.427 699.245 137.835 699.477C137.243 699.705 136.578 699.818 135.839 699.818Z" fill="black"/>
<path d="M244.716 319.136V304.591H249.801C250.814 304.591 251.65 304.766 252.308 305.116C252.966 305.462 253.456 305.928 253.778 306.516C254.1 307.098 254.261 307.744 254.261 308.455C254.261 309.08 254.15 309.596 253.928 310.003C253.71 310.41 253.421 310.732 253.061 310.969C252.706 311.205 252.32 311.381 251.903 311.494V311.636C252.348 311.665 252.796 311.821 253.246 312.105C253.696 312.389 254.072 312.796 254.375 313.327C254.678 313.857 254.83 314.506 254.83 315.273C254.83 316.002 254.664 316.658 254.332 317.24C254.001 317.822 253.478 318.284 252.763 318.625C252.048 318.966 251.117 319.136 249.972 319.136H244.716ZM246.477 317.574H249.972C251.122 317.574 251.939 317.351 252.422 316.906C252.91 316.456 253.153 315.912 253.153 315.273C253.153 314.78 253.028 314.326 252.777 313.909C252.526 313.488 252.169 313.152 251.705 312.901C251.241 312.645 250.691 312.517 250.057 312.517H246.477V317.574ZM246.477 310.983H249.744C250.275 310.983 250.753 310.879 251.179 310.67C251.61 310.462 251.951 310.169 252.202 309.79C252.457 309.411 252.585 308.966 252.585 308.455C252.585 307.815 252.363 307.273 251.918 306.828C251.473 306.378 250.767 306.153 249.801 306.153H246.477V310.983ZM257.496 319.136V308.227H259.173V319.136H257.496ZM258.349 306.409C258.022 306.409 257.74 306.298 257.504 306.075C257.272 305.853 257.156 305.585 257.156 305.273C257.156 304.96 257.272 304.693 257.504 304.47C257.74 304.248 258.022 304.136 258.349 304.136C258.675 304.136 258.955 304.248 259.187 304.47C259.424 304.693 259.542 304.96 259.542 305.273C259.542 305.585 259.424 305.853 259.187 306.075C258.955 306.298 258.675 306.409 258.349 306.409ZM262.243 319.136V308.227H263.862V309.875H263.975C264.174 309.335 264.534 308.897 265.055 308.561C265.576 308.225 266.163 308.057 266.816 308.057C266.939 308.057 267.093 308.059 267.278 308.064C267.463 308.069 267.602 308.076 267.697 308.085V309.79C267.64 309.776 267.51 309.754 267.306 309.726C267.108 309.693 266.897 309.676 266.674 309.676C266.144 309.676 265.671 309.787 265.254 310.01C264.842 310.228 264.515 310.531 264.274 310.919C264.037 311.303 263.919 311.741 263.919 312.233V319.136H262.243ZM269.684 319.136V308.227H271.303V309.932H271.445C271.673 309.349 272.04 308.897 272.546 308.575C273.053 308.249 273.661 308.085 274.371 308.085C275.091 308.085 275.69 308.249 276.168 308.575C276.651 308.897 277.028 309.349 277.298 309.932H277.411C277.691 309.368 278.11 308.921 278.668 308.589C279.227 308.253 279.897 308.085 280.678 308.085C281.654 308.085 282.451 308.391 283.072 309.001C283.692 309.607 284.002 310.552 284.002 311.835V319.136H282.326V311.835C282.326 311.03 282.106 310.455 281.665 310.109C281.225 309.764 280.707 309.591 280.11 309.591C279.343 309.591 278.749 309.823 278.327 310.287C277.906 310.746 277.695 311.329 277.695 312.034V319.136H275.991V311.665C275.991 311.044 275.79 310.545 275.387 310.166C274.985 309.783 274.466 309.591 273.832 309.591C273.396 309.591 272.989 309.707 272.61 309.939C272.236 310.171 271.933 310.493 271.701 310.905C271.474 311.312 271.36 311.783 271.36 312.318V319.136H269.684ZM287.067 319.136V308.227H288.743V319.136H287.067ZM287.919 306.409C287.592 306.409 287.311 306.298 287.074 306.075C286.842 305.853 286.726 305.585 286.726 305.273C286.726 304.96 286.842 304.693 287.074 304.47C287.311 304.248 287.592 304.136 287.919 304.136C288.246 304.136 288.525 304.248 288.757 304.47C288.994 304.693 289.112 304.96 289.112 305.273C289.112 305.585 288.994 305.853 288.757 306.075C288.525 306.298 288.246 306.409 287.919 306.409ZM293.489 312.574V319.136H291.813V308.227H293.432V309.932H293.574C293.83 309.378 294.218 308.933 294.739 308.597C295.26 308.256 295.932 308.085 296.756 308.085C297.495 308.085 298.141 308.237 298.695 308.54C299.249 308.838 299.68 309.293 299.988 309.903C300.295 310.509 300.449 311.277 300.449 312.205V319.136H298.773V312.318C298.773 311.461 298.551 310.794 298.105 310.315C297.66 309.832 297.05 309.591 296.273 309.591C295.738 309.591 295.26 309.707 294.838 309.939C294.422 310.171 294.093 310.509 293.851 310.955C293.61 311.4 293.489 311.939 293.489 312.574ZM307.915 323.455C307.106 323.455 306.41 323.35 305.827 323.142C305.245 322.938 304.76 322.669 304.371 322.332C303.988 322.001 303.683 321.646 303.455 321.267L304.79 320.33C304.942 320.528 305.134 320.756 305.366 321.011C305.598 321.272 305.915 321.497 306.317 321.686C306.725 321.88 307.257 321.977 307.915 321.977C308.796 321.977 309.523 321.764 310.096 321.338C310.669 320.912 310.955 320.244 310.955 319.335V317.119H310.813C310.69 317.318 310.515 317.564 310.288 317.858C310.065 318.147 309.743 318.405 309.322 318.632C308.905 318.855 308.342 318.966 307.631 318.966C306.751 318.966 305.96 318.758 305.259 318.341C304.563 317.924 304.012 317.318 303.604 316.523C303.202 315.727 303.001 314.761 303.001 313.625C303.001 312.508 303.197 311.535 303.59 310.706C303.983 309.873 304.53 309.229 305.231 308.774C305.932 308.315 306.741 308.085 307.66 308.085C308.37 308.085 308.933 308.204 309.35 308.44C309.772 308.672 310.093 308.937 310.316 309.236C310.543 309.529 310.718 309.771 310.842 309.96H311.012V308.227H312.631V319.449C312.631 320.386 312.418 321.149 311.992 321.736C311.571 322.328 311.003 322.761 310.288 323.036C309.577 323.315 308.787 323.455 307.915 323.455ZM307.859 317.46C308.531 317.46 309.099 317.306 309.563 316.999C310.027 316.691 310.38 316.248 310.621 315.67C310.863 315.093 310.984 314.402 310.984 313.597C310.984 312.811 310.865 312.117 310.629 311.516C310.392 310.914 310.041 310.443 309.577 310.102C309.113 309.761 308.54 309.591 307.859 309.591C307.148 309.591 306.557 309.771 306.083 310.131C305.614 310.491 305.262 310.973 305.025 311.58C304.793 312.186 304.677 312.858 304.677 313.597C304.677 314.354 304.795 315.024 305.032 315.607C305.273 316.184 305.629 316.639 306.097 316.97C306.571 317.297 307.158 317.46 307.859 317.46ZM317.376 312.574V319.136H315.7V304.591H317.376V309.932H317.518C317.773 309.368 318.157 308.921 318.668 308.589C319.184 308.253 319.871 308.085 320.728 308.085C321.471 308.085 322.122 308.234 322.681 308.533C323.24 308.826 323.673 309.278 323.981 309.889C324.293 310.495 324.45 311.267 324.45 312.205V319.136H322.773V312.318C322.773 311.452 322.549 310.782 322.099 310.308C321.654 309.83 321.036 309.591 320.245 309.591C319.696 309.591 319.203 309.707 318.768 309.939C318.337 310.171 317.996 310.509 317.745 310.955C317.499 311.4 317.376 311.939 317.376 312.574ZM330.726 319.392C330.035 319.392 329.408 319.262 328.844 319.001C328.281 318.736 327.833 318.355 327.502 317.858C327.17 317.356 327.005 316.75 327.005 316.04C327.005 315.415 327.128 314.908 327.374 314.52C327.62 314.127 327.949 313.819 328.361 313.597C328.773 313.374 329.228 313.208 329.725 313.099C330.227 312.986 330.731 312.896 331.238 312.83C331.9 312.744 332.438 312.68 332.85 312.638C333.266 312.59 333.569 312.512 333.759 312.403C333.953 312.294 334.05 312.105 334.05 311.835V311.778C334.05 311.078 333.858 310.533 333.475 310.145C333.096 309.757 332.521 309.562 331.749 309.562C330.949 309.562 330.321 309.738 329.867 310.088C329.412 310.438 329.093 310.812 328.908 311.21L327.317 310.642C327.601 309.979 327.98 309.463 328.453 309.094C328.932 308.72 329.453 308.459 330.016 308.312C330.584 308.161 331.143 308.085 331.692 308.085C332.042 308.085 332.445 308.128 332.899 308.213C333.359 308.294 333.801 308.462 334.228 308.717C334.658 308.973 335.016 309.359 335.3 309.875C335.584 310.391 335.726 311.082 335.726 311.949V319.136H334.05V317.659H333.965C333.851 317.896 333.662 318.149 333.397 318.419C333.131 318.689 332.779 318.919 332.338 319.108C331.898 319.297 331.361 319.392 330.726 319.392ZM330.982 317.886C331.645 317.886 332.203 317.756 332.658 317.496C333.117 317.235 333.463 316.899 333.695 316.487C333.932 316.075 334.05 315.642 334.05 315.187V313.653C333.979 313.739 333.823 313.817 333.581 313.888C333.345 313.954 333.07 314.013 332.757 314.065C332.45 314.113 332.149 314.155 331.855 314.193C331.567 314.226 331.332 314.255 331.152 314.278C330.717 314.335 330.31 314.428 329.931 314.555C329.557 314.678 329.254 314.866 329.022 315.116C328.794 315.363 328.681 315.699 328.681 316.125C328.681 316.707 328.896 317.148 329.327 317.446C329.763 317.74 330.314 317.886 330.982 317.886ZM338.785 319.136V308.227H340.405V309.932H340.547C340.774 309.349 341.141 308.897 341.648 308.575C342.154 308.249 342.763 308.085 343.473 308.085C344.193 308.085 344.792 308.249 345.27 308.575C345.753 308.897 346.129 309.349 346.399 309.932H346.513C346.792 309.368 347.211 308.921 347.77 308.589C348.329 308.253 348.999 308.085 349.78 308.085C350.755 308.085 351.553 308.391 352.173 309.001C352.794 309.607 353.104 310.552 353.104 311.835V319.136H351.428V311.835C351.428 311.03 351.207 310.455 350.767 310.109C350.327 309.764 349.808 309.591 349.212 309.591C348.445 309.591 347.85 309.823 347.429 310.287C347.008 310.746 346.797 311.329 346.797 312.034V319.136H345.092V311.665C345.092 311.044 344.891 310.545 344.489 310.166C344.086 309.783 343.568 309.591 342.933 309.591C342.498 309.591 342.09 309.707 341.712 309.939C341.338 310.171 341.035 310.493 340.803 310.905C340.575 311.312 340.462 311.783 340.462 312.318V319.136H338.785Z" fill="black"/>
<circle cx="341.239" cy="463.943" r="9.01136" fill="#FF8F87" stroke="black"/>
<path d="M265.355 477.909H269.148L273.153 487.682H273.324L277.33 477.909H281.122V492.455H278.139V482.987H278.018L274.254 492.384H272.223L268.459 482.952H268.338V492.455H265.355V477.909ZM288.528 492.668C287.425 492.668 286.471 492.433 285.666 491.965C284.866 491.491 284.248 490.833 283.812 489.99C283.377 489.143 283.159 488.16 283.159 487.043C283.159 485.916 283.377 484.931 283.812 484.088C284.248 483.241 284.866 482.582 285.666 482.114C286.471 481.64 287.425 481.403 288.528 481.403C289.631 481.403 290.583 481.64 291.383 482.114C292.188 482.582 292.808 483.241 293.244 484.088C293.68 484.931 293.897 485.916 293.897 487.043C293.897 488.16 293.68 489.143 293.244 489.99C292.808 490.833 292.188 491.491 291.383 491.965C290.583 492.433 289.631 492.668 288.528 492.668ZM288.542 490.324C289.044 490.324 289.463 490.182 289.799 489.898C290.136 489.609 290.389 489.216 290.559 488.719C290.734 488.222 290.822 487.656 290.822 487.021C290.822 486.387 290.734 485.821 290.559 485.324C290.389 484.827 290.136 484.434 289.799 484.145C289.463 483.856 289.044 483.712 288.542 483.712C288.036 483.712 287.609 483.856 287.264 484.145C286.923 484.434 286.665 484.827 286.49 485.324C286.319 485.821 286.234 486.387 286.234 487.021C286.234 487.656 286.319 488.222 286.49 488.719C286.665 489.216 286.923 489.609 287.264 489.898C287.609 490.182 288.036 490.324 288.542 490.324ZM298.89 486.148V492.455H295.865V481.545H298.748V483.47H298.876C299.118 482.836 299.522 482.334 300.091 481.965C300.659 481.59 301.348 481.403 302.157 481.403C302.915 481.403 303.575 481.569 304.139 481.901C304.702 482.232 305.14 482.706 305.453 483.321C305.765 483.932 305.922 484.661 305.922 485.509V492.455H302.896V486.048C302.901 485.381 302.73 484.86 302.385 484.486C302.039 484.107 301.563 483.918 300.957 483.918C300.55 483.918 300.19 484.005 299.877 484.18C299.57 484.356 299.328 484.611 299.153 484.947C298.983 485.279 298.895 485.679 298.89 486.148ZM314.109 481.545V483.818H307.539V481.545H314.109ZM309.031 478.932H312.056V489.102C312.056 489.382 312.099 489.599 312.184 489.756C312.269 489.907 312.388 490.014 312.539 490.075C312.695 490.137 312.875 490.168 313.079 490.168C313.221 490.168 313.363 490.156 313.505 490.132C313.647 490.104 313.756 490.082 313.832 490.068L314.308 492.32C314.156 492.367 313.943 492.421 313.668 492.483C313.394 492.549 313.06 492.59 312.667 492.604C311.938 492.632 311.299 492.535 310.749 492.313C310.205 492.09 309.781 491.744 309.478 491.276C309.175 490.807 309.026 490.215 309.031 489.5V478.932ZM320.877 496.773C319.897 496.773 319.057 496.638 318.356 496.368C317.66 496.103 317.106 495.741 316.694 495.281C316.282 494.822 316.014 494.306 315.891 493.733L318.69 493.357C318.775 493.574 318.91 493.778 319.094 493.967C319.279 494.157 319.523 494.308 319.826 494.422C320.134 494.54 320.508 494.599 320.948 494.599C321.606 494.599 322.148 494.438 322.575 494.116C323.005 493.799 323.221 493.267 323.221 492.518V490.523H323.093C322.96 490.826 322.762 491.112 322.496 491.382C322.231 491.652 321.89 491.872 321.474 492.043C321.057 492.213 320.56 492.298 319.982 492.298C319.163 492.298 318.417 492.109 317.745 491.73C317.077 491.347 316.545 490.762 316.147 489.976C315.754 489.185 315.558 488.186 315.558 486.979C315.558 485.743 315.759 484.711 316.161 483.882C316.564 483.054 317.099 482.433 317.766 482.021C318.439 481.609 319.175 481.403 319.975 481.403C320.586 481.403 321.097 481.508 321.509 481.716C321.921 481.92 322.253 482.175 322.504 482.483C322.759 482.786 322.956 483.084 323.093 483.378H323.207V481.545H326.211V492.561C326.211 493.489 325.984 494.266 325.529 494.891C325.075 495.516 324.445 495.984 323.64 496.297C322.84 496.614 321.919 496.773 320.877 496.773ZM320.941 490.026C321.429 490.026 321.841 489.905 322.177 489.663C322.518 489.417 322.778 489.067 322.958 488.612C323.143 488.153 323.235 487.604 323.235 486.965C323.235 486.325 323.145 485.771 322.965 485.303C322.785 484.829 322.525 484.462 322.184 484.202C321.843 483.941 321.429 483.811 320.941 483.811C320.444 483.811 320.025 483.946 319.684 484.216C319.343 484.481 319.085 484.85 318.91 485.324C318.735 485.797 318.647 486.344 318.647 486.965C318.647 487.594 318.735 488.139 318.91 488.598C319.09 489.053 319.348 489.405 319.684 489.656C320.025 489.902 320.444 490.026 320.941 490.026ZM333.548 492.668C332.444 492.668 331.49 492.433 330.685 491.965C329.885 491.491 329.267 490.833 328.832 489.99C328.396 489.143 328.178 488.16 328.178 487.043C328.178 485.916 328.396 484.931 328.832 484.088C329.267 483.241 329.885 482.582 330.685 482.114C331.49 481.64 332.444 481.403 333.548 481.403C334.651 481.403 335.603 481.64 336.403 482.114C337.208 482.582 337.828 483.241 338.263 484.088C338.699 484.931 338.917 485.916 338.917 487.043C338.917 488.16 338.699 489.143 338.263 489.99C337.828 490.833 337.208 491.491 336.403 491.965C335.603 492.433 334.651 492.668 333.548 492.668ZM333.562 490.324C334.064 490.324 334.483 490.182 334.819 489.898C335.155 489.609 335.408 489.216 335.579 488.719C335.754 488.222 335.842 487.656 335.842 487.021C335.842 486.387 335.754 485.821 335.579 485.324C335.408 484.827 335.155 484.434 334.819 484.145C334.483 483.856 334.064 483.712 333.562 483.712C333.055 483.712 332.629 483.856 332.283 484.145C331.942 484.434 331.684 484.827 331.509 485.324C331.339 485.821 331.254 486.387 331.254 487.021C331.254 487.656 331.339 488.222 331.509 488.719C331.684 489.216 331.942 489.609 332.283 489.898C332.629 490.182 333.055 490.324 333.562 490.324ZM340.884 492.455V481.545H343.768V483.47H343.896C344.123 482.831 344.502 482.327 345.032 481.957C345.562 481.588 346.197 481.403 346.935 481.403C347.683 481.403 348.32 481.59 348.846 481.965C349.371 482.334 349.722 482.836 349.897 483.47H350.011C350.233 482.845 350.636 482.346 351.218 481.972C351.805 481.593 352.499 481.403 353.299 481.403C354.317 481.403 355.143 481.728 355.778 482.376C356.417 483.02 356.737 483.934 356.737 485.118V492.455H353.718V485.715C353.718 485.108 353.557 484.654 353.235 484.351C352.913 484.048 352.511 483.896 352.028 483.896C351.478 483.896 351.05 484.072 350.742 484.422C350.434 484.768 350.281 485.224 350.281 485.793V492.455H347.347V485.651C347.347 485.116 347.193 484.689 346.886 484.372C346.583 484.055 346.183 483.896 345.685 483.896C345.349 483.896 345.046 483.982 344.776 484.152C344.511 484.318 344.3 484.552 344.144 484.855C343.988 485.153 343.91 485.504 343.91 485.906V492.455H340.884ZM364.098 492.668C362.976 492.668 362.01 492.44 361.2 491.986C360.395 491.527 359.775 490.878 359.339 490.04C358.904 489.197 358.686 488.2 358.686 487.05C358.686 485.928 358.904 484.943 359.339 484.095C359.775 483.248 360.388 482.587 361.179 482.114C361.974 481.64 362.907 481.403 363.977 481.403C364.697 481.403 365.367 481.519 365.987 481.751C366.612 481.979 367.157 482.322 367.621 482.781C368.089 483.241 368.454 483.818 368.714 484.514C368.975 485.206 369.105 486.015 369.105 486.943V487.774H359.893V485.899H366.257C366.257 485.464 366.162 485.078 365.973 484.741C365.784 484.405 365.521 484.143 365.185 483.953C364.853 483.759 364.467 483.662 364.027 483.662C363.568 483.662 363.161 483.768 362.805 483.982C362.455 484.19 362.18 484.472 361.982 484.827C361.783 485.177 361.681 485.568 361.676 485.999V487.781C361.676 488.321 361.776 488.787 361.974 489.18C362.178 489.573 362.464 489.876 362.834 490.09C363.203 490.303 363.641 490.409 364.148 490.409C364.484 490.409 364.792 490.362 365.071 490.267C365.35 490.172 365.589 490.03 365.788 489.841C365.987 489.652 366.139 489.42 366.243 489.145L369.041 489.33C368.899 490.002 368.608 490.589 368.168 491.091C367.732 491.588 367.169 491.976 366.477 492.256C365.791 492.53 364.998 492.668 364.098 492.668ZM371.08 492.455V481.545H374.013V483.449H374.126C374.325 482.772 374.659 482.26 375.128 481.915C375.597 481.564 376.136 481.389 376.747 481.389C376.899 481.389 377.062 481.399 377.237 481.418C377.412 481.437 377.566 481.463 377.699 481.496V484.18C377.557 484.138 377.36 484.1 377.109 484.067C376.858 484.034 376.629 484.017 376.42 484.017C375.975 484.017 375.578 484.114 375.227 484.308C374.882 484.498 374.607 484.763 374.403 485.104C374.205 485.445 374.105 485.838 374.105 486.283V492.455H371.08ZM381.463 496.545C381.08 496.545 380.72 496.515 380.384 496.453C380.052 496.396 379.777 496.323 379.56 496.233L380.241 493.974C380.597 494.083 380.916 494.143 381.2 494.152C381.489 494.161 381.738 494.095 381.946 493.953C382.159 493.811 382.332 493.57 382.464 493.229L382.642 492.767L378.729 481.545H381.911L384.169 489.557H384.283L386.563 481.545H389.766L385.526 493.634C385.322 494.221 385.045 494.732 384.695 495.168C384.349 495.608 383.911 495.947 383.381 496.183C382.85 496.425 382.211 496.545 381.463 496.545Z" fill="black"/>
<path d="M356.699 728.955V711.5H367.881V714.151H359.861V718.889H367.114V721.54H359.861V728.955H356.699ZM370.761 728.955V711.5H373.923V726.304H381.611V728.955H370.761Z" fill="#FFE587"/>
<path d="M526.915 326.051C526.773 325.591 526.577 325.179 526.327 324.815C526.082 324.446 525.787 324.131 525.44 323.869C525.099 323.608 524.707 323.412 524.264 323.281C523.821 323.145 523.338 323.077 522.815 323.077C521.878 323.077 521.043 323.313 520.31 323.784C519.577 324.256 519 324.949 518.58 325.864C518.165 326.773 517.957 327.881 517.957 329.188C517.957 330.506 518.165 331.622 518.58 332.537C518.994 333.452 519.571 334.148 520.31 334.625C521.048 335.097 521.906 335.332 522.884 335.332C523.77 335.332 524.537 335.162 525.185 334.821C525.838 334.48 526.341 333.997 526.693 333.372C527.045 332.741 527.222 332.003 527.222 331.156L527.938 331.267H523.199V328.795H530.281V330.892C530.281 332.386 529.963 333.679 529.327 334.77C528.69 335.861 527.815 336.702 526.702 337.293C525.588 337.878 524.31 338.17 522.866 338.17C521.259 338.17 519.847 337.81 518.631 337.088C517.42 336.361 516.474 335.33 515.793 333.994C515.116 332.653 514.778 331.063 514.778 329.222C514.778 327.813 514.977 326.554 515.375 325.446C515.778 324.338 516.341 323.398 517.062 322.625C517.784 321.847 518.631 321.256 519.602 320.852C520.574 320.443 521.631 320.239 522.773 320.239C523.739 320.239 524.639 320.381 525.474 320.665C526.31 320.943 527.051 321.341 527.699 321.858C528.352 322.375 528.889 322.989 529.31 323.699C529.73 324.409 530.006 325.193 530.136 326.051H526.915ZM535.041 337.932H531.666L537.811 320.477H541.714L547.868 337.932H544.493L539.831 324.057H539.695L535.041 337.932ZM535.152 331.088H544.357V333.628H535.152V331.088Z" fill="#FFE587"/>
<circle cx="305.307" cy="91.9432" r="9.01136" fill="#FFE587" stroke="black"/>
<path d="M257.398 120.455V105.909H259.159V112.386H266.915V105.909H268.676V120.455H266.915V113.949H259.159V120.455H257.398ZM278.85 115.994V109.545H280.526V120.455H278.85V118.608H278.737C278.481 119.162 278.083 119.633 277.543 120.021C277.004 120.405 276.322 120.597 275.498 120.597C274.816 120.597 274.21 120.447 273.68 120.149C273.149 119.846 272.733 119.392 272.43 118.785C272.127 118.175 271.975 117.405 271.975 116.477V109.545H273.651V116.364C273.651 117.159 273.874 117.794 274.319 118.267C274.769 118.741 275.342 118.977 276.038 118.977C276.454 118.977 276.878 118.871 277.309 118.658C277.745 118.445 278.109 118.118 278.403 117.678C278.701 117.237 278.85 116.676 278.85 115.994ZM285.272 113.892V120.455H283.596V109.545H285.216V111.25H285.358C285.613 110.696 286.002 110.251 286.522 109.915C287.043 109.574 287.716 109.403 288.539 109.403C289.278 109.403 289.924 109.555 290.478 109.858C291.032 110.156 291.463 110.611 291.771 111.222C292.079 111.828 292.233 112.595 292.233 113.523V120.455H290.556V113.636C290.556 112.779 290.334 112.112 289.889 111.634C289.444 111.151 288.833 110.909 288.056 110.909C287.521 110.909 287.043 111.025 286.622 111.257C286.205 111.489 285.876 111.828 285.635 112.273C285.393 112.718 285.272 113.258 285.272 113.892ZM300.04 109.545V110.966H294.386V109.545H300.04ZM296.034 106.932H297.71V117.33C297.71 117.803 297.779 118.158 297.916 118.395C298.058 118.627 298.238 118.783 298.456 118.864C298.679 118.939 298.913 118.977 299.159 118.977C299.344 118.977 299.495 118.968 299.614 118.949C299.732 118.925 299.827 118.906 299.898 118.892L300.239 120.398C300.125 120.44 299.966 120.483 299.763 120.526C299.559 120.573 299.301 120.597 298.989 120.597C298.515 120.597 298.051 120.495 297.597 120.291C297.147 120.088 296.773 119.777 296.474 119.361C296.181 118.944 296.034 118.419 296.034 117.784V106.932ZM310.093 111.989L308.587 112.415C308.493 112.164 308.353 111.92 308.168 111.683C307.988 111.442 307.742 111.243 307.43 111.087C307.117 110.93 306.717 110.852 306.229 110.852C305.562 110.852 305.005 111.006 304.56 111.314C304.12 111.617 303.9 112.003 303.9 112.472C303.9 112.888 304.051 113.217 304.354 113.459C304.657 113.7 305.131 113.901 305.775 114.062L307.394 114.46C308.37 114.697 309.096 115.059 309.575 115.547C310.053 116.03 310.292 116.652 310.292 117.415C310.292 118.04 310.112 118.598 309.752 119.091C309.397 119.583 308.9 119.972 308.261 120.256C307.621 120.54 306.878 120.682 306.031 120.682C304.918 120.682 303.997 120.44 303.268 119.957C302.539 119.474 302.077 118.769 301.883 117.841L303.474 117.443C303.625 118.03 303.912 118.471 304.333 118.764C304.759 119.058 305.316 119.205 306.002 119.205C306.783 119.205 307.404 119.039 307.863 118.707C308.327 118.371 308.559 117.969 308.559 117.5C308.559 117.121 308.426 116.804 308.161 116.548C307.896 116.288 307.489 116.094 306.94 115.966L305.121 115.54C304.122 115.303 303.388 114.936 302.92 114.439C302.456 113.937 302.224 113.31 302.224 112.557C302.224 111.941 302.397 111.397 302.742 110.923C303.093 110.45 303.568 110.078 304.17 109.808C304.776 109.538 305.462 109.403 306.229 109.403C307.309 109.403 308.156 109.64 308.772 110.114C309.392 110.587 309.833 111.212 310.093 111.989ZM321.735 109.545L317.701 120.455H315.997L311.963 109.545H313.781L316.792 118.239H316.906L319.917 109.545H321.735ZM323.948 120.455V109.545H325.624V120.455H323.948ZM324.8 107.727C324.473 107.727 324.192 107.616 323.955 107.393C323.723 107.171 323.607 106.903 323.607 106.591C323.607 106.278 323.723 106.011 323.955 105.788C324.192 105.566 324.473 105.455 324.8 105.455C325.127 105.455 325.406 105.566 325.638 105.788C325.875 106.011 325.993 106.278 325.993 106.591C325.993 106.903 325.875 107.171 325.638 107.393C325.406 107.616 325.127 107.727 324.8 107.727ZM330.37 105.909V120.455H328.694V105.909H330.37ZM335.116 105.909V120.455H333.44V105.909H335.116ZM342.76 120.682C341.709 120.682 340.802 120.45 340.04 119.986C339.282 119.517 338.697 118.864 338.286 118.026C337.878 117.183 337.675 116.203 337.675 115.085C337.675 113.968 337.878 112.983 338.286 112.131C338.697 111.274 339.27 110.606 340.004 110.128C340.743 109.645 341.605 109.403 342.589 109.403C343.158 109.403 343.719 109.498 344.273 109.687C344.827 109.877 345.331 110.185 345.786 110.611C346.24 111.032 346.602 111.591 346.872 112.287C347.142 112.983 347.277 113.84 347.277 114.858V115.568H338.868V114.119H345.572C345.572 113.504 345.449 112.955 345.203 112.472C344.962 111.989 344.616 111.607 344.166 111.328C343.721 111.049 343.196 110.909 342.589 110.909C341.922 110.909 341.344 111.075 340.857 111.406C340.374 111.733 340.002 112.159 339.741 112.685C339.481 113.21 339.351 113.774 339.351 114.375V115.341C339.351 116.165 339.493 116.863 339.777 117.436C340.066 118.004 340.466 118.437 340.977 118.736C341.489 119.029 342.083 119.176 342.76 119.176C343.2 119.176 343.598 119.115 343.953 118.991C344.313 118.864 344.623 118.674 344.884 118.423C345.144 118.168 345.345 117.85 345.487 117.472L347.107 117.926C346.936 118.475 346.65 118.958 346.247 119.375C345.845 119.787 345.348 120.109 344.756 120.341C344.164 120.568 343.499 120.682 342.76 120.682Z" fill="black"/>
<line x1="513.727" y1="680.485" x2="528.522" y2="712.19" stroke="white" stroke-width="0.5"/>
<line x1="437.409" y1="50.4773" x2="467" y2="50.4773" stroke="white" stroke-width="0.5"/>
<line x1="50.6136" y1="50.4773" x2="90.7727" y2="50.4773" stroke="white" stroke-width="0.5"/>
<path d="M246.023 8.19602V5.54545H259.949V8.19602H254.554V23H251.418V8.19602H246.023ZM276.977 5.54545V23H274.165L265.94 11.1108H265.795V23H262.634V5.54545H265.463L273.679 17.4432H273.832V5.54545H276.977Z" fill="#FFE587"/>
<path d="M1.72159 339.545H5.59091L10.7727 352.193H10.9773L16.1591 339.545H20.0284V357H16.9943V345.009H16.8324L12.0085 356.949H9.74148L4.91761 344.983H4.75568V357H1.72159V339.545ZM32.9574 344.344C32.8778 343.599 32.5426 343.02 31.9517 342.605C31.3665 342.19 30.6051 341.983 29.6676 341.983C29.0085 341.983 28.4432 342.082 27.9716 342.281C27.5 342.48 27.1392 342.75 26.8892 343.091C26.6392 343.432 26.5114 343.821 26.5057 344.259C26.5057 344.622 26.5881 344.937 26.7528 345.205C26.9233 345.472 27.1534 345.699 27.4432 345.886C27.733 346.068 28.054 346.222 28.4062 346.347C28.7585 346.472 29.1136 346.577 29.4716 346.662L31.108 347.071C31.767 347.224 32.4006 347.432 33.0085 347.693C33.6222 347.955 34.1705 348.284 34.6534 348.682C35.142 349.08 35.5284 349.56 35.8125 350.122C36.0966 350.685 36.2386 351.344 36.2386 352.099C36.2386 353.122 35.9773 354.023 35.4545 354.801C34.9318 355.574 34.1761 356.179 33.1875 356.616C32.2045 357.048 31.0142 357.264 29.6165 357.264C28.2585 357.264 27.0795 357.054 26.0795 356.634C25.0852 356.213 24.3068 355.599 23.7443 354.793C23.1875 353.986 22.8864 353.003 22.8409 351.844H25.9517C25.9972 352.452 26.1847 352.957 26.5142 353.361C26.8438 353.764 27.2727 354.065 27.8011 354.264C28.3352 354.463 28.9318 354.562 29.5909 354.562C30.2784 354.562 30.8807 354.46 31.3977 354.256C31.9205 354.045 32.3295 353.756 32.625 353.386C32.9205 353.011 33.071 352.574 33.0767 352.074C33.071 351.619 32.9375 351.244 32.6761 350.949C32.4148 350.648 32.0483 350.398 31.5767 350.199C31.1108 349.994 30.5653 349.812 29.9403 349.653L27.9545 349.142C26.517 348.773 25.3807 348.213 24.5455 347.463C23.7159 346.707 23.3011 345.705 23.3011 344.455C23.3011 343.426 23.5795 342.526 24.1364 341.753C24.6989 340.98 25.4631 340.381 26.429 339.955C27.3949 339.523 28.4886 339.307 29.7102 339.307C30.9489 339.307 32.0341 339.523 32.9659 339.955C33.9034 340.381 34.6392 340.974 35.1733 341.736C35.7074 342.491 35.983 343.361 36 344.344H32.9574Z" fill="#FFE587"/>
</svg>
