<svg width="522" height="788" viewBox="0 0 522 788" fill="none" xmlns="http://www.w3.org/2000/svg">
<path d="M475.06 388.068L462.974 322.193L417.653 40.7273H83.1192H70.1901L73.2115 46.7159L82.2758 52.7045L36.9545 528.801L42.9645 773L51.5 765.352L66.5 768.347L81 776L83 759L85 744.392L90.2871 732.415C94.5 720.5 96.5 715 109.469 711V725V744.392L112.49 765.352L124 776L133.64 786.312H144L155 784V777.5L168 773L172.5 763.5L178.961 759L172.5 751L169.897 743L174.5 720.5L160.833 708.5L145.726 690.5L149.5 672.528H159.586L493.188 669.534L481.103 639.591L487.146 600.665V570.722L481.103 543.773L487.146 507.841L496.21 492.869L508.295 474.903L496.21 462.926V438.972L475.06 388.068Z" fill="#97DCFF"/>
<path d="M417.653 43.7216V40.7273M417.653 40.7273L462.974 322.193L475.06 388.068L496.21 438.972V462.926L508.295 474.903L496.21 492.869L487.146 507.841L481.103 543.773L487.146 570.722V600.665L481.103 639.591L493.188 669.534L159.586 672.528H149.5L145.726 690.5L160.833 708.5L174.5 720.5L169.897 743L172.5 751L178.961 759L172.5 763.5L168 773L155 777.5V784L144 786.312H133.64L124 776L112.49 765.352L109.469 744.392V725V711C96.5 715 94.5 720.5 90.2871 732.415L85 744.392L83 759L81 776L66.5 768.347L51.5 765.352L42.9645 773L36.9545 528.801L82.2758 52.7045L73.2115 46.7159L70.1901 40.7273H83.1192H417.653Z" stroke="white" stroke-width="3"/>
<circle cx="152.148" cy="325.011" r="9.01136" fill="#FFE587" stroke="black"/>
<circle cx="253.602" cy="274.284" r="9.01136" fill="#FFE587" stroke="black"/>
<path d="M88.8892 349.749V347.795H102.526V349.749H96.8082V365.977H94.6065V349.749H88.8892ZM112.378 360.402V352.341H114.473V365.977H112.378V363.669H112.236C111.916 364.361 111.419 364.95 110.744 365.436C110.07 365.915 109.217 366.155 108.187 366.155C107.335 366.155 106.578 365.968 105.915 365.596C105.252 365.217 104.731 364.649 104.352 363.891C103.973 363.127 103.784 362.166 103.784 361.006V352.341H105.879V360.864C105.879 361.858 106.157 362.651 106.714 363.243C107.276 363.835 107.992 364.131 108.862 364.131C109.383 364.131 109.913 363.998 110.451 363.731C110.996 363.465 111.452 363.056 111.818 362.506C112.191 361.956 112.378 361.254 112.378 360.402ZM127.969 355.395L126.087 355.928C125.969 355.614 125.794 355.309 125.564 355.013C125.339 354.711 125.031 354.463 124.64 354.267C124.25 354.072 123.75 353.974 123.14 353.974C122.305 353.974 121.61 354.167 121.054 354.551C120.503 354.93 120.228 355.413 120.228 355.999C120.228 356.519 120.417 356.931 120.796 357.233C121.175 357.534 121.767 357.786 122.572 357.987L124.596 358.484C125.815 358.78 126.724 359.233 127.321 359.843C127.919 360.446 128.218 361.225 128.218 362.178C128.218 362.959 127.993 363.657 127.543 364.273C127.099 364.888 126.478 365.374 125.679 365.729C124.88 366.084 123.951 366.261 122.891 366.261C121.5 366.261 120.349 365.96 119.438 365.356C118.526 364.752 117.949 363.87 117.707 362.71L119.695 362.213C119.885 362.947 120.243 363.497 120.77 363.864C121.302 364.231 121.998 364.415 122.856 364.415C123.832 364.415 124.608 364.208 125.182 363.793C125.762 363.373 126.052 362.87 126.052 362.284C126.052 361.811 125.886 361.414 125.555 361.094C125.223 360.769 124.714 360.526 124.028 360.366L121.755 359.834C120.506 359.538 119.589 359.079 119.003 358.458C118.423 357.83 118.133 357.046 118.133 356.105C118.133 355.336 118.349 354.655 118.781 354.063C119.219 353.471 119.814 353.007 120.565 352.669C121.323 352.332 122.181 352.163 123.14 352.163C124.489 352.163 125.549 352.459 126.318 353.051C127.094 353.643 127.644 354.424 127.969 355.395ZM136.912 366.261C135.633 366.261 134.532 365.96 133.609 365.356C132.686 364.752 131.976 363.921 131.478 362.861C130.981 361.802 130.733 360.591 130.733 359.23C130.733 357.845 130.987 356.623 131.496 355.564C132.011 354.498 132.727 353.667 133.645 353.069C134.568 352.465 135.645 352.163 136.876 352.163C137.835 352.163 138.699 352.341 139.468 352.696C140.238 353.051 140.868 353.548 141.359 354.187C141.851 354.827 142.156 355.572 142.274 356.425H140.179C140.019 355.803 139.664 355.253 139.113 354.773C138.569 354.288 137.835 354.045 136.912 354.045C136.095 354.045 135.379 354.259 134.763 354.685C134.154 355.105 133.677 355.7 133.334 356.469C132.997 357.233 132.828 358.129 132.828 359.159C132.828 360.213 132.994 361.13 133.325 361.911C133.662 362.692 134.136 363.299 134.745 363.731C135.361 364.163 136.083 364.379 136.912 364.379C137.456 364.379 137.95 364.285 138.394 364.095C138.838 363.906 139.214 363.634 139.522 363.278C139.83 362.923 140.049 362.497 140.179 362H142.274C142.156 362.805 141.863 363.53 141.395 364.175C140.933 364.814 140.321 365.323 139.557 365.702C138.8 366.075 137.918 366.261 136.912 366.261ZM149.35 366.297C148.485 366.297 147.701 366.134 146.997 365.809C146.293 365.477 145.733 365.001 145.319 364.379C144.905 363.752 144.698 362.994 144.698 362.107C144.698 361.325 144.851 360.692 145.159 360.207C145.467 359.715 145.878 359.331 146.393 359.053C146.908 358.774 147.476 358.567 148.098 358.431C148.725 358.289 149.355 358.177 149.989 358.094C150.817 357.987 151.489 357.907 152.004 357.854C152.525 357.795 152.904 357.697 153.14 357.561C153.383 357.425 153.504 357.188 153.504 356.851V356.78C153.504 355.904 153.265 355.223 152.785 354.738C152.312 354.253 151.593 354.01 150.628 354.01C149.628 354.01 148.843 354.229 148.275 354.667C147.707 355.105 147.308 355.572 147.077 356.07L145.088 355.359C145.443 354.531 145.917 353.886 146.509 353.424C147.106 352.956 147.757 352.631 148.462 352.447C149.172 352.258 149.87 352.163 150.557 352.163C150.995 352.163 151.498 352.217 152.066 352.323C152.64 352.424 153.194 352.634 153.726 352.953C154.265 353.273 154.712 353.755 155.067 354.401C155.422 355.046 155.6 355.91 155.6 356.993V365.977H153.504V364.131H153.398C153.256 364.427 153.019 364.743 152.688 365.081C152.356 365.418 151.915 365.705 151.365 365.942C150.814 366.178 150.143 366.297 149.35 366.297ZM149.669 364.415C150.498 364.415 151.196 364.252 151.764 363.926C152.338 363.601 152.77 363.181 153.06 362.666C153.356 362.151 153.504 361.609 153.504 361.041V359.124C153.416 359.23 153.22 359.328 152.918 359.417C152.622 359.499 152.279 359.573 151.889 359.638C151.504 359.698 151.128 359.751 150.761 359.798C150.4 359.84 150.107 359.875 149.882 359.905C149.338 359.976 148.829 360.091 148.355 360.251C147.888 360.405 147.509 360.639 147.219 360.952C146.935 361.26 146.793 361.68 146.793 362.213C146.793 362.941 147.062 363.491 147.601 363.864C148.145 364.231 148.835 364.415 149.669 364.415ZM161.519 347.795V365.977H159.424V347.795H161.519ZM170.896 366.261C169.665 366.261 168.585 365.968 167.656 365.382C166.732 364.797 166.01 363.977 165.489 362.923C164.975 361.87 164.717 360.639 164.717 359.23C164.717 357.81 164.975 356.57 165.489 355.51C166.01 354.451 166.732 353.628 167.656 353.042C168.585 352.456 169.665 352.163 170.896 352.163C172.127 352.163 173.204 352.456 174.128 353.042C175.057 353.628 175.779 354.451 176.294 355.51C176.815 356.57 177.075 357.81 177.075 359.23C177.075 360.639 176.815 361.87 176.294 362.923C175.779 363.977 175.057 364.797 174.128 365.382C173.204 365.968 172.127 366.261 170.896 366.261ZM170.896 364.379C171.831 364.379 172.601 364.14 173.204 363.66C173.808 363.181 174.255 362.55 174.545 361.769C174.835 360.988 174.98 360.142 174.98 359.23C174.98 358.319 174.835 357.469 174.545 356.682C174.255 355.895 173.808 355.259 173.204 354.773C172.601 354.288 171.831 354.045 170.896 354.045C169.961 354.045 169.192 354.288 168.588 354.773C167.984 355.259 167.537 355.895 167.247 356.682C166.957 357.469 166.812 358.319 166.812 359.23C166.812 360.142 166.957 360.988 167.247 361.769C167.537 362.55 167.984 363.181 168.588 363.66C169.192 364.14 169.961 364.379 170.896 364.379ZM185.813 366.261C184.582 366.261 183.502 365.968 182.573 365.382C181.649 364.797 180.927 363.977 180.406 362.923C179.892 361.87 179.634 360.639 179.634 359.23C179.634 357.81 179.892 356.57 180.406 355.51C180.927 354.451 181.649 353.628 182.573 353.042C183.502 352.456 184.582 352.163 185.813 352.163C187.044 352.163 188.121 352.456 189.045 353.042C189.974 353.628 190.696 354.451 191.211 355.51C191.732 356.57 191.992 357.81 191.992 359.23C191.992 360.639 191.732 361.87 191.211 362.923C190.696 363.977 189.974 364.797 189.045 365.382C188.121 365.968 187.044 366.261 185.813 366.261ZM185.813 364.379C186.748 364.379 187.518 364.14 188.121 363.66C188.725 363.181 189.172 362.55 189.462 361.769C189.752 360.988 189.897 360.142 189.897 359.23C189.897 358.319 189.752 357.469 189.462 356.682C189.172 355.895 188.725 355.259 188.121 354.773C187.518 354.288 186.748 354.045 185.813 354.045C184.878 354.045 184.108 354.288 183.505 354.773C182.901 355.259 182.454 355.895 182.164 356.682C181.874 357.469 181.729 358.319 181.729 359.23C181.729 360.142 181.874 360.988 182.164 361.769C182.454 362.55 182.901 363.181 183.505 363.66C184.108 364.14 184.878 364.379 185.813 364.379ZM204.849 355.395L202.967 355.928C202.849 355.614 202.674 355.309 202.443 355.013C202.219 354.711 201.911 354.463 201.52 354.267C201.13 354.072 200.629 353.974 200.02 353.974C199.185 353.974 198.49 354.167 197.934 354.551C197.383 354.93 197.108 355.413 197.108 355.999C197.108 356.519 197.297 356.931 197.676 357.233C198.055 357.534 198.647 357.786 199.452 357.987L201.476 358.484C202.695 358.78 203.603 359.233 204.201 359.843C204.799 360.446 205.098 361.225 205.098 362.178C205.098 362.959 204.873 363.657 204.423 364.273C203.979 364.888 203.358 365.374 202.559 365.729C201.76 366.084 200.831 366.261 199.771 366.261C198.38 366.261 197.229 365.96 196.318 365.356C195.406 364.752 194.829 363.87 194.587 362.71L196.575 362.213C196.765 362.947 197.123 363.497 197.649 363.864C198.182 364.231 198.878 364.415 199.736 364.415C200.712 364.415 201.488 364.208 202.062 363.793C202.642 363.373 202.932 362.87 202.932 362.284C202.932 361.811 202.766 361.414 202.435 361.094C202.103 360.769 201.594 360.526 200.908 360.366L198.635 359.834C197.386 359.538 196.469 359.079 195.883 358.458C195.303 357.83 195.013 357.046 195.013 356.105C195.013 355.336 195.229 354.655 195.661 354.063C196.099 353.471 196.694 353.007 197.445 352.669C198.203 352.332 199.061 352.163 200.02 352.163C201.369 352.163 202.429 352.459 203.198 353.051C203.973 353.643 204.524 354.424 204.849 355.395ZM212.265 366.297C211.4 366.297 210.616 366.134 209.912 365.809C209.208 365.477 208.648 365.001 208.234 364.379C207.82 363.752 207.613 362.994 207.613 362.107C207.613 361.325 207.766 360.692 208.074 360.207C208.382 359.715 208.793 359.331 209.308 359.053C209.823 358.774 210.391 358.567 211.013 358.431C211.64 358.289 212.27 358.177 212.904 358.094C213.732 357.987 214.404 357.907 214.919 357.854C215.44 357.795 215.819 357.697 216.055 357.561C216.298 357.425 216.419 357.188 216.419 356.851V356.78C216.419 355.904 216.18 355.223 215.7 354.738C215.227 354.253 214.508 354.01 213.543 354.01C212.543 354.01 211.759 354.229 211.19 354.667C210.622 355.105 210.223 355.572 209.992 356.07L208.003 355.359C208.358 354.531 208.832 353.886 209.424 353.424C210.021 352.956 210.672 352.631 211.377 352.447C212.087 352.258 212.785 352.163 213.472 352.163C213.91 352.163 214.413 352.217 214.981 352.323C215.555 352.424 216.109 352.634 216.641 352.953C217.18 353.273 217.627 353.755 217.982 354.401C218.337 355.046 218.515 355.91 218.515 356.993V365.977H216.419V364.131H216.313C216.171 364.427 215.934 364.743 215.603 365.081C215.271 365.418 214.83 365.705 214.28 365.942C213.729 366.178 213.058 366.297 212.265 366.297ZM212.584 364.415C213.413 364.415 214.111 364.252 214.679 363.926C215.253 363.601 215.685 363.181 215.976 362.666C216.271 362.151 216.419 361.609 216.419 361.041V359.124C216.331 359.23 216.135 359.328 215.833 359.417C215.538 359.499 215.194 359.573 214.804 359.638C214.419 359.698 214.043 359.751 213.676 359.798C213.315 359.84 213.022 359.875 212.797 359.905C212.253 359.976 211.744 360.091 211.27 360.251C210.803 360.405 210.424 360.639 210.134 360.952C209.85 361.26 209.708 361.68 209.708 362.213C209.708 362.941 209.977 363.491 210.516 363.864C211.06 364.231 211.75 364.415 212.584 364.415Z" fill="black"/>
<circle cx="92.5114" cy="717.511" r="9.01136" fill="#FFE587" stroke="black"/>
<path d="M64.2017 681.818H66.8295L73.0085 696.911H73.2216L79.4006 681.818H82.0284V700H79.9688V686.186H79.7912L74.1094 700H72.1207L66.4389 686.186H66.2614V700H64.2017V681.818ZM91.6986 700.284C90.4675 700.284 89.3874 699.991 88.4582 699.405C87.5349 698.819 86.8128 698 86.292 696.946C85.7771 695.893 85.5196 694.661 85.5196 693.253C85.5196 691.832 85.7771 690.592 86.292 689.533C86.8128 688.474 87.5349 687.651 88.4582 687.065C89.3874 686.479 90.4675 686.186 91.6986 686.186C92.9297 686.186 94.0068 686.479 94.9301 687.065C95.8593 687.651 96.5814 688.474 97.0963 689.533C97.6172 690.592 97.8776 691.832 97.8776 693.253C97.8776 694.661 97.6172 695.893 97.0963 696.946C96.5814 698 95.8593 698.819 94.9301 699.405C94.0068 699.991 92.9297 700.284 91.6986 700.284ZM91.6986 698.402C92.6337 698.402 93.4031 698.162 94.0068 697.683C94.6105 697.203 95.0574 696.573 95.3474 695.792C95.6374 695.011 95.7824 694.164 95.7824 693.253C95.7824 692.341 95.6374 691.492 95.3474 690.705C95.0574 689.918 94.6105 689.281 94.0068 688.796C93.4031 688.311 92.6337 688.068 91.6986 688.068C90.7635 688.068 89.9941 688.311 89.3904 688.796C88.7867 689.281 88.3398 689.918 88.0498 690.705C87.7598 691.492 87.6148 692.341 87.6148 693.253C87.6148 694.164 87.7598 695.011 88.0498 695.792C88.3398 696.573 88.7867 697.203 89.3904 697.683C89.9941 698.162 90.7635 698.402 91.6986 698.402ZM101.36 700V681.818H103.455V688.53H103.633C103.787 688.293 104 687.991 104.272 687.624C104.55 687.251 104.947 686.92 105.461 686.63C105.982 686.334 106.687 686.186 107.574 686.186C108.723 686.186 109.735 686.473 110.611 687.047C111.487 687.621 112.17 688.435 112.661 689.489C113.153 690.542 113.398 691.785 113.398 693.217C113.398 694.661 113.153 695.913 112.661 696.973C112.17 698.026 111.49 698.843 110.619 699.423C109.749 699.997 108.746 700.284 107.61 700.284C106.734 700.284 106.033 700.139 105.506 699.849C104.979 699.553 104.574 699.219 104.29 698.846C104.006 698.467 103.787 698.153 103.633 697.905H103.384V700H101.36ZM103.42 693.182C103.42 694.212 103.57 695.12 103.872 695.907C104.174 696.689 104.615 697.301 105.195 697.745C105.775 698.183 106.485 698.402 107.326 698.402C108.202 698.402 108.933 698.171 109.519 697.71C110.11 697.242 110.554 696.615 110.85 695.827C111.152 695.034 111.303 694.152 111.303 693.182C111.303 692.223 111.155 691.359 110.859 690.589C110.569 689.814 110.128 689.202 109.536 688.752C108.95 688.296 108.214 688.068 107.326 688.068C106.474 688.068 105.757 688.284 105.177 688.716C104.597 689.142 104.159 689.74 103.863 690.51C103.568 691.273 103.42 692.164 103.42 693.182ZM116.603 700V686.364H118.698V700H116.603ZM117.669 684.091C117.26 684.091 116.908 683.952 116.612 683.674C116.322 683.395 116.177 683.061 116.177 682.67C116.177 682.28 116.322 681.945 116.612 681.667C116.908 681.389 117.26 681.25 117.669 681.25C118.077 681.25 118.426 681.389 118.716 681.667C119.012 681.945 119.16 682.28 119.16 682.67C119.16 683.061 119.012 683.395 118.716 683.674C118.426 683.952 118.077 684.091 117.669 684.091ZM124.631 681.818V700H122.536V681.818H124.631ZM134.186 700.284C132.872 700.284 131.738 699.994 130.786 699.414C129.839 698.828 129.108 698.011 128.593 696.964C128.084 695.91 127.829 694.685 127.829 693.288C127.829 691.892 128.084 690.661 128.593 689.595C129.108 688.524 129.824 687.689 130.741 687.092C131.664 686.488 132.742 686.186 133.973 686.186C134.683 686.186 135.384 686.304 136.077 686.541C136.769 686.778 137.4 687.163 137.968 687.695C138.536 688.222 138.989 688.92 139.326 689.79C139.663 690.661 139.832 691.732 139.832 693.004V693.892H129.321V692.081H137.701C137.701 691.312 137.547 690.625 137.24 690.021C136.938 689.418 136.506 688.941 135.944 688.592C135.387 688.243 134.73 688.068 133.973 688.068C133.138 688.068 132.416 688.275 131.806 688.69C131.203 689.098 130.738 689.631 130.413 690.288C130.087 690.945 129.924 691.649 129.924 692.401V693.608C129.924 694.638 130.102 695.511 130.457 696.227C130.818 696.937 131.318 697.479 131.957 697.852C132.597 698.219 133.339 698.402 134.186 698.402C134.736 698.402 135.233 698.325 135.677 698.171C136.127 698.011 136.515 697.775 136.84 697.461C137.166 697.141 137.417 696.745 137.595 696.271L139.619 696.839C139.406 697.526 139.048 698.13 138.545 698.651C138.042 699.165 137.42 699.568 136.68 699.858C135.941 700.142 135.109 700.284 134.186 700.284Z" fill="black"/>
<path d="M197.202 312V293.818H203.558C204.825 293.818 205.869 294.037 206.692 294.475C207.515 294.907 208.127 295.49 208.53 296.224C208.932 296.952 209.134 297.76 209.134 298.648C209.134 299.429 208.994 300.074 208.716 300.583C208.444 301.092 208.083 301.495 207.633 301.79C207.189 302.086 206.707 302.305 206.186 302.447V302.625C206.742 302.661 207.302 302.856 207.864 303.211C208.426 303.566 208.897 304.075 209.276 304.738C209.654 305.401 209.844 306.212 209.844 307.17C209.844 308.082 209.637 308.902 209.222 309.63C208.808 310.358 208.154 310.935 207.26 311.361C206.367 311.787 205.204 312 203.771 312H197.202ZM199.403 310.047H203.771C205.21 310.047 206.23 309.769 206.834 309.212C207.444 308.65 207.749 307.969 207.749 307.17C207.749 306.555 207.592 305.987 207.278 305.466C206.964 304.939 206.518 304.519 205.938 304.205C205.357 303.886 204.671 303.726 203.878 303.726H199.403V310.047ZM199.403 301.808H203.487C204.15 301.808 204.748 301.678 205.281 301.418C205.819 301.157 206.245 300.79 206.559 300.317C206.879 299.843 207.038 299.287 207.038 298.648C207.038 297.849 206.76 297.171 206.204 296.615C205.647 296.052 204.766 295.771 203.558 295.771H199.403V301.808ZM213.177 312V298.364H215.273V312H213.177ZM214.243 296.091C213.834 296.091 213.482 295.952 213.186 295.674C212.896 295.395 212.751 295.061 212.751 294.67C212.751 294.28 212.896 293.945 213.186 293.667C213.482 293.389 213.834 293.25 214.243 293.25C214.651 293.25 215 293.389 215.29 293.667C215.586 293.945 215.734 294.28 215.734 294.67C215.734 295.061 215.586 295.395 215.29 295.674C215 295.952 214.651 296.091 214.243 296.091ZM219.11 312V298.364H221.134V300.423H221.276C221.525 299.749 221.975 299.201 222.626 298.781C223.277 298.361 224.011 298.151 224.827 298.151C224.981 298.151 225.174 298.154 225.404 298.159C225.635 298.165 225.81 298.174 225.928 298.186V300.317C225.857 300.299 225.694 300.272 225.44 300.237C225.191 300.195 224.928 300.175 224.65 300.175C223.987 300.175 223.395 300.314 222.874 300.592C222.359 300.864 221.951 301.243 221.649 301.728C221.353 302.208 221.205 302.755 221.205 303.371V312H219.11ZM228.412 312V298.364H230.436V300.494H230.613C230.898 299.766 231.356 299.201 231.99 298.799C232.623 298.39 233.383 298.186 234.271 298.186C235.171 298.186 235.919 298.39 236.517 298.799C237.121 299.201 237.591 299.766 237.929 300.494H238.071C238.42 299.79 238.944 299.231 239.642 298.816C240.341 298.396 241.178 298.186 242.155 298.186C243.374 298.186 244.371 298.568 245.146 299.331C245.922 300.089 246.309 301.27 246.309 302.874V312H244.214V302.874C244.214 301.867 243.939 301.148 243.389 300.716C242.838 300.284 242.19 300.068 241.444 300.068C240.486 300.068 239.743 300.358 239.216 300.938C238.689 301.512 238.426 302.24 238.426 303.122V312H236.295V302.661C236.295 301.885 236.044 301.261 235.541 300.787C235.038 300.308 234.39 300.068 233.596 300.068C233.052 300.068 232.543 300.213 232.069 300.503C231.602 300.793 231.223 301.196 230.933 301.711C230.649 302.22 230.507 302.808 230.507 303.477V312H228.412ZM250.14 312V298.364H252.235V312H250.14ZM251.206 296.091C250.797 296.091 250.445 295.952 250.149 295.674C249.859 295.395 249.714 295.061 249.714 294.67C249.714 294.28 249.859 293.945 250.149 293.667C250.445 293.389 250.797 293.25 251.206 293.25C251.614 293.25 251.963 293.389 252.253 293.667C252.549 293.945 252.697 294.28 252.697 294.67C252.697 295.061 252.549 295.395 252.253 295.674C251.963 295.952 251.614 296.091 251.206 296.091ZM258.168 303.797V312H256.073V298.364H258.097V300.494H258.275C258.594 299.802 259.08 299.246 259.731 298.825C260.382 298.399 261.222 298.186 262.252 298.186C263.175 298.186 263.983 298.375 264.676 298.754C265.368 299.127 265.907 299.695 266.291 300.459C266.676 301.216 266.868 302.175 266.868 303.335V312H264.773V303.477C264.773 302.406 264.495 301.571 263.939 300.974C263.382 300.37 262.619 300.068 261.648 300.068C260.979 300.068 260.382 300.213 259.855 300.503C259.334 300.793 258.923 301.216 258.621 301.773C258.319 302.329 258.168 303.004 258.168 303.797ZM276.201 317.398C275.189 317.398 274.319 317.268 273.591 317.007C272.863 316.753 272.256 316.415 271.771 315.995C271.292 315.581 270.91 315.137 270.626 314.663L272.295 313.491C272.484 313.74 272.724 314.024 273.014 314.344C273.304 314.669 273.701 314.95 274.204 315.187C274.713 315.43 275.378 315.551 276.201 315.551C277.302 315.551 278.211 315.285 278.927 314.752C279.643 314.219 280.001 313.385 280.001 312.249V309.479H279.823C279.669 309.727 279.45 310.035 279.166 310.402C278.888 310.763 278.486 311.086 277.959 311.37C277.438 311.648 276.734 311.787 275.846 311.787C274.745 311.787 273.757 311.527 272.881 311.006C272.011 310.485 271.321 309.727 270.812 308.733C270.309 307.739 270.058 306.531 270.058 305.111C270.058 303.714 270.303 302.498 270.795 301.462C271.286 300.42 271.969 299.615 272.845 299.047C273.721 298.473 274.733 298.186 275.882 298.186C276.769 298.186 277.474 298.334 277.994 298.63C278.521 298.92 278.924 299.251 279.202 299.624C279.486 299.991 279.705 300.293 279.859 300.53H280.072V298.364H282.096V312.391C282.096 313.562 281.83 314.515 281.297 315.249C280.77 315.989 280.06 316.531 279.166 316.874C278.279 317.223 277.29 317.398 276.201 317.398ZM276.13 309.905C276.971 309.905 277.681 309.712 278.261 309.328C278.841 308.943 279.282 308.39 279.584 307.668C279.885 306.946 280.036 306.081 280.036 305.075C280.036 304.093 279.888 303.226 279.593 302.474C279.297 301.722 278.859 301.134 278.279 300.707C277.699 300.281 276.982 300.068 276.13 300.068C275.242 300.068 274.503 300.293 273.911 300.743C273.325 301.193 272.884 301.796 272.588 302.554C272.298 303.312 272.153 304.152 272.153 305.075C272.153 306.022 272.301 306.86 272.597 307.588C272.899 308.31 273.343 308.878 273.928 309.292C274.52 309.701 275.254 309.905 276.13 309.905ZM288.026 303.797V312H285.931V293.818H288.026V300.494H288.204C288.524 299.79 289.003 299.231 289.642 298.816C290.287 298.396 291.146 298.186 292.217 298.186C293.146 298.186 293.96 298.373 294.658 298.745C295.357 299.112 295.898 299.678 296.283 300.441C296.673 301.199 296.869 302.163 296.869 303.335V312H294.774V303.477C294.774 302.394 294.492 301.557 293.93 300.965C293.374 300.367 292.602 300.068 291.613 300.068C290.927 300.068 290.311 300.213 289.767 300.503C289.228 300.793 288.802 301.216 288.488 301.773C288.18 302.329 288.026 303.004 288.026 303.797ZM304.715 312.32C303.85 312.32 303.066 312.157 302.362 311.831C301.658 311.5 301.098 311.023 300.684 310.402C300.27 309.775 300.063 309.017 300.063 308.129C300.063 307.348 300.216 306.715 300.524 306.229C300.832 305.738 301.243 305.353 301.758 305.075C302.273 304.797 302.841 304.59 303.463 304.454C304.09 304.312 304.72 304.199 305.354 304.116C306.182 304.01 306.854 303.93 307.369 303.877C307.89 303.818 308.269 303.72 308.505 303.584C308.748 303.448 308.869 303.211 308.869 302.874V302.803C308.869 301.927 308.63 301.246 308.15 300.761C307.677 300.275 306.958 300.033 305.993 300.033C304.993 300.033 304.209 300.252 303.64 300.69C303.072 301.128 302.673 301.595 302.442 302.092L300.453 301.382C300.808 300.554 301.282 299.908 301.874 299.447C302.471 298.979 303.122 298.654 303.827 298.47C304.537 298.281 305.235 298.186 305.922 298.186C306.36 298.186 306.863 298.239 307.431 298.346C308.005 298.446 308.559 298.657 309.091 298.976C309.63 299.296 310.077 299.778 310.432 300.423C310.787 301.068 310.965 301.933 310.965 303.016V312H308.869V310.153H308.763C308.621 310.449 308.384 310.766 308.053 311.103C307.721 311.441 307.28 311.728 306.73 311.964C306.179 312.201 305.508 312.32 304.715 312.32ZM305.034 310.438C305.863 310.438 306.561 310.275 307.129 309.949C307.703 309.624 308.136 309.203 308.426 308.689C308.721 308.174 308.869 307.632 308.869 307.064V305.146C308.781 305.253 308.585 305.35 308.283 305.439C307.988 305.522 307.644 305.596 307.254 305.661C306.869 305.72 306.493 305.774 306.126 305.821C305.765 305.862 305.472 305.898 305.247 305.928C304.703 305.999 304.194 306.114 303.72 306.274C303.253 306.428 302.874 306.661 302.584 306.975C302.3 307.283 302.158 307.703 302.158 308.236C302.158 308.964 302.427 309.514 302.966 309.887C303.51 310.254 304.2 310.438 305.034 310.438ZM314.789 312V298.364H316.813V300.494H316.99C317.275 299.766 317.733 299.201 318.366 298.799C319 298.39 319.76 298.186 320.648 298.186C321.548 298.186 322.296 298.39 322.894 298.799C323.498 299.201 323.968 299.766 324.306 300.494H324.448C324.797 299.79 325.321 299.231 326.019 298.816C326.718 298.396 327.555 298.186 328.532 298.186C329.751 298.186 330.748 298.568 331.523 299.331C332.299 300.089 332.686 301.27 332.686 302.874V312H330.591V302.874C330.591 301.867 330.316 301.148 329.766 300.716C329.215 300.284 328.567 300.068 327.821 300.068C326.863 300.068 326.12 300.358 325.593 300.938C325.066 301.512 324.803 302.24 324.803 303.122V312H322.672V302.661C322.672 301.885 322.421 301.261 321.918 300.787C321.415 300.308 320.766 300.068 319.973 300.068C319.429 300.068 318.92 300.213 318.446 300.503C317.979 300.793 317.6 301.196 317.31 301.711C317.026 302.22 316.884 302.808 316.884 303.477V312H314.789Z" fill="black"/>
<circle cx="321.239" cy="453.943" r="9.01136" fill="#FF8F87" stroke="black"/>
<path d="M245.671 470.273H250.412L255.419 482.489H255.632L260.639 470.273H265.38V488.455H261.651V476.62H261.5L256.795 488.366H254.256L249.551 476.576H249.4V488.455H245.671V470.273ZM274.637 488.721C273.258 488.721 272.066 488.428 271.06 487.842C270.059 487.25 269.287 486.427 268.742 485.374C268.198 484.315 267.926 483.086 267.926 481.69C267.926 480.281 268.198 479.05 268.742 477.996C269.287 476.937 270.059 476.114 271.06 475.528C272.066 474.937 273.258 474.641 274.637 474.641C276.016 474.641 277.206 474.937 278.206 475.528C279.212 476.114 279.988 476.937 280.532 477.996C281.077 479.05 281.349 480.281 281.349 481.69C281.349 483.086 281.077 484.315 280.532 485.374C279.988 486.427 279.212 487.25 278.206 487.842C277.206 488.428 276.016 488.721 274.637 488.721ZM274.655 485.791C275.282 485.791 275.806 485.614 276.226 485.259C276.647 484.898 276.963 484.406 277.176 483.785C277.395 483.163 277.505 482.456 277.505 481.663C277.505 480.87 277.395 480.163 277.176 479.541C276.963 478.92 276.647 478.429 276.226 478.067C275.806 477.706 275.282 477.526 274.655 477.526C274.022 477.526 273.489 477.706 273.057 478.067C272.631 478.429 272.308 478.92 272.089 479.541C271.876 480.163 271.77 480.87 271.77 481.663C271.77 482.456 271.876 483.163 272.089 483.785C272.308 484.406 272.631 484.898 273.057 485.259C273.489 485.614 274.022 485.791 274.655 485.791ZM287.59 480.571V488.455H283.808V474.818H287.413V477.224H287.572C287.874 476.431 288.38 475.804 289.09 475.342C289.801 474.874 290.662 474.641 291.674 474.641C292.621 474.641 293.447 474.848 294.151 475.262C294.855 475.676 295.403 476.268 295.793 477.038C296.184 477.801 296.379 478.713 296.379 479.772V488.455H292.597V480.447C292.603 479.612 292.39 478.961 291.958 478.494C291.526 478.02 290.931 477.783 290.174 477.783C289.665 477.783 289.215 477.893 288.824 478.112C288.439 478.331 288.138 478.65 287.919 479.071C287.706 479.485 287.596 479.985 287.59 480.571ZM306.613 474.818V477.659H298.401V474.818H306.613ZM300.265 471.551H304.047V484.264C304.047 484.613 304.101 484.886 304.207 485.081C304.314 485.27 304.462 485.404 304.651 485.48C304.846 485.557 305.071 485.596 305.326 485.596C305.503 485.596 305.681 485.581 305.858 485.552C306.036 485.516 306.172 485.489 306.267 485.472L306.862 488.286C306.672 488.345 306.406 488.413 306.063 488.49C305.719 488.573 305.302 488.623 304.811 488.641C303.899 488.677 303.1 488.555 302.414 488.277C301.733 487.999 301.204 487.567 300.825 486.981C300.446 486.395 300.26 485.655 300.265 484.761V471.551ZM315.074 493.852C313.849 493.852 312.798 493.684 311.922 493.346C311.052 493.015 310.36 492.562 309.845 491.988C309.33 491.414 308.995 490.769 308.841 490.053L312.339 489.582C312.446 489.854 312.615 490.109 312.845 490.346C313.076 490.582 313.381 490.772 313.76 490.914C314.144 491.062 314.612 491.136 315.162 491.136C315.985 491.136 316.663 490.934 317.195 490.532C317.734 490.135 318.003 489.47 318.003 488.534V486.04H317.844C317.678 486.419 317.429 486.777 317.098 487.114C316.766 487.451 316.34 487.727 315.819 487.94C315.299 488.153 314.677 488.259 313.955 488.259C312.931 488.259 311.999 488.023 311.159 487.549C310.324 487.07 309.658 486.339 309.161 485.356C308.67 484.368 308.424 483.119 308.424 481.61C308.424 480.065 308.676 478.775 309.179 477.739C309.682 476.703 310.351 475.928 311.185 475.413C312.026 474.898 312.946 474.641 313.946 474.641C314.71 474.641 315.349 474.771 315.864 475.031C316.379 475.286 316.793 475.605 317.107 475.99C317.426 476.369 317.672 476.742 317.844 477.109H317.986V474.818H321.741V488.588C321.741 489.748 321.457 490.718 320.889 491.5C320.32 492.281 319.533 492.867 318.527 493.257C317.527 493.654 316.376 493.852 315.074 493.852ZM315.154 485.418C315.763 485.418 316.278 485.267 316.698 484.966C317.124 484.658 317.45 484.22 317.675 483.652C317.906 483.078 318.021 482.391 318.021 481.592C318.021 480.793 317.909 480.101 317.684 479.515C317.459 478.923 317.133 478.464 316.707 478.139C316.281 477.813 315.763 477.65 315.154 477.65C314.532 477.65 314.008 477.819 313.582 478.156C313.156 478.488 312.834 478.949 312.615 479.541C312.396 480.133 312.286 480.817 312.286 481.592C312.286 482.379 312.396 483.06 312.615 483.634C312.839 484.202 313.162 484.643 313.582 484.957C314.008 485.264 314.532 485.418 315.154 485.418ZM330.912 488.721C329.533 488.721 328.34 488.428 327.334 487.842C326.334 487.25 325.561 486.427 325.017 485.374C324.472 484.315 324.2 483.086 324.2 481.69C324.2 480.281 324.472 479.05 325.017 477.996C325.561 476.937 326.334 476.114 327.334 475.528C328.34 474.937 329.533 474.641 330.912 474.641C332.291 474.641 333.48 474.937 334.481 475.528C335.487 476.114 336.262 476.937 336.807 477.996C337.351 479.05 337.623 480.281 337.623 481.69C337.623 483.086 337.351 484.315 336.807 485.374C336.262 486.427 335.487 487.25 334.481 487.842C333.48 488.428 332.291 488.721 330.912 488.721ZM330.93 485.791C331.557 485.791 332.081 485.614 332.501 485.259C332.921 484.898 333.238 484.406 333.451 483.785C333.67 483.163 333.779 482.456 333.779 481.663C333.779 480.87 333.67 480.163 333.451 479.541C333.238 478.92 332.921 478.429 332.501 478.067C332.081 477.706 331.557 477.526 330.93 477.526C330.296 477.526 329.764 477.706 329.332 478.067C328.905 478.429 328.583 478.92 328.364 479.541C328.151 480.163 328.044 480.87 328.044 481.663C328.044 482.456 328.151 483.163 328.364 483.785C328.583 484.406 328.905 484.898 329.332 485.259C329.764 485.614 330.296 485.791 330.93 485.791ZM340.083 488.455V474.818H343.687V477.224H343.847C344.131 476.425 344.604 475.795 345.267 475.333C345.93 474.871 346.723 474.641 347.646 474.641C348.582 474.641 349.378 474.874 350.035 475.342C350.692 475.804 351.13 476.431 351.349 477.224H351.491C351.769 476.443 352.272 475.818 353 475.351C353.734 474.877 354.601 474.641 355.601 474.641C356.874 474.641 357.906 475.046 358.699 475.857C359.498 476.662 359.898 477.804 359.898 479.284V488.455H356.125V480.029C356.125 479.272 355.924 478.704 355.521 478.325C355.119 477.946 354.616 477.757 354.012 477.757C353.325 477.757 352.79 477.976 352.405 478.414C352.02 478.846 351.828 479.417 351.828 480.127V488.455H348.161V479.95C348.161 479.281 347.969 478.748 347.584 478.352C347.206 477.955 346.705 477.757 346.084 477.757C345.664 477.757 345.285 477.863 344.948 478.076C344.616 478.284 344.353 478.576 344.157 478.955C343.962 479.328 343.865 479.766 343.865 480.269V488.455H340.083ZM369.1 488.721C367.697 488.721 366.49 488.437 365.478 487.869C364.471 487.295 363.696 486.484 363.152 485.436C362.607 484.383 362.335 483.137 362.335 481.699C362.335 480.296 362.607 479.065 363.152 478.005C363.696 476.946 364.463 476.12 365.451 475.528C366.445 474.937 367.611 474.641 368.949 474.641C369.848 474.641 370.686 474.786 371.461 475.076C372.243 475.36 372.923 475.789 373.503 476.363C374.089 476.937 374.545 477.659 374.87 478.529C375.196 479.393 375.359 480.405 375.359 481.565V482.604H363.844V480.26H371.799C371.799 479.716 371.68 479.233 371.444 478.813C371.207 478.393 370.878 478.065 370.458 477.828C370.044 477.585 369.561 477.464 369.011 477.464C368.437 477.464 367.928 477.597 367.484 477.863C367.046 478.124 366.703 478.476 366.454 478.92C366.206 479.358 366.078 479.846 366.072 480.385V482.613C366.072 483.288 366.197 483.871 366.445 484.362C366.7 484.853 367.058 485.232 367.52 485.498C367.981 485.765 368.529 485.898 369.162 485.898C369.582 485.898 369.967 485.839 370.316 485.72C370.665 485.602 370.964 485.424 371.213 485.188C371.461 484.951 371.651 484.661 371.781 484.317L375.279 484.548C375.101 485.389 374.737 486.123 374.187 486.75C373.642 487.371 372.938 487.857 372.074 488.206C371.216 488.549 370.224 488.721 369.1 488.721ZM377.827 488.455V474.818H381.493V477.197H381.635C381.884 476.351 382.301 475.712 382.887 475.28C383.473 474.842 384.148 474.623 384.911 474.623C385.101 474.623 385.305 474.635 385.524 474.658C385.743 474.682 385.935 474.715 386.101 474.756V478.112C385.923 478.059 385.678 478.011 385.364 477.97C385.05 477.928 384.763 477.908 384.503 477.908C383.946 477.908 383.449 478.029 383.011 478.272C382.579 478.508 382.236 478.84 381.982 479.266C381.733 479.692 381.609 480.183 381.609 480.74V488.455H377.827ZM390.806 493.568C390.327 493.568 389.877 493.53 389.457 493.453C389.042 493.382 388.699 493.29 388.427 493.178L389.279 490.354C389.723 490.491 390.123 490.565 390.478 490.576C390.839 490.588 391.149 490.505 391.41 490.328C391.676 490.15 391.892 489.848 392.058 489.422L392.28 488.845L387.388 474.818H391.365L394.189 484.832H394.331L397.18 474.818H401.184L395.884 489.928C395.63 490.662 395.284 491.301 394.846 491.846C394.413 492.396 393.866 492.819 393.203 493.115C392.54 493.417 391.741 493.568 390.806 493.568Z" fill="black"/>
<path d="M336.722 709V691.545H347.903V694.196H339.884V698.935H347.136V701.585H339.884V709H336.722ZM350.784 709V691.545H353.946V706.349H361.634V709H350.784Z" fill="#FFE587"/>
<path d="M497.415 316.119C497.273 315.659 497.077 315.247 496.827 314.884C496.582 314.514 496.287 314.199 495.94 313.938C495.599 313.676 495.207 313.48 494.764 313.349C494.321 313.213 493.838 313.145 493.315 313.145C492.378 313.145 491.543 313.381 490.81 313.852C490.077 314.324 489.5 315.017 489.08 315.932C488.665 316.841 488.457 317.949 488.457 319.256C488.457 320.574 488.665 321.69 489.08 322.605C489.494 323.52 490.071 324.216 490.81 324.693C491.548 325.165 492.406 325.401 493.384 325.401C494.27 325.401 495.037 325.23 495.685 324.889C496.338 324.548 496.841 324.065 497.193 323.44C497.545 322.81 497.722 322.071 497.722 321.224L498.438 321.335H493.699V318.864H500.781V320.96C500.781 322.455 500.463 323.747 499.827 324.838C499.19 325.929 498.315 326.77 497.202 327.361C496.088 327.946 494.81 328.239 493.366 328.239C491.759 328.239 490.347 327.878 489.131 327.156C487.92 326.429 486.974 325.398 486.293 324.062C485.616 322.722 485.278 321.131 485.278 319.29C485.278 317.881 485.477 316.622 485.875 315.514C486.278 314.406 486.841 313.466 487.562 312.693C488.284 311.915 489.131 311.324 490.102 310.92C491.074 310.511 492.131 310.307 493.273 310.307C494.239 310.307 495.139 310.449 495.974 310.733C496.81 311.011 497.551 311.409 498.199 311.926C498.852 312.443 499.389 313.057 499.81 313.767C500.23 314.477 500.506 315.261 500.636 316.119H497.415ZM505.541 328H502.166L508.311 310.545H512.214L518.368 328H514.993L510.331 314.125H510.195L505.541 328ZM505.652 321.156H514.857V323.696H505.652V321.156Z" fill="#FFE587"/>
<circle cx="285.307" cy="81.9432" r="9.01136" fill="#FFE587" stroke="black"/>
<path d="M237.838 117.455V99.2727H240.04V107.369H249.734V99.2727H251.936V117.455H249.734V109.322H240.04V117.455H237.838ZM264.654 111.879V103.818H266.749V117.455H264.654V115.146H264.512C264.192 115.839 263.695 116.428 263.02 116.913C262.345 117.392 261.493 117.632 260.463 117.632C259.611 117.632 258.853 117.446 258.191 117.073C257.528 116.694 257.007 116.126 256.628 115.368C256.249 114.605 256.06 113.643 256.06 112.483V103.818H258.155V112.341C258.155 113.335 258.433 114.128 258.99 114.72C259.552 115.312 260.268 115.608 261.138 115.608C261.659 115.608 262.189 115.475 262.727 115.208C263.272 114.942 263.727 114.534 264.094 113.983C264.467 113.433 264.654 112.732 264.654 111.879ZM272.681 109.251V117.455H270.586V103.818H272.61V105.949H272.788C273.108 105.256 273.593 104.7 274.244 104.28C274.895 103.854 275.735 103.641 276.765 103.641C277.688 103.641 278.496 103.83 279.189 104.209C279.881 104.582 280.42 105.15 280.805 105.913C281.189 106.671 281.382 107.63 281.382 108.79V117.455H279.286V108.932C279.286 107.861 279.008 107.026 278.452 106.428C277.896 105.825 277.132 105.523 276.161 105.523C275.493 105.523 274.895 105.668 274.368 105.958C273.847 106.248 273.436 106.671 273.134 107.227C272.832 107.784 272.681 108.458 272.681 109.251ZM291.141 103.818V105.594H284.074V103.818H291.141ZM286.134 100.551H288.229V113.548C288.229 114.14 288.315 114.584 288.486 114.88C288.664 115.17 288.889 115.365 289.161 115.466C289.439 115.561 289.732 115.608 290.04 115.608C290.271 115.608 290.46 115.596 290.608 115.572C290.756 115.543 290.874 115.519 290.963 115.501L291.389 117.384C291.247 117.437 291.049 117.49 290.794 117.543C290.54 117.602 290.217 117.632 289.827 117.632C289.235 117.632 288.655 117.505 288.087 117.25C287.524 116.996 287.057 116.608 286.684 116.087C286.317 115.567 286.134 114.91 286.134 114.116V100.551ZM303.707 106.872L301.825 107.405C301.707 107.091 301.532 106.786 301.301 106.49C301.076 106.189 300.769 105.94 300.378 105.745C299.987 105.549 299.487 105.452 298.878 105.452C298.043 105.452 297.348 105.644 296.791 106.029C296.241 106.408 295.966 106.89 295.966 107.476C295.966 107.997 296.155 108.408 296.534 108.71C296.913 109.012 297.505 109.263 298.309 109.464L300.334 109.962C301.553 110.258 302.461 110.71 303.059 111.32C303.657 111.924 303.956 112.702 303.956 113.655C303.956 114.436 303.731 115.134 303.281 115.75C302.837 116.366 302.216 116.851 301.417 117.206C300.618 117.561 299.689 117.739 298.629 117.739C297.238 117.739 296.087 117.437 295.176 116.833C294.264 116.229 293.687 115.348 293.444 114.187L295.433 113.69C295.622 114.424 295.981 114.975 296.507 115.342C297.04 115.709 297.735 115.892 298.594 115.892C299.57 115.892 300.345 115.685 300.92 115.271C301.5 114.85 301.79 114.347 301.79 113.761C301.79 113.288 301.624 112.891 301.292 112.572C300.961 112.246 300.452 112.004 299.765 111.844L297.493 111.311C296.244 111.015 295.327 110.556 294.741 109.935C294.161 109.308 293.871 108.523 293.871 107.582C293.871 106.813 294.087 106.132 294.519 105.54C294.957 104.949 295.551 104.484 296.303 104.147C297.061 103.809 297.919 103.641 298.878 103.641C300.227 103.641 301.287 103.937 302.056 104.528C302.831 105.12 303.382 105.901 303.707 106.872ZM318.26 103.818L313.218 117.455H311.087L306.044 103.818H308.317L312.081 114.685H312.223L315.987 103.818H318.26ZM321.026 117.455V103.818H323.121V117.455H321.026ZM322.091 101.545C321.683 101.545 321.33 101.406 321.035 101.128C320.745 100.85 320.6 100.516 320.6 100.125C320.6 99.7344 320.745 99.4 321.035 99.1218C321.33 98.8436 321.683 98.7045 322.091 98.7045C322.499 98.7045 322.849 98.8436 323.139 99.1218C323.435 99.4 323.582 99.7344 323.582 100.125C323.582 100.516 323.435 100.85 323.139 101.128C322.849 101.406 322.499 101.545 322.091 101.545ZM329.053 99.2727V117.455H326.958V99.2727H329.053ZM334.986 99.2727V117.455H332.891V99.2727H334.986ZM344.541 117.739C343.227 117.739 342.094 117.449 341.141 116.869C340.194 116.283 339.463 115.466 338.948 114.418C338.439 113.365 338.184 112.14 338.184 110.743C338.184 109.346 338.439 108.115 338.948 107.05C339.463 105.978 340.179 105.144 341.096 104.546C342.02 103.942 343.097 103.641 344.328 103.641C345.038 103.641 345.739 103.759 346.432 103.996C347.124 104.232 347.755 104.617 348.323 105.15C348.891 105.677 349.344 106.375 349.681 107.245C350.018 108.115 350.187 109.186 350.187 110.459V111.347H339.676V109.535H348.056C348.056 108.766 347.903 108.08 347.595 107.476C347.293 106.872 346.861 106.396 346.299 106.047C345.742 105.697 345.085 105.523 344.328 105.523C343.493 105.523 342.771 105.73 342.162 106.144C341.558 106.553 341.093 107.085 340.768 107.742C340.442 108.399 340.279 109.103 340.279 109.855V111.062C340.279 112.092 340.457 112.965 340.812 113.681C341.173 114.392 341.673 114.933 342.313 115.306C342.952 115.673 343.694 115.857 344.541 115.857C345.091 115.857 345.588 115.78 346.032 115.626C346.482 115.466 346.87 115.229 347.195 114.915C347.521 114.596 347.772 114.199 347.95 113.726L349.974 114.294C349.761 114.981 349.403 115.584 348.9 116.105C348.397 116.62 347.775 117.022 347.036 117.312C346.296 117.597 345.464 117.739 344.541 117.739Z" fill="black"/>
<line x1="492.859" y1="669.957" x2="507.655" y2="701.661" stroke="#FFE587" stroke-width="3"/>
<line x1="418.409" y1="41.2273" x2="448" y2="41.2273" stroke="#FFE587" stroke-width="3"/>
<line x1="30.6136" y1="40.2273" x2="70.7727" y2="40.2273" stroke="#FFE587" stroke-width="3"/>
<path d="M225.955 8.19602V5.54545H239.881V8.19602H234.486V23H231.349V8.19602H225.955ZM256.909 5.54545V23H254.097L245.872 11.1108H245.727V23H242.565V5.54545H245.395L253.611 17.4432H253.764V5.54545H256.909Z" fill="#FFE587"/>
<path d="M1.72159 329.545H5.59091L10.7727 342.193H10.9773L16.1591 329.545H20.0284V347H16.9943V335.009H16.8324L12.0085 346.949H9.74148L4.91761 334.983H4.75568V347H1.72159V329.545ZM32.9574 334.344C32.8778 333.599 32.5426 333.02 31.9517 332.605C31.3665 332.19 30.6051 331.983 29.6676 331.983C29.0085 331.983 28.4432 332.082 27.9716 332.281C27.5 332.48 27.1392 332.75 26.8892 333.091C26.6392 333.432 26.5114 333.821 26.5057 334.259C26.5057 334.622 26.5881 334.937 26.7528 335.205C26.9233 335.472 27.1534 335.699 27.4432 335.886C27.733 336.068 28.054 336.222 28.4062 336.347C28.7585 336.472 29.1136 336.577 29.4716 336.662L31.108 337.071C31.767 337.224 32.4006 337.432 33.0085 337.693C33.6222 337.955 34.1705 338.284 34.6534 338.682C35.142 339.08 35.5284 339.56 35.8125 340.122C36.0966 340.685 36.2386 341.344 36.2386 342.099C36.2386 343.122 35.9773 344.023 35.4545 344.801C34.9318 345.574 34.1761 346.179 33.1875 346.616C32.2045 347.048 31.0142 347.264 29.6165 347.264C28.2585 347.264 27.0795 347.054 26.0795 346.634C25.0852 346.213 24.3068 345.599 23.7443 344.793C23.1875 343.986 22.8864 343.003 22.8409 341.844H25.9517C25.9972 342.452 26.1847 342.957 26.5142 343.361C26.8438 343.764 27.2727 344.065 27.8011 344.264C28.3352 344.463 28.9318 344.562 29.5909 344.562C30.2784 344.562 30.8807 344.46 31.3977 344.256C31.9205 344.045 32.3295 343.756 32.625 343.386C32.9205 343.011 33.071 342.574 33.0767 342.074C33.071 341.619 32.9375 341.244 32.6761 340.949C32.4148 340.648 32.0483 340.398 31.5767 340.199C31.1108 339.994 30.5653 339.812 29.9403 339.653L27.9545 339.142C26.517 338.773 25.3807 338.213 24.5455 337.463C23.7159 336.707 23.3011 335.705 23.3011 334.455C23.3011 333.426 23.5795 332.526 24.1364 331.753C24.6989 330.98 25.4631 330.381 26.429 329.955C27.3949 329.523 28.4886 329.307 29.7102 329.307C30.9489 329.307 32.0341 329.523 32.9659 329.955C33.9034 330.381 34.6392 330.974 35.1733 331.736C35.7074 332.491 35.983 333.361 36 334.344H32.9574Z" fill="#FFE587"/>
</svg>
