<svg width="264" height="382" viewBox="0 0 264 382" fill="none" xmlns="http://www.w3.org/2000/svg">
<path d="M233.276 188.333L227.558 157.167L206.115 24H47.8414H41.7244L43.1538 26.8333L47.4423 29.6667L26 254.917L28.859 371.083L31.7179 368.25L40.2949 366.833L43.1538 369.667H50.3013V351.25L57.4487 347L60.3077 356.917L61.7372 366.833L67.4551 371.083L71.7436 376.75L78.891 381L84.609 379.583L88.8974 371.083L91.7564 365.417L93.1859 361.167L88.8974 356.917L91.7564 351.25L83.1795 339.917L77.4615 325.75L83.1795 322.917L241.853 321.5L236.135 307.333L238.994 288.917V274.75L236.135 262L238.994 245L243.282 237.917L249 229.417L243.282 223.75V212.417L233.276 188.333Z" fill="#97DCFF"/>
<path d="M206.115 25.4167V24M206.115 24L227.558 157.167L233.276 188.333L243.282 212.417V223.75L249 229.417L243.282 237.917L238.994 245L236.135 262L238.994 274.75V288.917L236.135 307.333L241.853 321.5L83.1795 322.917L77.4615 325.75L83.1795 339.917L91.7564 351.25L88.8974 356.917L93.1859 361.167L91.7564 365.417L88.8974 371.083L84.609 379.583L78.891 381L71.7436 376.75L67.4551 371.083L61.7372 366.833L60.3077 356.917L57.4487 347L50.3013 351.25V369.667H43.1538L40.2949 366.833L31.7179 368.25L28.859 371.083L26 254.917L47.4423 29.6667L43.1538 26.8333L41.7244 24H47.8414H206.115Z" stroke="white" stroke-width="0.5"/>
<circle cx="80.5" cy="158.5" r="4" fill="#FFE587" stroke="black"/>
<circle cx="128.5" cy="134.5" r="4" fill="#FFE587" stroke="black"/>
<path d="M50.5795 171.21V170.273H57.125V171.21H54.3807V179H53.3239V171.21H50.5795ZM61.854 176.324V172.455H62.8597V179H61.854V177.892H61.7859C61.6325 178.224 61.3938 178.507 61.07 178.74C60.7461 178.97 60.337 179.085 59.8427 179.085C59.4336 179.085 59.07 178.996 58.7518 178.817C58.4336 178.635 58.1836 178.362 58.0018 177.999C57.82 177.632 57.729 177.17 57.729 176.614V172.455H58.7347V176.545C58.7347 177.023 58.8683 177.403 59.1353 177.688C59.4052 177.972 59.7489 178.114 60.1665 178.114C60.4165 178.114 60.6708 178.05 60.9293 177.922C61.1907 177.794 61.4094 177.598 61.5856 177.334C61.7646 177.07 61.854 176.733 61.854 176.324ZM69.3381 173.92L68.4347 174.176C68.3778 174.026 68.294 173.879 68.1832 173.737C68.0753 173.592 67.9276 173.473 67.7401 173.379C67.5526 173.286 67.3125 173.239 67.0199 173.239C66.6193 173.239 66.2855 173.331 66.0185 173.516C65.7543 173.697 65.6222 173.929 65.6222 174.21C65.6222 174.46 65.7131 174.658 65.8949 174.803C66.0767 174.947 66.3608 175.068 66.7472 175.165L67.7188 175.403C68.304 175.545 68.7401 175.763 69.027 176.055C69.3139 176.345 69.4574 176.719 69.4574 177.176C69.4574 177.551 69.3494 177.886 69.1335 178.182C68.9205 178.477 68.6222 178.71 68.2386 178.881C67.8551 179.051 67.4091 179.136 66.9006 179.136C66.233 179.136 65.6804 178.991 65.2429 178.702C64.8054 178.412 64.5284 177.989 64.4119 177.432L65.3665 177.193C65.4574 177.545 65.6293 177.81 65.8821 177.986C66.1378 178.162 66.4716 178.25 66.8835 178.25C67.3523 178.25 67.7244 178.151 68 177.952C68.2784 177.75 68.4176 177.509 68.4176 177.227C68.4176 177 68.3381 176.81 68.179 176.656C68.0199 176.5 67.7756 176.384 67.446 176.307L66.3551 176.051C65.7557 175.909 65.3153 175.689 65.0341 175.391C64.7557 175.089 64.6165 174.713 64.6165 174.261C64.6165 173.892 64.7202 173.565 64.9276 173.281C65.1378 172.997 65.4233 172.774 65.7841 172.612C66.1477 172.45 66.5597 172.369 67.0199 172.369C67.6676 172.369 68.1761 172.511 68.5455 172.795C68.9176 173.08 69.1818 173.455 69.3381 173.92ZM73.6303 179.136C73.0167 179.136 72.4883 178.991 72.0451 178.702C71.6019 178.412 71.261 178.013 71.0224 177.504C70.7837 176.996 70.6644 176.415 70.6644 175.761C70.6644 175.097 70.7866 174.51 71.0309 174.001C71.2781 173.49 71.6218 173.091 72.0621 172.804C72.5053 172.514 73.0224 172.369 73.6133 172.369C74.0735 172.369 74.4883 172.455 74.8576 172.625C75.2269 172.795 75.5295 173.034 75.7653 173.341C76.0011 173.648 76.1474 174.006 76.2042 174.415H75.1985C75.1218 174.116 74.9513 173.852 74.6871 173.622C74.4258 173.389 74.0735 173.273 73.6303 173.273C73.2383 173.273 72.8945 173.375 72.5991 173.58C72.3065 173.781 72.0778 174.067 71.913 174.436C71.7511 174.803 71.6701 175.233 71.6701 175.727C71.6701 176.233 71.7496 176.673 71.9087 177.048C72.0707 177.423 72.2979 177.714 72.5906 177.922C72.886 178.129 73.2326 178.233 73.6303 178.233C73.8917 178.233 74.1289 178.188 74.342 178.097C74.555 178.006 74.7354 177.875 74.8832 177.705C75.0309 177.534 75.136 177.33 75.1985 177.091H76.2042C76.1474 177.477 76.0067 177.825 75.7823 178.135C75.5607 178.442 75.2667 178.686 74.9002 178.868C74.5366 179.047 74.1133 179.136 73.6303 179.136ZM79.6005 179.153C79.1857 179.153 78.8093 179.075 78.4712 178.919C78.1332 178.76 77.8647 178.531 77.6658 178.233C77.467 177.932 77.3675 177.568 77.3675 177.142C77.3675 176.767 77.4414 176.463 77.5891 176.23C77.7369 175.994 77.9343 175.81 78.1815 175.676C78.4286 175.543 78.7013 175.443 78.9996 175.378C79.3008 175.31 79.6033 175.256 79.9073 175.216C80.305 175.165 80.6275 175.126 80.8746 175.101C81.1246 175.072 81.3065 175.026 81.4201 174.96C81.5366 174.895 81.5948 174.781 81.5948 174.619V174.585C81.5948 174.165 81.4798 173.838 81.2496 173.605C81.0224 173.372 80.6772 173.256 80.2141 173.256C79.734 173.256 79.3576 173.361 79.0849 173.571C78.8121 173.781 78.6204 174.006 78.5096 174.244L77.555 173.903C77.7255 173.506 77.9528 173.196 78.2369 172.974C78.5238 172.75 78.8363 172.594 79.1744 172.506C79.5153 172.415 79.8505 172.369 80.18 172.369C80.3903 172.369 80.6317 172.395 80.9045 172.446C81.18 172.494 81.4457 172.595 81.7013 172.749C81.9599 172.902 82.1744 173.134 82.3448 173.443C82.5153 173.753 82.6005 174.168 82.6005 174.688V179H81.5948V178.114H81.5437C81.4755 178.256 81.3619 178.408 81.2028 178.57C81.0437 178.732 80.832 178.869 80.5678 178.983C80.3036 179.097 79.9812 179.153 79.6005 179.153ZM79.7539 178.25C80.1516 178.25 80.4869 178.172 80.7596 178.016C81.0352 177.859 81.2425 177.658 81.3817 177.411C81.5238 177.163 81.5948 176.903 81.5948 176.631V175.71C81.5522 175.761 81.4585 175.808 81.3136 175.851C81.1715 175.891 81.0067 175.926 80.8192 175.957C80.6346 175.986 80.4542 176.011 80.2781 176.034C80.1048 176.054 79.9641 176.071 79.8562 176.085C79.5948 176.119 79.3505 176.175 79.1232 176.251C78.8988 176.325 78.717 176.437 78.5778 176.588C78.4414 176.736 78.3732 176.937 78.3732 177.193C78.3732 177.543 78.5025 177.807 78.761 177.986C79.0224 178.162 79.3533 178.25 79.7539 178.25ZM85.4418 170.273V179H84.4361V170.273H85.4418ZM89.9428 179.136C89.3519 179.136 88.8335 178.996 88.3874 178.714C87.9442 178.433 87.5977 178.04 87.3477 177.534C87.1005 177.028 86.9769 176.437 86.9769 175.761C86.9769 175.08 87.1005 174.484 87.3477 173.976C87.5977 173.467 87.9442 173.072 88.3874 172.791C88.8335 172.51 89.3519 172.369 89.9428 172.369C90.5337 172.369 91.0508 172.51 91.494 172.791C91.94 173.072 92.2866 173.467 92.5337 173.976C92.7837 174.484 92.9087 175.08 92.9087 175.761C92.9087 176.437 92.7837 177.028 92.5337 177.534C92.2866 178.04 91.94 178.433 91.494 178.714C91.0508 178.996 90.5337 179.136 89.9428 179.136ZM89.9428 178.233C90.3917 178.233 90.761 178.118 91.0508 177.888C91.3406 177.658 91.555 177.355 91.6942 176.98C91.8335 176.605 91.9031 176.199 91.9031 175.761C91.9031 175.324 91.8335 174.916 91.6942 174.538C91.555 174.161 91.3406 173.855 91.0508 173.622C90.761 173.389 90.3917 173.273 89.9428 173.273C89.494 173.273 89.1246 173.389 88.8349 173.622C88.5451 173.855 88.3306 174.161 88.1914 174.538C88.0522 174.916 87.9826 175.324 87.9826 175.761C87.9826 176.199 88.0522 176.605 88.1914 176.98C88.3306 177.355 88.5451 177.658 88.8349 177.888C89.1246 178.118 89.494 178.233 89.9428 178.233ZM97.103 179.136C96.5121 179.136 95.9936 178.996 95.5476 178.714C95.1044 178.433 94.7578 178.04 94.5078 177.534C94.2607 177.028 94.1371 176.437 94.1371 175.761C94.1371 175.08 94.2607 174.484 94.5078 173.976C94.7578 173.467 95.1044 173.072 95.5476 172.791C95.9936 172.51 96.5121 172.369 97.103 172.369C97.6939 172.369 98.2109 172.51 98.6541 172.791C99.1001 173.072 99.4467 173.467 99.6939 173.976C99.9439 174.484 100.069 175.08 100.069 175.761C100.069 176.437 99.9439 177.028 99.6939 177.534C99.4467 178.04 99.1001 178.433 98.6541 178.714C98.2109 178.996 97.6939 179.136 97.103 179.136ZM97.103 178.233C97.5518 178.233 97.9212 178.118 98.2109 177.888C98.5007 177.658 98.7152 177.355 98.8544 176.98C98.9936 176.605 99.0632 176.199 99.0632 175.761C99.0632 175.324 98.9936 174.916 98.8544 174.538C98.7152 174.161 98.5007 173.855 98.2109 173.622C97.9212 173.389 97.5518 173.273 97.103 173.273C96.6541 173.273 96.2848 173.389 95.995 173.622C95.7053 173.855 95.4908 174.161 95.3516 174.538C95.2124 174.916 95.1428 175.324 95.1428 175.761C95.1428 176.199 95.2124 176.605 95.3516 176.98C95.4908 177.355 95.7053 177.658 95.995 177.888C96.2848 178.118 96.6541 178.233 97.103 178.233ZM106.24 173.92L105.337 174.176C105.28 174.026 105.196 173.879 105.086 173.737C104.978 173.592 104.83 173.473 104.642 173.379C104.455 173.286 104.215 173.239 103.922 173.239C103.522 173.239 103.188 173.331 102.921 173.516C102.657 173.697 102.525 173.929 102.525 174.21C102.525 174.46 102.615 174.658 102.797 174.803C102.979 174.947 103.263 175.068 103.65 175.165L104.621 175.403C105.206 175.545 105.642 175.763 105.929 176.055C106.216 176.345 106.36 176.719 106.36 177.176C106.36 177.551 106.252 177.886 106.036 178.182C105.823 178.477 105.525 178.71 105.141 178.881C104.757 179.051 104.311 179.136 103.803 179.136C103.135 179.136 102.583 178.991 102.145 178.702C101.708 178.412 101.431 177.989 101.314 177.432L102.269 177.193C102.36 177.545 102.532 177.81 102.784 177.986C103.04 178.162 103.374 178.25 103.786 178.25C104.255 178.25 104.627 178.151 104.902 177.952C105.181 177.75 105.32 177.509 105.32 177.227C105.32 177 105.24 176.81 105.081 176.656C104.922 176.5 104.678 176.384 104.348 176.307L103.257 176.051C102.658 175.909 102.218 175.689 101.936 175.391C101.658 175.089 101.519 174.713 101.519 174.261C101.519 173.892 101.623 173.565 101.83 173.281C102.04 172.997 102.326 172.774 102.686 172.612C103.05 172.45 103.462 172.369 103.922 172.369C104.57 172.369 105.078 172.511 105.448 172.795C105.82 173.08 106.084 173.455 106.24 173.92ZM109.8 179.153C109.385 179.153 109.009 179.075 108.67 178.919C108.332 178.76 108.064 178.531 107.865 178.233C107.666 177.932 107.567 177.568 107.567 177.142C107.567 176.767 107.641 176.463 107.788 176.23C107.936 175.994 108.134 175.81 108.381 175.676C108.628 175.543 108.901 175.443 109.199 175.378C109.5 175.31 109.803 175.256 110.107 175.216C110.504 175.165 110.827 175.126 111.074 175.101C111.324 175.072 111.506 175.026 111.619 174.96C111.736 174.895 111.794 174.781 111.794 174.619V174.585C111.794 174.165 111.679 173.838 111.449 173.605C111.222 173.372 110.876 173.256 110.413 173.256C109.933 173.256 109.557 173.361 109.284 173.571C109.011 173.781 108.82 174.006 108.709 174.244L107.754 173.903C107.925 173.506 108.152 173.196 108.436 172.974C108.723 172.75 109.036 172.594 109.374 172.506C109.714 172.415 110.05 172.369 110.379 172.369C110.589 172.369 110.831 172.395 111.104 172.446C111.379 172.494 111.645 172.595 111.901 172.749C112.159 172.902 112.374 173.134 112.544 173.443C112.714 173.753 112.8 174.168 112.8 174.688V179H111.794V178.114H111.743C111.675 178.256 111.561 178.408 111.402 178.57C111.243 178.732 111.031 178.869 110.767 178.983C110.503 179.097 110.18 179.153 109.8 179.153ZM109.953 178.25C110.351 178.25 110.686 178.172 110.959 178.016C111.234 177.859 111.442 177.658 111.581 177.411C111.723 177.163 111.794 176.903 111.794 176.631V175.71C111.751 175.761 111.658 175.808 111.513 175.851C111.371 175.891 111.206 175.926 111.018 175.957C110.834 175.986 110.653 176.011 110.477 176.034C110.304 176.054 110.163 176.071 110.055 176.085C109.794 176.119 109.55 176.175 109.322 176.251C109.098 176.325 108.916 176.437 108.777 176.588C108.641 176.736 108.572 176.937 108.572 177.193C108.572 177.543 108.702 177.807 108.96 177.986C109.222 178.162 109.553 178.25 109.953 178.25Z" fill="black"/>
<circle cx="50.5" cy="344.5" r="4" fill="#FFE587" stroke="black"/>
<path d="M37.0568 325.273H38.3182L41.2841 332.517H41.3864L44.3523 325.273H45.6136V334H44.625V327.369H44.5398L41.8125 334H40.858L38.1307 327.369H38.0455V334H37.0568V325.273ZM50.2553 334.136C49.6644 334.136 49.146 333.996 48.6999 333.714C48.2567 333.433 47.9102 333.04 47.6602 332.534C47.413 332.028 47.2894 331.437 47.2894 330.761C47.2894 330.08 47.413 329.484 47.6602 328.976C47.9102 328.467 48.2567 328.072 48.6999 327.791C49.146 327.51 49.6644 327.369 50.2553 327.369C50.8462 327.369 51.3633 327.51 51.8065 327.791C52.2525 328.072 52.5991 328.467 52.8462 328.976C53.0962 329.484 53.2212 330.08 53.2212 330.761C53.2212 331.437 53.0962 332.028 52.8462 332.534C52.5991 333.04 52.2525 333.433 51.8065 333.714C51.3633 333.996 50.8462 334.136 50.2553 334.136ZM50.2553 333.233C50.7042 333.233 51.0735 333.118 51.3633 332.888C51.6531 332.658 51.8675 332.355 52.0067 331.98C52.146 331.605 52.2156 331.199 52.2156 330.761C52.2156 330.324 52.146 329.916 52.0067 329.538C51.8675 329.161 51.6531 328.855 51.3633 328.622C51.0735 328.389 50.7042 328.273 50.2553 328.273C49.8065 328.273 49.4371 328.389 49.1474 328.622C48.8576 328.855 48.6431 329.161 48.5039 329.538C48.3647 329.916 48.2951 330.324 48.2951 330.761C48.2951 331.199 48.3647 331.605 48.5039 331.98C48.6431 332.355 48.8576 332.658 49.1474 332.888C49.4371 333.118 49.8065 333.233 50.2553 333.233ZM54.8928 334V325.273H55.8984V328.494H55.9837C56.0575 328.381 56.1598 328.236 56.2905 328.06C56.424 327.881 56.6143 327.722 56.8615 327.582C57.1115 327.44 57.4496 327.369 57.8757 327.369C58.4268 327.369 58.9126 327.507 59.3331 327.783C59.7536 328.058 60.0817 328.449 60.3175 328.955C60.5533 329.46 60.6712 330.057 60.6712 330.744C60.6712 331.438 60.5533 332.038 60.3175 332.547C60.0817 333.053 59.755 333.445 59.3374 333.723C58.9197 333.999 58.4382 334.136 57.8928 334.136C57.4723 334.136 57.1357 334.067 56.8828 333.928C56.63 333.786 56.4354 333.625 56.299 333.446C56.1626 333.264 56.0575 333.114 55.9837 332.994H55.8643V334H54.8928ZM55.8814 330.727C55.8814 331.222 55.9538 331.658 56.0987 332.036C56.2436 332.411 56.4553 332.705 56.7337 332.918C57.0121 333.128 57.353 333.233 57.7564 333.233C58.1768 333.233 58.5277 333.122 58.8089 332.901C59.093 332.676 59.3061 332.375 59.4482 331.997C59.593 331.616 59.6655 331.193 59.6655 330.727C59.6655 330.267 59.5945 329.852 59.4524 329.483C59.3132 329.111 59.1016 328.817 58.8175 328.601C58.5362 328.382 58.1825 328.273 57.7564 328.273C57.3473 328.273 57.0036 328.376 56.7251 328.584C56.4467 328.788 56.2365 329.075 56.0945 329.445C55.9524 329.811 55.8814 330.239 55.8814 330.727ZM62.2095 334V327.455H63.2152V334H62.2095ZM62.7209 326.364C62.5249 326.364 62.3558 326.297 62.2138 326.163C62.0746 326.03 62.005 325.869 62.005 325.682C62.005 325.494 62.0746 325.334 62.2138 325.2C62.3558 325.067 62.5249 325 62.7209 325C62.9169 325 63.0845 325.067 63.2237 325.2C63.3658 325.334 63.4368 325.494 63.4368 325.682C63.4368 325.869 63.3658 326.03 63.2237 326.163C63.0845 326.297 62.9169 326.364 62.7209 326.364ZM66.0629 325.273V334H65.0572V325.273H66.0629ZM70.6491 334.136C70.0185 334.136 69.4744 333.997 69.017 333.719C68.5625 333.438 68.2116 333.045 67.9645 332.543C67.7202 332.037 67.598 331.449 67.598 330.778C67.598 330.108 67.7202 329.517 67.9645 329.006C68.2116 328.491 68.5554 328.091 68.9957 327.804C69.4389 327.514 69.956 327.369 70.5469 327.369C70.8878 327.369 71.2244 327.426 71.5568 327.54C71.8892 327.653 72.1918 327.838 72.4645 328.094C72.7372 328.347 72.9545 328.682 73.1165 329.099C73.2784 329.517 73.3594 330.031 73.3594 330.642V331.068H68.3139V330.199H72.3366C72.3366 329.83 72.2628 329.5 72.1151 329.21C71.9702 328.92 71.7628 328.692 71.4929 328.524C71.2259 328.357 70.9105 328.273 70.5469 328.273C70.1463 328.273 69.7997 328.372 69.5071 328.571C69.2173 328.767 68.9943 329.023 68.8381 329.338C68.6818 329.653 68.6037 329.991 68.6037 330.352V330.932C68.6037 331.426 68.6889 331.845 68.8594 332.189C69.0327 332.53 69.2727 332.79 69.5795 332.969C69.8864 333.145 70.2429 333.233 70.6491 333.233C70.9134 333.233 71.152 333.196 71.3651 333.122C71.581 333.045 71.767 332.932 71.9233 332.781C72.0795 332.628 72.2003 332.437 72.2855 332.21L73.2571 332.483C73.1548 332.812 72.983 333.102 72.7415 333.352C72.5 333.599 72.2017 333.793 71.8466 333.932C71.4915 334.068 71.0923 334.136 70.6491 334.136Z" fill="black"/>
<path d="M115.057 154V145.273H118.108C118.716 145.273 119.217 145.378 119.612 145.588C120.007 145.795 120.301 146.075 120.494 146.428C120.688 146.777 120.784 147.165 120.784 147.591C120.784 147.966 120.717 148.276 120.584 148.52C120.453 148.764 120.28 148.957 120.064 149.099C119.851 149.241 119.619 149.347 119.369 149.415V149.5C119.636 149.517 119.905 149.611 120.175 149.781C120.445 149.952 120.67 150.196 120.852 150.514C121.034 150.832 121.125 151.222 121.125 151.682C121.125 152.119 121.026 152.513 120.827 152.862C120.628 153.212 120.314 153.489 119.885 153.693C119.456 153.898 118.898 154 118.21 154H115.057ZM116.114 153.062H118.21C118.901 153.062 119.391 152.929 119.68 152.662C119.973 152.392 120.119 152.065 120.119 151.682C120.119 151.386 120.044 151.114 119.893 150.864C119.743 150.611 119.528 150.409 119.25 150.259C118.972 150.105 118.642 150.028 118.261 150.028H116.114V153.062ZM116.114 149.108H118.074C118.392 149.108 118.679 149.045 118.935 148.92C119.193 148.795 119.398 148.619 119.548 148.392C119.702 148.165 119.778 147.898 119.778 147.591C119.778 147.207 119.645 146.882 119.378 146.615C119.111 146.345 118.688 146.21 118.108 146.21H116.114V149.108ZM122.725 154V147.455H123.731V154H122.725ZM123.237 146.364C123.04 146.364 122.871 146.297 122.729 146.163C122.59 146.03 122.521 145.869 122.521 145.682C122.521 145.494 122.59 145.334 122.729 145.2C122.871 145.067 123.04 145 123.237 145C123.433 145 123.6 145.067 123.739 145.2C123.881 145.334 123.952 145.494 123.952 145.682C123.952 145.869 123.881 146.03 123.739 146.163C123.6 146.297 123.433 146.364 123.237 146.364ZM125.573 154V147.455H126.544V148.443H126.613C126.732 148.119 126.948 147.857 127.26 147.655C127.573 147.453 127.925 147.352 128.317 147.352C128.391 147.352 128.483 147.354 128.594 147.357C128.705 147.359 128.789 147.364 128.846 147.369V148.392C128.811 148.384 128.733 148.371 128.611 148.354C128.492 148.334 128.365 148.324 128.232 148.324C127.914 148.324 127.63 148.391 127.38 148.524C127.132 148.655 126.936 148.837 126.792 149.07C126.65 149.3 126.578 149.562 126.578 149.858V154H125.573ZM130.038 154V147.455H131.009V148.477H131.094C131.231 148.128 131.451 147.857 131.755 147.663C132.059 147.467 132.424 147.369 132.85 147.369C133.282 147.369 133.641 147.467 133.928 147.663C134.218 147.857 134.444 148.128 134.606 148.477H134.674C134.842 148.139 135.093 147.871 135.428 147.672C135.763 147.47 136.165 147.369 136.634 147.369C137.219 147.369 137.698 147.553 138.07 147.919C138.442 148.283 138.629 148.849 138.629 149.619V154H137.623V149.619C137.623 149.136 137.491 148.791 137.227 148.584C136.962 148.376 136.651 148.273 136.293 148.273C135.833 148.273 135.477 148.412 135.224 148.69C134.971 148.966 134.844 149.315 134.844 149.739V154H133.822V149.517C133.822 149.145 133.701 148.845 133.46 148.618C133.218 148.388 132.907 148.273 132.526 148.273C132.265 148.273 132.021 148.342 131.793 148.482C131.569 148.621 131.387 148.814 131.248 149.061C131.112 149.305 131.043 149.588 131.043 149.909V154H130.038ZM140.467 154V147.455H141.473V154H140.467ZM140.979 146.364C140.783 146.364 140.614 146.297 140.472 146.163C140.332 146.03 140.263 145.869 140.263 145.682C140.263 145.494 140.332 145.334 140.472 145.2C140.614 145.067 140.783 145 140.979 145C141.175 145 141.342 145.067 141.482 145.2C141.624 145.334 141.695 145.494 141.695 145.682C141.695 145.869 141.624 146.03 141.482 146.163C141.342 146.297 141.175 146.364 140.979 146.364ZM144.321 150.062V154H143.315V147.455H144.287V148.477H144.372C144.525 148.145 144.758 147.878 145.071 147.676C145.383 147.472 145.787 147.369 146.281 147.369C146.724 147.369 147.112 147.46 147.444 147.642C147.777 147.821 148.035 148.094 148.22 148.46C148.404 148.824 148.497 149.284 148.497 149.841V154H147.491V149.909C147.491 149.395 147.358 148.994 147.091 148.707C146.824 148.418 146.457 148.273 145.991 148.273C145.67 148.273 145.383 148.342 145.13 148.482C144.88 148.621 144.683 148.824 144.538 149.091C144.393 149.358 144.321 149.682 144.321 150.062ZM152.977 156.591C152.491 156.591 152.073 156.528 151.724 156.403C151.374 156.281 151.083 156.119 150.85 155.918C150.62 155.719 150.437 155.506 150.3 155.278L151.102 154.716C151.192 154.835 151.308 154.972 151.447 155.125C151.586 155.281 151.776 155.416 152.018 155.53C152.262 155.646 152.582 155.705 152.977 155.705C153.505 155.705 153.941 155.577 154.285 155.321C154.629 155.065 154.8 154.665 154.8 154.119V152.79H154.715C154.641 152.909 154.536 153.057 154.4 153.233C154.266 153.406 154.073 153.561 153.82 153.697C153.57 153.831 153.232 153.898 152.806 153.898C152.278 153.898 151.803 153.773 151.383 153.523C150.965 153.273 150.634 152.909 150.39 152.432C150.148 151.955 150.028 151.375 150.028 150.693C150.028 150.023 150.146 149.439 150.381 148.942C150.617 148.442 150.945 148.055 151.366 147.783C151.786 147.507 152.272 147.369 152.823 147.369C153.249 147.369 153.587 147.44 153.837 147.582C154.09 147.722 154.283 147.881 154.417 148.06C154.553 148.236 154.658 148.381 154.732 148.494H154.835V147.455H155.806V154.188C155.806 154.75 155.678 155.207 155.423 155.56C155.17 155.915 154.829 156.175 154.4 156.339C153.974 156.507 153.499 156.591 152.977 156.591ZM152.942 152.994C153.346 152.994 153.687 152.902 153.965 152.717C154.244 152.533 154.455 152.267 154.6 151.92C154.745 151.574 154.817 151.159 154.817 150.676C154.817 150.205 154.746 149.788 154.604 149.428C154.462 149.067 154.252 148.784 153.974 148.58C153.695 148.375 153.352 148.273 152.942 148.273C152.516 148.273 152.161 148.381 151.877 148.597C151.596 148.812 151.384 149.102 151.242 149.466C151.103 149.83 151.033 150.233 151.033 150.676C151.033 151.131 151.104 151.533 151.246 151.882C151.391 152.229 151.604 152.501 151.886 152.7C152.17 152.896 152.522 152.994 152.942 152.994ZM158.653 150.062V154H157.647V145.273H158.653V148.477H158.738C158.891 148.139 159.121 147.871 159.428 147.672C159.738 147.47 160.15 147.369 160.664 147.369C161.11 147.369 161.501 147.459 161.836 147.638C162.171 147.814 162.431 148.085 162.616 148.452C162.803 148.815 162.897 149.278 162.897 149.841V154H161.891V149.909C161.891 149.389 161.756 148.987 161.487 148.703C161.219 148.416 160.849 148.273 160.374 148.273C160.045 148.273 159.749 148.342 159.488 148.482C159.229 148.621 159.025 148.824 158.874 149.091C158.727 149.358 158.653 149.682 158.653 150.062ZM166.663 154.153C166.248 154.153 165.872 154.075 165.534 153.919C165.196 153.76 164.927 153.531 164.728 153.233C164.529 152.932 164.43 152.568 164.43 152.142C164.43 151.767 164.504 151.463 164.652 151.23C164.799 150.994 164.997 150.81 165.244 150.676C165.491 150.543 165.764 150.443 166.062 150.378C166.363 150.31 166.666 150.256 166.97 150.216C167.368 150.165 167.69 150.126 167.937 150.101C168.187 150.072 168.369 150.026 168.483 149.96C168.599 149.895 168.657 149.781 168.657 149.619V149.585C168.657 149.165 168.542 148.838 168.312 148.605C168.085 148.372 167.74 148.256 167.277 148.256C166.797 148.256 166.42 148.361 166.147 148.571C165.875 148.781 165.683 149.006 165.572 149.244L164.618 148.903C164.788 148.506 165.015 148.196 165.299 147.974C165.586 147.75 165.899 147.594 166.237 147.506C166.578 147.415 166.913 147.369 167.243 147.369C167.453 147.369 167.694 147.395 167.967 147.446C168.243 147.494 168.508 147.595 168.764 147.749C169.022 147.902 169.237 148.134 169.407 148.443C169.578 148.753 169.663 149.168 169.663 149.688V154H168.657V153.114H168.606C168.538 153.256 168.424 153.408 168.265 153.57C168.106 153.732 167.895 153.869 167.63 153.983C167.366 154.097 167.044 154.153 166.663 154.153ZM166.816 153.25C167.214 153.25 167.549 153.172 167.822 153.016C168.098 152.859 168.305 152.658 168.444 152.411C168.586 152.163 168.657 151.903 168.657 151.631V150.71C168.615 150.761 168.521 150.808 168.376 150.851C168.234 150.891 168.069 150.926 167.882 150.957C167.697 150.986 167.517 151.011 167.341 151.034C167.167 151.054 167.027 151.071 166.919 151.085C166.657 151.119 166.413 151.175 166.186 151.251C165.961 151.325 165.779 151.437 165.64 151.588C165.504 151.736 165.436 151.937 165.436 152.193C165.436 152.543 165.565 152.807 165.824 152.986C166.085 153.162 166.416 153.25 166.816 153.25ZM171.499 154V147.455H172.47V148.477H172.555C172.692 148.128 172.912 147.857 173.216 147.663C173.52 147.467 173.885 147.369 174.311 147.369C174.743 147.369 175.102 147.467 175.389 147.663C175.679 147.857 175.905 148.128 176.067 148.477H176.135C176.303 148.139 176.554 147.871 176.889 147.672C177.224 147.47 177.626 147.369 178.095 147.369C178.68 147.369 179.159 147.553 179.531 147.919C179.903 148.283 180.089 148.849 180.089 149.619V154H179.084V149.619C179.084 149.136 178.952 148.791 178.688 148.584C178.423 148.376 178.112 148.273 177.754 148.273C177.294 148.273 176.938 148.412 176.685 148.69C176.432 148.966 176.305 149.315 176.305 149.739V154H175.283V149.517C175.283 149.145 175.162 148.845 174.92 148.618C174.679 148.388 174.368 148.273 173.987 148.273C173.726 148.273 173.482 148.342 173.254 148.482C173.03 148.621 172.848 148.814 172.709 149.061C172.572 149.305 172.504 149.588 172.504 149.909V154H171.499Z" fill="black"/>
<circle cx="160.5" cy="219.5" r="4" fill="#FF8F87" stroke="black"/>
<path d="M124.759 227.273H127.034L129.438 233.136H129.54L131.943 227.273H134.219V236H132.429V230.32H132.357L130.098 235.957H128.879L126.621 230.298H126.548V236H124.759V227.273ZM138.662 236.128C138 236.128 137.428 235.987 136.945 235.706C136.465 235.422 136.094 235.027 135.833 234.521C135.571 234.013 135.441 233.423 135.441 232.753C135.441 232.077 135.571 231.486 135.833 230.98C136.094 230.472 136.465 230.077 136.945 229.795C137.428 229.511 138 229.369 138.662 229.369C139.324 229.369 139.895 229.511 140.375 229.795C140.858 230.077 141.23 230.472 141.492 230.98C141.753 231.486 141.884 232.077 141.884 232.753C141.884 233.423 141.753 234.013 141.492 234.521C141.23 235.027 140.858 235.422 140.375 235.706C139.895 235.987 139.324 236.128 138.662 236.128ZM138.671 234.722C138.972 234.722 139.223 234.636 139.425 234.466C139.627 234.293 139.779 234.057 139.881 233.759C139.986 233.46 140.039 233.121 140.039 232.74C140.039 232.359 139.986 232.02 139.881 231.722C139.779 231.423 139.627 231.187 139.425 231.014C139.223 230.841 138.972 230.754 138.671 230.754C138.367 230.754 138.111 230.841 137.904 231.014C137.699 231.187 137.544 231.423 137.439 231.722C137.337 232.02 137.286 232.359 137.286 232.74C137.286 233.121 137.337 233.46 137.439 233.759C137.544 234.057 137.699 234.293 137.904 234.466C138.111 234.636 138.367 234.722 138.671 234.722ZM144.88 232.216V236H143.064V229.455H144.794V230.609H144.871C145.016 230.229 145.259 229.928 145.6 229.706C145.941 229.482 146.354 229.369 146.84 229.369C147.294 229.369 147.691 229.469 148.029 229.668C148.367 229.866 148.63 230.151 148.817 230.52C149.005 230.886 149.098 231.324 149.098 231.832V236H147.283V232.156C147.286 231.756 147.184 231.443 146.976 231.219C146.769 230.991 146.483 230.878 146.12 230.878C145.875 230.878 145.659 230.93 145.472 231.036C145.287 231.141 145.142 231.294 145.037 231.496C144.935 231.695 144.882 231.935 144.88 232.216ZM154.011 229.455V230.818H150.069V229.455H154.011ZM150.964 227.886H152.779V233.989C152.779 234.156 152.805 234.287 152.856 234.381C152.907 234.472 152.978 234.536 153.069 234.572C153.163 234.609 153.271 234.628 153.393 234.628C153.478 234.628 153.563 234.621 153.648 234.607C153.734 234.589 153.799 234.577 153.844 234.568L154.13 235.919C154.039 235.947 153.911 235.98 153.746 236.017C153.582 236.057 153.381 236.081 153.146 236.089C152.708 236.107 152.325 236.048 151.995 235.915C151.668 235.781 151.414 235.574 151.232 235.293C151.05 235.011 150.961 234.656 150.964 234.227V227.886ZM158.072 238.591C157.484 238.591 156.979 238.51 156.559 238.348C156.141 238.189 155.809 237.972 155.562 237.696C155.315 237.42 155.154 237.111 155.08 236.767L156.759 236.541C156.81 236.672 156.891 236.794 157.002 236.908C157.113 237.021 157.259 237.112 157.441 237.18C157.626 237.251 157.85 237.287 158.114 237.287C158.509 237.287 158.835 237.19 159.09 236.997C159.349 236.807 159.478 236.487 159.478 236.038V234.841H159.401C159.322 235.023 159.202 235.195 159.043 235.357C158.884 235.518 158.68 235.651 158.43 235.753C158.18 235.855 157.881 235.906 157.535 235.906C157.043 235.906 156.596 235.793 156.192 235.565C155.792 235.335 155.472 234.984 155.234 234.513C154.998 234.038 154.88 233.439 154.88 232.714C154.88 231.973 155.001 231.354 155.242 230.857C155.484 230.359 155.805 229.987 156.205 229.74C156.609 229.493 157.05 229.369 157.531 229.369C157.897 229.369 158.204 229.432 158.451 229.557C158.698 229.679 158.897 229.832 159.048 230.017C159.201 230.199 159.319 230.378 159.401 230.554H159.469V229.455H161.272V236.064C161.272 236.621 161.136 237.087 160.863 237.462C160.59 237.837 160.212 238.118 159.729 238.305C159.249 238.496 158.697 238.591 158.072 238.591ZM158.11 234.543C158.403 234.543 158.65 234.47 158.852 234.325C159.056 234.178 159.212 233.967 159.32 233.695C159.431 233.419 159.487 233.089 159.487 232.706C159.487 232.322 159.433 231.99 159.325 231.709C159.217 231.425 159.06 231.205 158.856 231.048C158.651 230.892 158.403 230.814 158.11 230.814C157.812 230.814 157.56 230.895 157.356 231.057C157.151 231.216 156.996 231.437 156.891 231.722C156.786 232.006 156.734 232.334 156.734 232.706C156.734 233.084 156.786 233.411 156.891 233.686C156.999 233.959 157.154 234.17 157.356 234.321C157.56 234.469 157.812 234.543 158.11 234.543ZM165.674 236.128C165.012 236.128 164.44 235.987 163.957 235.706C163.477 235.422 163.106 235.027 162.844 234.521C162.583 234.013 162.452 233.423 162.452 232.753C162.452 232.077 162.583 231.486 162.844 230.98C163.106 230.472 163.477 230.077 163.957 229.795C164.44 229.511 165.012 229.369 165.674 229.369C166.336 229.369 166.907 229.511 167.387 229.795C167.87 230.077 168.242 230.472 168.504 230.98C168.765 231.486 168.896 232.077 168.896 232.753C168.896 233.423 168.765 234.013 168.504 234.521C168.242 235.027 167.87 235.422 167.387 235.706C166.907 235.987 166.336 236.128 165.674 236.128ZM165.683 234.722C165.984 234.722 166.235 234.636 166.437 234.466C166.638 234.293 166.79 234.057 166.893 233.759C166.998 233.46 167.05 233.121 167.05 232.74C167.05 232.359 166.998 232.02 166.893 231.722C166.79 231.423 166.638 231.187 166.437 231.014C166.235 230.841 165.984 230.754 165.683 230.754C165.379 230.754 165.123 230.841 164.915 231.014C164.711 231.187 164.556 231.423 164.451 231.722C164.349 232.02 164.298 232.359 164.298 232.74C164.298 233.121 164.349 233.46 164.451 233.759C164.556 234.057 164.711 234.293 164.915 234.466C165.123 234.636 165.379 234.722 165.683 234.722ZM170.076 236V229.455H171.806V230.609H171.883C172.019 230.226 172.246 229.923 172.565 229.702C172.883 229.48 173.263 229.369 173.707 229.369C174.156 229.369 174.538 229.482 174.853 229.706C175.168 229.928 175.379 230.229 175.484 230.609H175.552C175.685 230.234 175.927 229.935 176.276 229.71C176.629 229.483 177.045 229.369 177.525 229.369C178.136 229.369 178.631 229.564 179.012 229.953C179.396 230.339 179.587 230.888 179.587 231.598V236H177.776V231.956C177.776 231.592 177.68 231.32 177.487 231.138C177.293 230.956 177.052 230.865 176.762 230.865C176.433 230.865 176.175 230.97 175.991 231.18C175.806 231.388 175.714 231.662 175.714 232.003V236H173.954V231.918C173.954 231.597 173.862 231.341 173.677 231.151C173.495 230.96 173.255 230.865 172.957 230.865C172.755 230.865 172.573 230.916 172.411 231.018C172.252 231.118 172.126 231.259 172.032 231.44C171.938 231.619 171.891 231.83 171.891 232.071V236H170.076ZM184.004 236.128C183.331 236.128 182.751 235.991 182.266 235.719C181.783 235.443 181.411 235.054 181.149 234.551C180.888 234.045 180.757 233.447 180.757 232.757C180.757 232.084 180.888 231.493 181.149 230.984C181.411 230.476 181.778 230.08 182.253 229.795C182.73 229.511 183.29 229.369 183.932 229.369C184.364 229.369 184.766 229.439 185.138 229.578C185.513 229.714 185.839 229.92 186.118 230.196C186.399 230.472 186.618 230.818 186.774 231.236C186.93 231.651 187.009 232.136 187.009 232.693V233.192H181.482V232.067H185.3C185.3 231.805 185.243 231.574 185.129 231.372C185.016 231.17 184.858 231.013 184.656 230.899C184.457 230.783 184.226 230.724 183.962 230.724C183.686 230.724 183.442 230.788 183.229 230.916C183.018 231.041 182.854 231.21 182.734 231.423C182.615 231.634 182.554 231.868 182.551 232.126V233.196C182.551 233.52 182.611 233.8 182.73 234.036C182.852 234.271 183.024 234.453 183.246 234.581C183.467 234.709 183.73 234.773 184.034 234.773C184.236 234.773 184.42 234.744 184.588 234.688C184.756 234.631 184.899 234.545 185.018 234.432C185.138 234.318 185.229 234.179 185.291 234.014L186.97 234.125C186.885 234.528 186.71 234.881 186.446 235.182C186.185 235.48 185.847 235.713 185.432 235.881C185.02 236.045 184.544 236.128 184.004 236.128ZM188.193 236V229.455H189.953V230.597H190.021C190.141 230.19 190.341 229.884 190.622 229.676C190.903 229.466 191.227 229.361 191.594 229.361C191.685 229.361 191.783 229.366 191.888 229.378C191.993 229.389 192.085 229.405 192.165 229.425V231.036C192.08 231.01 191.962 230.987 191.811 230.967C191.661 230.947 191.523 230.938 191.398 230.938C191.131 230.938 190.892 230.996 190.682 231.112C190.474 231.226 190.31 231.385 190.188 231.589C190.068 231.794 190.009 232.03 190.009 232.297V236H188.193ZM194.423 238.455C194.193 238.455 193.977 238.436 193.776 238.399C193.577 238.365 193.412 238.321 193.281 238.267L193.69 236.912C193.903 236.977 194.095 237.013 194.266 237.018C194.439 237.024 194.588 236.984 194.713 236.899C194.841 236.814 194.945 236.669 195.024 236.464L195.131 236.188L192.783 229.455H194.692L196.047 234.261H196.115L197.483 229.455H199.405L196.861 236.707C196.739 237.06 196.572 237.366 196.362 237.628C196.155 237.892 195.892 238.095 195.574 238.237C195.256 238.382 194.872 238.455 194.423 238.455Z" fill="black"/>
<path d="M168.076 348V337.091H175.065V338.748H170.052V341.709H174.585V343.366H170.052V348H168.076ZM176.865 348V337.091H178.841V346.343H183.646V348H176.865Z" fill="#FFE587"/>
<path d="M250.384 155.575C250.295 155.287 250.173 155.029 250.017 154.802C249.864 154.571 249.679 154.374 249.463 154.211C249.25 154.048 249.005 153.925 248.728 153.843C248.451 153.758 248.149 153.716 247.822 153.716C247.236 153.716 246.714 153.863 246.256 154.158C245.798 154.452 245.438 154.886 245.175 155.457C244.915 156.026 244.786 156.718 244.786 157.535C244.786 158.359 244.915 159.056 245.175 159.628C245.434 160.2 245.794 160.635 246.256 160.933C246.718 161.228 247.254 161.375 247.865 161.375C248.419 161.375 248.898 161.269 249.303 161.056C249.711 160.843 250.026 160.541 250.246 160.15C250.466 159.756 250.576 159.294 250.576 158.765L251.023 158.835H248.062V157.29H252.488V158.6C252.488 159.534 252.289 160.342 251.892 161.024C251.494 161.706 250.947 162.231 250.251 162.6C249.555 162.966 248.756 163.149 247.854 163.149C246.849 163.149 245.967 162.924 245.207 162.473C244.45 162.018 243.859 161.374 243.433 160.539C243.01 159.701 242.799 158.707 242.799 157.556C242.799 156.675 242.923 155.889 243.172 155.196C243.424 154.504 243.776 153.916 244.227 153.433C244.678 152.947 245.207 152.577 245.814 152.325C246.421 152.07 247.082 151.942 247.795 151.942C248.399 151.942 248.962 152.031 249.484 152.208C250.006 152.382 250.469 152.631 250.874 152.954C251.283 153.277 251.618 153.661 251.881 154.104C252.144 154.548 252.316 155.038 252.398 155.575H250.384ZM255.463 163H253.354L257.194 152.091H259.634L263.48 163H261.371L258.457 154.328H258.372L255.463 163ZM255.532 158.723H261.285V160.31H255.532V158.723Z" fill="#FFE587"/>
<circle cx="143.5" cy="43.5" r="4" fill="#FFE587" stroke="black"/>
<path d="M121.057 60V51.2727H122.114V55.1591H126.767V51.2727H127.824V60H126.767V56.0966H122.114V60H121.057ZM133.928 57.3239V53.4545H134.934V60H133.928V58.892H133.86C133.707 59.2244 133.468 59.5071 133.144 59.7401C132.82 59.9702 132.411 60.0852 131.917 60.0852C131.508 60.0852 131.144 59.9957 130.826 59.8168C130.508 59.6349 130.258 59.3622 130.076 58.9986C129.894 58.6321 129.803 58.1705 129.803 57.6136V53.4545H130.809V57.5455C130.809 58.0227 130.942 58.4034 131.21 58.6875C131.479 58.9716 131.823 59.1136 132.241 59.1136C132.491 59.1136 132.745 59.0497 133.004 58.9219C133.265 58.794 133.484 58.598 133.66 58.3338C133.839 58.0696 133.928 57.733 133.928 57.3239ZM137.782 56.0625V60H136.776V53.4545H137.748V54.4773H137.833C137.986 54.1449 138.219 53.8778 138.532 53.6761C138.844 53.4716 139.248 53.3693 139.742 53.3693C140.185 53.3693 140.573 53.4602 140.905 53.642C141.238 53.821 141.496 54.0938 141.681 54.4602C141.865 54.8239 141.958 55.2841 141.958 55.8409V60H140.952V55.9091C140.952 55.3949 140.819 54.9943 140.551 54.7074C140.284 54.4176 139.918 54.2727 139.452 54.2727C139.131 54.2727 138.844 54.3423 138.591 54.4815C138.341 54.6207 138.144 54.8239 137.999 55.0909C137.854 55.358 137.782 55.6818 137.782 56.0625ZM146.642 53.4545V54.3068H143.25V53.4545H146.642ZM144.239 51.8864H145.244V58.125C145.244 58.4091 145.286 58.6222 145.368 58.7642C145.453 58.9034 145.561 58.9972 145.692 59.0455C145.825 59.0909 145.966 59.1136 146.114 59.1136C146.224 59.1136 146.315 59.108 146.386 59.0966C146.457 59.0824 146.514 59.071 146.557 59.0625L146.761 59.9659C146.693 59.9915 146.598 60.017 146.476 60.0426C146.354 60.071 146.199 60.0852 146.011 60.0852C145.727 60.0852 145.449 60.0241 145.176 59.902C144.906 59.7798 144.682 59.5938 144.503 59.3438C144.327 59.0938 144.239 58.7784 144.239 58.3977V51.8864ZM152.674 54.9205L151.771 55.1761C151.714 55.0256 151.63 54.8793 151.519 54.7372C151.411 54.5923 151.263 54.473 151.076 54.3793C150.888 54.2855 150.648 54.2386 150.356 54.2386C149.955 54.2386 149.621 54.331 149.354 54.5156C149.09 54.6974 148.958 54.929 148.958 55.2102C148.958 55.4602 149.049 55.6577 149.231 55.8026C149.413 55.9474 149.697 56.0682 150.083 56.1648L151.055 56.4034C151.64 56.5455 152.076 56.7628 152.363 57.0554C152.65 57.3452 152.793 57.7187 152.793 58.1761C152.793 58.5511 152.685 58.8864 152.469 59.1818C152.256 59.4773 151.958 59.7102 151.575 59.8807C151.191 60.0511 150.745 60.1364 150.237 60.1364C149.569 60.1364 149.016 59.9915 148.579 59.7017C148.141 59.4119 147.864 58.9886 147.748 58.4318L148.702 58.1932C148.793 58.5455 148.965 58.8097 149.218 58.9858C149.474 59.1619 149.808 59.25 150.219 59.25C150.688 59.25 151.06 59.1506 151.336 58.9517C151.614 58.75 151.754 58.5085 151.754 58.2273C151.754 58 151.674 57.8097 151.515 57.6562C151.356 57.5 151.112 57.3835 150.782 57.3068L149.691 57.0511C149.092 56.9091 148.651 56.6889 148.37 56.3906C148.092 56.0895 147.952 55.7131 147.952 55.2614C147.952 54.892 148.056 54.5653 148.263 54.2812C148.474 53.9972 148.759 53.7741 149.12 53.6122C149.484 53.4503 149.896 53.3693 150.356 53.3693C151.004 53.3693 151.512 53.5114 151.881 53.7955C152.254 54.0795 152.518 54.4545 152.674 54.9205ZM159.659 53.4545L157.239 60H156.216L153.796 53.4545H154.887L156.694 58.6705H156.762L158.569 53.4545H159.659ZM160.987 60V53.4545H161.993V60H160.987ZM161.498 52.3636C161.302 52.3636 161.133 52.2969 160.991 52.1634C160.852 52.0298 160.782 51.8693 160.782 51.6818C160.782 51.4943 160.852 51.3338 160.991 51.2003C161.133 51.0668 161.302 51 161.498 51C161.694 51 161.862 51.0668 162.001 51.2003C162.143 51.3338 162.214 51.4943 162.214 51.6818C162.214 51.8693 162.143 52.0298 162.001 52.1634C161.862 52.2969 161.694 52.3636 161.498 52.3636ZM164.84 51.2727V60H163.835V51.2727H164.84ZM167.688 51.2727V60H166.682V51.2727H167.688ZM172.274 60.1364C171.643 60.1364 171.099 59.9972 170.642 59.7188C170.188 59.4375 169.837 59.0455 169.589 58.5426C169.345 58.0369 169.223 57.4489 169.223 56.7784C169.223 56.108 169.345 55.517 169.589 55.0057C169.837 54.4915 170.18 54.0909 170.621 53.804C171.064 53.5142 171.581 53.3693 172.172 53.3693C172.513 53.3693 172.849 53.4261 173.182 53.5398C173.514 53.6534 173.817 53.8381 174.089 54.0938C174.362 54.3466 174.58 54.6818 174.741 55.0994C174.903 55.517 174.984 56.0312 174.984 56.642V57.0682H169.939V56.1989H173.962C173.962 55.8295 173.888 55.5 173.74 55.2102C173.595 54.9205 173.388 54.6918 173.118 54.5241C172.851 54.3565 172.536 54.2727 172.172 54.2727C171.771 54.2727 171.425 54.3722 171.132 54.571C170.842 54.767 170.619 55.0227 170.463 55.3381C170.307 55.6534 170.229 55.9915 170.229 56.3523V56.9318C170.229 57.4261 170.314 57.8452 170.484 58.1889C170.658 58.5298 170.898 58.7898 171.205 58.9688C171.511 59.1449 171.868 59.233 172.274 59.233C172.538 59.233 172.777 59.196 172.99 59.1222C173.206 59.0455 173.392 58.9318 173.548 58.7812C173.705 58.6278 173.825 58.4375 173.911 58.2102L174.882 58.483C174.78 58.8125 174.608 59.1023 174.366 59.3523C174.125 59.5994 173.827 59.7926 173.472 59.9318C173.116 60.0682 172.717 60.1364 172.274 60.1364Z" fill="black"/>
<line x1="242.227" y1="321.894" x2="249.227" y2="336.894" stroke="white" stroke-width="0.5"/>
<line x1="206" y1="23.75" x2="220" y2="23.75" stroke="white" stroke-width="0.5"/>
<line x1="23" y1="23.75" x2="42" y2="23.75" stroke="white" stroke-width="0.5"/>
<path d="M115.597 4.74751V3.09091H124.3V4.74751H120.929V14H118.968V4.74751H115.597ZM134.943 3.09091V14H133.185L128.045 6.56925H127.955V14H125.978V3.09091H127.747L132.882 10.527H132.978V3.09091H134.943Z" fill="#FFE587"/>
<path d="M1.07599 161.091H3.49432L6.73295 168.996H6.8608L10.0994 161.091H12.5178V172H10.6214V164.505H10.5202L7.50533 171.968H6.08842L3.07351 164.489H2.9723V172H1.07599V161.091ZM20.5984 164.09C20.5487 163.625 20.3391 163.262 19.9698 163.003C19.604 162.744 19.1282 162.614 18.5423 162.614C18.1303 162.614 17.777 162.676 17.4822 162.801C17.1875 162.925 16.962 163.094 16.8058 163.307C16.6495 163.52 16.5696 163.763 16.5661 164.037C16.5661 164.264 16.6175 164.461 16.7205 164.628C16.8271 164.795 16.9709 164.937 17.152 165.054C17.3331 165.168 17.5337 165.263 17.7539 165.342C17.9741 165.42 18.196 165.485 18.4197 165.539L19.4425 165.794C19.8544 165.89 20.2504 166.02 20.6303 166.183C21.0138 166.347 21.3565 166.553 21.6584 166.801C21.9638 167.05 22.2053 167.35 22.3828 167.701C22.5604 168.053 22.6491 168.465 22.6491 168.937C22.6491 169.576 22.4858 170.139 22.1591 170.626C21.8324 171.109 21.3601 171.487 20.7422 171.76C20.1278 172.03 19.3839 172.165 18.5103 172.165C17.6616 172.165 16.9247 172.034 16.2997 171.771C15.6783 171.508 15.1918 171.125 14.8402 170.62C14.4922 170.116 14.304 169.502 14.2756 168.777H16.2198C16.2482 169.157 16.3654 169.473 16.5714 169.725C16.7773 169.978 17.0455 170.166 17.3757 170.29C17.7095 170.414 18.0824 170.477 18.4943 170.477C18.924 170.477 19.3004 170.413 19.6236 170.285C19.9503 170.153 20.206 169.972 20.3906 169.741C20.5753 169.507 20.6694 169.234 20.6729 168.921C20.6694 168.637 20.5859 168.403 20.4226 168.218C20.2592 168.03 20.0302 167.874 19.7354 167.749C19.4442 167.621 19.1033 167.508 18.7127 167.408L17.4716 167.089C16.5732 166.858 15.8629 166.508 15.3409 166.039C14.8224 165.567 14.5632 164.94 14.5632 164.159C14.5632 163.516 14.7372 162.953 15.0852 162.471C15.4368 161.988 15.9144 161.613 16.5181 161.347C17.1218 161.077 17.8054 160.942 18.5689 160.942C19.343 160.942 20.0213 161.077 20.6037 161.347C21.1896 161.613 21.6495 161.984 21.9833 162.46C22.3171 162.932 22.4893 163.475 22.5 164.09H20.5984Z" fill="#FFE587"/>
</svg>
