<svg width="214" height="139" viewBox="0 0 214 139" fill="none" xmlns="http://www.w3.org/2000/svg">
<path d="M204.727 0.150024H8.34231C3.81782 0.150024 0.15 3.80562 0.15 8.31502V129.755C0.15 134.264 3.81782 137.92 8.34231 137.92H204.727C209.251 137.92 212.919 134.264 212.919 129.755V8.31502C212.919 3.80562 209.251 0.150024 204.727 0.150024Z" fill="#92D7FF" stroke="#717171" stroke-width="0.3"/>
<path d="M186.719 21.4418L25.3152 21.08L25.4361 50.1453H25.0731V109.844L144.977 109.965L145.703 111.291L146.187 111.774L146.913 112.015L149.09 113.221L150.179 113.583L151.631 114.548H152.478L153.204 115.03L153.93 115.874L154.777 116.598L155.503 116.718C155.826 116.678 156.519 116.574 156.713 116.477C156.906 116.381 157.358 116.035 157.56 115.874L158.286 114.909L158.528 113.945L159.133 113.824L159.98 114.186L162.762 114.548C163.206 114.427 164.142 114.186 164.335 114.186C164.529 114.186 165.303 114.347 165.666 114.427L166.634 114.186L168.086 114.427L168.57 113.824L168.933 113.945L169.78 114.186L170.748 113.824L171.474 114.186L172.563 114.427L172.926 115.392L174.015 115.874L174.257 116.236L174.62 116.598L176.919 116.839L177.886 117.08L178.371 117.924C178.451 117.964 178.637 118.069 178.734 118.165C178.83 118.262 179.258 117.884 179.459 117.683L181.516 118.527L181.879 119.613L183.694 119.854L184.057 120.095V120.216L183.694 121.181L183.815 121.543L184.178 122.266L185.025 122.869L185.388 123.352L185.751 124.316L187.203 124.075L187.808 124.678L188.292 125.04L188.776 124.799V124.196L188.534 122.387L187.929 120.819L187.082 119.975L186.235 119.13L185.509 118.165V117.08L186.114 115.874L186.477 114.789L187.203 114.427L187.445 112.015L188.05 111.05L187.687 110.568L188.292 109.603L188.05 109L187.929 108.638L188.897 107.914L189.26 106.708L189.381 106.105C189.26 105.864 188.994 105.357 188.897 105.261C188.8 105.165 188.776 104.738 188.776 104.537V103.693L188.413 103.331H187.324L186.84 103.211L187.082 102.849V102.367L186.356 101.884V101.281L186.84 101.16L187.445 100.919L187.687 99.3515V98.5072L187.445 98.1454L186.719 97.5423L186.235 96.9395V96.4569L186.356 95.8539L186.114 95.6128V95.0098C186.114 94.9132 186.437 94.8893 186.598 94.8893L187.082 95.0098H187.808L189.26 95.1303V41.1001L188.413 39.1704L185.63 37.6027L184.662 37.4819L184.057 37.2409L183.21 35.7935L182 33.261L180.427 31.8136L180.669 31.3313V30.6077L182 29.5221L184.541 27.4719L185.146 26.9896C185.267 26.7483 185.485 26.2418 185.388 26.1452C185.291 26.0489 185.912 25.5422 186.235 25.3011L186.598 24.8186L186.719 21.4418Z" fill="#FFD097" stroke="black" stroke-width="0.2"/>
<path d="M202.223 57.3317V57.4469L202.143 57.3317H202.223ZM199.997 54.8756H199.913V54.7535L199.997 54.8756ZM198.118 54.5953V54.8522H197.955L198.061 54.5953H198.118ZM194.951 54.5953L195.055 54.8463H194.894V54.5953H194.951Z" fill="#FFE587" stroke="black"/>
<path d="M98.6646 14.0918V14.207L98.5846 14.0918H98.6646ZM96.44 11.6357H96.3551V11.5127L96.44 11.6357Z" fill="#FFE587" stroke="black"/>
<mask id="path-5-inside-1_83_780" fill="white">
<path d="M196.739 99.8654V103.88H196.009V99.8654H196.739ZM198.046 103.88H197.267L198.685 99.8654H199.586L201.006 103.88H200.227L199.151 100.689H199.12L198.046 103.88ZM198.071 102.306H200.196V102.89H198.071V102.306Z"/>
</mask>
<path d="M196.739 99.8654V103.88H196.009V99.8654H196.739ZM198.046 103.88H197.267L198.685 99.8654H199.586L201.006 103.88H200.227L199.151 100.689H199.12L198.046 103.88ZM198.071 102.306H200.196V102.89H198.071V102.306Z" fill="#FFE587"/>
<path d="M196.739 99.8654H197.739V98.8654H196.739V99.8654ZM196.739 103.88V104.88H197.739V103.88H196.739ZM196.009 103.88H195.009V104.88H196.009V103.88ZM196.009 99.8654V98.8654H195.009V99.8654H196.009ZM198.046 103.88V104.88H198.765L198.994 104.199L198.046 103.88ZM197.267 103.88L196.324 103.547L195.853 104.88H197.267V103.88ZM198.685 99.8654V98.8654H197.978L197.742 99.5323L198.685 99.8654ZM199.586 99.8654L200.529 99.5319L200.293 98.8654H199.586V99.8654ZM201.006 103.88V104.88H202.42L201.949 103.547L201.006 103.88ZM200.227 103.88L199.28 104.199L199.509 104.88H200.227V103.88ZM199.151 100.689L200.099 100.369L199.869 99.6888H199.151V100.689ZM199.12 100.689V99.6888H198.401L198.172 100.37L199.12 100.689ZM198.071 102.306V101.306H197.071V102.306H198.071ZM200.196 102.306H201.196V101.306H200.196V102.306ZM200.196 102.89V103.89H201.196V102.89H200.196ZM198.071 102.89H197.071V103.89H198.071V102.89ZM196.739 99.8654H195.739V103.88H196.739H197.739V99.8654H196.739ZM196.739 103.88V102.88H196.009V103.88V104.88H196.739V103.88ZM196.009 103.88H197.009V99.8654H196.009H195.009V103.88H196.009ZM196.009 99.8654V100.865H196.739V99.8654V98.8654H196.009V99.8654ZM198.046 103.88V102.88H197.267V103.88V104.88H198.046V103.88ZM197.267 103.88L198.21 104.213L199.628 100.198L198.685 99.8654L197.742 99.5323L196.324 103.547L197.267 103.88ZM198.685 99.8654V100.865H199.586V99.8654V98.8654H198.685V99.8654ZM199.586 99.8654L198.643 100.199L200.063 104.213L201.006 103.88L201.949 103.547L200.529 99.5319L199.586 99.8654ZM201.006 103.88V102.88H200.227V103.88V104.88H201.006V103.88ZM200.227 103.88L201.175 103.561L200.099 100.369L199.151 100.689L198.204 101.008L199.28 104.199L200.227 103.88ZM199.151 100.689V99.6888H199.12V100.689V101.689H199.151V100.689ZM199.12 100.689L198.172 100.37L197.098 103.561L198.046 103.88L198.994 104.199L200.067 101.008L199.12 100.689ZM198.071 102.306V103.306H200.196V102.306V101.306H198.071V102.306ZM200.196 102.306H199.196V102.89H200.196H201.196V102.306H200.196ZM200.196 102.89V101.89H198.071V102.89V103.89H200.196V102.89ZM198.071 102.89H199.071V102.306H198.071H197.071V102.89H198.071Z" fill="black" mask="url(#path-5-inside-1_83_780)"/>
<path d="M99.5877 120.352V120.467L99.5077 120.352H99.5877ZM97.3631 117.896H97.2782V117.773L97.3631 117.896Z" fill="#FFE587" stroke="black"/>
<path d="M12.4228 79.6336H12.376L12.3994 79.5447L12.4228 79.6336Z" fill="#FFE587" stroke="black"/>
<path d="M13.7334 32.5154V32.7722H13.5703L13.6758 32.5154H13.7334ZM10.5664 32.5154L10.67 32.7664H10.5088V32.5154H10.5664Z" fill="#FFE587" stroke="black"/>
<path d="M104.806 71.3402C105.955 71.3402 106.886 70.4122 106.886 69.2676C106.886 68.1229 105.955 67.1949 104.806 67.1949C103.658 67.1949 102.727 68.1229 102.727 69.2676C102.727 70.4122 103.658 71.3402 104.806 71.3402Z" fill="#FF8F87" stroke="black" stroke-width="0.3"/>
<path d="M29.5043 84.4625V80.2807H30.9219C31.2498 80.2807 31.5189 80.3366 31.7292 80.4481C31.9394 80.5585 32.0952 80.7101 32.1962 80.9035C32.2973 81.0967 32.3478 81.3166 32.3478 81.5629C32.3478 81.8095 32.2973 82.028 32.1962 82.2184C32.0952 82.4091 31.9401 82.5588 31.7312 82.6676C31.5222 82.7752 31.2552 82.8291 30.9302 82.8291H29.7828V82.3716H30.9138C31.1377 82.3716 31.3182 82.3389 31.4545 82.2736C31.5925 82.2083 31.6922 82.1156 31.7538 81.996C31.8166 81.8748 31.848 81.7304 31.848 81.5629C31.848 81.3955 31.8166 81.2492 31.7538 81.1241C31.6908 80.9987 31.5905 80.9021 31.4527 80.834C31.3147 80.7646 31.1324 80.7299 30.9055 80.7299H30.0122V84.4625H29.5043ZM31.4792 82.5839L32.5117 84.4625H31.9218L30.9055 82.5839H31.4792ZM34.0551 84.5361C33.8555 84.5361 33.6745 84.4986 33.5121 84.4237C33.3496 84.3475 33.2204 84.2378 33.1248 84.095C33.0293 83.9508 32.9815 83.7764 32.9815 83.5722C32.9815 83.3926 33.0171 83.247 33.0879 83.1352C33.159 83.0223 33.2538 82.9337 33.3727 82.8698C33.4915 82.8058 33.6226 82.7582 33.7662 82.7269C33.9108 82.6943 34.0565 82.6683 34.2025 82.6492C34.3936 82.6248 34.5487 82.6064 34.6675 82.5942C34.7878 82.5807 34.8752 82.5581 34.9297 82.5268C34.9858 82.4956 35.0137 82.4411 35.0137 82.3635V82.3472C35.0137 82.1457 34.9585 81.9891 34.8478 81.8776C34.7386 81.7658 34.5727 81.7101 34.35 81.7101C34.1192 81.7101 33.9383 81.7605 33.807 81.8612C33.6759 81.962 33.5838 82.0694 33.5305 82.1837L33.0715 82.0204C33.1535 81.8299 33.2628 81.6814 33.3995 81.5753C33.5372 81.4677 33.6877 81.3929 33.8502 81.3506C34.014 81.3072 34.1751 81.2853 34.3336 81.2853C34.4347 81.2853 34.5508 81.2975 34.6818 81.3221C34.8143 81.3451 34.9422 81.3936 35.0649 81.467C35.1893 81.5406 35.2925 81.6515 35.3744 81.7998C35.4563 81.9482 35.4974 82.1471 35.4974 82.3962V84.4625H35.0137V84.0377H34.9892C34.9565 84.1058 34.9018 84.1787 34.8254 84.2562C34.7488 84.334 34.647 84.4 34.5201 84.4542C34.3929 84.5088 34.2381 84.5361 34.0551 84.5361ZM34.1287 84.1033C34.32 84.1033 34.4811 84.0658 34.6122 83.9908C34.7446 83.916 34.8445 83.8192 34.9115 83.701C34.9795 83.5825 35.0137 83.4579 35.0137 83.3272V82.8861C34.9934 82.9107 34.9482 82.933 34.8787 82.9535C34.8104 82.9726 34.731 82.9896 34.641 83.0046C34.5522 83.0181 34.4654 83.0305 34.3807 83.0414C34.2974 83.0508 34.2298 83.0591 34.1778 83.066C34.0523 83.0823 33.9348 83.1087 33.8255 83.1455C33.7177 83.181 33.6302 83.2346 33.5633 83.3068C33.4978 83.3776 33.465 83.4742 33.465 83.5968C33.465 83.7642 33.5271 83.8907 33.6515 83.9765C33.777 84.0609 33.9362 84.1033 34.1287 84.1033ZM36.3798 85.6387V81.3262H36.8469V81.8244H36.9042C36.9397 81.7699 36.9888 81.7005 37.0518 81.616C37.116 81.5303 37.2074 81.4541 37.3262 81.3874C37.4465 81.3193 37.6089 81.2853 37.8138 81.2853C38.0788 81.2853 38.3125 81.3513 38.5145 81.4833C38.7166 81.6154 38.8745 81.8026 38.9878 82.045C39.1011 82.2872 39.1578 82.5731 39.1578 82.9024C39.1578 83.2346 39.1011 83.5225 38.9878 83.7663C38.8745 84.0085 38.7173 84.1964 38.5165 84.3298C38.3158 84.4618 38.0843 84.5278 37.8222 84.5278C37.62 84.5278 37.458 84.4945 37.3366 84.4278C37.215 84.3597 37.1215 84.2829 37.0558 84.1971C36.9902 84.1099 36.9397 84.0377 36.9042 83.9807H36.8633V85.6387H36.3798ZM36.855 82.8944C36.855 83.1313 36.8898 83.3401 36.9595 83.5211C37.0292 83.701 37.131 83.8418 37.2648 83.9439C37.3987 84.0446 37.5625 84.095 37.7566 84.095C37.9588 84.095 38.1275 84.0419 38.2625 83.9358C38.3991 83.8282 38.5015 83.684 38.5698 83.5027C38.6395 83.3203 38.6744 83.1175 38.6744 82.8944C38.6744 82.6738 38.6402 82.4751 38.5719 82.298C38.505 82.1197 38.4032 81.979 38.2666 81.8755C38.1314 81.7706 37.9613 81.7182 37.7566 81.7182C37.5598 81.7182 37.3945 81.7678 37.2607 81.8672C37.1268 81.9652 37.0258 82.1027 36.9575 82.2798C36.8892 82.4553 36.855 82.6602 36.855 82.8944ZM39.8954 84.4625V81.3262H40.3788V84.4625H39.8954ZM40.1412 80.8035C40.047 80.8035 39.9658 80.7715 39.8975 80.7075C39.8305 80.6434 39.7971 80.5666 39.7971 80.4766C39.7971 80.3869 39.8305 80.3099 39.8975 80.2459C39.9658 80.182 40.047 80.15 40.1412 80.15C40.2355 80.15 40.3161 80.182 40.383 80.2459C40.4513 80.3099 40.4855 80.3869 40.4855 80.4766C40.4855 80.5666 40.4513 80.6434 40.383 80.7075C40.3161 80.7715 40.2355 80.8035 40.1412 80.8035ZM42.4528 84.5278C42.1906 84.5278 41.9589 84.4618 41.7582 84.3298C41.5574 84.1964 41.4005 84.0085 41.2869 83.7663C41.1736 83.5225 41.1171 83.2346 41.1171 82.9024C41.1171 82.5731 41.1736 82.2872 41.2869 82.045C41.4005 81.8026 41.5581 81.6154 41.7602 81.4833C41.9624 81.3513 42.1959 81.2853 42.4608 81.2853C42.6658 81.2853 42.8278 81.3193 42.9464 81.3874C43.0666 81.4541 43.1582 81.5303 43.221 81.616C43.2852 81.7005 43.335 81.7699 43.3705 81.8244H43.4116V80.2807H43.8951V84.4625H43.428V83.9807H43.3705C43.335 84.0377 43.2845 84.1099 43.2189 84.1971C43.1534 84.2829 43.0599 84.3597 42.9383 84.4278C42.8167 84.4945 42.6549 84.5278 42.4528 84.5278ZM42.5183 84.095C42.7122 84.095 42.8762 84.0446 43.0101 83.9439C43.1439 83.8418 43.2457 83.701 43.3152 83.5211C43.3848 83.3401 43.4197 83.1313 43.4197 82.8944C43.4197 82.6602 43.3855 82.4553 43.3172 82.2798C43.2489 82.1027 43.1478 81.9652 43.014 81.8672C42.8802 81.7678 42.7149 81.7182 42.5183 81.7182C42.3134 81.7182 42.1426 81.7706 42.0062 81.8755C41.871 81.979 41.7692 82.1197 41.7009 82.298C41.634 82.4751 41.6005 82.6738 41.6005 82.8944C41.6005 83.1175 41.6347 83.3203 41.703 83.5027C41.7725 83.684 41.8749 83.8282 42.0102 83.9358C42.1468 84.0419 42.3162 84.095 42.5183 84.095ZM49.9122 81.5875H49.404C49.374 81.4419 49.3214 81.3138 49.2464 81.2037C49.1725 81.0935 49.0825 81.0008 48.9759 80.926C48.8707 80.8497 48.7539 80.7926 48.6256 80.7545C48.4971 80.7163 48.3632 80.6972 48.2241 80.6972C47.97 80.6972 47.7399 80.7611 47.5336 80.8892C47.3287 81.0171 47.1655 81.2057 47.0439 81.4548C46.9237 81.7039 46.8637 82.0096 46.8637 82.3716C46.8637 82.7336 46.9237 83.0393 47.0439 83.2884C47.1655 83.5375 47.3287 83.7261 47.5336 83.8539C47.7399 83.9821 47.97 84.046 48.2241 84.046C48.3632 84.046 48.4971 84.0269 48.6256 83.9887C48.7539 83.9508 48.8707 83.8942 48.9759 83.8192C49.0825 83.7431 49.1725 83.6499 49.2464 83.5395C49.3214 83.428 49.374 83.3001 49.404 83.1557H49.9122C49.8738 83.3693 49.8044 83.5607 49.7033 83.7295C49.6022 83.8983 49.4765 84.0419 49.3262 84.1603C49.176 84.2774 49.0073 84.3666 48.8202 84.4278C48.6344 84.489 48.4357 84.5198 48.2241 84.5198C47.8662 84.5198 47.5479 84.4326 47.2694 84.2583C46.9906 84.0842 46.7714 83.8362 46.6117 83.5152C46.4518 83.1938 46.3719 82.8127 46.3719 82.3716C46.3719 81.9305 46.4518 81.5493 46.6117 81.2283C46.7714 80.907 46.9906 80.6592 47.2694 80.4849C47.5479 80.3106 47.8662 80.2236 48.2241 80.2236C48.4357 80.2236 48.6344 80.2542 48.8202 80.3154C49.0073 80.3766 49.176 80.4665 49.3262 80.585C49.4765 80.702 49.6022 80.8449 49.7033 81.0137C49.8044 81.1811 49.8738 81.3725 49.9122 81.5875ZM50.6677 84.4625V81.3262H51.1512V84.4625H50.6677ZM50.9135 80.8035C50.8193 80.8035 50.7381 80.7715 50.6698 80.7075C50.6028 80.6434 50.5694 80.5666 50.5694 80.4766C50.5694 80.3869 50.6028 80.3099 50.6698 80.2459C50.7381 80.182 50.8193 80.15 50.9135 80.15C51.0078 80.15 51.0884 80.182 51.1553 80.2459C51.2236 80.3099 51.2578 80.3869 51.2578 80.4766C51.2578 80.5666 51.2236 80.6434 51.1553 80.7075C51.0884 80.7715 51.0078 80.8035 50.9135 80.8035ZM53.4053 81.3262V81.7345H51.7745V81.3262H53.4053ZM52.2498 80.5748H52.7333V83.5641C52.7333 83.7003 52.7532 83.8022 52.7926 83.8703C52.8337 83.937 52.8856 83.9821 52.9484 84.0051C53.0125 84.0269 53.0802 84.0377 53.1512 84.0377C53.2045 84.0377 53.2482 84.0352 53.2823 84.0297C53.3165 84.0228 53.3437 84.0175 53.3642 84.0133L53.4625 84.4462C53.4298 84.4584 53.3841 84.4708 53.3255 84.483C53.2666 84.4966 53.1923 84.5035 53.1021 84.5035C52.9655 84.5035 52.8316 84.474 52.7005 84.4156C52.5708 84.357 52.4628 84.2679 52.3768 84.1481C52.2921 84.0283 52.2498 83.8772 52.2498 83.6948V80.5748ZM54.444 85.6387C54.3621 85.6387 54.2889 85.6318 54.2248 85.6183C54.1606 85.6061 54.1161 85.5937 54.0916 85.5815L54.2146 85.1567C54.3321 85.1868 54.4357 85.1976 54.5259 85.1896C54.6162 85.1813 54.696 85.141 54.7657 85.069C54.8365 84.9982 54.9016 84.8832 54.9602 84.7238L55.0505 84.4789L53.8867 81.3262H54.4112L55.2798 83.8254H55.3126L56.1812 81.3262H56.7058L55.3701 84.92C55.3098 85.0819 55.2355 85.216 55.1467 85.3223C55.0578 85.4297 54.9547 85.5093 54.8372 85.561C54.7212 85.6128 54.5901 85.6387 54.444 85.6387Z" fill="black"/>
<path d="M29.2735 103.463V99.2807H29.7815V101.143H32.0188V99.2807H32.5269V103.463H32.0188V101.592H29.7815V103.463H29.2735ZM34.7568 103.528C34.4728 103.528 34.2235 103.46 34.0092 103.326C33.7962 103.191 33.6293 103.003 33.5093 102.76C33.3905 102.518 33.3309 102.235 33.3309 101.911C33.3309 101.584 33.3905 101.299 33.5093 101.055C33.6293 100.812 33.7962 100.622 34.0092 100.487C34.2235 100.353 34.4728 100.285 34.7568 100.285C35.0409 100.285 35.2895 100.353 35.5027 100.487C35.7171 100.622 35.8837 100.812 36.0025 101.055C36.1228 101.299 36.1828 101.584 36.1828 101.911C36.1828 102.235 36.1228 102.518 36.0025 102.76C35.8837 103.003 35.7171 103.191 35.5027 103.326C35.2895 103.46 35.0409 103.528 34.7568 103.528ZM34.7568 103.095C34.9726 103.095 35.1503 103.04 35.2895 102.93C35.4288 102.819 35.532 102.674 35.5989 102.495C35.6658 102.315 35.6993 102.12 35.6993 101.911C35.6993 101.701 35.6658 101.506 35.5989 101.325C35.532 101.144 35.4288 100.997 35.2895 100.886C35.1503 100.774 34.9726 100.718 34.7568 100.718C34.5411 100.718 34.3636 100.774 34.2242 100.886C34.0848 100.997 33.9817 101.144 33.9148 101.325C33.8478 101.506 33.8144 101.701 33.8144 101.911C33.8144 102.12 33.8478 102.315 33.9148 102.495C33.9817 102.674 34.0848 102.819 34.2242 102.93C34.3636 103.04 34.5411 103.095 34.7568 103.095ZM38.2895 100.326V100.734H36.6586V100.326H38.2895ZM37.134 99.5748H37.6175V102.564C37.6175 102.7 37.6373 102.802 37.6768 102.87C37.7178 102.937 37.7698 102.982 37.8325 103.005C37.8967 103.027 37.9643 103.038 38.0354 103.038C38.0887 103.038 38.1323 103.035 38.1665 103.03C38.2006 103.023 38.2281 103.017 38.2484 103.013L38.3467 103.446C38.3139 103.458 38.2682 103.471 38.2096 103.483C38.1508 103.497 38.0765 103.503 37.9862 103.503C37.8496 103.503 37.7158 103.474 37.5847 103.416C37.455 103.357 37.347 103.268 37.2609 103.148C37.1762 103.028 37.134 102.877 37.134 102.695V99.5748ZM42.9995 100.326C42.9748 100.119 42.8751 99.9587 42.7004 99.8442C42.5255 99.7299 42.3111 99.6728 42.057 99.6728C41.8712 99.6728 41.7088 99.7027 41.5694 99.7625C41.4316 99.8225 41.3236 99.9049 41.2458 100.01C41.1692 100.114 41.1309 100.234 41.1309 100.367C41.1309 100.479 41.1577 100.575 41.211 100.655C41.2655 100.734 41.3351 100.8 41.4198 100.853C41.5045 100.905 41.5934 100.947 41.6862 100.982C41.7792 101.014 41.8645 101.041 41.9423 101.061L42.3685 101.176C42.4777 101.204 42.5993 101.244 42.7331 101.294C42.8684 101.344 42.9974 101.413 43.1204 101.5C43.2445 101.586 43.347 101.696 43.4275 101.831C43.5083 101.966 43.5485 102.131 43.5485 102.327C43.5485 102.553 43.4891 102.757 43.3703 102.94C43.2528 103.122 43.0807 103.267 42.8541 103.375C42.6286 103.482 42.3547 103.536 42.0325 103.536C41.7321 103.536 41.4718 103.488 41.2518 103.391C41.0333 103.294 40.8614 103.16 40.7356 102.987C40.6112 102.814 40.5411 102.613 40.5247 102.384H41.049C41.0628 102.542 41.1159 102.673 41.2089 102.776C41.3031 102.879 41.4219 102.955 41.5655 103.005C41.7101 103.054 41.8659 103.079 42.0325 103.079C42.2264 103.079 42.4006 103.047 42.555 102.985C42.7092 102.921 42.8315 102.832 42.9217 102.719C43.0117 102.605 43.0569 102.471 43.0569 102.319C43.0569 102.18 43.0179 102.067 42.9401 101.98C42.8621 101.893 42.7597 101.822 42.6328 101.768C42.5056 101.713 42.3685 101.666 42.2208 101.625L41.7046 101.478C41.3769 101.384 41.1173 101.25 40.9262 101.076C40.7349 100.901 40.6394 100.673 40.6394 100.392C40.6394 100.157 40.7028 99.9532 40.8298 99.7788C40.9583 99.6034 41.1302 99.4672 41.3462 99.3706C41.5634 99.2726 41.8057 99.2236 42.0734 99.2236C42.3438 99.2236 42.5843 99.2719 42.7945 99.3685C43.005 99.4637 43.1716 99.5944 43.2944 99.7604C43.4188 99.9267 43.4843 100.115 43.4912 100.326H42.9995ZM44.3183 104.639V100.326H44.7854V100.824H44.8428C44.8784 100.77 44.9275 100.7 44.9903 100.616C45.0545 100.53 45.1461 100.454 45.2649 100.387C45.3852 100.319 45.5476 100.285 45.7525 100.285C46.0175 100.285 46.251 100.351 46.4532 100.483C46.6553 100.615 46.8129 100.803 46.9265 101.045C47.0398 101.287 47.0963 101.573 47.0963 101.902C47.0963 102.235 47.0398 102.523 46.9265 102.766C46.8129 103.009 46.656 103.196 46.4552 103.33C46.2545 103.462 46.0228 103.528 45.7606 103.528C45.5585 103.528 45.3967 103.494 45.2751 103.428C45.1535 103.36 45.06 103.283 44.9945 103.197C44.9289 103.11 44.8784 103.038 44.8428 102.981H44.8018V104.639H44.3183ZM44.7937 101.894C44.7937 102.131 44.8285 102.34 44.8982 102.521C44.9677 102.701 45.0695 102.842 45.2033 102.944C45.3372 103.045 45.5012 103.095 45.6951 103.095C45.8972 103.095 46.0659 103.042 46.2011 102.936C46.3378 102.828 46.4402 102.684 46.5085 102.503C46.578 102.32 46.6128 102.117 46.6128 101.894C46.6128 101.674 46.5787 101.475 46.5104 101.298C46.4435 101.12 46.3417 100.979 46.2053 100.875C46.0701 100.771 45.9 100.718 45.6951 100.718C45.4985 100.718 45.3332 100.768 45.1994 100.867C45.0655 100.965 44.9645 101.103 44.8961 101.28C44.8278 101.455 44.7937 101.66 44.7937 101.894ZM47.8341 103.463V100.326H48.3012V100.8H48.3339C48.3912 100.645 48.495 100.519 48.6452 100.422C48.7955 100.326 48.9648 100.277 49.1534 100.277C49.1889 100.277 49.2332 100.278 49.2865 100.279C49.3398 100.28 49.38 100.283 49.4075 100.285V100.775C49.3911 100.771 49.3535 100.765 49.2946 100.757C49.2374 100.747 49.1765 100.743 49.1123 100.743C48.9593 100.743 48.8229 100.775 48.7027 100.839C48.5838 100.901 48.4895 100.988 48.42 101.1C48.3517 101.21 48.3175 101.336 48.3175 101.478V103.463H47.8341ZM49.9805 103.463V100.326H50.4639V103.463H49.9805ZM50.2265 99.8035C50.1321 99.8035 50.0508 99.7715 49.9825 99.7075C49.9156 99.6434 49.8822 99.5666 49.8822 99.4766C49.8822 99.3869 49.9156 99.3099 49.9825 99.2459C50.0508 99.182 50.1321 99.15 50.2265 99.15C50.3206 99.15 50.4012 99.182 50.4681 99.2459C50.5364 99.3099 50.5705 99.3869 50.5705 99.4766C50.5705 99.5666 50.5364 99.6434 50.4681 99.7075C50.4012 99.7715 50.3206 99.8035 50.2265 99.8035ZM51.8331 101.576V103.463H51.3496V100.326H51.8167V100.816H51.8578C51.9314 100.657 52.0435 100.529 52.1938 100.432C52.344 100.334 52.5378 100.285 52.7755 100.285C52.9885 100.285 53.175 100.329 53.3349 100.416C53.4946 100.502 53.619 100.632 53.7076 100.808C53.7965 100.982 53.8408 101.203 53.8408 101.47V103.463H53.3573V101.502C53.3573 101.256 53.2932 101.064 53.1648 100.927C53.0363 100.788 52.8602 100.718 52.6362 100.718C52.4818 100.718 52.344 100.752 52.2224 100.818C52.1022 100.885 52.0073 100.982 51.9376 101.11C51.8679 101.238 51.8331 101.393 51.8331 101.576ZM55.9945 104.704C55.761 104.704 55.5602 104.674 55.3922 104.614C55.2242 104.556 55.0842 104.478 54.9722 104.381C54.8617 104.286 54.7735 104.184 54.708 104.075L55.0932 103.805C55.1368 103.863 55.1922 103.928 55.2591 104.002C55.326 104.076 55.4176 104.141 55.5337 104.196C55.6512 104.251 55.8046 104.279 55.9945 104.279C56.2486 104.279 56.4584 104.218 56.6236 104.095C56.7888 103.973 56.8715 103.781 56.8715 103.52V102.883H56.8304C56.7948 102.94 56.7443 103.011 56.6788 103.095C56.6146 103.178 56.5218 103.252 56.4002 103.318C56.28 103.382 56.1175 103.414 55.9126 103.414C55.6585 103.414 55.4305 103.354 55.2284 103.234C55.0276 103.114 54.8684 102.94 54.7509 102.711C54.6348 102.482 54.5769 102.205 54.5769 101.878C54.5769 101.557 54.6335 101.277 54.747 101.039C54.8603 100.799 55.0179 100.614 55.2201 100.483C55.4222 100.351 55.6558 100.285 55.9209 100.285C56.1256 100.285 56.2883 100.319 56.4083 100.387C56.5299 100.454 56.6229 100.53 56.6871 100.616C56.7526 100.7 56.8032 100.77 56.8387 100.824H56.8878V100.326H57.3549V103.552C57.3549 103.822 57.2935 104.041 57.1705 104.21C57.0489 104.38 56.8851 104.505 56.6788 104.584C56.4741 104.664 56.2458 104.704 55.9945 104.704ZM55.9782 102.981C56.1722 102.981 56.3361 102.936 56.4699 102.848C56.6038 102.759 56.7055 102.632 56.7752 102.466C56.8447 102.3 56.8795 102.101 56.8795 101.87C56.8795 101.644 56.8454 101.445 56.7771 101.272C56.709 101.099 56.6079 100.963 56.4741 100.865C56.3402 100.767 56.1748 100.718 55.9782 100.718C55.7732 100.718 55.6027 100.77 55.4661 100.873C55.3308 100.977 55.2291 101.116 55.1608 101.29C55.0938 101.464 55.0604 101.657 55.0604 101.87C55.0604 102.088 55.0945 102.28 55.1628 102.448C55.2325 102.614 55.3348 102.744 55.47 102.84C55.6066 102.934 55.776 102.981 55.9782 102.981ZM60.4689 101.029L60.0346 101.151C60.0074 101.079 59.967 101.009 59.9137 100.941C59.862 100.871 59.7909 100.814 59.7007 100.769C59.6107 100.724 59.4951 100.702 59.3545 100.702C59.1618 100.702 59.0015 100.746 58.8731 100.835C58.746 100.922 58.6825 101.033 58.6825 101.167C58.6825 101.287 58.7261 101.382 58.8136 101.451C58.9011 101.521 59.0377 101.579 59.2235 101.625L59.6905 101.739C59.9718 101.807 60.1816 101.911 60.3194 102.051C60.4574 102.19 60.5264 102.369 60.5264 102.589C60.5264 102.768 60.4745 102.929 60.3706 103.07C60.2682 103.212 60.1248 103.324 59.9405 103.405C59.7561 103.487 59.5417 103.528 59.2971 103.528C58.9761 103.528 58.7105 103.458 58.5002 103.32C58.2898 103.181 58.1566 102.978 58.1008 102.711L58.5595 102.597C58.6034 102.766 58.686 102.892 58.8074 102.977C58.9304 103.061 59.091 103.103 59.289 103.103C59.5142 103.103 59.6933 103.055 59.8258 102.96C59.9596 102.864 60.0265 102.748 60.0265 102.613C60.0265 102.504 59.9882 102.413 59.9118 102.339C59.8352 102.265 59.7178 102.209 59.5595 102.172L59.0349 102.05C58.7467 101.982 58.5351 101.876 58.3998 101.733C58.266 101.589 58.1991 101.408 58.1991 101.192C58.1991 101.015 58.2489 100.858 58.3486 100.722C58.4497 100.586 58.587 100.479 58.7603 100.402C58.9352 100.324 59.1332 100.285 59.3545 100.285C59.6658 100.285 59.9105 100.353 60.0879 100.49C60.2668 100.626 60.3939 100.805 60.4689 101.029Z" fill="black"/>
<path d="M96.5146 75.5709V71.389H98.1702C98.4884 71.389 98.7593 71.4497 98.9834 71.5707C99.2075 71.6905 99.3782 71.8573 99.4957 72.0709C99.6143 72.2835 99.6739 72.5284 99.6739 72.806C99.6739 73.0839 99.6136 73.3288 99.4936 73.5411C99.3734 73.7536 99.1992 73.919 98.9712 74.0374C98.7443 74.1559 98.4699 74.215 98.1476 74.215H97.0925V73.5066H98.004C98.1748 73.5066 98.3156 73.4772 98.4261 73.4187C98.5382 73.3587 98.6216 73.2764 98.676 73.1717C98.7321 73.0655 98.76 72.9436 98.76 72.806C98.76 72.6673 98.7321 72.5461 98.676 72.4426C98.6216 72.3377 98.5382 72.2568 98.4261 72.1997C98.3142 72.1411 98.172 72.1119 98.0001 72.1119H97.4017V75.5709H96.5146ZM100.234 75.5709V72.4346H101.106V75.5709H100.234ZM100.672 72.0302C100.542 72.0302 100.431 71.9872 100.338 71.9017C100.247 71.8145 100.201 71.7103 100.201 71.5891C100.201 71.4693 100.247 71.3667 100.338 71.2809C100.431 71.1937 100.542 71.15 100.672 71.15C100.802 71.15 100.912 71.1937 101.004 71.2809C101.097 71.3667 101.143 71.4693 101.143 71.5891C101.143 71.7103 101.097 71.8145 101.004 71.9017C100.912 71.9872 100.802 72.0302 100.672 72.0302ZM103.24 75.632C102.916 75.632 102.637 75.5667 102.404 75.4361C102.171 75.3041 101.993 75.1175 101.867 74.8767C101.741 74.6343 101.679 74.3477 101.679 74.017C101.679 73.6943 101.741 73.4112 101.867 73.1676C101.993 72.9238 102.17 72.734 102.398 72.5979C102.627 72.4617 102.896 72.3936 103.205 72.3936C103.412 72.3936 103.606 72.427 103.785 72.4937C103.965 72.559 104.122 72.6577 104.256 72.7897C104.391 72.9217 104.496 73.088 104.571 73.2881C104.646 73.4868 104.684 73.7196 104.684 73.9864V74.2254H102.027V73.6862H103.863C103.863 73.5609 103.835 73.45 103.781 73.3534C103.726 73.2566 103.65 73.1812 103.553 73.1266C103.458 73.071 103.346 73.0429 103.219 73.0429C103.087 73.0429 102.969 73.0735 102.867 73.1349C102.766 73.1947 102.687 73.2757 102.629 73.3778C102.572 73.4785 102.542 73.5908 102.541 73.7148V74.2272C102.541 74.3824 102.57 74.5165 102.627 74.6295C102.686 74.7426 102.768 74.8296 102.875 74.891C102.981 74.9522 103.108 74.9827 103.254 74.9827C103.351 74.9827 103.44 74.9692 103.52 74.942C103.601 74.9147 103.67 74.874 103.727 74.8194C103.785 74.7649 103.828 74.6982 103.858 74.6193L104.666 74.6725C104.625 74.8657 104.541 75.0345 104.414 75.1787C104.288 75.3218 104.125 75.4333 103.926 75.5136C103.728 75.5927 103.499 75.632 103.24 75.632ZM105.254 75.5709V72.4346H106.1V72.9817H106.132C106.19 72.7872 106.286 72.64 106.421 72.5406C106.557 72.4399 106.712 72.3895 106.888 72.3895C106.932 72.3895 106.979 72.3923 107.03 72.3978C107.08 72.4033 107.125 72.4107 107.163 72.4201V73.192C107.122 73.1798 107.065 73.169 106.993 73.1593C106.92 73.1499 106.854 73.145 106.794 73.145C106.666 73.145 106.551 73.1729 106.45 73.2288C106.35 73.2833 106.271 73.3594 106.212 73.4574C106.155 73.5556 106.126 73.6685 106.126 73.7964V75.5709H105.254ZM107.614 75.5709V72.4346H108.46V72.9817H108.493C108.55 72.7872 108.647 72.64 108.782 72.5406C108.917 72.4399 109.073 72.3895 109.249 72.3895C109.293 72.3895 109.34 72.3923 109.39 72.3978C109.441 72.4033 109.485 72.4107 109.524 72.4201V73.192C109.483 73.1798 109.426 73.169 109.353 73.1593C109.281 73.1499 109.215 73.145 109.155 73.145C109.026 73.145 108.912 73.1729 108.811 73.2288C108.711 73.2833 108.632 73.3594 108.573 73.4574C108.516 73.5556 108.487 73.6685 108.487 73.7964V75.5709H107.614ZM111.262 75.632C110.939 75.632 110.66 75.5667 110.427 75.4361C110.194 75.3041 110.016 75.1175 109.89 74.8767C109.764 74.6343 109.701 74.3477 109.701 74.017C109.701 73.6943 109.764 73.4112 109.89 73.1676C110.016 72.9238 110.192 72.734 110.421 72.5979C110.65 72.4617 110.919 72.3936 111.228 72.3936C111.435 72.3936 111.629 72.427 111.807 72.4937C111.988 72.559 112.145 72.6577 112.279 72.7897C112.414 72.9217 112.519 73.088 112.594 73.2881C112.669 73.4868 112.707 73.7196 112.707 73.9864V74.2254H110.05V73.6862H111.885C111.885 73.5609 111.858 73.45 111.803 73.3534C111.749 73.2566 111.673 73.1812 111.576 73.1266C111.48 73.071 111.369 73.0429 111.242 73.0429C111.11 73.0429 110.992 73.0735 110.89 73.1349C110.789 73.1947 110.709 73.2757 110.652 73.3778C110.595 73.4785 110.565 73.5908 110.564 73.7148V74.2272C110.564 74.3824 110.592 74.5165 110.65 74.6295C110.709 74.7426 110.791 74.8296 110.898 74.891C111.004 74.9522 111.131 74.9827 111.277 74.9827C111.374 74.9827 111.462 74.9692 111.543 74.942C111.624 74.9147 111.693 74.874 111.75 74.8194C111.807 74.7649 111.851 74.6982 111.881 74.6193L112.688 74.6725C112.647 74.8657 112.563 75.0345 112.436 75.1787C112.311 75.3218 112.148 75.4333 111.949 75.5136C111.751 75.5927 111.522 75.632 111.262 75.632Z" fill="black"/>
<path d="M159.183 96.3262C159.159 96.1192 159.059 95.9587 158.884 95.8442C158.709 95.7299 158.495 95.6728 158.241 95.6728C158.055 95.6728 157.893 95.7027 157.753 95.7625C157.615 95.8225 157.508 95.9049 157.43 96.0098C157.353 96.1144 157.315 96.2336 157.315 96.367C157.315 96.4787 157.342 96.5746 157.395 96.6549C157.449 96.7338 157.519 96.7998 157.604 96.8529C157.689 96.9047 157.777 96.9475 157.87 96.9815C157.963 97.0142 158.049 97.0409 158.126 97.0613L158.553 97.1756C158.662 97.2042 158.783 97.2437 158.917 97.2941C159.052 97.3445 159.181 97.4132 159.304 97.5002C159.429 97.586 159.531 97.6964 159.612 97.8311C159.692 97.9659 159.732 98.1313 159.732 98.3272C159.732 98.5531 159.673 98.7573 159.554 98.9397C159.437 99.1221 159.265 99.2673 159.038 99.3747C158.813 99.4823 158.539 99.5361 158.217 99.5361C157.916 99.5361 157.656 99.4876 157.436 99.391C157.217 99.2944 157.045 99.1596 156.92 98.9867C156.795 98.8139 156.725 98.6131 156.708 98.3843H157.233C157.247 98.5423 157.3 98.6729 157.393 98.7764C157.487 98.8786 157.606 98.9547 157.749 99.0051C157.894 99.054 158.05 99.0787 158.217 99.0787C158.41 99.0787 158.585 99.0474 158.739 98.9848C158.893 98.9206 159.015 98.8323 159.106 98.7192C159.196 98.6049 159.241 98.4715 159.241 98.319C159.241 98.1803 159.202 98.0671 159.124 97.9802C159.046 97.893 158.944 97.8222 158.817 97.7677C158.69 97.7134 158.553 97.6655 158.405 97.6248L157.889 97.4779C157.561 97.3838 157.301 97.2497 157.11 97.0756C156.919 96.9012 156.823 96.6733 156.823 96.3916C156.823 96.1574 156.887 95.9532 157.014 95.7788C157.142 95.6034 157.314 95.4672 157.53 95.3706C157.747 95.2726 157.99 95.2236 158.257 95.2236C158.528 95.2236 158.768 95.2719 158.979 95.3685C159.189 95.4637 159.356 95.5944 159.478 95.7604C159.603 95.9267 159.668 96.1151 159.675 96.3262H159.183ZM160.502 99.4625V96.3262H160.986V99.4625H160.502ZM160.748 95.8035C160.654 95.8035 160.573 95.7715 160.504 95.7075C160.437 95.6434 160.404 95.5666 160.404 95.4766C160.404 95.3869 160.437 95.3099 160.504 95.2459C160.573 95.182 160.654 95.15 160.748 95.15C160.842 95.15 160.923 95.182 160.99 95.2459C161.058 95.3099 161.092 95.3869 161.092 95.4766C161.092 95.5666 161.058 95.6434 160.99 95.7075C160.923 95.7715 160.842 95.8035 160.748 95.8035ZM163.15 99.5278C162.866 99.5278 162.616 99.4605 162.402 99.3257C162.189 99.1909 162.022 99.0025 161.902 98.7601C161.783 98.5179 161.724 98.2346 161.724 97.9107C161.724 97.5839 161.783 97.2987 161.902 97.0551C162.022 96.8115 162.189 96.6223 162.402 96.4875C162.616 96.3527 162.866 96.2853 163.15 96.2853C163.434 96.2853 163.683 96.3527 163.896 96.4875C164.11 96.6223 164.277 96.8115 164.395 97.0551C164.516 97.2987 164.576 97.5839 164.576 97.9107C164.576 98.2346 164.516 98.5179 164.395 98.7601C164.277 99.0025 164.11 99.1909 163.896 99.3257C163.683 99.4605 163.434 99.5278 163.15 99.5278ZM163.15 99.095C163.366 99.095 163.543 99.0398 163.683 98.9296C163.822 98.8192 163.925 98.6743 163.992 98.4947C164.059 98.3151 164.092 98.1202 164.092 97.9107C164.092 97.701 164.059 97.5057 163.992 97.3247C163.925 97.1437 163.822 96.9972 163.683 96.8856C163.543 96.7741 163.366 96.7182 163.15 96.7182C162.934 96.7182 162.756 96.7741 162.617 96.8856C162.478 96.9972 162.375 97.1437 162.308 97.3247C162.241 97.5057 162.207 97.701 162.207 97.9107C162.207 98.1202 162.241 98.3151 162.308 98.4947C162.375 98.6743 162.478 98.8192 162.617 98.9296C162.756 99.0398 162.934 99.095 163.15 99.095ZM167.297 98.1803V96.3262H167.781V99.4625H167.297V98.9317H167.264C167.19 99.0908 167.076 99.2263 166.92 99.3379C166.764 99.4483 166.568 99.5035 166.33 99.5035C166.133 99.5035 165.958 99.4605 165.805 99.3747C165.652 99.2875 165.532 99.1569 165.445 98.9827C165.357 98.807 165.314 98.5858 165.314 98.319V96.3262H165.797V98.2863C165.797 98.5152 165.861 98.6975 165.99 98.8337C166.12 98.9696 166.285 99.0377 166.486 99.0377C166.606 99.0377 166.728 99.0071 166.852 98.9459C166.978 98.8848 167.083 98.7907 167.168 98.6642C167.254 98.5375 167.297 98.3762 167.297 98.1803ZM169.026 96.3262L169.781 97.6085L170.535 96.3262H171.092L170.076 97.8944L171.092 99.4625H170.535L169.781 98.2456L169.026 99.4625H168.469L169.469 97.8944L168.469 96.3262H169.026ZM173.47 99.4625V95.2807H175.986V95.7299H173.978V97.143H175.797V97.5922H173.978V99.4625H173.47ZM177.716 99.5361C177.517 99.5361 177.336 99.4986 177.173 99.4237C177.011 99.3475 176.882 99.2378 176.786 99.095C176.691 98.9508 176.643 98.7764 176.643 98.5722C176.643 98.3926 176.678 98.247 176.749 98.1352C176.82 98.0223 176.915 97.9337 177.034 97.8698C177.153 97.8058 177.284 97.7582 177.427 97.7269C177.572 97.6943 177.718 97.6683 177.864 97.6492C178.055 97.6248 178.21 97.6064 178.329 97.5942C178.449 97.5807 178.536 97.5581 178.591 97.5268C178.647 97.4956 178.675 97.4411 178.675 97.3635V97.3472C178.675 97.1457 178.62 96.9891 178.509 96.8776C178.4 96.7658 178.234 96.7101 178.011 96.7101C177.78 96.7101 177.6 96.7605 177.468 96.8612C177.337 96.962 177.245 97.0694 177.192 97.1837L176.733 97.0204C176.815 96.8299 176.924 96.6814 177.061 96.5753C177.199 96.4677 177.349 96.3929 177.511 96.3506C177.675 96.3072 177.837 96.2853 177.995 96.2853C178.096 96.2853 178.212 96.2975 178.343 96.3221C178.476 96.3451 178.603 96.3936 178.726 96.467C178.851 96.5406 178.954 96.6515 179.036 96.7998C179.118 96.9482 179.159 97.1471 179.159 97.3962V99.4625H178.675V99.0377H178.65C178.618 99.1058 178.563 99.1787 178.487 99.2562C178.41 99.334 178.308 99.4 178.181 99.4542C178.054 99.5088 177.899 99.5361 177.716 99.5361ZM177.79 99.1033C177.981 99.1033 178.142 99.0658 178.274 98.9908C178.406 98.916 178.506 98.8192 178.573 98.701C178.641 98.5825 178.675 98.4579 178.675 98.3272V97.8861C178.655 97.9107 178.61 97.933 178.54 97.9535C178.472 97.9726 178.392 97.9896 178.302 98.0046C178.213 98.0181 178.127 98.0305 178.042 98.0414C177.959 98.0508 177.891 98.0591 177.839 98.066C177.714 98.0823 177.596 98.1087 177.487 98.1455C177.379 98.181 177.291 98.2346 177.225 98.3068C177.159 98.3776 177.126 98.4742 177.126 98.5968C177.126 98.7642 177.188 98.8907 177.313 98.9765C177.438 99.0609 177.597 99.1033 177.79 99.1033ZM180.525 95.2807V99.4625H180.041V95.2807H180.525ZM181.894 95.2807V99.4625H181.41V95.2807H181.894ZM185.008 97.0287L184.574 97.151C184.547 97.079 184.506 97.0089 184.453 96.9408C184.401 96.8713 184.33 96.8141 184.24 96.7692C184.15 96.7244 184.034 96.7018 183.894 96.7018C183.701 96.7018 183.541 96.7462 183.412 96.8345C183.285 96.9217 183.222 97.0326 183.222 97.1674C183.222 97.2872 183.265 97.3817 183.353 97.4512C183.44 97.5206 183.577 97.5786 183.763 97.6248L184.23 97.7391C184.511 97.8072 184.721 97.9114 184.859 98.0515C184.997 98.1904 185.066 98.3693 185.066 98.5885C185.066 98.7684 185.014 98.9289 184.91 99.0704C184.807 99.2121 184.664 99.3236 184.48 99.4053C184.295 99.4871 184.081 99.5278 183.836 99.5278C183.515 99.5278 183.25 99.4584 183.039 99.3197C182.829 99.1808 182.696 98.9779 182.64 98.7111L183.099 98.5968C183.143 98.7656 183.225 98.8921 183.347 98.9765C183.47 99.0609 183.63 99.1033 183.828 99.1033C184.053 99.1033 184.233 99.0554 184.365 98.9602C184.499 98.8636 184.566 98.7479 184.566 98.6131C184.566 98.5041 184.527 98.413 184.451 98.3394C184.374 98.2647 184.257 98.2088 184.099 98.172L183.574 98.0496C183.286 97.9816 183.074 97.876 182.939 97.7329C182.805 97.5887 182.738 97.4084 182.738 97.192C182.738 97.0149 182.788 96.8585 182.888 96.7223C182.989 96.5861 183.126 96.4792 183.3 96.4017C183.474 96.3242 183.672 96.2853 183.894 96.2853C184.205 96.2853 184.45 96.3534 184.627 96.4895C184.806 96.6257 184.933 96.8053 185.008 97.0287Z" fill="black"/>
<path d="M158.504 77.4625V73.2807H159.971C160.263 73.2807 160.504 73.331 160.694 73.4318C160.884 73.5311 161.025 73.6652 161.118 73.834C161.211 74.0015 161.258 74.1873 161.258 74.3916C161.258 74.5712 161.225 74.7195 161.161 74.8366C161.099 74.9537 161.015 75.0464 160.911 75.1142C160.809 75.1823 160.698 75.2327 160.577 75.2653V75.3063C160.706 75.3146 160.835 75.3594 160.965 75.4411C161.094 75.5227 161.203 75.6398 161.291 75.7923C161.378 75.9448 161.422 76.1313 161.422 76.3516C161.422 76.5614 161.374 76.75 161.278 76.9174C161.183 77.0849 161.032 77.2176 160.825 77.3156C160.619 77.4135 160.351 77.4625 160.02 77.4625H158.504ZM159.012 77.0133H160.02C160.352 77.0133 160.588 76.9494 160.727 76.8213C160.868 76.692 160.938 76.5354 160.938 76.3516C160.938 76.2102 160.902 76.0795 160.829 75.9597C160.757 75.8385 160.654 75.7419 160.52 75.6697C160.386 75.5963 160.228 75.5595 160.045 75.5595H159.012V77.0133ZM159.012 75.1184H159.955C160.108 75.1184 160.246 75.0885 160.369 75.0287C160.493 74.9686 160.591 74.8842 160.664 74.7754C160.737 74.6664 160.774 74.5385 160.774 74.3916C160.774 74.2078 160.71 74.0519 160.582 73.924C160.453 73.7945 160.25 73.7299 159.971 73.7299H159.012V75.1184ZM162.191 77.4625V74.3262H162.658V74.7998H162.691C162.748 74.6448 162.852 74.5188 163.002 74.4222C163.152 74.3256 163.322 74.2773 163.51 74.2773C163.546 74.2773 163.59 74.2779 163.643 74.2791C163.697 74.2805 163.737 74.2825 163.764 74.2853V74.7754C163.748 74.7713 163.71 74.7651 163.652 74.757C163.594 74.7474 163.533 74.7428 163.469 74.7428C163.316 74.7428 163.18 74.7747 163.06 74.8387C162.941 74.9012 162.846 74.9884 162.777 75.1C162.709 75.2104 162.674 75.3362 162.674 75.4779V77.4625H162.191ZM165.52 77.5278C165.236 77.5278 164.987 77.4605 164.772 77.3257C164.559 77.1909 164.393 77.0025 164.272 76.7601C164.153 76.5179 164.094 76.2346 164.094 75.9107C164.094 75.5839 164.153 75.2987 164.272 75.0551C164.393 74.8115 164.559 74.6223 164.772 74.4875C164.987 74.3527 165.236 74.2853 165.52 74.2853C165.804 74.2853 166.053 74.3527 166.266 74.4875C166.48 74.6223 166.647 74.8115 166.766 75.0551C166.886 75.2987 166.946 75.5839 166.946 75.9107C166.946 76.2346 166.886 76.5179 166.766 76.7601C166.647 77.0025 166.48 77.1909 166.266 77.3257C166.053 77.4605 165.804 77.5278 165.52 77.5278ZM165.52 77.095C165.736 77.095 165.913 77.0398 166.053 76.9296C166.192 76.8192 166.295 76.6743 166.362 76.4947C166.429 76.3151 166.463 76.1202 166.463 75.9107C166.463 75.701 166.429 75.5057 166.362 75.3247C166.295 75.1437 166.192 74.9972 166.053 74.8856C165.913 74.7741 165.736 74.7182 165.52 74.7182C165.304 74.7182 165.127 74.7741 164.987 74.8856C164.848 74.9972 164.745 75.1437 164.678 75.3247C164.611 75.5057 164.578 75.701 164.578 75.9107C164.578 76.1202 164.611 76.3151 164.678 76.4947C164.745 76.6743 164.848 76.8192 164.987 76.9296C165.127 77.0398 165.304 77.095 165.52 77.095ZM168.962 77.5278C168.678 77.5278 168.429 77.4605 168.215 77.3257C168.002 77.1909 167.835 77.0025 167.715 76.7601C167.596 76.5179 167.537 76.2346 167.537 75.9107C167.537 75.5839 167.596 75.2987 167.715 75.0551C167.835 74.8115 168.002 74.6223 168.215 74.4875C168.429 74.3527 168.678 74.2853 168.962 74.2853C169.247 74.2853 169.495 74.3527 169.708 74.4875C169.923 74.6223 170.089 74.8115 170.208 75.0551C170.328 75.2987 170.388 75.5839 170.388 75.9107C170.388 76.2346 170.328 76.5179 170.208 76.7601C170.089 77.0025 169.923 77.1909 169.708 77.3257C169.495 77.4605 169.247 77.5278 168.962 77.5278ZM168.962 77.095C169.178 77.095 169.356 77.0398 169.495 76.9296C169.634 76.8192 169.738 76.6743 169.805 76.4947C169.871 76.3151 169.905 76.1202 169.905 75.9107C169.905 75.701 169.871 75.5057 169.805 75.3247C169.738 75.1437 169.634 74.9972 169.495 74.8856C169.356 74.7741 169.178 74.7182 168.962 74.7182C168.747 74.7182 168.569 74.7741 168.43 74.8856C168.29 74.9972 168.187 75.1437 168.12 75.3247C168.053 75.5057 168.02 75.701 168.02 75.9107C168.02 76.1202 168.053 76.3151 168.12 76.4947C168.187 76.6743 168.29 76.8192 168.43 76.9296C168.569 77.0398 168.747 77.095 168.962 77.095ZM171.577 76.319L171.569 75.7228H171.667L173.044 74.3262H173.642L172.175 75.8045H172.134L171.577 76.319ZM171.126 77.4625V73.2807H171.61V77.4625H171.126ZM173.126 77.4625L171.897 75.9107L172.241 75.5758L173.741 77.4625H173.126ZM174.265 77.4625V74.3262H174.748V77.4625H174.265ZM174.51 73.8035C174.416 73.8035 174.335 73.7715 174.267 73.7075C174.2 73.6434 174.166 73.5666 174.166 73.4766C174.166 73.3869 174.2 73.3099 174.267 73.2459C174.335 73.182 174.416 73.15 174.51 73.15C174.605 73.15 174.685 73.182 174.752 73.2459C174.821 73.3099 174.855 73.3869 174.855 73.4766C174.855 73.5666 174.821 73.6434 174.752 73.7075C174.685 73.7715 174.605 73.8035 174.51 73.8035ZM176.117 75.5758V77.4625H175.634V74.3262H176.101V74.8161H176.142C176.216 74.657 176.327 74.5291 176.478 74.4323C176.628 74.3343 176.822 74.2853 177.059 74.2853C177.273 74.2853 177.459 74.3288 177.619 74.4159C177.779 74.5017 177.903 74.6324 177.992 74.8081C178.08 74.9822 178.125 75.2028 178.125 75.4696V77.4625H177.641V75.5022C177.641 75.2559 177.577 75.0639 177.449 74.9265C177.32 74.7876 177.144 74.7182 176.92 74.7182C176.766 74.7182 176.628 74.7515 176.506 74.8182C176.386 74.8849 176.291 74.9822 176.222 75.1103C176.152 75.2382 176.117 75.3934 176.117 75.5758ZM180.279 78.7041C180.045 78.7041 179.844 78.6742 179.676 78.6141C179.508 78.5557 179.368 78.478 179.256 78.3814C179.146 78.2862 179.057 78.184 178.992 78.075L179.377 77.8055C179.421 77.8627 179.476 77.928 179.543 78.0016C179.61 78.0764 179.702 78.141 179.818 78.1955C179.935 78.2514 180.089 78.2793 180.279 78.2793C180.533 78.2793 180.742 78.2181 180.908 78.0955C181.073 77.9729 181.155 77.7811 181.155 77.5198V76.8827H181.115C181.079 76.9397 181.028 77.0106 180.963 77.095C180.899 77.178 180.806 77.2523 180.684 77.3176C180.564 77.3816 180.401 77.4135 180.197 77.4135C179.943 77.4135 179.714 77.3537 179.512 77.2339C179.312 77.1141 179.153 76.9397 179.035 76.7111C178.919 76.4825 178.861 76.2047 178.861 75.8781C178.861 75.5567 178.918 75.2771 179.031 75.0388C179.144 74.7991 179.302 74.614 179.504 74.4833C179.706 74.3513 179.94 74.2853 180.205 74.2853C180.41 74.2853 180.572 74.3193 180.692 74.3874C180.814 74.4541 180.907 74.5303 180.971 74.616C181.037 74.7005 181.087 74.7699 181.123 74.8244H181.172V74.3262H181.639V77.5525C181.639 77.8218 181.577 78.041 181.454 78.2098C181.333 78.38 181.169 78.5047 180.963 78.5835C180.758 78.6638 180.53 78.7041 180.279 78.7041ZM180.262 76.9807C180.456 76.9807 180.62 76.9363 180.754 76.848C180.888 76.7594 180.989 76.6322 181.059 76.4662C181.129 76.3001 181.164 76.1012 181.164 75.8698C181.164 75.6439 181.13 75.4445 181.061 75.2715C180.993 75.0986 180.892 74.9633 180.758 74.8651C180.624 74.7672 180.459 74.7182 180.262 74.7182C180.057 74.7182 179.887 74.7699 179.75 74.8734C179.615 74.9769 179.513 75.1156 179.445 75.2899C179.378 75.4643 179.344 75.6575 179.344 75.8698C179.344 76.0876 179.378 76.2803 179.447 76.4478C179.516 76.6138 179.619 76.7445 179.754 76.8397C179.891 76.9338 180.06 76.9807 180.262 76.9807ZM184.753 75.0287L184.319 75.151C184.291 75.079 184.251 75.0089 184.198 74.9408C184.146 74.8713 184.075 74.8141 183.985 74.7692C183.895 74.7244 183.779 74.7018 183.638 74.7018C183.446 74.7018 183.285 74.7462 183.157 74.8345C183.03 74.9217 182.966 75.0326 182.966 75.1674C182.966 75.2872 183.01 75.3817 183.098 75.4512C183.185 75.5206 183.322 75.5786 183.507 75.6248L183.974 75.7391C184.256 75.8072 184.466 75.9114 184.604 76.0515C184.742 76.1904 184.81 76.3693 184.81 76.5885C184.81 76.7684 184.758 76.9289 184.655 77.0704C184.552 77.2121 184.409 77.3236 184.224 77.4053C184.04 77.4871 183.826 77.5278 183.581 77.5278C183.26 77.5278 182.995 77.4584 182.784 77.3197C182.574 77.1808 182.441 76.9779 182.385 76.7111L182.844 76.5968C182.887 76.7656 182.97 76.8921 183.092 76.9765C183.215 77.0609 183.375 77.1033 183.573 77.1033C183.798 77.1033 183.977 77.0554 184.11 76.9602C184.244 76.8636 184.31 76.7479 184.31 76.6131C184.31 76.5041 184.272 76.413 184.196 76.3394C184.119 76.2647 184.002 76.2088 183.843 76.172L183.319 76.0496C183.031 75.9816 182.819 75.876 182.684 75.7329C182.55 75.5887 182.483 75.4084 182.483 75.192C182.483 75.0149 182.533 74.8585 182.633 74.7223C182.734 74.5861 182.871 74.4792 183.044 74.4017C183.219 74.3242 183.417 74.2853 183.638 74.2853C183.95 74.2853 184.194 74.3534 184.372 74.4895C184.551 74.6257 184.678 74.8053 184.753 75.0287Z" fill="black"/>
<path d="M155.574 60.3319L154.427 56.15H154.943L155.82 59.5559H155.861L156.754 56.15H157.328L158.221 59.5559H158.262L159.139 56.15H159.655L158.508 60.3319H157.983L157.057 56.9994H157.025L156.099 60.3319H155.574ZM160.856 60.4055C160.656 60.4055 160.475 60.368 160.313 60.293C160.15 60.2169 160.021 60.1072 159.926 59.9643C159.83 59.8201 159.782 59.6458 159.782 59.4416C159.782 59.2619 159.818 59.1163 159.889 59.0046C159.96 58.8916 160.055 58.8031 160.173 58.7391C160.292 58.6752 160.423 58.6276 160.567 58.5963C160.712 58.5636 160.857 58.5377 161.003 58.5186C161.194 58.4942 161.349 58.4758 161.468 58.4636C161.589 58.45 161.676 58.4275 161.73 58.3962C161.787 58.3649 161.814 58.3104 161.814 58.2329V58.2166C161.814 58.0151 161.759 57.8585 161.649 57.7469C161.539 57.6351 161.373 57.5795 161.151 57.5795C160.92 57.5795 160.739 57.6298 160.608 57.7306C160.477 57.8313 160.384 57.9387 160.331 58.053L159.872 57.8897C159.954 57.6993 160.064 57.5507 160.2 57.4447C160.338 57.3371 160.488 57.2623 160.651 57.22C160.815 57.1765 160.976 57.1547 161.134 57.1547C161.235 57.1547 161.352 57.1669 161.483 57.1915C161.615 57.2145 161.743 57.263 161.866 57.3364C161.99 57.41 162.093 57.5208 162.175 57.6692C162.257 57.8175 162.298 58.0165 162.298 58.2656V60.3319H161.814V59.9071H161.79C161.757 59.9752 161.703 60.0481 161.626 60.1256C161.55 60.2033 161.448 60.2693 161.321 60.3236C161.194 60.3781 161.039 60.4055 160.856 60.4055ZM160.929 59.9726C161.121 59.9726 161.282 59.9351 161.413 59.8602C161.545 59.7854 161.645 59.6886 161.712 59.5704C161.78 59.4519 161.814 59.3272 161.814 59.1966V58.7555C161.794 58.7801 161.749 58.8024 161.679 58.8229C161.611 58.8419 161.532 58.859 161.442 58.8739C161.353 58.8875 161.266 58.8999 161.181 58.9107C161.098 58.9201 161.031 58.9284 160.979 58.9353C160.853 58.9517 160.736 58.9781 160.626 59.0149C160.518 59.0503 160.431 59.1039 160.364 59.1761C160.299 59.247 160.266 59.3436 160.266 59.4662C160.266 59.6336 160.328 59.7601 160.452 59.8459C160.578 59.9303 160.737 59.9726 160.929 59.9726ZM164.549 57.1956V57.6039H162.918V57.1956H164.549ZM163.394 56.4442H163.877V59.4335C163.877 59.5697 163.897 59.6716 163.936 59.7396C163.977 59.8063 164.029 59.8514 164.092 59.8744C164.156 59.8963 164.224 59.9071 164.295 59.9071C164.348 59.9071 164.392 59.9045 164.426 59.899C164.46 59.8921 164.488 59.8868 164.508 59.8827L164.606 60.3156C164.574 60.3277 164.528 60.3402 164.469 60.3524C164.41 60.3659 164.336 60.3728 164.246 60.3728C164.109 60.3728 163.975 60.3434 163.844 60.285C163.715 60.2263 163.607 60.1373 163.521 60.0175C163.436 59.8976 163.394 59.7465 163.394 59.5641V56.4442ZM166.562 60.3972C166.259 60.3972 165.997 60.3305 165.777 60.1971C165.559 60.0623 165.39 59.8744 165.271 59.6336C165.154 59.3912 165.095 59.1094 165.095 58.7881C165.095 58.467 165.154 58.1839 165.271 57.9387C165.39 57.6924 165.555 57.5004 165.767 57.363C165.98 57.2241 166.229 57.1547 166.513 57.1547C166.677 57.1547 166.839 57.1818 166.998 57.2363C167.158 57.2908 167.304 57.3794 167.435 57.5017C167.566 57.6229 167.67 57.7835 167.748 57.9836C167.826 58.1839 167.865 58.4302 167.865 58.7228V58.927H165.439V58.5105H167.373C167.373 58.3336 167.338 58.1756 167.267 58.0367C167.197 57.898 167.097 57.7883 166.968 57.708C166.839 57.6278 166.688 57.5875 166.513 57.5875C166.32 57.5875 166.154 57.6351 166.013 57.7306C165.873 57.8244 165.766 57.947 165.691 58.0981C165.616 58.2492 165.579 58.4112 165.579 58.5841V58.8617C165.579 59.0986 165.62 59.2994 165.702 59.4641C165.785 59.6274 165.9 59.7521 166.048 59.8378C166.195 59.9223 166.367 59.9643 166.562 59.9643C166.689 59.9643 166.804 59.9466 166.906 59.9112C167.01 59.8744 167.099 59.8201 167.175 59.7479C167.25 59.6743 167.308 59.5832 167.349 59.4742L167.816 59.6049C167.767 59.7629 167.684 59.9018 167.568 60.0216C167.452 60.1398 167.308 60.2325 167.138 60.2992C166.967 60.3645 166.775 60.3972 166.562 60.3972ZM168.6 60.3319V57.1956H169.068V57.6692H169.1C169.158 57.5142 169.261 57.3881 169.412 57.2915C169.562 57.1949 169.731 57.1466 169.92 57.1466C169.955 57.1466 170 57.1473 170.053 57.1485C170.106 57.1498 170.147 57.1519 170.174 57.1547V57.6448C170.157 57.6407 170.12 57.6344 170.061 57.6264C170.004 57.6167 169.943 57.6121 169.879 57.6121C169.726 57.6121 169.589 57.6441 169.469 57.708C169.35 57.7706 169.256 57.8578 169.186 57.9693C169.118 58.0797 169.084 58.2055 169.084 58.3472V60.3319H168.6ZM172.313 57.1956V57.6039H170.682V57.1956H172.313ZM171.157 56.4442H171.641V59.4335C171.641 59.5697 171.66 59.6716 171.7 59.7396C171.741 59.8063 171.793 59.8514 171.856 59.8744C171.92 59.8963 171.988 59.9071 172.059 59.9071C172.112 59.9071 172.156 59.9045 172.19 59.899C172.224 59.8921 172.251 59.8868 172.272 59.8827L172.37 60.3156C172.337 60.3277 172.292 60.3402 172.233 60.3524C172.174 60.3659 172.1 60.3728 172.01 60.3728C171.873 60.3728 171.739 60.3434 171.608 60.285C171.478 60.2263 171.37 60.1373 171.284 60.0175C171.2 59.8976 171.157 59.7465 171.157 59.5641V56.4442ZM174.285 60.3972C174 60.3972 173.751 60.3298 173.537 60.195C173.324 60.0603 173.157 59.8719 173.037 59.6295C172.918 59.3873 172.859 59.1039 172.859 58.7801C172.859 58.4532 172.918 58.168 173.037 57.9245C173.157 57.6809 173.324 57.4916 173.537 57.3568C173.751 57.2221 174 57.1547 174.285 57.1547C174.569 57.1547 174.817 57.2221 175.03 57.3568C175.245 57.4916 175.411 57.6809 175.53 57.9245C175.65 58.168 175.71 58.4532 175.71 58.7801C175.71 59.1039 175.65 59.3873 175.53 59.6295C175.411 59.8719 175.245 60.0603 175.03 60.195C174.817 60.3298 174.569 60.3972 174.285 60.3972ZM174.285 59.9643C174.5 59.9643 174.678 59.9091 174.817 59.799C174.957 59.6886 175.06 59.5437 175.127 59.364C175.194 59.1844 175.227 58.9896 175.227 58.7801C175.227 58.5703 175.194 58.375 175.127 58.194C175.06 58.013 174.957 57.8665 174.817 57.755C174.678 57.6434 174.5 57.5875 174.285 57.5875C174.069 57.5875 173.891 57.6434 173.752 57.755C173.613 57.8665 173.51 58.013 173.443 58.194C173.376 58.375 173.342 58.5703 173.342 58.7801C173.342 58.9896 173.376 59.1844 173.443 59.364C173.51 59.5437 173.613 59.6886 173.752 59.799C173.891 59.9091 174.069 59.9643 174.285 59.9643ZM177.054 60.3319L176.096 57.1956H176.604L177.284 59.5968H177.317L177.989 57.1956H178.505L179.169 59.5885H179.202L179.882 57.1956H180.39L179.431 60.3319H178.956L178.267 57.9224H178.218L177.53 60.3319H177.054ZM181.512 58.4452V60.3319H181.029V57.1956H181.496V57.6855H181.537C181.611 57.5263 181.723 57.3985 181.873 57.3016C182.023 57.2037 182.217 57.1547 182.455 57.1547C182.668 57.1547 182.854 57.1981 183.014 57.2853C183.174 57.3711 183.298 57.5017 183.387 57.6775C183.476 57.8516 183.52 58.0721 183.52 58.3389V60.3319H183.037V58.3716C183.037 58.1253 182.973 57.9332 182.844 57.7959C182.716 57.657 182.54 57.5875 182.316 57.5875C182.161 57.5875 182.023 57.6209 181.902 57.6876C181.782 57.7543 181.687 57.8516 181.617 57.9797C181.547 58.1076 181.512 58.2628 181.512 58.4452Z" fill="black"/>
<path d="M130.753 44.3319H130.221L131.761 40.15H132.286L133.826 44.3319H133.294L132.04 40.8117H132.007L130.753 44.3319ZM130.95 42.6984H133.097V43.1476H130.95V42.6984ZM134.48 44.3319V40.15H134.963V41.6938H135.004C135.04 41.6393 135.089 41.5698 135.152 41.4854C135.216 41.3996 135.308 41.3235 135.426 41.2568C135.547 41.1887 135.709 41.1547 135.914 41.1547C136.179 41.1547 136.413 41.2207 136.615 41.3527C136.817 41.4847 136.974 41.6719 137.088 41.9144C137.201 42.1565 137.258 42.4424 137.258 42.7718C137.258 43.1039 137.201 43.3919 137.088 43.6357C136.974 43.8779 136.818 44.0658 136.617 44.1992C136.416 44.3312 136.185 44.3972 135.922 44.3972C135.72 44.3972 135.558 44.3639 135.437 44.2972C135.315 44.2291 135.222 44.1523 135.156 44.0665C135.09 43.9793 135.04 43.9071 135.004 43.85H134.947V44.3319H134.48ZM134.955 42.7637C134.955 43.0006 134.99 43.2095 135.06 43.3905C135.129 43.5704 135.231 43.7111 135.365 43.8132C135.499 43.914 135.663 43.9643 135.857 43.9643C136.059 43.9643 136.227 43.9112 136.363 43.8052C136.499 43.6975 136.602 43.5533 136.67 43.3721C136.74 43.1897 136.774 42.9868 136.774 42.7637C136.774 42.5432 136.74 42.3445 136.672 42.1674C136.605 41.9891 136.503 41.8483 136.367 41.7448C136.232 41.64 136.062 41.5875 135.857 41.5875C135.66 41.5875 135.495 41.6372 135.361 41.7366C135.227 41.8345 135.126 41.9721 135.058 42.1492C134.989 42.3247 134.955 42.5296 134.955 42.7637ZM139.317 44.3972C139.014 44.3972 138.752 44.3305 138.532 44.1971C138.314 44.0623 138.145 43.8744 138.026 43.6336C137.909 43.3912 137.85 43.1094 137.85 42.7881C137.85 42.467 137.909 42.1839 138.026 41.9387C138.145 41.6924 138.31 41.5004 138.522 41.363C138.735 41.2241 138.984 41.1547 139.268 41.1547C139.432 41.1547 139.593 41.1818 139.753 41.2363C139.913 41.2908 140.059 41.3794 140.19 41.5017C140.321 41.6229 140.425 41.7835 140.503 41.9836C140.581 42.1839 140.62 42.4302 140.62 42.7228V42.927H138.194V42.5105H140.128C140.128 42.3336 140.093 42.1756 140.022 42.0367C139.952 41.898 139.852 41.7883 139.723 41.708C139.594 41.6278 139.443 41.5875 139.268 41.5875C139.075 41.5875 138.909 41.6351 138.768 41.7306C138.629 41.8244 138.521 41.947 138.446 42.0981C138.371 42.2492 138.333 42.4112 138.333 42.5841V42.8617C138.333 43.0986 138.375 43.2994 138.456 43.4641C138.54 43.6274 138.655 43.7521 138.803 43.8378C138.95 43.9223 139.122 43.9643 139.317 43.9643C139.444 43.9643 139.559 43.9466 139.661 43.9112C139.765 43.8744 139.854 43.8201 139.929 43.7479C140.005 43.6743 140.063 43.5832 140.104 43.4742L140.571 43.6049C140.522 43.7629 140.439 43.9018 140.323 44.0216C140.207 44.1398 140.063 44.2325 139.893 44.2992C139.722 44.3645 139.53 44.3972 139.317 44.3972ZM141.355 44.3319V41.1956H141.822V41.6692H141.855C141.913 41.5142 142.017 41.3881 142.167 41.2915C142.317 41.1949 142.486 41.1466 142.675 41.1466C142.71 41.1466 142.755 41.1473 142.808 41.1485C142.861 41.1498 142.902 41.1519 142.929 41.1547V41.6448C142.912 41.6407 142.875 41.6344 142.816 41.6264C142.759 41.6167 142.698 41.6121 142.634 41.6121C142.481 41.6121 142.344 41.6441 142.224 41.708C142.105 41.7706 142.011 41.8578 141.941 41.9693C141.873 42.0797 141.839 42.2055 141.839 42.3472V44.3319H141.355ZM144.594 44.3972C144.332 44.3972 144.101 44.3312 143.9 44.1992C143.699 44.0658 143.542 43.8779 143.429 43.6357C143.315 43.3919 143.259 43.1039 143.259 42.7718C143.259 42.4424 143.315 42.1565 143.429 41.9144C143.542 41.6719 143.7 41.4847 143.902 41.3527C144.104 41.2207 144.338 41.1547 144.603 41.1547C144.807 41.1547 144.969 41.1887 145.088 41.2568C145.209 41.3235 145.3 41.3996 145.363 41.4854C145.427 41.5698 145.477 41.6393 145.512 41.6938H145.553V40.15H146.037V44.3319H145.57V43.85H145.512C145.477 43.9071 145.426 43.9793 145.361 44.0665C145.295 44.1523 145.202 44.2291 145.08 44.2972C144.958 44.3639 144.797 44.3972 144.594 44.3972ZM144.66 43.9643C144.854 43.9643 145.018 43.914 145.152 43.8132C145.286 43.7111 145.387 43.5704 145.457 43.3905C145.527 43.2095 145.561 43.0006 145.561 42.7637C145.561 42.5296 145.527 42.3247 145.459 42.1492C145.391 41.9721 145.29 41.8345 145.156 41.7366C145.022 41.6372 144.857 41.5875 144.66 41.5875C144.455 41.5875 144.285 41.64 144.148 41.7448C144.013 41.8483 143.911 41.9891 143.843 42.1674C143.776 42.3445 143.742 42.5432 143.742 42.7637C143.742 42.9868 143.776 43.1897 143.845 43.3721C143.914 43.5533 144.017 43.6975 144.152 43.8052C144.288 43.9112 144.458 43.9643 144.66 43.9643ZM148.309 44.3972C148.006 44.3972 147.744 44.3305 147.524 44.1971C147.306 44.0623 147.137 43.8744 147.018 43.6336C146.901 43.3912 146.842 43.1094 146.842 42.7881C146.842 42.467 146.901 42.1839 147.018 41.9387C147.137 41.6924 147.302 41.5004 147.514 41.363C147.727 41.2241 147.976 41.1547 148.26 41.1547C148.424 41.1547 148.585 41.1818 148.745 41.2363C148.905 41.2908 149.05 41.3794 149.182 41.5017C149.313 41.6229 149.417 41.7835 149.495 41.9836C149.573 42.1839 149.612 42.4302 149.612 42.7228V42.927H147.186V42.5105H149.12C149.12 42.3336 149.085 42.1756 149.014 42.0367C148.944 41.898 148.844 41.7883 148.714 41.708C148.586 41.6278 148.434 41.5875 148.26 41.5875C148.067 41.5875 147.9 41.6351 147.76 41.7306C147.621 41.8244 147.513 41.947 147.438 42.0981C147.363 42.2492 147.325 42.4112 147.325 42.5841V42.8617C147.325 43.0986 147.366 43.2994 147.448 43.4641C147.532 43.6274 147.647 43.7521 147.795 43.8378C147.942 43.9223 148.113 43.9643 148.309 43.9643C148.436 43.9643 148.551 43.9466 148.653 43.9112C148.757 43.8744 148.846 43.8201 148.921 43.7479C148.997 43.6743 149.055 43.5832 149.096 43.4742L149.563 43.6049C149.514 43.7629 149.431 43.9018 149.315 44.0216C149.199 44.1398 149.055 44.2325 148.884 44.2992C148.714 44.3645 148.522 44.3972 148.309 44.3972ZM151.667 44.3972C151.364 44.3972 151.102 44.3305 150.882 44.1971C150.663 44.0623 150.495 43.8744 150.376 43.6336C150.258 43.3912 150.2 43.1094 150.2 42.7881C150.2 42.467 150.258 42.1839 150.376 41.9387C150.495 41.6924 150.66 41.5004 150.872 41.363C151.085 41.2241 151.333 41.1547 151.617 41.1547C151.782 41.1547 151.943 41.1818 152.103 41.2363C152.263 41.2908 152.408 41.3794 152.539 41.5017C152.671 41.6229 152.775 41.7835 152.853 41.9836C152.931 42.1839 152.97 42.4302 152.97 42.7228V42.927H150.544V42.5105H152.478C152.478 42.3336 152.442 42.1756 152.371 42.0367C152.302 41.898 152.202 41.7883 152.072 41.708C151.944 41.6278 151.792 41.5875 151.617 41.5875C151.425 41.5875 151.258 41.6351 151.118 41.7306C150.978 41.8244 150.871 41.947 150.796 42.0981C150.721 42.2492 150.683 42.4112 150.683 42.5841V42.8617C150.683 43.0986 150.724 43.2994 150.806 43.4641C150.89 43.6274 151.005 43.7521 151.152 43.8378C151.3 43.9223 151.471 43.9643 151.667 43.9643C151.794 43.9643 151.908 43.9466 152.011 43.9112C152.115 43.8744 152.204 43.8201 152.279 43.7479C152.354 43.6743 152.412 43.5832 152.454 43.4742L152.921 43.6049C152.871 43.7629 152.789 43.9018 152.673 44.0216C152.556 44.1398 152.413 44.2325 152.242 44.2992C152.072 44.3645 151.88 44.3972 151.667 44.3972ZM154.189 42.4452V44.3319H153.705V41.1956H154.172V41.6855H154.213C154.287 41.5263 154.399 41.3985 154.549 41.3016C154.7 41.2037 154.893 41.1547 155.131 41.1547C155.344 41.1547 155.531 41.1981 155.691 41.2853C155.85 41.3711 155.975 41.5017 156.063 41.6775C156.152 41.8516 156.196 42.0721 156.196 42.3389V44.3319H155.713V42.3716C155.713 42.1253 155.649 41.9332 155.52 41.7959C155.392 41.657 155.216 41.5875 154.992 41.5875C154.837 41.5875 154.7 41.6209 154.578 41.6876C154.458 41.7543 154.363 41.8516 154.293 41.9797C154.224 42.1076 154.189 42.2628 154.189 42.4452Z" fill="black"/>
<path d="M183.268 95.4902C184.416 95.4902 185.347 94.5623 185.347 93.4176C185.347 92.2729 184.416 91.345 183.268 91.345C182.119 91.345 181.188 92.2729 181.188 93.4176C181.188 94.5623 182.119 95.4902 183.268 95.4902Z" fill="#FFE587" stroke="black" stroke-width="0.3"/>
<path d="M182.345 72.9502C183.493 72.9502 184.424 72.0222 184.424 70.8775C184.424 69.7329 183.493 68.8049 182.345 68.8049C181.196 68.8049 180.265 69.7329 180.265 70.8775C180.265 72.0222 181.196 72.9502 182.345 72.9502Z" fill="#FFE587" stroke="black" stroke-width="0.3"/>
<path d="M174.96 55.0102C176.109 55.0102 177.04 54.0822 177.04 52.9375C177.04 51.7929 176.109 50.8649 174.96 50.8649C173.812 50.8649 172.881 51.7929 172.881 52.9375C172.881 54.0822 173.812 55.0102 174.96 55.0102Z" fill="#FFE587" stroke="black" stroke-width="0.3"/>
<path d="M42.9603 79.6202C44.1088 79.6202 45.0398 78.6923 45.0398 77.5476C45.0398 76.4029 44.1088 75.475 42.9603 75.475C41.8118 75.475 40.8807 76.4029 40.8807 77.5476C40.8807 78.6923 41.8118 79.6202 42.9603 79.6202Z" fill="#FFE587" stroke="black" stroke-width="0.3"/>
<path d="M37.4218 98.9402C38.5703 98.9402 39.5013 98.0122 39.5013 96.8675C39.5013 95.7229 38.5703 94.7949 37.4218 94.7949C36.2733 94.7949 35.3423 95.7229 35.3423 96.8675C35.3423 98.0122 36.2733 98.9402 37.4218 98.9402Z" fill="#FFE587" stroke="black" stroke-width="0.3"/>
<path d="M144.729 38.2202C145.878 38.2202 146.809 37.2922 146.809 36.1476C146.809 35.0029 145.878 34.075 144.729 34.075C143.581 34.075 142.65 35.0029 142.65 36.1476C142.65 37.2922 143.581 38.2202 144.729 38.2202Z" fill="#FFE587" stroke="black" stroke-width="0.3"/>
</svg>
