<svg width="1273" height="889" viewBox="0 0 1273 889" fill="none" xmlns="http://www.w3.org/2000/svg">
<path d="M607.622 32.136V26.636L608.122 23.636V22.136L607.122 17.636L606.122 15.636L605.282 13.136H455.122V112.636L620.122 113.136V105.136L619.122 101.636L616.622 94.136L615.622 91.136V83.136L614.122 60.136L613.122 57.136L610.622 50.136L609.622 46.636L607.622 43.636V32.136Z" fill="#3DCBFF" stroke="black" stroke-width="0.2"/>
<path d="M461.122 112.636H455.122L455.485 203.636H577.622L580.122 206.136C581.455 206.636 584.222 207.736 584.622 208.136C585.022 208.536 586.788 209.969 587.622 210.636H589.122L590.622 209.636L592.122 208.136H605.122L607.622 210.636L610.622 211.636L615.622 213.136L617.622 214.636L619.122 218.136L621.622 218.636L621.122 217.136L620.622 215.636L619.622 213.636V212.136L622.122 204.136L623.122 200.636L622.622 198.636L621.622 196.136L620.622 194.636L621.122 192.136L620.622 190.636L620.122 188.136H622.622V132.136L621.622 130.636L619.122 130.136L617.122 128.136L614.622 125.136V123.136L615.622 121.636L618.122 119.636L619.622 116.136L620.122 113.136L461.122 112.636Z" fill="#3DCBFF" stroke="black" stroke-width="0.2"/>
<path d="M624.622 226.636L624.122 221.136V218.636H621.622L619.122 218.136L617.622 214.636L615.622 213.136L614.122 212.636L610.622 211.636L607.622 210.636L605.122 208.136H592.122L590.622 209.636L589.122 210.636H587.622L584.622 208.136L583.622 207.636L582.622 207.136L580.122 206.136L577.622 203.636H455.622V263.136H499.622V291.636H645.622V290.136L644.622 286.636L643.122 284.136L640.622 281.636L640.122 277.636L638.622 276.136L638.122 274.136L635.622 271.136V267.636L636.622 260.136L635.622 256.636L634.122 252.136L630.122 245.636L631.122 240.636L630.622 238.136L629.622 234.636L626.622 230.136L624.622 226.636Z" fill="#3DCBFF" stroke="black" stroke-width="0.2"/>
<path d="M651.622 295.636L648.622 292.636L647.122 291.636H645.622H499.622V376.636H663.622V317.636L661.122 315.136L658.122 313.136L657.122 310.136L653.122 305.136L654.622 301.636L657.622 299.636L657.122 296.636L655.122 295.136L651.622 295.636Z" fill="#3DCBFF" stroke="black" stroke-width="0.2"/>
<path d="M651.122 0.136019V12.636L605.122 13.136L606.122 15.636L607.122 17.636L608.122 22.136V23.636L607.622 26.8383V43.636L609.622 46.636L610.622 50.136L614.122 60.136L615.622 82.636V91.136L620.122 105.136V113.136L619.622 116.136L618.122 119.636L615.622 121.636L614.622 123.136V125.136L617.122 128.136L619.122 130.136L621.622 130.636L622.622 132.136V188.136H737.622L736.622 177.636L734.122 174.136L729.622 171.636L723.622 167.136L722.622 162.636L715.622 159.636L711.122 155.636L706.122 153.136L703.622 149.136V134.636L706.122 131.136V129.136L705.122 126.136L701.122 124.136V120.136L703.622 115.636L711.122 111.636L714.622 108.636V90.136L719.622 87.136L723.622 83.636L734.122 74.636L742.122 65.636L746.122 62.636L756.122 56.636L766.622 51.136L771.622 48.636L774.122 46.636L771.122 45.636L766.622 46.636L761.622 42.636H748.122L745.122 38.636L737.122 44.636H731.122V42.636H727.122V38.636H721.622L720.122 34.136H714.622V38.636H712.122V34.136L707.622 29.136L701.122 26.136H690.622L688.122 29.136H682.122L680.622 26.136L673.122 25.136L670.122 23.136H665.122L661.622 21.136V14.136L659.122 2.63602L651.122 0.136019Z" fill="#3DCBFF" stroke="black" stroke-width="0.2"/>
<path d="M742.122 196.136L738.622 193.136L738.122 192.136V188.136H737.622H620.122L620.622 190.636L621.122 192.136L620.622 194.636L621.622 196.136L622.622 198.636L623.122 200.636L619.622 212.136V213.636L620.622 215.636L621.622 218.636H624.122V221.136L624.622 226.636L626.622 230.136L629.622 234.636L630.622 238.136L631.122 240.636L630.122 245.636L634.122 252.136L636.622 260.136L635.622 267.636V271.136L638.122 274.136V274.636H638.622L726.622 274.136L733.122 280.636L734.622 278.636V275.636L738.622 273.136L740.622 271.136L742.122 267.136L744.622 264.136V261.136L740.622 256.636V253.636L743.122 250.636L750.122 249.636L756.622 246.136L758.622 242.136L761.122 239.636V229.636L756.622 226.136V224.636L751.122 218.636L749.122 214.136L742.122 211.636L738.622 200.636L742.122 196.136Z" fill="#3DCBFF" stroke="black" stroke-width="0.2"/>
<path d="M732.622 288.636V285.636L733.122 280.636L726.622 274.136L638.122 274.636L638.622 276.136L640.122 277.636L640.622 281.636L643.122 284.136L644.622 286.636L645.622 290.136V291.636H647.122L648.622 292.636L651.622 295.636L655.122 295.136L657.122 296.636L657.622 299.636L654.622 301.636L653.122 305.136L657.122 310.136L658.122 313.136L661.122 315.136L663.622 317.613V389.636H760.622L762.122 391.636L763.122 394.636L756.622 404.136H770.622L773.122 400.136L772.122 397.136L773.122 396.136L775.622 394.636V390.636L778.622 389.636L779.122 387.136L783.122 387.636V384.636L784.122 380.636L785.122 378.136L778.622 374.636L775.622 369.636L777.622 366.136L775.622 356.636L768.622 352.136H766.122L764.122 349.136L756.622 342.136V339.136L759.122 335.136L762.122 328.136L763.122 325.136L758.122 322.136H755.622L754.122 324.136L751.622 323.136L749.622 318.636V313.636L735.122 300.136L734.122 297.136L732.622 288.636Z" fill="#3DCBFF" stroke="black" stroke-width="0.2"/>
<path d="M760.622 96.136L756.622 93.136H755.122L750.122 90.136L748.122 90.636L746.122 91.636L745.622 90.636L746.122 88.136L747.622 85.136L748.622 82.636L746.622 80.636L726.622 89.136H721.622L720.622 88.636L719.622 87.136L714.622 90.136V108.636L711.122 111.636L703.622 115.636L701.122 120.136V124.136L705.122 126.136L706.122 129.136V131.136L703.622 134.636V149.136L706.122 153.136L711.122 155.636L715.622 159.636L722.622 162.636L723.622 167.136L729.622 171.636L734.122 174.136L736.622 177.636L737.622 188.136H738.122V192.136L738.622 193.136L742.122 196.136L738.622 200.636L742.122 211.636L749.122 214.136L751.122 218.636H813.622V214.636L814.122 213.636L814.622 212.136L813.622 211.136L813.122 207.136V200.636L811.622 197.136L813.122 192.636L817.122 183.136L814.622 178.136L816.122 172.136L820.122 166.636V159.636L824.122 151.636L827.122 147.136L827.622 142.136L830.122 140.136L831.622 137.136L831.122 134.636L830.122 133.636L822.122 146.136L818.122 147.636L814.622 152.636L809.622 157.136V153.636L813.122 147.636L817.122 143.636L819.122 139.136L814.622 137.136L816.122 131.136H811.622L813.122 124.136V120.136L807.622 116.636L806.122 113.636L803.122 112.136L792.122 110.136L762.622 99.636L760.622 96.136Z" fill="#3DCBFF" stroke="black" stroke-width="0.2"/>
<path d="M817.122 234.136L814.122 227.636L813.622 227.136V218.636H751.122L756.622 224.636V226.136L761.122 229.636V239.636L758.622 242.136L756.622 246.136L750.122 249.636L743.122 250.636L740.622 253.636V256.636L744.622 261.136V264.136L742.122 267.136L740.622 271.136L738.622 273.136L734.622 275.636V278.636L733.122 280.636L732.622 285.636V288.636L734.122 297.136L735.122 300.136L749.622 313.636V318.636L751.622 323.136L754.122 324.136L755.622 322.136H758.122L763.122 325.136L762.122 328.136L759.122 335.136L756.622 339.136V342.136L764.122 349.136L766.122 352.136H768.622L775.622 356.636L777.622 366.136L775.622 369.636L778.622 374.636L780.622 375.636V374.136H783.622L788.622 370.636L797.622 374.636H799.622V371.636L797.622 368.636L798.622 366.636L800.622 365.636L807.622 362.636L805.122 358.136L808.122 354.636L807.622 352.136V350.636L809.122 347.636L810.122 345.136V342.636L812.122 340.636L814.122 336.136L817.122 333.636L820.622 328.636V324.136L819.122 320.636L817.122 316.136L817.622 312.636L819.622 310.136V241.136L819.122 240.636L817.622 237.636L817.122 234.136Z" fill="#3DCBFF" stroke="black" stroke-width="0.2"/>
<path d="M769.622 85.136L764.622 90.136L762.622 91.136L756.622 93.136L760.622 96.136L762.622 99.636L792.122 110.136L803.122 112.136L806.122 113.636L807.622 116.636L813.122 120.136V124.136L811.622 131.136H816.122L814.622 137.136L819.122 139.136L818.622 138.136L819.622 137.136L827.122 125.136L830.122 119.636L831.622 116.636V121.136L836.122 119.636L837.622 116.636H842.622L840.122 118.636V123.636L845.122 118.636C846.288 117.303 848.622 114.236 848.622 112.636C848.622 111.036 852.622 113.303 854.622 114.636L861.122 110.636L867.622 108.636L876.122 112.636L880.622 116.636L882.122 110.636L887.622 112.636H899.622V110.636L897.622 107.636L893.122 105.136L894.622 101.636V99.136L890.122 95.136H885.622L882.122 97.136L874.622 95.136V91.136L876.122 86.136L871.622 87.636L851.622 90.136L837.622 97.136L831.622 94.136L823.622 95.136L818.622 86.136L809.622 82.136H803.622L800.122 85.136L799.122 84.136L800.122 81.136C800.788 79.8027 802.222 77.036 802.622 76.636C803.022 76.236 804.122 73.8027 804.622 72.636L811.122 68.136L814.622 65.636L815.122 64.136H807.622L802.622 65.636L788.122 79.136L782.622 82.136L769.622 85.136Z" fill="#3DCBFF" stroke="black" stroke-width="0.2"/>
<path d="M899.122 127.636L882.122 119.636H877.122V122.136L873.122 126.136L875.622 129.136L873.122 132.136H869.122L867.122 138.636V144.636L864.622 151.636L862.122 147.136V142.136V138.636L856.622 142.136L849.122 152.636V161.636L843.622 169.136L842.622 185.636L845.622 196.136L849.122 204.636L847.622 220.636L845.122 224.636L843.622 230.136L839.622 236.636L836.622 240.636H879.622V242.136L907.622 241.136L915.122 232.136L916.622 227.636L918.122 223.636L922.622 221.636V217.636L926.122 214.136L929.122 216.136L932.122 202.636L928.122 182.636L925.622 175.636L921.122 173.136L914.122 175.636L910.122 178.136L909.122 181.636L907.622 184.136L905.122 185.636L900.622 184.136L899.122 178.636L900.622 173.636L907.622 167.136L914.122 156.636L913.122 147.136L910.622 144.636L913.122 142.136L911.622 134.136L902.622 129.136L899.122 127.636Z" fill="#3DCBFF" stroke="black" stroke-width="0.2"/>
<path d="M879.122 317.136L879.622 242.136V240.636H836.622L834.622 241.636L829.622 243.636L826.122 245.136L825.122 244.636L821.122 242.636L819.622 241.136V310.136L817.622 312.636L817.122 316.136L820.622 324.136V328.636L817.122 333.636L814.122 336.136L812.122 340.636L810.122 342.636V345.136L807.622 350.636V352.136L808.122 354.636L810.122 353.636L811.622 352.136H817.122L820.122 349.136L824.122 352.136L828.122 354.636L830.622 352.136L833.622 349.136L839.622 352.136L842.622 347.636L845.622 345.136L848.622 347.636L852.122 349.136L855.122 347.636L856.622 341.636L861.122 340.136L863.122 336.136L866.622 332.636V329.136H871.122L875.622 326.636H879.122L879.622 324.636L878.122 319.136L879.122 317.136Z" fill="#3DCBFF" stroke="black" stroke-width="0.2"/>
<path d="M973.622 273.796V235.136L969.122 236.136L956.622 241.636L947.622 248.136L940.122 249.136L931.122 252.136L924.622 250.136H922.622L921.122 250.636V249.136L923.122 248.636H924.622L923.622 247.136L922.122 246.636V247.136L920.622 248.136L916.122 245.136L913.122 243.136L909.622 242.636L907.622 241.136L879.622 242.136L879.122 317.136L881.122 316.136L884.622 317.636H888.122L891.122 321.136L892.622 325.636L899.622 326.636L904.622 330.636L908.622 328.636L912.122 331.136H914.622L920.122 327.636H921.622L922.622 331.136L927.122 334.636L928.122 336.636H932.122L934.122 334.636L936.122 333.136L937.122 331.136L936.122 328.636L937.122 323.636L940.122 320.136L943.122 321.636V323.636L946.622 322.636V318.636L947.622 314.136L951.122 313.136L952.622 309.636L956.122 310.636L960.622 308.636L966.122 302.136L967.122 296.136L968.122 293.636L969.622 289.136L972.122 282.636L971.622 277.136V274.636L973.622 273.796Z" fill="#3DCBFF" stroke="black" stroke-width="0.2"/>
<path d="M663.622 389.636V376.636H478.426L478.34 390.136H544.622V440.636L546.122 442.136L548.622 444.636L551.622 447.136L555.622 447.636L558.622 445.636L561.122 447.136L562.122 449.136L563.122 452.136L567.622 451.636L571.622 453.636L575.622 453.136L578.122 455.636L580.622 453.136L583.622 454.136L586.122 453.636L587.622 456.636L588.622 459.636L592.122 461.136L595.622 458.136L600.122 460.636L602.622 462.136L604.622 460.636L606.622 461.136V464.636L608.122 465.136L609.122 462.136L611.122 460.136L616.122 461.636L618.622 460.136L624.122 464.636L625.622 464.136H629.622L631.122 461.636H636.122L641.622 459.136L645.122 461.136L648.622 460.636L651.122 458.636L659.122 464.636L666.122 467.136L667.122 425.136L666.622 417.136L665.122 406.136L664.122 397.136L663.622 389.636Z" fill="#FF6E6E" stroke="black" stroke-width="0.2"/>
<path d="M678.622 512.636L676.622 510.636L675.626 469.3L668.122 469.136L666.122 467.136L659.122 464.636L651.122 458.636L648.622 460.636L645.122 461.136L641.622 459.136L636.122 461.636H631.122L629.622 464.136H625.622L624.122 464.636L618.622 460.136L616.122 461.636L611.122 460.136L609.122 462.136L608.122 465.136L606.622 464.636V461.136L604.622 460.636L602.622 462.136L595.622 458.136L592.122 461.136L588.622 459.636L587.622 456.636L586.122 453.636L583.622 454.136L580.622 453.136L578.122 455.636L575.622 453.136L571.622 453.636L567.622 451.636L563.122 452.136L562.122 449.136L561.122 447.136L558.622 445.636L555.622 447.636L551.622 447.136L544.622 440.613V390.136H478.274L477.622 510.136C451.622 509.969 399.122 509.641 399.122 509.659V512.636L402.122 515.636H403.122L408.122 524.136L413.622 526.636L425.622 539.136L436.122 545.136L437.622 551.636L441.622 556.136V564.136L444.622 569.636L455.122 578.636L461.122 579.636L463.122 582.136H466.122L471.622 586.636L476.622 587.136L481.122 581.636V577.636L482.622 576.636L483.122 573.136L485.622 567.636L492.122 567.136L493.622 564.636L498.622 566.636L510.122 566.136L525.622 579.636L528.622 583.636L530.122 588.636L537.122 598.636L538.122 604.636L546.122 612.136L547.622 617.136L555.122 622.136V628.636L557.122 630.136V636.136L560.622 640.636L565.122 651.636L571.622 652.136L574.122 655.636L579.122 656.136L581.622 658.136L586.622 659.136L592.622 659.636L597.122 662.136L600.122 664.136L602.122 664.636L603.622 663.136L606.622 661.636L604.622 659.136L604.122 654.636L601.622 650.136V643.136L598.622 641.136L599.122 640.136L599.622 637.636L601.622 636.636V634.636L601.122 631.636L597.622 631.136V630.136L599.622 629.636L600.622 628.636L602.622 629.136L603.122 627.136L604.122 624.636V620.136L603.622 618.636L603.122 617.136V616.136L605.122 615.636L606.622 616.636L608.122 615.636L609.122 613.636L609.622 612.136L610.122 611.136L609.622 610.136L607.622 609.636L608.122 608.636L609.122 608.136L611.122 607.636V608.636L612.622 609.136L613.622 607.636L615.622 607.136V606.136V603.136L615.122 602.636L616.122 602.136L617.622 602.636V603.636H618.122H618.622L619.622 603.136L621.122 602.636H623.622L623.122 600.636L622.122 599.136L619.622 597.636L620.622 596.636L625.622 596.136L626.622 595.136L627.122 596.136H632.122L636.622 593.636H641.622L643.122 592.636L647.122 590.136L651.622 583.636L655.122 581.136L657.122 580.136H658.622H659.622L660.622 578.136H659.122H657.622V577.136L657.122 575.136L654.622 572.636V569.636H655.622L657.122 570.136L659.122 569.636L660.122 567.636H662.122L661.622 570.636L660.622 573.136L661.122 573.636L662.122 573.136L665.622 573.636L661.622 575.636V576.636L666.622 574.636L672.122 571.636L676.622 570.136H680.622V568.636L679.622 568.136L678.622 566.136L681.122 561.136L683.622 558.136L682.122 552.136L686.122 537.636L686.622 531.136L682.122 521.636L681.122 519.636L680.622 516.136L678.622 512.636Z" fill="#FF6E6E"/>
<path d="M675.622 469.136L675.626 469.3M675.626 469.3L676.622 510.636L678.622 512.636L680.622 516.136L681.122 519.636L682.122 521.636L686.622 531.136L686.122 537.636L682.122 552.136L683.622 558.136L681.122 561.136L678.622 566.136L679.622 568.136L680.622 568.636V570.136H676.622L672.122 571.636L666.622 574.636L661.622 576.636V575.636L665.622 573.636L662.122 573.136L661.122 573.636L660.622 573.136L661.622 570.636L662.122 567.636H660.122L659.122 569.636L657.122 570.136L655.622 569.636H654.622V572.636L657.122 575.136L657.622 577.136V578.136H659.122H660.622L659.622 580.136H658.622H657.122L655.122 581.136L651.622 583.636L647.122 590.136L643.122 592.636L641.622 593.636H636.622L632.122 596.136H627.122L626.622 595.136L625.622 596.136L620.622 596.636L619.622 597.636L622.122 599.136L623.122 600.636L623.622 602.636H621.122L619.622 603.136L618.622 603.636H618.122H617.622V602.636L616.122 602.136L615.122 602.636L615.622 603.136V606.136V607.136L613.622 607.636L612.622 609.136L611.122 608.636V607.636L609.122 608.136L608.122 608.636L607.622 609.636L609.622 610.136L610.122 611.136L609.622 612.136L609.122 613.636L608.122 615.636L606.622 616.636L605.122 615.636L603.122 616.136V617.136L603.622 618.636L604.122 620.136V624.636L603.122 627.136L602.622 629.136L600.622 628.636L599.622 629.636L597.622 630.136V631.136L601.122 631.636L601.622 634.636V636.636L599.622 637.636L599.122 640.136L598.622 641.136L601.622 643.136V650.136L604.122 654.636L604.622 659.136L606.622 661.636L603.622 663.136L602.122 664.636L600.122 664.136L597.122 662.136L592.622 659.636L586.622 659.136L581.622 658.136L579.122 656.136L574.122 655.636L571.622 652.136L565.122 651.636L560.622 640.636L557.122 636.136V630.136L555.122 628.636V622.136L547.622 617.136L546.122 612.136L538.122 604.636L537.122 598.636L530.122 588.636L528.622 583.636L525.622 579.636L510.122 566.136L498.622 566.636L493.622 564.636L492.122 567.136L485.622 567.636L483.122 573.136L482.622 576.636L481.122 577.636V581.636L476.622 587.136L471.622 586.636L466.122 582.136H463.122L461.122 579.636L455.122 578.636L444.622 569.636L441.622 564.136V556.136L437.622 551.636L436.122 545.136L425.622 539.136L413.622 526.636L408.122 524.136L403.122 515.636H402.122L399.122 512.636C399.122 511.652 399.122 509.678 399.122 509.659C399.122 509.641 451.622 509.969 477.622 510.136L478.274 390.136H544.622V440.613L551.622 447.136L555.622 447.636L558.622 445.636L561.122 447.136L562.122 449.136L563.122 452.136L567.622 451.636L571.622 453.636L575.622 453.136L578.122 455.636L580.622 453.136L583.622 454.136L586.122 453.636L587.622 456.636L588.622 459.636L592.122 461.136L595.622 458.136L602.622 462.136L604.622 460.636L606.622 461.136V464.636L608.122 465.136L609.122 462.136L611.122 460.136L616.122 461.636L618.622 460.136L624.122 464.636L625.622 464.136H629.622L631.122 461.636H636.122L641.622 459.136L645.122 461.136L648.622 460.636L651.122 458.636L659.122 464.636L666.122 467.136L668.122 469.136L675.626 469.3Z" stroke="black" stroke-width="0.2"/>
<path d="M768.122 413.636L766.622 410.136L769.122 409.636L770.622 407.636H770.122L772.622 406.636H771.622V404.636L770.622 404.136H756.622L763.122 394.636L762.122 391.636L760.622 389.636H663.622L664.122 397.136L664.622 401.636L665.122 406.136L665.622 409.636L666.622 417.136L667.122 425.136L666.122 467.136L668.122 469.136H675.622L676.122 483.636H739.122L740.122 482.136L739.622 480.136L741.122 478.136L740.122 475.136L741.122 473.136H738.622V470.636L739.622 468.636L742.122 466.136H738.622L739.622 463.636L743.122 463.136L742.122 461.136L741.122 458.636L743.122 457.636L745.122 455.636L744.122 454.136L747.622 453.136L745.622 451.136L747.622 450.136L748.622 448.136L750.622 449.136L751.622 445.636L752.122 440.636L753.122 437.136L755.122 436.136L759.122 434.136L758.622 431.136L762.122 429.636L764.122 425.136L762.122 422.636V419.136L765.122 416.636L768.122 413.636Z" fill="#FF6E6E" stroke="black" stroke-width="0.2"/>
<path d="M738.622 486.136L741.122 485.136L739.122 483.636H676.122L676.622 510.636L678.622 512.636L680.622 516.136L681.122 519.636L686.622 531.136L686.122 537.636L682.122 552.136L683.622 558.136L681.122 561.136L680.622 562.636H681.122H682.122L682.622 564.636L681.122 566.136L680.622 567.636L681.122 568.136H690.122L691.122 567.636L692.622 567.136L695.122 567.636L698.622 568.636L709.122 573.136H716.122L716.622 572.136H719.122L719.622 571.136L718.122 569.136V567.636H720.122L721.622 565.136L722.122 564.136H723.622H724.122L725.622 566.136L724.622 568.136L726.622 569.136L729.122 568.136V570.136L730.622 572.136C730.788 572.803 731.022 574.136 730.622 574.136C730.222 574.136 733.788 574.803 735.622 575.136L738.122 575.636L740.122 577.136C740.288 577.969 740.622 579.736 740.622 580.136C740.622 580.536 738.955 579.303 738.122 578.636L736.122 579.636L739.122 581.136L742.622 582.136L743.122 580.136L744.622 578.136L746.622 579.636L748.122 583.636L752.122 580.136L753.622 578.136L756.122 578.636L759.622 581.636L760.622 583.636L762.622 582.636L763.122 581.636V580.136L764.122 578.636L763.622 576.636L763.122 575.136L760.122 574.636L760.622 573.636L762.622 573.136L764.622 574.136L766.622 576.136H770.122L771.122 577.136H774.122L776.622 579.636L778.122 582.636L780.622 580.636L779.122 578.636C778.122 577.969 776.022 576.636 775.622 576.636C775.222 576.636 775.455 575.636 775.622 575.136L773.122 574.636V572.636C773.122 572.236 773.788 572.469 774.122 572.636L776.122 569.636L778.622 567.636L778.122 564.935L777.622 563.636L778.122 562.136L779.622 560.636L777.122 559.136L775.622 561.136V562.136V564.136L775.122 565.136C774.622 564.969 773.522 564.636 773.122 564.636C772.722 564.636 771.955 563.969 771.622 563.636L769.122 562.136L768.622 561.636H770.122L771.622 559.636L772.122 559.136L771.622 558.136L770.122 557.636L769.122 558.136L767.622 558.636L767.122 559.136L765.622 560.136H763.122L760.122 560.636L758.122 560.136L756.122 558.636L757.122 556.636L759.122 554.136L760.122 552.636L762.122 552.136L763.622 552.636L765.122 554.136L767.622 555.636L770.622 557.136H772.122L772.622 555.636L771.622 551.636L768.622 545.136L769.122 542.136L770.622 535.636H730.122L730.622 533.636L729.122 531.136L729.622 529.136H731.122L730.622 527.136V525.636L732.122 526.136V524.636L731.622 523.136L733.622 521.636V520.136L732.622 519.136H733.622L734.622 517.636L736.122 516.636L735.122 515.136L736.622 514.636L738.122 513.636L739.122 511.136L740.122 509.636L741.622 507.636L741.122 506.636L740.622 504.636H743.122C743.522 504.636 744.288 502.636 744.622 501.636L743.622 500.636L742.122 497.636L741.122 495.636L742.122 493.136L740.622 492.636V490.636V488.136L738.622 486.136Z" fill="#FF6E6E" stroke="black" stroke-width="0.2"/>
<path d="M807.122 430.636H762.122H759.622L758.622 431.136L759.122 434.136L753.122 437.136L752.122 440.636L751.622 445.636L750.622 449.136L748.622 448.136L747.622 450.136L745.622 451.136L747.622 453.136L744.122 454.136L745.122 455.636L743.122 457.636L741.122 458.636L742.122 461.136L743.122 463.136L739.622 463.636L738.622 466.136H742.122L739.622 468.636L738.622 470.636V473.136H741.122L740.122 475.136L741.122 478.136L739.622 480.136L740.122 482.136L739.122 483.636L741.122 485.136L738.622 486.136L740.622 488.136V492.636L742.122 493.136L741.122 495.636L743.622 500.636L744.622 501.636L743.122 504.636H740.622L741.122 506.636L741.622 507.636L739.122 511.136L738.122 513.636L736.622 514.636L735.122 515.136L736.122 516.636L734.622 517.636L733.622 519.136H732.622L733.622 520.136V521.636L731.622 523.136L732.122 524.636V526.136L730.622 525.636V527.136L731.122 529.136H729.622L729.122 531.136L730.622 533.636L730.122 535.636H770.622L768.622 545.136L771.622 551.636L772.622 555.636H774.622H778.622L780.122 552.636C781.288 552.969 783.722 553.736 784.122 554.136C784.522 554.536 786.288 552.969 787.122 552.136L792.122 552.636L800.122 553.136L799.122 512.136L802.122 477.636L806.122 440.136L807.122 430.636Z" fill="#FF6E6E" stroke="black" stroke-width="0.2"/>
<path d="M928.122 342.136V336.636L927.122 334.636L922.622 331.136L921.622 327.636H920.122L914.622 331.136H912.122L908.622 328.636L904.622 330.636L899.622 326.636L892.622 325.636L891.122 321.136L888.122 317.636H884.622L881.122 316.136L879.122 317.136L878.122 319.136L879.622 324.636L879.122 326.636H875.622L871.122 329.136H866.622V332.636L863.122 336.136L861.122 340.136L856.622 341.636L855.122 347.636L852.122 349.136L848.622 347.636L845.622 345.136L842.622 347.636L839.622 352.136L833.622 349.136L828.122 354.636L824.122 352.136L820.122 349.136L817.122 352.136H811.622L810.122 353.636L808.122 354.636L805.122 358.136L807.622 362.636L798.622 366.636L797.622 368.636L799.622 371.636V374.636H797.622L788.622 370.636L783.622 374.136H780.622V375.636L785.122 378.136L784.122 380.636L783.122 384.636V387.636L779.122 387.136L778.622 389.636L777.122 390.136H807.122L807.622 387.136L808.122 385.136H812.122V386.136L905.122 387.136L913.122 384.636L916.622 382.636L920.622 379.136L924.622 375.136L925.622 372.636L928.122 371.136L936.122 366.636L942.122 361.636L940.122 359.636L935.122 357.636V354.636L931.122 352.636V348.636L928.122 345.136V342.136Z" fill="#FF6E6E" stroke="black" stroke-width="0.2"/>
<path d="M943.122 395.636L947.122 394.636L948.122 391.636V387.636L812.122 386.136V385.136H808.122L807.622 387.136L807.122 390.136H777.122L775.622 390.636V394.636L773.122 396.136L772.122 397.136L773.122 400.136L770.622 404.136L771.622 404.636V406.636H772.622L770.122 407.636H770.622L769.122 409.636L766.622 410.136L768.122 413.636L765.122 416.636L762.122 419.136V422.636L764.122 425.136L762.122 429.636L759.622 430.636L890.122 431.136L890.622 425.636L891.622 424.136L896.622 422.636L898.122 418.136L920.122 408.636L921.622 406.136L926.122 402.636L929.122 404.636L933.122 400.636L940.622 400.136L943.122 395.636Z" fill="#FF6E6E" stroke="black" stroke-width="0.2"/>
<path d="M871.622 488.636L869.622 477.636L862.125 431.159L807.122 431.136L799.122 512.136L800.122 553.136L801.122 552.136L804.122 551.636L805.122 552.636H807.622V546.136L810.122 544.636L811.122 548.136L811.622 551.636L813.622 553.136L815.122 555.136L817.622 556.636L819.622 556.136L821.122 553.136L822.122 551.136L822.622 549.636L821.122 548.136L822.122 546.136L819.122 542.136L817.122 537.136L819.122 536.136L874.622 535.636L872.622 530.636L873.622 524.136V519.136L872.622 514.636L873.622 508.636L875.122 506.136L877.122 503.136L875.122 501.136V497.136L871.622 488.636Z" fill="#FF6E6E"/>
<path d="M862.122 431.136L862.125 431.159M862.125 431.159L869.622 477.636L871.622 488.636L875.122 497.136V501.136L877.122 503.136L875.122 506.136L873.622 508.636L872.622 514.636L873.622 519.136V524.136L872.622 530.636L874.622 535.636L819.122 536.136L817.122 537.136L819.122 542.136L822.122 546.136L821.122 548.136L822.622 549.636L822.122 551.136L821.122 553.136L819.622 556.136L817.622 556.636L815.122 555.136L813.622 553.136L811.622 551.636L811.122 548.136L810.122 544.636L807.622 546.136V552.636H805.122L804.122 551.636L801.122 552.136L800.122 553.136L799.122 512.136L807.122 431.136L862.125 431.159Z" stroke="black" stroke-width="0.2"/>
<path d="M1005.12 307.636L996.622 314.136V299.636H973.622V273.636L971.622 274.636V277.136L972.122 282.636L969.622 289.136L967.122 296.136L966.122 302.136L960.622 308.636L956.122 310.636L952.622 309.636L951.122 313.136L947.622 314.136L946.622 318.636V322.636L943.122 323.636V321.636L940.122 320.136L937.122 323.636L936.122 328.636L937.122 331.136L936.122 333.136L934.122 334.636L932.122 336.636H928.122V345.136L931.122 348.636V352.636L935.122 354.636V357.636L940.122 359.636L942.122 361.636L941.622 364.136L943.622 367.136L947.122 370.636H949.622L953.622 368.136L955.622 367.636L958.122 369.636L962.122 368.636L965.122 367.636L965.622 366.136L967.122 365.636L968.622 366.136L971.622 363.636H973.122L974.622 364.636L977.622 362.636L978.622 360.636V357.136L987.122 345.136L989.622 338.136L991.622 335.636L993.622 332.636L997.122 335.636L1000.62 337.136L1005.62 328.136L1008.12 325.636L1010.62 326.136L1012.62 323.136L1016.12 321.136L1020.62 311.136L1022.12 307.136L1026.62 311.636L1032.62 316.136L1035.62 311.136L1035.12 307.636L1032.12 304.636L1027.12 301.636H1025.62L1023.12 302.636L1020.12 303.636L1018.62 305.136H1015.12L1012.12 302.636L1008.12 307.636H1005.12Z" fill="#FF6E6E" stroke="black" stroke-width="0.2"/>
<path d="M1048.62 322.636L1043.12 318.636H1041.62L1040.62 317.636L1040.12 315.636L1041.12 313.636L1039.12 311.636L1035.62 311.136L1032.62 316.136L1026.62 311.636L1022.12 307.136L1020.62 311.136L1016.12 321.136L1012.62 323.136L1010.62 326.136L1008.12 325.636L1005.62 328.136L1000.62 337.136L997.122 335.636L993.622 332.636L989.622 338.136L987.122 345.136L978.622 357.136V360.636L977.622 362.636L974.622 364.636L973.122 363.636H971.622L968.622 366.136L967.122 365.636L965.622 366.136L965.122 367.636L958.122 369.636L955.622 367.636L953.622 368.136L949.622 370.636H947.122L943.622 367.136L941.622 364.136L942.122 361.636L936.122 366.636L925.622 372.636L924.622 375.136L920.622 379.136L916.622 382.636L913.122 384.636L905.122 387.136L1074.62 388.636V379.636L1071.62 379.136L1070.62 378.636L1069.12 379.136L1067.12 381.636L1062.62 378.636L1059.12 373.636L1052.62 370.136V368.636L1058.12 371.636L1062.62 375.136L1065.62 377.136L1067.12 372.636L1064.62 367.136L1067.12 368.636L1068.62 363.636L1062.62 360.636L1054.12 351.136V348.636L1060.62 354.136L1065.62 358.636L1068.62 351.136L1059.12 344.636L1054.12 342.636L1052.62 341.136L1050.12 337.636L1046.12 338.636L1044.62 337.636V333.636L1047.12 329.136L1051.12 327.136L1048.62 322.636Z" fill="#FF6E6E" stroke="black" stroke-width="0.2"/>
<path d="M1083.12 348.136L1079.62 350.636V352.136L1081.12 353.136L1079.12 354.636L1078.12 356.136L1075.12 361.136L1074.12 365.636L1073.62 371.636L1075.12 372.636C1075.79 371.636 1077.22 369.536 1077.62 369.136C1078.02 368.736 1077.12 367.636 1076.62 367.136L1079.12 363.136L1081.12 362.136L1082.12 359.136L1083.12 356.136L1086.12 351.136L1087.62 347.636L1083.12 348.136Z" fill="#FF6E6E" stroke="black" stroke-width="0.2"/>
<path d="M1077.62 401.136L1076.12 394.636L1075.62 393.136L1074.12 392.636V389.636L1074.62 388.636L948.122 387.636V391.636L947.122 394.636L943.122 395.636L940.622 400.136L933.122 400.636L929.122 404.636L926.122 402.636L921.622 406.136L920.122 408.636L898.122 418.136L896.622 422.636L891.622 424.136L890.622 425.636L890.122 431.136L916.122 430.636L934.622 425.136L954.122 425.636L963.622 427.136L967.622 432.136L968.122 435.136L992.622 436.136L1018.12 462.136L1023.62 460.636L1029.12 459.636L1030.12 457.136L1035.12 450.636L1043.62 443.136L1048.62 441.636L1053.12 439.136L1063.62 438.136L1066.62 433.136V431.636H1065.12L1064.12 432.636V430.136H1063.12L1057.62 433.136L1054.12 433.636L1052.12 431.636C1052.96 431.636 1051.32 428.136 1052.12 428.136C1052.92 428.136 1056.29 431.969 1056.62 431.636L1062.12 427.136C1062.12 425.969 1063.12 424.436 1063.12 423.636C1063.12 422.836 1058.79 421.303 1057.12 421.136L1054.12 420.136L1061.12 419.136L1064.62 419.636L1066.62 422.136L1072.12 421.636L1073.12 419.636L1076.12 414.636C1077.46 413.636 1076.92 416.036 1078.12 415.636C1079.32 415.236 1079.46 412.469 1079.62 410.636V408.136L1078.62 407.136L1074.62 406.636V410.636L1072.62 412.136V404.636L1066.62 405.136L1060.12 406.136V404.136L1066.62 401.136L1072.12 399.136L1077.62 401.136Z" fill="#FF6E6E" stroke="black" stroke-width="0.2"/>
<path d="M1007.62 469.136L1011.12 465.136L1013.62 463.636L1018.12 462.136L992.622 436.136L968.122 435.136L967.622 432.136L963.622 427.136L954.122 425.636L934.622 425.136L916.122 430.636L912.122 437.136V439.136L917.122 443.636L922.122 445.636L927.622 456.636L929.622 459.636L932.622 461.136L936.122 463.636L937.622 467.136L941.622 470.136L942.622 474.136L944.622 477.136L946.622 479.136L948.622 481.636L951.622 483.636L954.122 488.136V492.636L960.122 500.136V505.636L966.622 509.636V506.136V503.636V501.136L971.122 502.136H974.622L972.622 498.136L975.622 497.136H980.122L995.122 488.136C995.288 487.303 995.522 485.436 995.122 484.636C994.722 483.836 997.288 483.636 998.622 483.636L1003.12 479.136V477.136L1007.62 469.136Z" fill="#FF6E6E" stroke="black" stroke-width="0.2"/>
<path d="M959.622 517.636C960.622 516.469 962.722 514.136 963.122 514.136L963.622 513.636H964.622L965.122 512.636L964.622 512.136V511.136H966.122L966.622 509.636L960.122 505.636V500.136L954.122 492.636V488.136L951.622 483.636L948.622 481.636L946.622 479.136L944.622 477.136L942.622 474.136L941.622 470.136L937.622 467.136L936.122 463.636L932.622 461.136L929.622 459.636L927.622 456.636L922.122 445.636L917.122 443.636L912.122 439.136V437.136L916.122 430.636L862.122 431.136L871.622 488.636L875.122 497.136V501.136L877.122 503.136L873.622 508.636L872.622 514.636L873.622 519.136V524.136L872.622 530.636L874.622 535.636L876.122 540.136L878.622 543.136L936.622 546.636L937.122 551.636L938.622 552.136L941.122 549.136L940.122 545.136L941.122 542.136L944.122 540.136L951.122 542.136L953.122 540.136V537.136H949.622L948.622 535.636C950.122 535.303 953.122 534.536 953.122 534.136V532.636H955.122L957.622 529.636L956.122 528.136L958.622 524.636L957.622 522.136L959.622 520.636L955.122 517.636V516.636L959.622 517.636Z" fill="#FF6E6E" stroke="black" stroke-width="0.2"/>
<path d="M957.622 565.636L956.122 554.636L954.622 551.136C954.455 550.303 954.122 548.536 954.122 548.136C954.122 547.736 953.788 544.969 953.622 543.636L951.122 542.136L944.122 540.136L941.122 542.136L940.122 545.136L941.122 549.136L938.622 552.136L937.122 551.636L936.622 546.636L878.622 543.136L876.122 540.136L874.622 535.636L819.122 536.136L817.122 537.136L819.122 542.136L822.122 546.136L821.122 548.136L822.622 549.636L822.122 551.136L820.122 555.136L822.622 553.636L825.122 552.636L826.622 551.136L828.122 549.636L831.122 549.136L832.622 550.136L831.622 550.636L831.122 551.636H839.122L841.622 549.636H845.122C845.522 549.636 846.955 549.303 847.622 549.136L849.622 550.636L847.622 551.636L846.622 552.136L852.622 554.636L861.122 559.636L867.622 564.636L869.122 569.136H874.122H878.622L882.122 565.636L886.122 563.636H889.622L888.622 562.136L892.622 559.636H894.122H898.122L900.622 562.136L902.622 562.636L907.122 567.636L908.622 569.136L910.622 570.136L911.622 573.136C913.622 576.136 917.722 582.136 918.122 582.136C918.522 582.136 921.622 583.136 923.122 583.636L924.622 587.136C925.622 589.303 927.622 593.736 927.622 594.136C927.622 594.536 927.955 594.969 928.122 595.136L927.122 601.136L925.622 605.636L923.622 610.136V615.636L924.622 617.636L926.622 619.136L928.622 617.136L926.622 614.636V612.636L929.122 613.136H931.622L932.622 615.636L931.622 618.636L930.122 622.136L928.122 624.636L929.122 627.636L930.122 630.636L931.622 633.136L930.622 634.136L936.122 640.636L937.622 639.636L939.622 638.636V640.636L940.622 645.636L945.122 651.636V655.636L948.122 662.136L951.122 664.636L954.122 665.636L957.622 669.136L960.122 676.136V682.136L969.122 683.136L971.622 681.136L975.622 680.636L978.122 676.136L979.622 671.636L981.122 669.136L982.622 661.136L984.622 649.136V640.636L982.622 633.136L979.622 630.636L978.122 621.136L974.622 614.136L970.122 603.136L968.622 598.636V592.636L964.122 583.636L957.622 565.636Z" fill="#FF6E6E" stroke="black" stroke-width="0.2"/>
<path d="M1094.12 335.636H1080.12L1078.13 304.252L1078.12 299.636H996.622V314.136L1005.12 307.636H1008.12L1012.12 302.636L1015.12 305.136H1018.62L1020.12 303.636L1025.62 301.636H1027.12L1032.12 304.636L1035.12 307.636L1035.62 311.136L1039.12 311.636L1041.12 313.636L1040.12 315.636L1040.62 317.636L1041.62 318.636H1043.12L1048.62 322.636L1051.12 327.136L1047.12 329.136L1044.62 333.636V337.636L1046.12 338.636L1050.12 337.636L1049.62 336.636V336.136H1050.62L1051.62 337.136L1052.12 339.636H1054.12L1054.62 338.636L1055.62 340.136L1056.62 342.636H1058.62H1061.12L1061.62 344.136H1063.12L1063.62 343.136L1064.62 345.136C1064.79 345.469 1065.12 346.236 1065.12 346.636C1065.12 347.036 1066.46 345.803 1067.12 345.136L1066.12 344.136L1065.12 341.636L1063.62 339.636L1062.12 338.636L1059.62 335.636L1059.12 333.636L1060.12 333.136L1060.62 335.636L1062.62 338.136L1063.62 338.636C1063.96 338.636 1064.62 338.536 1064.62 338.136C1064.62 337.736 1063.96 336.636 1063.62 336.136L1063.12 333.636L1062.12 333.136L1061.62 328.636L1062.62 326.136L1064.12 324.636C1064.62 323.803 1065.62 322.036 1065.62 321.636C1065.62 321.236 1065.29 319.469 1065.12 318.636L1062.62 315.636L1063.62 313.136L1071.12 309.136L1072.12 304.136H1074.62L1075.12 305.636H1076.62L1075.62 307.136L1070.62 311.636L1067.62 316.136L1067.12 317.636L1067.62 322.136V325.636V327.636L1066.62 329.636L1069.62 330.136L1072.12 331.136L1072.62 332.136H1068.62L1067.62 332.636L1067.12 337.136L1072.62 341.636V339.636L1073.12 339.136L1073.62 338.136L1074.12 337.136H1074.62V338.636L1073.62 339.136V341.136L1074.62 342.136V344.636L1076.12 345.636L1077.62 346.136V347.636L1077.12 348.136L1076.12 349.136L1077.12 350.636H1079.62L1083.12 348.136L1087.62 347.636L1088.62 346.636L1090.12 346.136L1090.62 343.636L1092.62 340.636L1094.12 337.636V335.636Z" fill="#FF6E6E"/>
<path d="M1078.12 304.136L1078.13 304.252M1078.13 304.252L1080.12 335.636H1094.12V337.636L1092.62 340.636L1090.62 343.636L1090.12 346.136L1088.62 346.636L1087.62 347.636L1083.12 348.136L1079.62 350.636H1077.12L1076.12 349.136L1077.12 348.136L1077.62 347.636V346.136L1076.12 345.636L1074.62 344.636V342.136L1073.62 341.136V339.136L1074.62 338.636V337.136H1074.12L1073.62 338.136L1073.12 339.136L1072.62 339.636V341.636L1067.12 337.136L1067.62 332.636L1068.62 332.136H1072.62L1072.12 331.136L1069.62 330.136L1066.62 329.636L1067.62 327.636V325.636V322.136L1067.12 317.636L1067.62 316.136L1070.62 311.636L1075.62 307.136L1076.62 305.636H1075.12L1074.62 304.136H1072.12L1071.12 309.136L1063.62 313.136L1062.62 315.636L1065.12 318.636C1065.29 319.469 1065.62 321.236 1065.62 321.636C1065.62 322.036 1064.62 323.803 1064.12 324.636L1062.62 326.136L1061.62 328.636L1062.12 333.136L1063.12 333.636L1063.62 336.136C1063.96 336.636 1064.62 337.736 1064.62 338.136C1064.62 338.536 1063.96 338.636 1063.62 338.636L1062.62 338.136L1060.62 335.636L1060.12 333.136L1059.12 333.636L1059.62 335.636L1062.12 338.636L1063.62 339.636L1065.12 341.636L1066.12 344.136L1067.12 345.136C1066.46 345.803 1065.12 347.036 1065.12 346.636C1065.12 346.236 1064.79 345.469 1064.62 345.136L1063.62 343.136L1063.12 344.136H1061.62L1061.12 342.636H1058.62H1056.62L1055.62 340.136L1054.62 338.636L1054.12 339.636H1052.12L1051.62 337.136L1050.62 336.136H1049.62V336.636L1050.12 337.636L1046.12 338.636L1044.62 337.636V333.636L1047.12 329.136L1051.12 327.136L1048.62 322.636L1043.12 318.636H1041.62L1040.62 317.636L1040.12 315.636L1041.12 313.636L1039.12 311.636L1035.62 311.136L1035.12 307.636L1032.12 304.636L1027.12 301.636H1025.62L1020.12 303.636L1018.62 305.136H1015.12L1012.12 302.636L1008.12 307.636H1005.12L996.622 314.136V299.636H1078.12L1078.13 304.252Z" stroke="black" stroke-width="0.2"/>
<path d="M1082.62 307.136V302.636V299.136L1081.62 298.636L1080.62 298.136L1079.12 298.636L1078.12 299.636V304.136L1080.12 335.636H1094.12V331.136L1092.62 330.136L1093.62 327.136L1090.12 324.636L1088.12 318.636L1086.12 312.636L1082.62 307.136Z" fill="#FF6E6E" stroke="black" stroke-width="0.2"/>
<path d="M1088.12 234.136L990.622 233.636V225.636L987.622 227.636L983.622 230.136L977.622 233.136L973.622 235.136V299.636H1078.62L1083.62 299.136L1088.62 296.136L1101.62 287.136L1091.62 275.636L1091.12 269.636L1094.12 267.636L1092.62 263.636L1102.12 253.136L1101.62 250.636L1096.12 248.636L1093.62 238.636L1088.12 234.136Z" fill="#3FF183" stroke="black" stroke-width="0.2"/>
<path d="M1120.12 263.636L1102.12 253.136L1092.62 263.636L1094.12 267.636L1091.12 269.636L1091.62 275.636L1101.62 287.136L1083.62 299.136H1082.62L1083.62 302.136L1084.62 306.136L1089.12 311.636L1096.12 315.136L1101.62 317.636L1103.12 315.136L1104.12 312.636L1106.62 311.636L1110.12 308.636V306.136L1112.12 302.136L1118.12 287.136V281.136L1114.12 279.136L1113.12 277.636L1115.12 276.636L1116.62 274.136L1118.62 268.636L1119.12 266.136L1120.12 263.636Z" fill="#3FF183" stroke="black" stroke-width="0.2"/>
<path d="M1010.62 210.136L1003.62 218.136L994.122 224.136L990.622 225.636V233.636L1088.12 234.136L1093.62 238.636L1096.12 248.636L1101.62 250.636L1102.12 253.136L1120.12 263.636L1119.12 266.136L1118.62 268.136L1117.12 273.136L1117.62 274.136L1119.12 274.511L1121.62 274.136L1124.12 275.136L1130.12 272.636L1134.12 272.136L1142.12 270.136H1145.62L1154.12 268.136L1165.12 267.136L1168.62 263.636C1168.48 262.445 1170.12 261.636 1165.12 261.636L1160.12 263.636L1156.37 263.386L1152.62 263.136H1148.62C1147.12 263.136 1141.12 264.636 1141.12 264.636H1137.62L1133.12 266.136L1130.12 266.636H1127.62L1124.12 263.636L1128.62 257.136L1127.62 246.136L1128.62 232.136L1133.62 211.636L1134.12 188.636L1133.12 185.136L1131.12 186.136L1130.62 182.636L1131.12 179.136L1130.62 168.136L1133.12 163.136L1133.62 158.136L1134.12 149.636C1134.29 147.303 1134.62 142.536 1134.62 142.136C1134.62 141.736 1132.62 141.969 1131.62 142.136L1095.12 143.136L1083.62 152.636L1084.12 153.636L1068.12 169.136L1066.12 169.636V172.136L1067.62 174.136H1071.12L1072.12 175.636L1070.12 177.136L1069.12 177.636L1067.62 178.636L1068.12 180.136L1069.12 182.136L1068.62 187.636H1065.62L1063.62 188.636L1060.12 192.136L1055.12 195.136L1048.12 196.136L1047.62 196.636L1039.62 196.136C1037.46 195.136 1032.92 193.136 1032.12 193.136H1023.12L1012.12 193.636L1005.62 196.636L1006.12 198.136V200.136L1007.12 201.636V203.636L1009.12 206.136L1010.12 208.136L1010.62 210.136Z" fill="#3FF183"/>
<path d="M994.122 224.136L1003.62 218.136L1010.62 210.136L1010.12 208.136L1009.12 206.136L1007.12 203.636V201.636L1006.12 200.136V198.136L1005.62 196.636L1012.12 193.636L1023.12 193.136C1025.79 193.136 1031.32 193.136 1032.12 193.136C1032.92 193.136 1037.46 195.136 1039.62 196.136L1047.62 196.636L1048.12 196.136L1055.12 195.136L1060.12 192.136L1063.62 188.636L1065.62 187.636H1068.62L1069.12 182.136L1068.12 180.136L1067.62 178.636L1069.12 177.636L1070.12 177.136L1072.12 175.636L1071.12 174.136H1067.62L1066.12 172.136V169.636L1068.12 169.136L1084.12 153.636L1083.62 152.636L1095.12 143.136L1131.62 142.136C1132.62 141.969 1134.62 141.736 1134.62 142.136C1134.62 142.536 1134.29 147.303 1134.12 149.636L1133.62 158.136L1133.12 163.136L1130.62 168.136L1131.12 179.136L1130.62 182.636L1131.12 186.136L1133.12 185.136L1134.12 188.636L1133.62 211.636L1128.62 232.136L1127.62 246.136L1128.62 257.136L1124.12 263.636L1127.62 266.636H1130.12L1133.12 266.136L1137.62 264.636H1141.12C1141.12 264.636 1147.12 263.136 1148.62 263.136C1150.12 263.136 1152.62 263.136 1152.62 263.136L1156.37 263.386L1160.12 263.636L1165.12 261.636C1170.12 261.636 1168.48 262.445 1168.62 263.636L1165.12 267.136L1154.12 268.136L1145.62 270.136H1142.12L1134.12 272.136L1130.12 272.636L1124.12 275.136L1121.62 274.136L1119.12 274.511L1119.62 274.636L1117.62 274.136L1117.12 273.136L1118.62 268.136L1119.12 266.136L1120.12 263.636L1102.12 253.136L1101.62 250.636L1096.12 248.636L1093.62 238.636L1088.12 234.136L990.622 233.636V225.636L994.122 224.136Z" stroke="black" stroke-width="0.2"/>
<path d="M1171.12 155.136L1169.62 150.136L1172.62 146.136V142.136H1134.62L1133.12 163.136L1130.62 168.136L1131.12 179.136L1130.62 182.636L1131.12 186.136L1133.12 185.136L1134.12 188.636L1133.62 211.636H1149.62V206.136L1150.62 201.636L1154.12 186.136L1160.62 171.636L1160.12 166.636L1161.12 162.636L1165.62 160.136L1169.12 159.136L1171.12 155.136Z" fill="#3FF183" stroke="black" stroke-width="0.2"/>
<path d="M1181.62 209.136L1177.62 212.136L1133.62 211.636L1128.62 232.136L1174.12 233.136L1175.62 239.636L1180.12 243.636L1181.62 249.136L1184.62 247.136L1186.62 245.136L1188.12 245.636L1190.62 242.636L1192.12 243.636V247.136L1197.12 245.636H1199.62L1200.62 244.136H1206.12L1207.12 241.636L1207.62 238.636H1206.12L1205.12 240.136C1204.62 240.303 1203.42 240.636 1202.62 240.636C1201.82 240.636 1200.29 241.636 1199.62 242.136L1197.62 240.636H1194.12V237.636L1193.12 235.136L1190.12 234.136L1192.12 231.636V230.136L1190.12 227.136L1187.12 226.636L1185.62 225.636C1185.79 225.136 1186.32 224.136 1187.12 224.136C1187.92 224.136 1187.46 222.469 1187.12 221.636L1189.12 216.636L1191.12 214.636L1189.12 212.636L1188.12 207.636H1184.12L1181.62 209.136Z" fill="#3FF183" stroke="black" stroke-width="0.2"/>
<path d="M1166.12 252.636V233.136L1128.62 232.136L1127.62 246.136L1128.62 257.136L1124.12 263.136L1129.12 262.136L1136.62 258.636L1137.12 252.636L1138.62 254.136L1138.12 256.136L1138.62 257.636L1142.12 255.636H1154.12L1157.12 254.136H1159.62H1164.12L1166.12 252.636Z" fill="#3FF183" stroke="black" stroke-width="0.2"/>
<path d="M1176.62 247.636L1179.12 249.136V248.636L1179.62 249.636H1180.12H1181.12L1181.62 249.136L1180.12 243.636L1175.62 239.636L1174.12 233.136L1166.12 233.034V252.636L1165.12 253.636H1167.12L1171.12 252.636L1173.12 251.136L1174.62 248.136L1174.12 245.136H1175.62V246.136L1176.62 247.636Z" fill="#3FF183" stroke="black" stroke-width="0.2"/>
<path d="M1175.12 136.636L1172.62 142.136V146.136L1169.62 150.136L1171.12 155.136L1169.12 159.136L1165.62 160.136L1161.12 162.636L1160.12 166.636L1160.62 171.636L1154.12 186.136L1149.62 206.136V211.636L1177.62 212.136L1184.12 207.636H1188.12L1188.62 207.136V205.136L1189.12 203.636L1190.12 202.136L1184.12 191.636L1182.12 132.636L1181.12 133.636L1180.62 135.136L1179.62 134.136L1178.12 133.636L1176.62 134.636L1175.12 136.636Z" fill="#3FF183" stroke="black" stroke-width="0.2"/>
<path d="M1189.62 126.136L1191.62 130.136L1188.62 128.636L1187.62 129.636L1186.62 133.636L1184.12 131.636L1182.12 132.636L1184.12 191.636L1190.12 202.136L1192.62 199.136C1192.79 198.636 1193.12 197.536 1193.12 197.136C1193.12 196.736 1193.79 195.969 1194.12 195.636L1199.62 188.636L1200.12 187.136L1201.12 186.636L1200.62 184.636L1201.62 181.136L1204.12 179.136L1206.12 178.136L1208.62 181.636L1210.12 182.136L1213.12 179.136L1214.62 178.136L1216.12 179.136L1217.12 178.636V177.636L1218.12 176.136L1218.62 173.636L1219.12 174.136L1221.62 175.136L1222.62 175.636L1223.62 175.136L1226.62 171.636L1226.12 170.636L1226.62 169.136L1227.12 167.136C1227.79 166.303 1229.12 164.536 1229.12 164.136C1229.12 163.736 1228.79 162.303 1228.62 161.636L1229.62 159.636L1232.62 161.136L1233.62 163.136C1234.46 163.803 1236.22 165.136 1236.62 165.136H1238.12V162.136L1239.12 160.136L1240.12 160.636H1241.62V162.136L1240.95 165.136L1242.12 166.636L1243.62 165.136L1245.62 163.636L1246.12 162.136L1244.36 161.136L1242.62 160.136L1243.12 159.136L1244.12 156.636L1246.12 157.636L1247.12 159.136L1248.12 161.636L1249.62 162.136L1250.12 161.136L1249.62 156.636H1251.12V160.136L1252.62 161.136V157.136C1253.62 156.969 1256.32 156.636 1259.12 156.636C1261.92 156.636 1260.96 155.969 1260.12 155.636L1262.62 155.136L1264.62 153.636H1266.62L1270.12 151.636L1272.12 148.136L1272.62 146.636L1269.12 138.136L1265.62 136.636L1264.12 138.136L1262.62 136.636L1260.62 133.636L1262.12 130.636L1260.62 127.136H1262.12V123.636H1260.12L1253.62 120.636L1255.12 117.136L1253.62 115.136L1255.12 113.636L1254.62 77.136C1251.46 73.9694 1245.12 67.536 1245.12 67.136C1245.12 66.736 1243.46 66.9694 1242.62 67.136L1241.62 69.636H1237.12L1230.12 73.636L1227.12 70.636L1226.12 65.136L1223.12 64.136L1206.12 88.136L1203.62 97.136L1199.62 101.636L1198.62 112.136H1200.12L1200.62 113.636L1196.62 118.136L1197.62 119.136L1194.12 121.136L1189.62 126.136Z" fill="#3FF183" stroke="black" stroke-width="0.2"/>
<path d="M12.1217 241.136V236.636L11.6217 235.136L12.1217 233.136H104.122V320.136L104.622 320.636L121.622 336.136L156.122 367.136L181.622 391.636L222.122 430.136L223.122 433.136L223.622 435.136L226.122 439.136L227.622 443.636L229.122 445.636L231.622 447.636L233.122 449.136V450.636L230.122 453.136L226.122 455.636L224.622 458.362V466.136L223.122 470.636L221.122 471.636L220.122 473.136L221.122 476.136L221.622 479.136L222.122 482.636L224.622 483.636L226.122 487.636L223.122 489.636L220.622 491.136L169.122 495.636L168.622 494.136L167.122 492.136L165.122 491.136V490.636L164.122 484.136L159.122 476.136L151.622 468.636L150.122 468.136L147.622 466.636L145.622 465.136L144.622 464.636L143.622 465.136L143.122 466.136L139.622 464.636L139.122 460.636L137.122 458.136L135.122 457.136H130.622L126.622 456.636L116.122 447.636L113.122 447.136L104.622 445.636L94.1217 445.136L92.6217 443.636C92.2217 443.236 91.1217 443.469 90.6217 443.636L90.1217 442.636L91.1217 439.136L90.1217 434.636V427.136L88.1217 426.636L86.1217 425.136L85.6217 423.136L85.1217 420.136L84.1217 419.136L82.1217 417.636L80.6217 415.636H79.1217L76.1217 413.136V410.636L71.6217 406.636L71.1217 403.636L68.6217 401.636L62.1217 393.636L61.6217 392.136L62.1217 389.136L65.1217 386.136L64.6217 381.636L62.6217 378.136C60.955 377.969 57.6217 377.536 57.6217 377.136C57.6217 376.736 53.6217 372.969 51.6217 371.136V368.136L50.6217 366.636L49.6217 363.636L49.1217 357.136V354.636L50.1217 353.636L51.6217 354.636L52.6217 356.636V360.136L56.1217 362.136L57.1217 361.136L57.6217 359.136L55.1217 356.136L53.1217 355.136L52.6217 354.136L53.1217 353.136L52.6217 350.136L53.1217 348.636L55.1217 347.136V346.636L53.1217 345.636H51.1217L50.1217 346.636L50.6217 348.136L50.1217 350.636L49.6217 351.636V353.136V353.636H48.6217L47.1217 353.136L41.6217 349.136L39.1217 348.636L38.6217 345.136L39.6217 344.636V344.136L39.1217 343.636L38.6217 341.136L37.6217 340.136V339.136L37.1217 338.136L36.1217 337.136L35.6217 335.636L34.6217 335.136H33.6217L32.6217 333.636L30.1217 331.636L29.6217 330.136L28.1217 328.636L26.1217 328.136V326.636L25.1217 325.636L22.6217 323.136V321.828L23.6217 321.136L23.1217 319.636L22.6217 318.136L22.1217 315.636L21.6217 314.136L20.6217 311.136V307.636L21.6217 306.636L21.1217 301.136L20.6217 300.136L19.1217 296.636L15.6217 291.136L10.6217 286.636L8.62168 284.636L8.12168 281.636L8.62168 276.636L9.12168 274.636L10.1217 272.136L12.6217 270.636L13.6217 266.136V256.636L14.6217 256.136V247.636L14.1217 246.136L13.6217 244.636L12.1217 241.136Z" fill="#FF9B48" stroke="black" stroke-width="0.2"/>
<path d="M11.6217 184.136L13.1217 179.136V177.136L13.6217 175.136V165.136L14.6217 164.136V147.636L15.6217 146.136L16.1217 142.636L16.6217 139.136L17.6217 136.636V107.136L17.1217 106.636L16.6217 106.136L17.1217 105.136H24.6217L25.6217 104.636L27.1217 104.136H28.1217L29.1217 105.636L30.6217 106.136L32.1217 105.636L35.1217 105.136L39.1217 107.636L40.6217 109.636L42.1217 116.636L43.6217 121.136L49.1217 124.136L54.1217 125.136L59.1217 124.136L62.6217 121.136L67.1217 120.136H73.6217L81.1217 121.136H85.6217L89.6217 120.136H97.1217L103.622 117.136L110.622 116.136L112.622 113.636H118.122L124.622 112.636L126.122 111.136H171.122L172.122 111.636L173.122 113.636L175.622 116.636L179.622 118.136L181.122 120.636L181.622 124.136L173.122 146.136L172.122 148.636L168.622 151.636L166.622 154.636L165.122 158.136V162.636L167.122 165.136H169.122L171.122 166.136L172.122 169.136L171.122 172.636L170.122 176.636L169.622 180.136V233.136H11.6217L8.12168 229.136L6.62168 224.136V220.136L8.12168 217.136V214.136L5.12168 212.136L3.62168 208.636L6.62168 205.136L8.12168 199.636V193.636L10.6217 189.136L11.6217 184.136Z" fill="#FF9B48" stroke="black" stroke-width="0.2"/>
<path d="M235.622 233.636L171.622 233.136H104.122V320.136L122.122 336.636L141.622 354.136L155.622 366.636L166.622 377.136L168.622 379.136L222.122 430.136L223.622 427.136V423.636L223.122 421.136L221.622 418.136V413.636L221.122 408.136V404.636L220.122 401.136L223.622 399.136L227.622 400.136L229.622 401.636L232.122 404.636L233.622 403.136L235.622 397.636V233.636Z" fill="#FF9B48" stroke="black" stroke-width="0.2"/>
<path d="M191.122 13.136H170.622H169.622V100.136L172.122 105.136L171.122 109.636V111.136L172.122 111.636L173.122 113.636L175.622 116.636L179.622 118.136L181.122 120.636L181.622 124.136L173.122 146.136L172.122 148.636L168.622 151.636L166.622 154.636L165.122 158.136V162.636L167.122 165.136H169.122L171.122 166.136L172.122 169.136L170.122 176.636L169.622 180.136V233.136L301.122 233.636V158.136L300.622 157.636L298.122 156.136L297.122 154.636L295.622 152.136L294.122 151.136L292.622 151.636L290.622 153.136L291.622 155.636L290.622 156.136H288.622L285.122 157.136L282.122 156.136L278.122 156.636L274.122 155.636L272.622 158.136L269.622 159.136L266.622 158.136L264.622 158.636L262.622 160.636L261.122 161.636L258.122 159.636L257.622 157.636L257.122 154.136L255.622 151.136L253.622 148.636H250.122L248.122 146.136V141.136L247.122 139.136L245.122 136.136L242.122 132.136L241.622 127.636L240.622 122.636L237.622 120.136L235.622 122.636L233.122 125.136L228.622 127.636L226.122 126.136L223.622 123.636L224.622 119.636V116.636L227.122 113.636L226.122 111.636L224.622 107.136L226.122 104.636L227.122 100.636L229.122 91.636L228.622 90.136H227.622H223.122L221.122 87.136L219.622 86.636L217.122 85.636L215.122 81.136L213.122 77.636L208.122 72.136L204.622 70.136L201.622 67.636L198.622 64.636L198.122 60.636V56.636L197.122 54.636L191.622 47.636L191.122 13.136Z" fill="#FF9B48" stroke="black" stroke-width="0.2"/>
<path d="M301.122 262.636V233.636L235.622 233.459V376.136H345.436V262.636H301.122Z" fill="#FF9B48" stroke="black" stroke-width="0.2"/>
<path d="M456.122 263.136L345.622 262.636V376.136H346.622H347.622L499.622 376.509V263.136H456.122Z" fill="#FF9B48" stroke="black" stroke-width="0.2"/>
<path d="M303.122 527.136H345.122H345.354V376.136H235.622V397.636L233.622 403.136L232.122 404.636L229.622 401.636L227.622 400.136L223.622 399.136L220.122 401.136L220.622 403.136L221.122 404.636V408.136L221.622 413.636V418.136L223.122 421.136L223.622 423.636V427.136L222.122 430.136L223.122 433.136L223.622 435.136L226.122 439.136L227.622 443.636L229.122 445.636L233.122 449.136V450.636L230.122 453.136L226.122 455.636L224.622 458.136V466.136L223.122 470.636L221.122 471.636L220.122 473.136L221.122 476.136L222.122 482.636L224.622 483.636L226.122 487.636L220.622 491.136L220.122 491.636L218.622 497.136L303.122 527.136Z" fill="#FF9B48" stroke="black" stroke-width="0.2"/>
<path d="M201.622 13.136H197.122H191.122L191.622 47.636L197.122 54.636L198.122 56.636V60.636L198.622 64.636L201.622 67.636L204.622 70.136L208.122 72.136L212.122 76.636L213.122 77.636L215.122 81.136L217.122 85.636L221.122 87.136L223.122 90.136H228.622L229.122 91.636L226.122 104.636L224.622 107.136L226.122 111.136L227.122 113.636L224.622 116.636V119.636L223.622 123.636L226.122 126.136L228.622 127.636L233.122 125.136L235.122 123.136L237.622 120.136L240.622 122.636L241.622 127.636L242.122 132.136L243.622 134.136L246.622 138.136L248.122 141.136V146.136L250.122 148.636H253.622L255.622 151.136L257.122 154.136L257.622 157.136L258.122 159.636L261.122 161.636L262.622 160.636L264.622 158.636L266.622 158.136L269.622 159.136L272.622 158.034L274.122 155.636L278.122 156.636L282.122 156.136L285.122 157.136L288.622 156.136H290.622L291.622 155.636L290.622 153.136L292.622 151.636L294.122 151.136L295.622 152.136L298.122 156.136L301.122 158.034V142.136L455.122 142.636L455.443 13.136H201.622Z" fill="#FF9B48" stroke="black" stroke-width="0.2"/>
<path d="M455.622 263.136L455.122 142.636L301.122 142.136V262.636L455.622 263.136Z" fill="#FF9B48" stroke="black" stroke-width="0.2"/>
<path d="M477.374 510.136L478.374 376.636L345.622 376.136V527.136H363.874V515.636H401.874L400.374 514.136L398.874 512.636V509.636L477.374 510.136Z" fill="#FF9B48" stroke="black" stroke-width="0.2"/>
<path d="M414.682 740.141L410.004 742.145L408.948 744.818L407.331 746.154V748.367L408.668 749.495L410.004 750.164L412.197 750.832L414.013 752.836L416.018 753.505L418.691 753.709L421.364 754.841L422.7 753.505C423.235 752.97 423.368 753.282 423.368 753.505L424.705 752.836V751.5L426.041 750.832V748.367V746.823L426.709 746.154L427.377 744.818V742.145L426.041 740.141L424.705 738.804L423.368 738.136L421.364 738.804H420.027L418.691 739.472L418.023 738.804H416.018L414.682 740.141Z" fill="#FF9B48" stroke="black" stroke-width="0.2"/>
<path d="M392.631 751.5L391.294 752.168L390.733 752.73L390.626 752.836L389.958 753.505L389.29 754.173L388.622 755.509V757.514L389.958 758.182L390.626 758.85V757.514L391.294 756.846L391.963 755.509L392.631 754.841L394.636 754.173L395.304 753.505V752.168V750.832L395.972 749.495V748.827H394.636L393.967 750.164V750.832L392.631 751.5Z" fill="#FF9B48"/>
<path d="M390.626 752.836L390.733 752.73M390.733 752.73L391.294 752.168L392.631 751.5L393.967 750.832V750.164L394.636 748.827H395.972V749.495L395.304 750.832V752.168V753.505L394.636 754.173L392.631 754.841L391.963 755.509L391.294 756.846L390.626 757.514V758.85L389.958 758.182L388.622 757.514V755.509L389.29 754.173L389.958 753.505L390.733 752.73Z" stroke="black" stroke-width="0.2"/>
<path d="M571.041 825.002L567.032 824.334L565.695 825.671V827.675L566.364 830.348L568.368 834.357L569.036 835.694L567.032 838.366L564.359 841.707L562.354 842.376L559.682 845.048L559.013 847.053L559.682 848.39L560.35 849.726V851.062H561.686L563.023 853.735V857.744L565.027 859.749L565.695 865.095L565.027 874.449L566.364 877.79L569.705 879.127L573.714 881.131L575.05 883.136L576.387 881.131L577.723 880.463L579.059 877.79L579.728 875.786L581.732 873.781L583.069 873.113L585.073 871.777L587.078 871.108L589.751 868.436L590.419 867.767H593.76H597.101L599.106 865.763L602.447 864.426L604.451 863.09L609.797 858.413L610.465 856.408L609.129 855.072H607.792L605.119 853.735L603.115 851.062L602.447 847.721H598.437V842.376L595.096 838.366L590.419 835.025L583.737 831.684L578.391 830.348L573.046 827.675L571.041 825.002Z" fill="#FF9B48" stroke="black" stroke-width="0.2"/>
<path d="M540.972 794.265L538.299 792.26L536.963 791.592H535.626L533.622 793.597V796.27L534.29 797.606L536.294 800.279L539.636 802.284L540.972 801.615L542.308 802.284L542.977 802.952L543.645 806.293L542.977 808.966L544.313 810.302L546.318 810.97L549.659 810.302L553.668 808.966H556.341L559.013 807.629L562.354 804.956V802.284L559.013 800.279L556.341 799.611L554.336 797.606L552.331 795.601L548.99 794.933L546.986 795.601L544.313 796.938H542.308L540.972 794.265Z" fill="#FF9B48"/>
<path d="M535.626 811.638H534.29L533.622 812.307V812.975V813.643L534.29 814.311L534.958 813.643L535.626 814.311L536.294 813.643H537.631H538.967H539.636L538.967 812.975L539.636 812.307V810.97L538.299 810.302H536.963L535.626 811.638Z" fill="#FF9B48"/>
<path d="M540.972 794.265L538.299 792.26L536.963 791.592H535.626L533.622 793.597V796.27L534.29 797.606L536.294 800.279L539.636 802.284L540.972 801.615L542.308 802.284L542.977 802.952L543.645 806.293L542.977 808.966L544.313 810.302L546.318 810.97L549.659 810.302L553.668 808.966H556.341L559.013 807.629L562.354 804.956V802.284L559.013 800.279L556.341 799.611L554.336 797.606L552.331 795.601L548.99 794.933L546.986 795.601L544.313 796.938H542.308L540.972 794.265Z" stroke="black" stroke-width="0.2"/>
<path d="M535.626 811.638H534.29L533.622 812.307V812.975V813.643L534.29 814.311L534.958 813.643L535.626 814.311L536.294 813.643H537.631H538.967H539.636L538.967 812.975L539.636 812.307V810.97L538.299 810.302H536.963L535.626 811.638Z" stroke="black" stroke-width="0.2"/>
<path d="M520.926 795.601L519.589 796.27L518.921 796.938V798.274L520.258 798.942L520.926 799.611L521.594 800.947H520.926V801.615L521.594 802.284V803.62L522.262 804.288H524.267L527.608 802.952L528.944 800.947L528.276 799.611L526.271 797.606L524.267 796.27L522.262 795.601H520.926Z" fill="#FF9B48" stroke="black" stroke-width="0.2"/>
<path d="M524.935 784.242L529.612 782.906H530.281L529.612 783.574L530.281 784.91L530.949 785.578L531.617 786.915L532.285 788.251L530.281 788.919H527.608L524.935 788.251H523.599H521.594L519.589 789.588L516.917 790.256H513.576L510.903 788.919L508.23 786.915V785.578L508.898 784.91H512.239L515.58 785.578L517.585 784.91L518.253 783.574H518.921L519.589 784.242L521.594 784.91L524.935 784.242Z" fill="#FF9B48" stroke="black" stroke-width="0.2"/>
<path d="M474.82 767.537H469.474H468.806L470.811 769.542V771.546L471.479 772.214L472.815 773.551V774.887L474.82 776.224V777.56L475.488 779.565H478.161L480.834 778.896V777.56V776.224V775.555L481.502 776.224H482.17H482.838L482.17 776.892L481.502 777.56V778.228L482.17 779.565H483.506V778.896L484.175 778.228L484.843 778.896L485.511 779.565L486.847 780.901L487.516 781.569H488.184H488.852L490.188 780.901H490.857L491.525 780.233L492.193 780.901L493.53 780.233L494.198 779.565V778.896L492.861 778.228L492.193 776.892L491.525 775.555L490.857 774.887V773.551V772.883H490.188L489.52 772.214V772.883V773.551V774.219V774.887L488.852 774.219L488.184 773.551L487.516 772.214H486.847L486.179 770.878L486.847 770.21V769.542L486.179 768.205L484.843 767.537L483.506 765.532V764.196L481.502 761.523L479.497 762.191L475.488 766.869L474.82 767.537Z" fill="#FF9B48" stroke="black" stroke-width="0.2"/>
<path d="M50.002 792.949L47.2369 795.715H45.6569H43.2869V797.69L45.6569 798.875L48.027 801.245H51.977L54.7421 800.06V795.715L51.977 792.949H50.002Z" fill="#FF9B48" stroke="black" stroke-width="0.2"/>
<path d="M62.2472 865.631L61.4572 867.606L59.4822 868.396L60.6672 869.581V870.766H62.2472L63.0372 869.581L64.6173 868.396H65.8023L66.9873 867.606H69.7524L70.1474 866.421L69.7524 863.656L67.7773 862.866L66.1973 863.656L64.6173 864.841H62.2472V865.631Z" fill="#FF9B48" stroke="black" stroke-width="0.2"/>
<path d="M44.0769 881.826L41.3118 882.616L40.336 883.592L40.1268 883.801L39.7318 884.196H40.5218L41.3118 883.801L44.0769 882.616L46.0519 881.826L48.422 880.246L50.002 879.456C50.397 879.061 51.029 878.271 50.397 878.271H49.212V876.691H48.422V875.901H45.6569L45.2619 876.691L45.6569 878.271L46.4469 879.456H45.6569L44.8669 880.641L44.0769 881.826Z" fill="#FF9B48"/>
<path d="M40.1268 883.801L40.336 883.592M40.336 883.592L41.3118 882.616L44.0769 881.826L44.8669 880.641L45.6569 879.456H46.4469L45.6569 878.271L45.2619 876.691L45.6569 875.901H48.422V876.691H49.212V878.271C49.3437 878.271 49.765 878.271 50.397 878.271C51.029 878.271 50.397 879.061 50.002 879.456L48.422 880.246L46.0519 881.826L44.0769 882.616L41.3118 883.801L40.5218 884.196H39.7318L40.336 883.592Z" stroke="black" stroke-width="0.2"/>
<path d="M33.0167 884.591C32.6217 884.196 32.6217 887.356 32.6217 887.751L33.4117 888.146L34.9917 886.171H35.7817L39.3368 882.616C39.4685 882.353 39.7318 881.747 39.7318 881.431C39.7318 881.115 38.6785 880.773 38.1518 880.641L36.1767 881.826V884.196C36.1767 884.512 34.5967 884.328 33.8067 884.196C33.675 884.46 33.3327 884.907 33.0167 884.591Z" fill="#FF9B48" stroke="black" stroke-width="0.2"/>
<path d="M132.164 836.005L133.349 839.56L134.139 839.955L135.719 838.375L136.904 836.795V838.375L134.929 841.14L136.114 841.535L138.484 839.56L138.879 837.585L140.064 836.795L141.249 838.375L141.644 836.795L142.434 834.82C143.092 834.557 144.488 834.188 144.804 834.82C145.12 835.452 145.199 834.03 145.199 833.24L143.619 832.845L144.804 832.055L145.989 832.845L146.779 832.055L148.754 830.87L146.384 830.475C146.384 829.685 146.305 827.947 145.989 827.315C145.673 826.683 144.277 826.788 143.619 826.92L142.434 825.735L147.174 824.55L147.569 822.575L148.359 822.97H149.544L148.754 820.995H146.779L146.384 819.415L147.174 817.835H146.384L144.804 819.415L143.619 821.39L142.434 823.76L141.249 824.945L142.434 826.92H141.249V828.895H138.879V826.92L136.904 828.105V829.685V832.055L135.719 830.475L133.744 830.87L131.769 832.055L130.583 834.82L132.164 836.005Z" fill="#FF9B48" stroke="black" stroke-width="0.2"/>
<path d="M100.168 614.801H109.253C110.201 614.801 114.915 607.691 117.153 604.136L122.288 606.506H125.843L122.288 611.641V614.801L125.053 613.616L128.213 609.271L132.164 611.641V616.381L134.929 614.801L138.484 613.616H147.964V616.381V619.146L151.519 621.516L155.469 624.676L158.629 621.516L159.814 623.886L164.159 621.516L171.664 623.886V626.651L173.639 624.676L178.774 626.651L185.49 628.626L194.97 630.602L198.92 632.182H201.685L203.265 631.392H205.635L207.215 629.416L208.4 630.207L210.375 629.416L212.35 630.602L214.72 632.182L215.905 632.972L217.485 634.552L218.67 635.737L220.25 636.132L222.225 636.527L223.41 638.107L223.805 638.897L224.2 638.502H225.78V794.135L228.94 795.32L229.73 794.135L232.89 795.715L234.865 793.74H239.211L238.421 797.295L241.581 799.665L242.371 801.64L249.481 808.75L250.271 813.095L255.011 809.935H256.986L257.381 805.985L259.356 804.8L258.171 804.01L264.491 801.245L267.651 804.405L266.861 805.985L267.651 807.17V807.96L269.626 808.75L272.786 813.885L275.946 815.86L278.316 819.02L277.526 819.81L286.216 834.82L285.031 836.4L287.006 836.795V839.165L288.586 839.955V842.325H290.561L298.067 846.671V848.251H300.668L301.227 851.016L300.437 852.596L301.622 858.521L299.252 862.866L297.277 864.446V865.236L296.092 864.841L295.302 864.446V860.891L294.117 860.101L295.697 858.521L295.302 857.336L295.697 855.756L295.302 854.571V852.201L294.117 851.806L294.512 853.386L294.907 855.756L294.117 858.916H292.141L291.351 858.126L289.376 859.311V856.546L290.166 854.966L289.771 853.386L290.166 851.411H289.376V853.386L287.796 855.756L286.216 854.571V852.991L287.401 851.806V849.831L288.191 849.041L287.006 847.856L285.821 846.671L284.636 847.461L286.216 848.251L286.611 849.831L285.426 850.621L283.846 848.251L283.451 847.066L284.636 845.486L285.426 843.51L285.031 842.325L283.846 842.72L281.871 843.51L279.896 844.3H278.316L277.131 844.695V843.115L276.341 842.325L275.946 844.3L275.551 845.486L275.946 847.856L274.761 849.831L273.971 849.041L273.576 849.831L272.786 847.066L273.971 846.671L274.366 844.695L272.786 842.325V840.745L274.366 840.35L275.551 841.535L275.946 840.745V839.56L274.761 837.98L275.946 836.4L278.711 837.98L279.896 837.585L280.686 839.165L282.266 839.955L282.661 841.535L283.451 842.325L283.846 841.93L284.241 840.745L282.661 839.56V837.98L280.686 836.795L279.106 835.61L278.316 835.215V834.425L279.896 833.635C279.633 833.635 279.027 833.556 278.711 833.24L277.131 831.66V829.685L276.736 828.895H278.316L277.921 828.105L276.736 827.315L275.946 826.92L275.156 825.34L274.366 823.365V821.785H273.971L273.576 822.575H272.786L272.391 823.365L273.576 823.76L274.366 825.735L275.156 826.92V828.5H274.366V827.315L273.971 826.525L273.576 825.735L273.181 826.92V828.105L273.971 828.895C274.287 829.211 274.893 829.554 275.156 829.685C275.288 830.739 275.472 833.082 275.156 834.03C274.84 834.978 272.654 836.795 271.601 837.585H270.608V835.61L271.996 834.425L271.601 833.24L270.811 832.055L270.021 830.87V828.338L269.626 827.315V824.155L268.836 822.97V821.785H269.626L270.608 822.97L270.811 822.575L270.608 821.785L270.416 820.6L268.441 818.23L268.046 817.045V815.465H267.256V813.885L266.071 813.095L266.466 810.725L265.281 811.12V812.305L265.676 813.885L266.071 815.86L266.466 817.835V818.625L267.256 820.205L267.651 821.39C267.651 821.785 267.572 822.575 267.256 822.575H265.676L264.886 820.995L262.911 820.205H262.121L261.331 818.625C261.463 818.362 261.647 817.677 261.331 817.045C261.015 816.413 260.673 815.202 260.541 814.675C260.409 814.938 260.067 815.465 259.751 815.465C259.435 815.465 258.566 815.202 258.171 815.07L257.381 813.885C256.459 813.49 254.695 812.779 255.011 813.095C255.327 813.411 255.669 814.017 255.801 814.28L258.566 816.255L259.751 817.835L260.146 819.415V821.39L258.566 821.785H257.381L256.196 822.575L253.826 820.205H252.246L247.506 815.07V813.49L245.531 811.515L243.161 810.725C242.766 810.198 241.818 809.145 241.186 809.145C240.396 809.145 238.421 807.17 238.025 807.17C237.709 807.17 236.577 806.643 236.05 806.38L234.47 805.195L235.655 804.01L236.445 802.825L235.655 801.245V799.665L236.84 798.875L236.445 798.085L234.865 798.875V800.85L230.52 802.825H228.545L226.175 801.64L223.41 800.06L224.595 798.085L224.99 797.295L223.805 796.505V797.295L222.225 798.875L221.04 799.27L218.67 798.48L216.695 798.085L215.905 797.69L210.52 797.295C210.472 797.558 210.296 798.085 209.98 798.085H207.61L206.82 798.875H205.635L203.265 796.505L201.29 796.11L200.5 795.32L198.92 794.53L199.315 793.345L199.71 792.555V790.579L199.315 790.184L198.13 791.765L197.735 793.345C197.603 793.871 197.261 794.846 196.945 794.53C196.629 794.214 195.233 793.608 194.575 793.345L192.205 792.555V791.765L193.39 790.579C193.785 790.448 194.417 790.105 193.785 789.789L191.415 788.604L189.045 788.209L187.86 788.604L186.28 788.209L187.86 787.419L186.675 785.839L187.07 784.259V783.074L185.49 784.259L184.304 785.049H182.724L181.144 786.234C181.144 786.103 181.065 785.839 180.749 785.839C180.433 785.839 179.828 786.629 179.564 787.024L178.774 786.629L177.589 787.419H176.799L177.589 785.444L178.774 783.864L179.169 782.284V781.099L176.799 784.259L175.219 786.234L173.639 787.419L173.244 788.604L174.429 788.209L175.219 788.999L176.009 788.604L176.799 789.789L175.219 790.579L174.429 791.369L175.219 792.16L176.404 791.369L177.194 790.579L177.567 791.325C177.583 791.31 177.589 791.332 177.589 791.369L177.567 791.325C177.526 791.363 177.422 791.646 177.194 792.555C176.878 793.819 176.009 794.398 175.614 794.53L176.404 795.715C176.536 795.846 176.799 796.189 176.799 796.505C176.799 796.821 176.009 797.163 175.614 797.295L175.219 798.085L173.639 799.665C172.981 799.533 171.506 799.27 170.874 799.27C170.242 799.27 169.294 798.743 168.899 798.48L167.714 798.085V800.06L165.739 801.64C166.002 801.771 166.371 802.114 165.739 802.43C165.107 802.746 164.422 802.298 164.159 802.035C164.291 802.298 164.475 802.904 164.159 803.22L162.579 804.8L161.789 805.59L160.999 804.405L160.209 805.59L158.629 806.38L157.049 807.96C157.049 808.223 156.97 808.829 156.654 809.145C156.338 809.461 155.206 809.803 154.679 809.935L153.889 809.145L152.309 809.54L151.914 810.33L150.334 809.145V807.565H151.124L152.309 805.59C152.572 805.59 153.178 805.511 153.494 805.195C153.81 804.879 154.416 804.536 154.679 804.405L155.469 803.615L156.259 802.035H155.469L154.284 802.43L153.494 802.825L152.309 803.615L150.729 801.64L151.519 800.06L151.914 798.48L153.494 795.715L153.889 794.135L154.679 793.345V790.579L153.889 789.789L154.679 788.209L155.469 787.814H156.259L157.444 786.234L159.419 784.654L160.209 784.259L160.604 783.864L161.394 784.654L161.789 785.444L162.184 785.839L162.974 785.444L164.159 785.049H165.739C166.055 785.049 166.661 785.313 166.924 785.444L168.504 785.839L168.899 785.444L166.134 784.259L164.949 783.864L163.764 782.679H162.974L163.764 781.889C163.896 781.626 164.001 781.099 163.369 781.099C162.737 781.099 162.052 780.573 161.789 780.309L160.209 781.099V779.914L159.814 778.729H159.419C159.551 779.256 159.735 780.309 159.419 780.309C159.103 780.309 156.654 781.889 155.469 782.679L153.494 784.259L151.124 787.024L151.519 788.604L150.729 788.999H149.544L148.359 790.579L147.964 791.765L147.174 792.555L147.964 792.95L147.569 794.135L145.594 795.715L144.804 795.32H144.014L143.619 795.715C143.75 795.715 144.093 795.794 144.409 796.11C144.725 796.426 145.33 796.768 145.594 796.9L145.199 799.665L144.409 800.06H143.619L142.434 800.85C142.565 801.245 142.75 802.114 142.434 802.43L141.644 803.22L140.854 803.615L139.669 803.22C139.142 803.483 138.01 804.168 137.694 804.8C137.378 805.432 137.299 806.116 137.299 806.38L135.324 808.75V809.935L134.534 810.33V812.305L135.324 811.515H138.484L140.459 813.885V815.465L137.299 817.835L134.534 820.995V823.76L132.164 824.55L129.003 825.34L128.213 826.92L125.843 829.29H124.658C124.263 829.949 123.394 831.344 123.078 831.66C122.762 831.976 121.103 832.582 120.313 832.845L119.128 834.03L120.313 834.82L117.153 839.165L115.573 839.56L114.783 839.955L113.598 841.14H112.018L110.833 841.93V843.51H108.463L108.068 844.695C108.595 844.564 109.569 844.379 109.253 844.695L108.463 845.486H105.698L104.908 846.276C105.04 846.276 105.382 846.434 105.698 847.066C106.093 847.856 105.698 848.251 105.698 848.646V850.226C105.303 849.831 104.355 849.278 103.723 850.226C103.091 851.174 101.353 852.201 100.563 852.596H98.1929L97.0079 853.386H95.8229H93.8478V855.756H91.4778L89.8977 857.731H87.5277V858.521H83.9726L84.3676 857.336L83.9726 856.546L81.9976 857.731V859.706C81.8659 860.232 81.5236 861.365 81.2076 861.681C80.8916 861.997 80.0226 861.812 79.6276 861.681L78.8375 862.471H77.2575V861.681L76.4675 859.706L75.6775 861.681L76.4675 862.471L75.6775 863.656H73.3074L72.5174 862.471L72.1224 863.656L72.5174 864.446L71.3324 865.236V864.446V862.866L71.7274 861.286H74.0974L75.6775 858.521L78.0475 855.756L81.9976 852.596L84.3676 851.411L87.1327 851.016L87.5277 851.411V852.596L88.3177 854.176V852.596L90.2927 852.991L92.2678 853.386L91.4778 852.596L90.2927 850.226L93.8478 845.486L98.5879 842.325L100.563 841.14H102.538H103.723V839.165L104.908 836.795L106.883 834.03L110.043 831.66V829.29L110.833 823.76L112.808 822.575L110.833 820.995L112.808 817.045L114.783 814.675H112.018L108.068 817.045H106.093L104.908 814.675V813.095H103.723L102.538 816.255V817.835V819.415L101.353 820.205L100.168 818.23L97.7979 814.28L96.6129 813.49L95.0328 814.675L92.6628 813.49L92.2678 811.515H91.4778L88.3177 814.28H87.1327C86.211 814.675 84.3676 815.623 84.3676 816.255C84.3676 816.887 82.7876 817.835 81.9976 818.23L80.4176 817.835L81.9976 815.465V812.305L82.3926 811.12L80.4176 809.935V807.565L81.9976 804.8L79.2325 799.27L78.0475 796.9L77.2575 794.135H76.0725L76.8625 796.11V798.085L75.2825 799.27C74.6241 799.27 73.1494 799.428 72.5174 800.06C70.6214 801.324 67.2507 801.113 65.8023 800.85V799.665L65.0123 799.27L63.4322 797.295L61.8522 794.53L59.4822 794.135L58.6922 792.95V791.765L57.1121 790.579L59.4822 788.604V787.024L60.6672 786.234L59.4822 785.444L58.6922 784.654L60.6672 784.259L58.6922 782.679H57.1121H55.9271L55.1371 781.889L54.3471 780.309L52.7671 779.914L53.1621 778.334L52.7671 777.149H51.187V775.569L52.7671 774.779L54.3471 775.569L55.1371 774.779V773.989H54.3471H52.7671L51.977 772.409H53.1621H54.3471V771.619V768.459L57.1121 765.299L59.4822 760.559H61.8522L62.6422 757.794H60.6672V755.424L62.6422 754.239L63.8273 755.424V756.609C64.2223 756.346 65.0123 755.977 65.0123 756.609V758.979L65.8023 760.559L66.9873 764.114V761.744L66.5923 758.979V756.609L66.9873 755.424L65.0123 754.239L63.8273 752.659V750.684H66.9873L68.9624 751.869L69.7524 753.449L70.5424 754.239H73.3074L76.8625 749.894L78.4425 747.129L81.9976 747.919H85.5527L87.9227 745.154L88.3177 741.204L87.9227 738.439L87.1327 734.883L84.7626 732.513L84.3676 731.723L84.7626 731.328H85.5527L88.3177 729.748L87.9227 728.168V726.193L88.3177 725.403H87.1327L85.5527 724.613L84.3676 726.193L83.9726 726.983H82.7876L80.8126 727.773L80.1956 727.465C80.4071 727.785 80.2644 728.27 79.2325 728.958C77.3365 730.222 76.0725 731.328 75.6775 731.723L74.4925 733.698L73.3074 730.538L70.5424 728.958L72.5174 731.723L71.7274 732.513L69.3574 730.933L65.0123 730.538L60.6672 731.328L57.9021 731.723L53.9521 730.538L50.002 728.958L49.607 724.218L47.2369 721.848L48.817 720.663C48.5536 720.005 48.185 718.767 48.817 719.083C49.449 719.399 50.6603 718.688 51.187 718.293C50.5287 718.161 49.054 717.898 48.422 717.898C47.79 717.898 45.2619 717.108 44.0769 716.713L41.3118 715.133L40.1268 714.343L38.5468 713.553L39.3368 711.578L40.5218 710.788H41.3118L41.7068 709.603L42.8919 708.418L44.8669 708.813L45.6569 708.023L46.0519 706.048L50.397 703.283L51.977 704.468L53.9521 704.863L55.5321 703.678L53.9521 702.888V701.308L55.5321 699.728L56.7171 699.333L57.5071 698.938L59.0872 699.333L60.6672 698.148L61.8522 696.963H62.6422L63.8273 696.173H65.8023L67.3823 695.778L68.1723 696.963L68.5673 697.358L68.1723 698.148V698.938H67.3823V703.283L68.5673 704.863L76.0725 705.258L76.4675 705.653L78.4425 704.863L81.9976 706.838L82.7876 704.468L83.1826 702.098L85.5527 702.888L87.1327 702.098L86.3427 701.308L83.1826 699.728L81.9976 699.333H80.8126V698.148L81.9976 697.358L83.1826 698.148H83.9726H85.5527L87.9227 698.938L89.8977 700.518L91.8728 699.333L92.6628 698.148C92.3995 698.016 91.8728 697.595 91.8728 696.963C91.8728 696.331 90.8194 696.173 90.2927 696.173L89.5027 695.778L87.1327 696.173L85.5527 695.778L84.7626 694.988L83.9726 696.963L81.2076 694.593V691.828L82.7876 689.458L81.2076 688.273L78.8375 688.668L76.4675 689.458L75.2825 688.273H71.3324L69.7524 687.483H68.5673V686.693H69.7524L68.5673 685.508H68.1723C67.5403 685.508 67.909 683.137 68.1723 681.952L65.8023 679.187L65.0123 676.817L61.8522 675.632L56.3221 669.707L53.9521 668.522L51.977 666.942V665.362L49.212 663.782L50.397 661.412V654.302H59.0872L65.0123 653.117L70.5424 647.982L72.9124 642.057L73.7024 636.922L76.4675 632.972L77.2575 630.602H78.0475L80.4176 626.256L81.9976 627.046L85.1577 626.256L88.3177 624.676L91.8728 621.121L92.2678 620.331H94.2428V621.121L93.0578 622.306L94.2428 623.096C94.1112 623.36 93.7688 623.965 93.4528 624.281C93.1368 624.597 93.0578 625.203 93.0578 625.466H95.4278V620.331L94.2428 618.751L94.6378 617.566L95.4278 616.381L97.7979 614.801H98.9829L99.3779 615.986H100.168V614.801Z" fill="#FF9B48"/>
<path d="M100.168 614.801C102.801 614.801 108.305 614.801 109.253 614.801C110.201 614.801 114.915 607.691 117.153 604.136L122.288 606.506H125.843L122.288 611.641V614.801L125.053 613.616L128.213 609.271L132.164 611.641V616.381L134.929 614.801L138.484 613.616H147.964V616.381V619.146L151.519 621.516L155.469 624.676L158.629 621.516L159.814 623.886L164.159 621.516L171.664 623.886V626.651L173.639 624.676L178.774 626.651L185.49 628.626L194.97 630.602L198.92 632.182H201.685L203.265 631.392H205.635L207.215 629.416L208.4 630.207L210.375 629.416L212.35 630.602L214.72 632.182L215.905 632.972L217.485 634.552L218.67 635.737L220.25 636.132L222.225 636.527L223.41 638.107L223.805 638.897L224.2 638.502H225.78V794.135L228.94 795.32L229.73 794.135L232.89 795.715L234.865 793.74H239.211L238.421 797.295L241.581 799.665L242.371 801.64L249.481 808.75L250.271 813.095L255.011 809.935H256.986L257.381 805.985L259.356 804.8L258.171 804.01L264.491 801.245L267.651 804.405L266.861 805.985L267.651 807.17V807.96L269.626 808.75L272.786 813.885L275.946 815.86L278.316 819.02L277.526 819.81L286.216 834.82L285.031 836.4L287.006 836.795V839.165L288.586 839.955V842.325H290.561L298.067 846.671V848.251H300.668L301.227 851.016L300.437 852.596L301.622 858.521L299.252 862.866L297.277 864.446V865.236L296.092 864.841L295.302 864.446V860.891L294.117 860.101L295.697 858.521L295.302 857.336L295.697 855.756L295.302 854.571V852.201L294.117 851.806L294.512 853.386L294.907 855.756L294.117 858.916H292.141L291.351 858.126L289.376 859.311V856.546L290.166 854.966L289.771 853.386L290.166 851.411H289.376V853.386L287.796 855.756L286.216 854.571V852.991L287.401 851.806V849.831L288.191 849.041L287.006 847.856L285.821 846.671L284.636 847.461L286.216 848.251L286.611 849.831L285.426 850.621L283.846 848.251L283.451 847.066L284.636 845.486L285.426 843.51L285.031 842.325L283.846 842.72L281.871 843.51L279.896 844.3H278.316L277.131 844.695V843.115L276.341 842.325L275.946 844.3L275.551 845.486L275.946 847.856L274.761 849.831L273.971 849.041L273.576 849.831L272.786 847.066L273.971 846.671L274.366 844.695L272.786 842.325V840.745L274.366 840.35L275.551 841.535L275.946 840.745V839.56L274.761 837.98L275.946 836.4L278.711 837.98L279.896 837.585L280.686 839.165L282.266 839.955L282.661 841.535L283.451 842.325L283.846 841.93L284.241 840.745L282.661 839.56V837.98L280.686 836.795L279.106 835.61L278.316 835.215V834.425L279.896 833.635C279.633 833.635 279.027 833.556 278.711 833.24C278.395 832.924 277.526 832.055 277.131 831.66V829.685L276.736 828.895H278.316L277.921 828.105L276.736 827.315L275.946 826.92L275.156 825.34L274.366 823.365V821.785H273.971L273.576 822.575H272.786L272.391 823.365L273.576 823.76L274.366 825.735L275.156 826.92V828.5H274.366V827.315L273.971 826.525L273.576 825.735L273.181 826.92V828.105C273.313 828.237 273.655 828.579 273.971 828.895C274.287 829.211 274.893 829.554 275.156 829.685C275.288 830.739 275.472 833.082 275.156 834.03C274.84 834.978 272.654 836.795 271.601 837.585H270.608V835.61L271.996 834.425L271.601 833.24L270.811 832.055L270.021 830.87V828.338L269.626 827.315V824.155L268.836 822.97V821.785H269.626L270.608 822.97L270.811 822.575L270.608 821.785L270.416 820.6L268.441 818.23L268.046 817.045V815.465H267.256V813.885L266.071 813.095L266.466 810.725L265.281 811.12V812.305L265.676 813.885L266.071 815.86L266.466 817.835V818.625L267.256 820.205L267.651 821.39C267.651 821.785 267.572 822.575 267.256 822.575C266.94 822.575 266.071 822.575 265.676 822.575L264.886 820.995L262.911 820.205H262.121L261.331 818.625C261.463 818.362 261.647 817.677 261.331 817.045C261.015 816.413 260.673 815.202 260.541 814.675C260.409 814.938 260.067 815.465 259.751 815.465C259.435 815.465 258.566 815.202 258.171 815.07L257.381 813.885C256.459 813.49 254.695 812.779 255.011 813.095C255.327 813.411 255.669 814.017 255.801 814.28L258.566 816.255L259.751 817.835L260.146 819.415V821.39L258.566 821.785H257.381L256.196 822.575L253.826 820.205H252.246L247.506 815.07V813.49L245.531 811.515L243.161 810.725C242.766 810.198 241.818 809.145 241.186 809.145C240.396 809.145 238.421 807.17 238.025 807.17C237.709 807.17 236.577 806.643 236.05 806.38L234.47 805.195L235.655 804.01L236.445 802.825L235.655 801.245V799.665L236.84 798.875L236.445 798.085L234.865 798.875V800.85L230.52 802.825H228.545L226.175 801.64L223.41 800.06L224.595 798.085L224.99 797.295L223.805 796.505V797.295L222.225 798.875L221.04 799.27L218.67 798.48L216.695 798.085L215.905 797.69L210.52 797.295C210.472 797.558 210.296 798.085 209.98 798.085C209.664 798.085 208.268 798.085 207.61 798.085L206.82 798.875H205.635L203.265 796.505L201.29 796.11L200.5 795.32L198.92 794.53L199.315 793.345L199.71 792.555V790.579L199.315 790.184L198.13 791.765L197.735 793.345C197.603 793.871 197.261 794.846 196.945 794.53C196.629 794.214 195.233 793.608 194.575 793.345L192.205 792.555V791.765L193.39 790.579C193.785 790.448 194.417 790.105 193.785 789.789C193.153 789.473 191.941 788.868 191.415 788.604L189.045 788.209L187.86 788.604L186.28 788.209L187.86 787.419L186.675 785.839L187.07 784.259V783.074L185.49 784.259L184.304 785.049H182.724L181.144 786.234C181.144 786.103 181.065 785.839 180.749 785.839C180.433 785.839 179.828 786.629 179.564 787.024L178.774 786.629L177.589 787.419H176.799L177.589 785.444L178.774 783.864L179.169 782.284V781.099L176.799 784.259L175.219 786.234L173.639 787.419L173.244 788.604L174.429 788.209L175.219 788.999L176.009 788.604L176.799 789.789L175.219 790.579L174.429 791.369L175.219 792.16L176.404 791.369L177.194 790.579L177.589 791.369C177.589 791.238 177.51 791.29 177.194 792.555C176.878 793.819 176.009 794.398 175.614 794.53L176.404 795.715C176.536 795.846 176.799 796.189 176.799 796.505C176.799 796.821 176.009 797.163 175.614 797.295L175.219 798.085L173.639 799.665C172.981 799.533 171.506 799.27 170.874 799.27C170.242 799.27 169.294 798.743 168.899 798.48L167.714 798.085V800.06L165.739 801.64C166.002 801.771 166.371 802.114 165.739 802.43C165.107 802.746 164.422 802.298 164.159 802.035C164.291 802.298 164.475 802.904 164.159 803.22C163.843 803.536 162.974 804.405 162.579 804.8L161.789 805.59L160.999 804.405L160.209 805.59L158.629 806.38L157.049 807.96C157.049 808.223 156.97 808.829 156.654 809.145C156.338 809.461 155.206 809.803 154.679 809.935L153.889 809.145L152.309 809.54L151.914 810.33L150.334 809.145V807.565H151.124L152.309 805.59C152.572 805.59 153.178 805.511 153.494 805.195C153.81 804.879 154.416 804.536 154.679 804.405L155.469 803.615L156.259 802.035H155.469L154.284 802.43L153.494 802.825L152.309 803.615L150.729 801.64L151.519 800.06L151.914 798.48L153.494 795.715L153.889 794.135L154.679 793.345V790.579L153.889 789.789L154.679 788.209L155.469 787.814H156.259L157.444 786.234L159.419 784.654L160.209 784.259L160.604 783.864L161.394 784.654L161.789 785.444L162.184 785.839L162.974 785.444L164.159 785.049C164.554 785.049 165.423 785.049 165.739 785.049C166.055 785.049 166.661 785.313 166.924 785.444L168.504 785.839L168.899 785.444L166.134 784.259L164.949 783.864L163.764 782.679H162.974L163.764 781.889C163.896 781.626 164.001 781.099 163.369 781.099C162.737 781.099 162.052 780.573 161.789 780.309L160.209 781.099V779.914L159.814 778.729H159.419C159.551 779.256 159.735 780.309 159.419 780.309C159.103 780.309 156.654 781.889 155.469 782.679L153.494 784.259L151.124 787.024L151.519 788.604L150.729 788.999H149.544L148.359 790.579L147.964 791.765L147.174 792.555L147.964 792.95L147.569 794.135L145.594 795.715L144.804 795.32H144.014L143.619 795.715C143.75 795.715 144.093 795.794 144.409 796.11C144.725 796.426 145.33 796.768 145.594 796.9L145.199 799.665L144.409 800.06H143.619L142.434 800.85C142.565 801.245 142.75 802.114 142.434 802.43C142.118 802.746 141.775 803.088 141.644 803.22L140.854 803.615L139.669 803.22C139.142 803.483 138.01 804.168 137.694 804.8C137.378 805.432 137.299 806.116 137.299 806.38L135.324 808.75V809.935L134.534 810.33V812.305L135.324 811.515H138.484L140.459 813.885V815.465L137.299 817.835L134.534 820.995V823.76L132.164 824.55L129.003 825.34L128.213 826.92L125.843 829.29H124.658C124.263 829.949 123.394 831.344 123.078 831.66C122.762 831.976 121.103 832.582 120.313 832.845L119.128 834.03L120.313 834.82L117.153 839.165L115.573 839.56L114.783 839.955L113.598 841.14H112.018L110.833 841.93V843.51H108.463L108.068 844.695C108.595 844.564 109.569 844.379 109.253 844.695C108.937 845.011 108.595 845.354 108.463 845.486H105.698L104.908 846.276C105.04 846.276 105.382 846.434 105.698 847.066C106.093 847.856 105.698 848.251 105.698 848.646C105.698 848.962 105.698 849.831 105.698 850.226C105.303 849.831 104.355 849.278 103.723 850.226C103.091 851.174 101.353 852.201 100.563 852.596H98.1929L97.0079 853.386H95.8229H93.8478V855.756H91.4778L89.8977 857.731H87.5277V858.521H83.9726L84.3676 857.336L83.9726 856.546L81.9976 857.731V859.706C81.8659 860.232 81.5236 861.365 81.2076 861.681C80.8916 861.997 80.0226 861.812 79.6275 861.681L78.8375 862.471H77.2575V861.681L76.4675 859.706L75.6775 861.681L76.4675 862.471L75.6775 863.656H73.3074L72.5174 862.471L72.1224 863.656L72.5174 864.446L71.3324 865.236V864.446V862.866L71.7274 861.286H74.0974L75.6775 858.521L78.0475 855.756L81.9976 852.596L84.3676 851.411L87.1327 851.016L87.5277 851.411V852.596L88.3177 854.176V852.596L90.2927 852.991L92.2678 853.386L91.4778 852.596L90.2927 850.226L93.8478 845.486L98.5879 842.325L100.563 841.14H102.538H103.723V839.165L104.908 836.795L106.883 834.03L110.043 831.66V829.29L110.833 823.76L112.808 822.575L110.833 820.995L112.808 817.045L114.783 814.675H112.018L108.068 817.045H106.093L104.908 814.675V813.095H103.723L102.538 816.255V817.835V819.415L101.353 820.205L100.168 818.23L97.7979 814.28L96.6129 813.49L95.0328 814.675L92.6628 813.49L92.2678 811.515H91.4778L88.3177 814.28H87.1327C86.211 814.675 84.3676 815.623 84.3676 816.255C84.3676 816.887 82.7876 817.835 81.9976 818.23L80.4176 817.835L81.9976 815.465V812.305L82.3926 811.12L80.4176 809.935V807.565L81.9976 804.8L79.2325 799.27L78.0475 796.9L77.2575 794.135H76.0725L76.8625 796.11V798.085L75.2825 799.27C74.6241 799.27 73.1494 799.428 72.5174 800.06C70.6214 801.324 67.2507 801.113 65.8023 800.85V799.665L65.0123 799.27L63.4322 797.295L61.8522 794.53L59.4822 794.135L58.6922 792.95V791.765L57.1121 790.579L59.4822 788.604V787.024L60.6672 786.234L59.4822 785.444L58.6922 784.654L60.6672 784.259L58.6922 782.679H57.1121H55.9271L55.1371 781.889L54.3471 780.309L52.7671 779.914L53.1621 778.334L52.7671 777.149H51.187V775.569L52.7671 774.779L54.3471 775.569L55.1371 774.779V773.989H54.3471H52.7671L51.977 772.409H53.1621H54.3471V771.619V768.459L57.1121 765.299L59.4822 760.559H61.8522L62.6422 757.794H60.6672V755.424L62.6422 754.239L63.8273 755.424V756.609C64.2223 756.346 65.0123 755.977 65.0123 756.609C65.0123 757.241 65.0123 758.452 65.0123 758.979L65.8023 760.559L66.9873 764.114V761.744L66.5923 758.979V756.609L66.9873 755.424L65.0123 754.239L63.8273 752.659V750.684H66.9873L68.9624 751.869L69.7524 753.449L70.5424 754.239H73.3074L76.8625 749.894L78.4425 747.129L81.9976 747.919H85.5527L87.9227 745.154L88.3177 741.204L87.9227 738.439L87.1327 734.883L84.7626 732.513L84.3676 731.723L84.7626 731.328H85.5527L88.3177 729.748L87.9227 728.168V726.193L88.3177 725.403H87.1327L85.5527 724.613L84.3676 726.193L83.9726 726.983H82.7876L80.8126 727.773L79.2325 726.983C80.0226 727.115 81.1286 727.694 79.2325 728.958C77.3365 730.222 76.0725 731.328 75.6775 731.723L74.4925 733.698L73.3074 730.538L70.5424 728.958L72.5174 731.723L71.7274 732.513L69.3574 730.933L65.0123 730.538L60.6672 731.328L57.9021 731.723L53.9521 730.538L50.002 728.958L49.607 724.218L47.2369 721.848L48.817 720.663C48.5536 720.005 48.185 718.767 48.817 719.083C49.449 719.399 50.6603 718.688 51.187 718.293C50.5287 718.161 49.054 717.898 48.422 717.898C47.79 717.898 45.2619 717.108 44.0769 716.713L41.3118 715.133L40.1268 714.343L38.5468 713.553L39.3368 711.578L40.5218 710.788H41.3118L41.7068 709.603L42.8919 708.418L44.8669 708.813L45.6569 708.023L46.0519 706.048L50.397 703.283L51.977 704.468L53.9521 704.863L55.5321 703.678L53.9521 702.888V701.308L55.5321 699.728L56.7171 699.333L57.5071 698.938L59.0872 699.333L60.6672 698.148L61.8522 696.963H62.6422L63.8273 696.173H65.8023L67.3823 695.778L68.1723 696.963L68.5673 697.358L68.1723 698.148V698.938H67.3823V703.283L68.5673 704.863L76.0725 705.258L76.4675 705.653L78.4425 704.863L81.9976 706.838L82.7876 704.468L83.1826 702.098L85.5527 702.888L87.1327 702.098L86.3427 701.308L83.1826 699.728L81.9976 699.333H80.8126V698.148L81.9976 697.358L83.1826 698.148H83.9726H85.5527L87.9227 698.938L89.8977 700.518L91.8728 699.333L92.6628 698.148C92.3995 698.016 91.8728 697.595 91.8728 696.963C91.8728 696.331 90.8194 696.173 90.2927 696.173L89.5027 695.778L87.1327 696.173L85.5527 695.778L84.7626 694.988L83.9726 696.963L81.2076 694.593V691.828L82.7876 689.458L81.2076 688.273L78.8375 688.668L76.4675 689.458L75.2825 688.273H71.3324L69.7524 687.483H68.5673V686.693H69.7524L68.5673 685.508C68.699 685.508 68.8043 685.508 68.1723 685.508C67.5403 685.508 67.909 683.137 68.1723 681.952L65.8023 679.187L65.0123 676.817L61.8522 675.632L56.3221 669.707L53.9521 668.522L51.977 666.942V665.362L49.212 663.782L50.397 661.412V654.302H59.0872L65.0123 653.117L70.5424 647.982L72.9124 642.057L73.7024 636.922L76.4675 632.972L77.2575 630.602H78.0475L80.4176 626.256L81.9976 627.046L85.1577 626.256L88.3177 624.676L91.8728 621.121L92.2678 620.331H94.2428V621.121L93.0578 622.306L94.2428 623.096C94.1112 623.36 93.7688 623.965 93.4528 624.281C93.1368 624.597 93.0578 625.203 93.0578 625.466H95.4278V620.331L94.2428 618.751L94.6378 617.566L95.4278 616.381L97.7979 614.801H98.9829L99.3779 615.986H100.168V614.801Z" stroke="black" stroke-width="0.2"/>
<path d="M281.871 850.226L280.291 847.066L279.106 845.881H277.131V847.066L277.921 848.646L275.946 851.016L278.711 850.226H279.896L278.711 852.991L277.131 851.806L276.736 852.991L278.711 853.781L279.896 854.571L281.476 857.336L278.711 858.126L279.106 859.706L280.291 863.261L282.661 865.631V864.051L280.291 860.496L281.871 859.706L284.241 860.496V862.471L285.821 864.051L287.401 865.631V863.261V860.496L284.241 857.336V855.361L285.821 855.756C285.558 855.097 284.952 853.781 284.636 853.781C284.32 853.781 282.661 851.411 281.871 850.226Z" fill="#FF9B48" stroke="black" stroke-width="0.2"/>
<path d="M262.911 822.18L260.146 822.97H258.566L257.381 824.155V826.92L259.356 828.895L260.146 830.475L262.911 833.635V836.005L262.121 837.585L263.306 838.375L264.096 836.005L265.281 837.98L266.071 840.35V841.535L268.441 843.115L268.046 846.671L270.021 847.856V842.72L269.231 836.795L267.651 834.03L264.096 831.66L263.306 830.475V829.685L266.071 831.66L268.046 832.845V829.29L267.651 827.71L268.046 826.92L267.651 825.34L264.886 824.155L262.911 822.18Z" fill="#FF9B48" stroke="black" stroke-width="0.2"/>
<path d="M169.622 13.136L42.1217 12.636V14.636L45.1217 19.136L48.1217 21.136L49.1217 23.636L50.1217 29.636L49.1217 31.636L47.1217 30.136L45.1217 34.136L43.6217 38.636L46.6217 42.136L48.1217 45.636L50.6217 48.636L52.1217 47.636L50.6217 43.636L46.6217 38.136L48.1217 35.136L52.1217 36.636L51.1217 39.136L54.1217 44.136L55.6217 46.636L52.6217 51.636V58.136V63.636L51.1217 69.136L47.1217 71.636L43.6217 75.636H42.1217H39.1217V73.136C39.6217 72.636 40.9217 71.636 42.1217 71.636C43.6217 71.636 45.1217 69.136 47.1217 69.136C48.7217 69.136 49.1217 65.4694 49.1217 63.636V56.636V51.636L45.1217 48.636L42.1217 44.136H40.6217L33.6217 42.136L24.1217 40.136H14.1217L2.62168 34.136L2.12168 35.136L1.12168 36.136V39.136L0.121676 40.136L1.12168 42.136V44.136L2.62168 51.636H6.12168L9.12168 58.136V67.136L11.1217 71.636L13.6217 77.636H16.1217L18.6217 80.636H16.6217L13.6217 82.136L14.1217 86.136L16.1217 88.636L18.6217 86.636L20.6217 88.636C19.7883 89.4694 18.0217 91.136 17.6217 91.136C17.2217 91.136 17.7883 92.136 18.1217 92.636C18.2883 93.4694 18.6217 95.236 18.6217 95.636C18.6217 96.036 17.955 97.136 17.6217 97.636L16.6217 98.9267L16.1217 94.136L15.1217 93.636L14.6217 99.136L15.1217 101.136L16.6217 101.636L18.6217 103.136H21.6217L27.6217 102.636L29.1217 103.136L32.1217 105.636L35.1217 105.136L39.1217 107.636L40.6217 109.636L42.1217 116.636L43.6217 121.136L49.1217 124.136L54.1217 125.136L59.1217 124.136L62.6217 121.136L67.1217 120.136H73.6217L81.1217 121.136H85.6217L89.6217 120.136H97.1217L103.622 117.136L110.622 116.136L112.622 113.636H118.122L124.622 112.636L126.194 111.136H171.122V109.636L172.122 105.136L169.622 100.136V13.136Z" fill="#FF9B48" stroke="black" stroke-width="0.2"/>
</svg>
